<svg id="Layer_1" data-name="Layer 1" xmlns="http://www.w3.org/2000/svg" viewBox="0 0 389.67 410.08"><defs><style>.cls-1{fill:#00e0fe;}.cls-2{fill:#03e0fb;}.cls-3{fill:#03dffb;}.cls-4{fill:#02e0fb;}.cls-5{fill:#03dcf6;}.cls-6{fill:#e76793;}.cls-7{fill:#071013;}.cls-8{fill:#0e0b0b;}.cls-9{fill:#03ddf8;}.cls-10{fill:#080b0d;}.cls-11{fill:#f0f3f4;}.cls-12{fill:#e7ebeb;}.cls-13{fill:#f85c86;}.cls-14{fill:#02eefa;}.cls-15{fill:#abb6b6;}.cls-16{fill:#03dcf4;}.cls-17{fill:#cdd3d4;}.cls-18{fill:#00f1f8;}.cls-19{fill:#01f0f6;}.cls-20{fill:#d5d6d7;}.cls-21{fill:#fdfdfd;}.cls-22{fill:#dbe7ec;}.cls-23{fill:#f3f7f7;}.cls-24{fill:#fafbfb;}.cls-25{fill:#01effd;}.cls-26{fill:#02effb;}.cls-27{fill:#04f1fe;}.cls-28{fill:#090809;}.cls-29{fill:#131313;}.cls-30{fill:#2b2b2b;}</style></defs><path class="cls-1" d="M182.42,452.42c-1.78-7.35,6.91-9.37,7.85-15.33,1.74-7.38.29-13.07-7.94-15.41-4.46-1.26-9-2.62-12.13-6.31-2.54-3-5.91-6.5-2.47-10.26s7.24-.58,10.66,1.25c2.43,1.1,1.5-3.19,1.18-.54,0,.35-.78.53-1.49-.17-3.15-3.17-11-.8-10.75-6.56.33-6.59,7.49-6,12.44-7.16,5.13-1.19,10.42,2.68,15.46-.47,4.61-3.51,8.8-7.24,8.38-13.8,1.76-24.24,6.58-27.42,27.36-17.47,3.93,1.88,7.45,2.47,11.44,1.24,4.48-.84,9.33-3.23,13.18.82,5.3,5.56,23.72,21.48,29.19,22,10.35.93,21.63-1.12,30.54-4.31,7.82-2.79,10.12,0,15,2.78,15.86,9,26.71,3.38,27.18-13.79,8.22-7.19,15.46-7.72,19.52,3.93,8.48,24.35,8.32,24.43,32.17,16.52,3.73-1.24,7.26-3.15,11.4-2.42a6.72,6.72,0,0,1,4.05,3.57c-7,13.44-13.21,27.1-12.5,42.79a11,11,0,0,1-7.37,2.9c-9.69,6.66-8,13.84.22,19.73s13.76,13.53,17.85,22.56a20,20,0,0,1,.6,6.06c-3.4,9.13-1.26,19-4.07,28.2q-2.4,13.53-4.81,27.06c-2.17,20.26-11.09,35.22-32.1,40.72l-11.65,4.76c-7.79,7.27-18.49,7.38-27.67,11.24a44.13,44.13,0,0,1-4.65,3.15c-5.16,2.64-10.34,5.09-16.21,2-2.7-2.5-4.31-5.85-6.69-8.56-12.85-5.82-25.88-4.71-39-1.15-12.54,4.25-10.39,17.56-16.13,26-1.17,3.94-2.86,7.48-6.86,9.37-8.15,3.23-16.63,2.43-25.07,2.13a19.71,19.71,0,0,1-8.77-3c-5.15-9.92,3.3-13.75,8.55-19,3.68-2.37,8.1-3.4,11.52-6.26,1.26-3.89,8.36-8.55-1.7-10.68-21.45-3.78-40.77-10.66-49.66-33.08,1.1-5.71,2.11-11.31,2-17.32-.48-22.37,4-26.61,27.28-27.85,2.6-.14,5.15-.95,7.78-1.14,5.83.55,10.81,3.46,16,5.71,10.94,5.47,21.7,11.5,34.57,11,12.31,2.23,24.59,5.11,37,.4a74.79,74.79,0,0,0,41.68-14.86c15.55-17,14.62-25.37-4.73-41.6-7.37-5.18-15.09-9.27-24.58-8-4.74.16-8.95-1.6-13.11-3.51-6.79-3.27-14.08-2.18-21.21-2.38-6.32,0-12.66-.23-18.78,1.8a47.77,47.77,0,0,1-5.28,1.28,55.35,55.35,0,0,0-20.2,7.05c-5.12,2.4-10.28,4.67-16.18,3.83-7.69-2.76-14.67-16-23.58-.35C204.86,475.52,183.8,459.83,182.42,452.42Z" transform="translate(-106.66 -219.73)"/><path class="cls-2" d="M358.88,369.11c2.19,6.71,4.39,13.41,7.2,22-14.69-6.86-32.57,10.81-43.34-9.59-6.31,15.19-20.37-3.55-24.75,4.28-6.36,11.35-13.23,8.36-17.49,2.14-7.94-11.62-10.7-3.79-13.5,3-8.7-4.85,2.41-11.64-3.75-15.95-6.59.22-5.83,9.31-9.06,10.57-13.55-3.75,17.6-25-11.47-20.32-.87-.58-1.74-1.16-2.62-1.73-6.47-7.56-6.66-17.47-9.92-26.27-2.39-18.66-5-37.32.28-55.93,6.51-22.71,20.87-39.44,40.17-52.41,43-26,101.48,6.43,105.54,58.28,1.86,23.71-4.24,46.19-9.34,68.87A15.7,15.7,0,0,1,358.88,369.11Z" transform="translate(-106.66 -219.73)"/><path class="cls-3" d="M358.88,369.11q2-5.64,3.94-11.27c11.35-20.21,18.94-43.51,43.56-52.85,38-14.58,57.11-8.9,81.13,24.16,9.33,11.19,12.44,23,3.53,36a1.63,1.63,0,0,0-.57,2.57c-1.33,15.05-9.5,25.94-21.15,34.73-6.13,3.69-11.52,8.93-19.25,9.46-1.78,8-10.41,5.24-14.66,9.34l-.28.15c-5.89,8.47-13.05,14.21-24.27,11.22-8.77-18.28,1.34-31.31,12.35-44.08,5.69-5.68,13.76-3.92,20.47-6.5,17.25-6.63,26.08-24.76,19.23-39.88-6.23-13.74-27.51-20.68-41.18-13.43-13.88,7.38-18,28.71-8.69,43.75,3.37,5.43,10.69,8.38,10.27,16.19-9.6,1.55-17.06,8.12-27.25,9.65-14.56,2.19-26.88-4-23.71-18.28C376.08,363.24,367.17,367.93,358.88,369.11Z" transform="translate(-106.66 -219.73)"/><path class="cls-3" d="M242.72,365.22c-4.52,5.53-9,3.71-13.67.11-4.87-3.77-9.16-11.76-16.5-5.63-7,5.82-6.8,13.73-2,21.37-4.69,3.74-11,6-11.95,13.13-1.18,5.67-5.2,9.15-9.54,4.88-6.52-6.42-12.19-.21-21.17-3.14,8.31,8.78,17.36,7.31,25,11.64-9,9.12-15-1.69-21.83-1.32,4.4,8.1,4.36,8.3,15.5,10.69,4.64,1,9.63,1.21,9.85,7.31.17,5.12,4.18,12.57-6.18,12.83l-38.39-24.66c-24.36-6.37-36.67-24.3-44.76-46.32,1.41-9.11-.92-18.23-.37-27.15,1.63-26.83,32.28-48,59.79-42.31,18.5,1.66,32.67,11.25,44.93,24.35,11.36,5,16,15.82,22.17,25.28a50,50,0,0,0,8.59,18.3Z" transform="translate(-106.66 -219.73)"/><path class="cls-4" d="M182.42,452.42c3.65,10.07,21.4,2.67,20.82,20.59,10-28.52,19.44-13.17,28.86-3.41.92,8.16-4.58,13.13-9.21,18.54-1.92,3.93-6.68,7.57-.91,12.11,4.08,3.38,7.83,6.84,3.73,12.58-3.07,2.21-4.33,8.72-8.36,7.19-25.87-9.84-23.5,8-22.15,22.9.55,6-.35,9.74-4.45,13.35-11.11,1.41-3-9.54-7.88-12.17-7.41-6.53-1.27-15.87-4.83-23.2-4-3.89-3.62-8.74-3-13.63-.34-5.76,6.85-11.28.46-17.1-11.33,5.5-11.19,20.41-22,26.13l-10,4.12c-26.9-12.14-29-16.21-20-38.82l-.11.11c7.42-7.75,15.21-6.56,23.19-1l8-5a92.87,92.87,0,0,1,11.54-11Z" transform="translate(-106.66 -219.73)"/><path class="cls-5" d="M430.7,466.13c10.45,8,18.77,19.51,35.48,14.42,7.89-2.4,11.56,4.06,8.81,12.3,4.48,18.35-13.84,18.76-22.23,25.95-5.36,4.6-12.25-3.38-13-10.12-1-9.3-7.28-14.65-12.38-21.08-4.56.31-6.06-3.44-8.3-6.2l-.22-4.59C421,471.25,424.2,466.87,430.7,466.13Z" transform="translate(-106.66 -219.73)"/><path class="cls-6" d="M274.81,532.52c-14.49.7-26.65-5.47-38.36-13-3.89-14.47,2.94-23.14,15.57-28.66.47-6.85,9.83,12.55,7.87-2.72-.72-5.63-.1-11.71,7.24-13.66,16.32-2.82,32.75-4.34,49.09-.92,6,1.27,10.25.22,13.61-4.75,11.08-.2,7.65,8.93,9.88,14.69,1,2.65-5.63,10.4,4.57,7.87,12.27,3.62,16.49,12.1,14.85,24.14-12.51,11.63-27.44,17-44.43,17.09C301.41,532.26,288.11,530.88,274.81,532.52Z" transform="translate(-106.66 -219.73)"/><path class="cls-7" d="M254.41,491.52c-11.34,6-14.9,16.83-18,28-3.27-2.74-8.9-1.74-10.74-6.73l-6.65-12.73c-2.93-5.2-4.56-10.31,1.1-14.88L232.1,469.6l13.14-5.27C255.28,471.06,259.46,479.74,254.41,491.52Z" transform="translate(-106.66 -219.73)"/><path class="cls-8" d="M331.87,470.57c-2.34,3.34,3.86,13.93-5.87,10.18-20.34-7.83-40.34-2-60.48-1.68-3.39-4.18-3.43-8.9-2.31-13.82,2-7.86,11.24-4.18,15-9.24,4.22-4.33,8.76,10.24,12.88-.22,8.39,1.68,16.85.66,25.28.63,2.83,2.12,4.76,6.41,9.5,3.9C333.94,460.23,333.73,464.92,331.87,470.57Z" transform="translate(-106.66 -219.73)"/><path class="cls-9" d="M330.78,624.7c-12.33-5-7.1-15.4-7.48-24.08l15.5-4c4.54,2.14-2,9.38,4.86,10.47,9.78,4.19,31.2-3.2,27.48,12.33-3.24,13.5-23.85,9.28-37.76,5.86,5.27-5.11,11.68-1.68,16.61-2.28,3.6-.13,1-2.22.79-2.08C344.75,625.08,336.84,619.66,330.78,624.7Z" transform="translate(-106.66 -219.73)"/><path class="cls-10" d="M359.13,515.55c-4.14-8.53-7.62-17.5-15.65-23.45-3-10.22-1.15-18.58,9.08-23.77C375.5,482.84,377.45,496.82,359.13,515.55Z" transform="translate(-106.66 -219.73)"/><path class="cls-3" d="M430.7,466.13l-11.82,10.68c-7.59-5.05-10.92-13.61-21.26-17.74-9.65-3.85-1.09-20.37-5.55-32l12.63,6.67c-3.42,9.52,6.28,11.17,9.93,16.45,1.4,3.29,3.28,6.11,7.06,7Z" transform="translate(-106.66 -219.73)"/><path class="cls-11" d="M266.84,461.19c-.44,5.95-.88,11.89-1.32,17.86-.58,4.17-.94,8.36-1.82,12.44-.57,2.64.57,7.33-3.43,7-2.14-.19-3.93-4.49-5.87-7q-4.58-13.61-9.16-27.2c6.19-4.75,13-7.74,21-7.12Q270.07,458.67,266.84,461.19Z" transform="translate(-106.66 -219.73)"/><path class="cls-12" d="M352.56,468.33q-4.55,11.88-9.08,23.77c-1.78,3.2-3.57,6.4-6.05,10.83-6.82-11.16,1.31-23.07-5.56-32.38-1.12-3.9.42-9.36-6-10.23C337,455.63,344.82,461.85,352.56,468.33Z" transform="translate(-106.66 -219.73)"/><path class="cls-13" d="M274.81,532.52c13.32-5.83,26.61-5.95,39.89.11C301.39,536.86,288.1,536,274.81,532.52Z" transform="translate(-106.66 -219.73)"/><path class="cls-14" d="M322.4,590.05l-47.62-1.75C290.86,583.36,306.86,580.52,322.4,590.05Z" transform="translate(-106.66 -219.73)"/><path class="cls-15" d="M316.4,456.42c-8.39,2.5-16.67,8.35-25.43.9a2.41,2.41,0,0,1-1.19-2.38c.16-.91.38-1.37.65-1.37C299.25,453.07,308.3,450.44,316.4,456.42Z" transform="translate(-106.66 -219.73)"/><path class="cls-16" d="M218.73,624.27c-4.81-.54-10.55-2.79-8.14-7.74,3.7-7.59,12-8.41,20-7.46Z" transform="translate(-106.66 -219.73)"/><path class="cls-17" d="M290.43,453.57a13.23,13.23,0,0,0,.54,3.75c-4.36,14.47-8-4-12.15-.26-3,2.22-5.92,2.26-8.7-.4C276.3,451.75,283.42,453,290.43,453.57Z" transform="translate(-106.66 -219.73)"/><path class="cls-3" d="M230.67,381.06c3.33,2.89,7.45,5.79,4,10.73-.68,1-5.2.59-6.83-.64-7-5.26,2.44-6.51,2.82-10.09Z" transform="translate(-106.66 -219.73)"/><path class="cls-18" d="M242.68,604.61l-.27-15.46C250.49,594.17,251.85,599.3,242.68,604.61Z" transform="translate(-106.66 -219.73)"/><path class="cls-19" d="M343.66,607.11c-10.1.42-2.64-7.26-4.86-10.47q.31-2.82.64-5.64C347.6,594.61,343.08,601.52,343.66,607.11Z" transform="translate(-106.66 -219.73)"/><path class="cls-20" d="M270.12,456.66l8.7.4c.07,13.09-7,5.67-12,4.13l-.6-4A6.41,6.41,0,0,1,270.12,456.66Z" transform="translate(-106.66 -219.73)"/><path class="cls-3" d="M230.67,381.06l-9.36-6.46c1.37-1.11,3.15-3.41,4-3.11,4.39,1.48,5.1,5.49,5.32,9.57Z" transform="translate(-106.66 -219.73)"/><path class="cls-21" d="M290.66,254c30.07-3.24,52,10.6,56.9,36,4.71,24.19-9.28,48.05-32.16,54.86-23.83,7.09-48.41-3.9-57.74-26.76-6.33-15.52-6.32-31,4.88-45a3.72,3.72,0,0,1,4.94-.51,16,16,0,0,1,2.84,5.12c2.06,6,1.83,13.73,10.93,14.16a7.29,7.29,0,0,0,6.58-3.69c4.84-7.72-1.41-12-5.45-16.94a11.92,11.92,0,0,1-2-5.17C280.59,259.35,285.7,256.74,290.66,254Z" transform="translate(-106.66 -219.73)"/><path class="cls-1" d="M339.87,368.45c4.85.82,5.18,5.13,6.23,8.38,1.93,5.9-2.3,5.83-6.45,6.1-3.69.25-6.73-.56-7.33-4.31C331.43,373,337.51,372.09,339.87,368.45Z" transform="translate(-106.66 -219.73)"/><path class="cls-22" d="M282.92,265a9.62,9.62,0,0,1-.08,3.21c-2.87,8.46-8.25,9.6-15.5,5.29l-4.8-.38c2.12-5.84,6-10,11.93-12A11.81,11.81,0,0,1,282.92,265Z" transform="translate(-106.66 -219.73)"/><path class="cls-23" d="M282.92,265c-3.37-.11-6.58-.55-8.45-3.89,4.46-4.48,9.71-7.19,16.19-7.09Z" transform="translate(-106.66 -219.73)"/><path class="cls-24" d="M423.31,388.63c-10.19-7.58-20.21-15-21.61-29.33-1.92-19.58,10.29-36.41,28.9-38.73,20.67-2.58,38,10.2,40.21,29.65A34.94,34.94,0,0,1,439.17,389c-5.26.48-10.64-.31-16-.51Z" transform="translate(-106.66 -219.73)"/><path class="cls-24" d="M195.75,351.33c-.45,19.3-15.26,33.78-34.45,33.67a34.48,34.48,0,0,1-34.83-35.51c.3-19.77,16.22-34.29,36.63-33.41C182.63,316.91,196.21,331.58,195.75,351.33Z" transform="translate(-106.66 -219.73)"/><path class="cls-25" d="M178.75,504.79q-.25-9.65-.5-19.3c1.43-1.88,5.33-4.06,5.08-2C182.46,490.64,185.23,498.86,178.75,504.79Z" transform="translate(-106.66 -219.73)"/><path class="cls-26" d="M220.16,485.22q-.56,7.44-1.1,14.88C210.45,494.48,214.25,489.77,220.16,485.22Z" transform="translate(-106.66 -219.73)"/><path class="cls-27" d="M330.78,624.7c7-7.17,15.26-3.32,23.36-1.24l-20.76,1.84-1.45.35Z" transform="translate(-106.66 -219.73)"/><path class="cls-5" d="M421.69,457.16c-2.81.21-2.11,7.73-6.57,3.58-3-2.79-3.3-6.91-.49-10.59A9.55,9.55,0,0,1,421.69,457.16Z" transform="translate(-106.66 -219.73)"/><path class="cls-28" d="M267.34,273.48c6.4,1.84,10.35-3.47,15.5-5.29,11.63,2.9,15.9,10.57,12.41,21.55-2.55,8-9.87,10.71-17.5,8.74C263.9,294.9,264.35,284.5,267.34,273.48Z" transform="translate(-106.66 -219.73)"/><path class="cls-29" d="M443.05,339.08c-.59,7-4.49,11.14-11.14,11.31-7.45.19-12.07-3.82-12.57-11.73-.6-9.34,7.92-8.51,12.68-9.77C439.07,327,442.05,332.78,443.05,339.08Z" transform="translate(-106.66 -219.73)"/><path class="cls-30" d="M168,336.43c-.21,5.53-3.74,9.64-10.72,9.88-7.83.28-12.48-3.79-12.3-11.7.14-6.5,3.76-11.78,10.56-11.68C162.5,323,167.88,326.82,168,336.43Z" transform="translate(-106.66 -219.73)"/></svg>