<svg id="Layer_1" data-name="Layer 1" xmlns="http://www.w3.org/2000/svg" viewBox="0 0 433.65 416.74"><defs><style>.cls-1{fill:#aa499b;}.cls-2{fill:#a7489a;}.cls-3{fill:#e46590;}.cls-4{fill:#e86692;}.cls-5{fill:#a44996;}.cls-6{fill:#9f4691;}.cls-7{fill:#a54995;}.cls-8{fill:#8e4185;}.cls-9{fill:#c154a4;}.cls-10{fill:#88397f;}.cls-11{fill:#df628d;}.cls-12{fill:#e4648f;}.cls-13{fill:#f8f3f7;}.cls-14{fill:#d5d5d5;}.cls-15{fill:#f66d9b;}.cls-16{fill:#652c60;}.cls-17{fill:#9c438e;}.cls-18{fill:#97428a;}.cls-19{fill:#a3438e;}.cls-20{fill:#db628b;}.cls-21{fill:#b64da3;}.cls-22{fill:#a24693;}.cls-23{fill:#87387e;}.cls-24{fill:#903b83;}.cls-25{fill:#b64dac;}.cls-26{fill:#f8fefe;}.cls-27{fill:#f3eaf1;}.cls-28{fill:#e8e0e9;}.cls-29{fill:#85367a;}.cls-30{fill:#d775aa;}.cls-31{fill:#d7d2d6;}.cls-32{fill:#f1e9f0;}.cls-33{fill:#e3d7e2;}.cls-34{fill:#eeebed;}.cls-35{fill:#be94b8;}.cls-36{fill:#a14b91;}.cls-37{fill:#df658e;}.cls-38{fill:#99448e;}.cls-39{fill:#a54998;}.cls-40{fill:#3e3d3e;}.cls-41{fill:#373838;}</style></defs><path class="cls-1" d="M225.91,576l-3.69-4.17c-13.84-3.18-22.94-11.37-26.73-25.16q-2.46-6-4.9-12.08c-15.55-21.4-5.62-47-10.81-72-13.76,6.25-19.74,19.3-31,25.66l-12.56,21-2,1.71-2.13-1.57c-8.9-10.09,2-16.69,5.44-23.43a90.79,90.79,0,0,1,25-30.08c19.7-15.33,32.11-33.9,29-60.25-1-8.29,1.85-15.16,11.8-16.2,9.34,7.75,20.88,6.82,31.89,8,8.37.07,16.74.28,25-1.5,9.27,0,17.67-6.19,27.26-3.91,4.19,3.65,3.78,10.08,9,13.5,8.24,5.46,8.15,12.41.89,18.78s-12.63,2.12-17.51-3.68c-1.93-2.31-3.51-5-6.13-6.68,10.35,16,8.92,38.77,28.81,48.78,7.6.88,12.56-1.31,17-8.58,8.29-13.49,21-21.5,37.22-24,19.4-3,24.52-22.46,36.72-33.76,4.8-4.44,6-11,13.68-4.9A18,18,0,0,1,412,395c-1.61,4.29-9.54,10.09,2.71,11.15,7,3.63,10.48,10.67,15.7,16,8.19,7.85,19.3,13,23.39,24.67-.28,3.2-2.15,5.16-5,6.35-8.74,1.77-4.39,7.18-2.38,10.84,5.86,10.62,7.82,22.22,9.82,33.87-.15,2.52-.29,5-.44,7.55a15.21,15.21,0,0,0-1.21,3.92c-.61,2.54,1.17,5.46-1.23,7.7,3.1-1.64.26-5.82,3.24-7.51l4.67,8.26c3.39,5.6,3.46,11.17-.09,16.72-7.8,15.78-20.32,27.34-34,37.83C420,583.21,408,582.52,397.31,584.85l-2-.12-1.83.85c-14.88,16.42-14.85,16.58,4.23,28l12.48.84c2.43,1.82,5.95,2.83,5.21,7-9.06,7.93-20.74-.09-30.28,4.94l-16.52.48c-7.16-7.52-1.13-16.94-3.57-25.32-1.25-4.32.73-9.63-5.87-10.88-18.87-2.66-37.77-1.86-56.66-.57-5.93,1.73-12.24.74-18.16,2.47-5.41-.21-10.69-2.35-16.23-1.18a18.35,18.35,0,0,1-5.33-.28,12.67,12.67,0,0,1-7.92-6.64l-.09.16c-7.23-2.37-15.3-2.4-21.45-7.73l-7.61-1Z" transform="translate(-101.27 -210.15)"/><path class="cls-2" d="M405.88,383.26c-9.71,10.61-20.83,20.32-28.53,32.22-3.8,5.86-5.86,9.54-13.11,9.89-19.78,1-37.12,4.62-41.82,29.09-.91,4.78-14,4.27-21.75,4.44C297.28,451.8,297,444,297,436.52c-.14-17.21,12-26.37,36-28.08-10.58-14.2-29.66-14.46-41.7-25.9.4-7.87-1.44-14.75-8.68-19.19A29.1,29.1,0,0,1,279,356c-1.37-4.74-5.6-6.58-9.3-9a14.45,14.45,0,0,1-5.1-6.86,9.61,9.61,0,0,1,1.91-8.29c15.91-4,26.38-13.43,26.5-30.39.14-20.54,12.23-24.26,29-22.68,4.39.42,8.17-1.59,12.28-2.23,27.39,7.18,34.28,1.5,35.52-29.37a5.93,5.93,0,0,1,3.94-3.92,24.55,24.55,0,0,1,3.12,1.21c1.8,2.09,4.78,2.8,6.25,5.28,2.42,4.95,2.83,10.6,5.41,15.51,2.37,6,7.93,11,5.71,18.38a21,21,0,0,1-5.95,5.81c-25.07,18.11-24.58,35.71,1.47,51.51,3,1.82,6.19,3.3,8.89,5.58,9.21,8.8,10.14,20.28,10.39,32A9.3,9.3,0,0,1,405.88,383.26Z" transform="translate(-101.27 -210.15)"/><path class="cls-1" d="M334.4,279.9c-2.1,1.75-4.08,4.83-6.33,5-27.93,2.71-30,3.42-27.9,8.51,4.37,10.74-16.22,20-.9,30.86,2.48,1.76-1.25,8.83-3.55,7.33-11-7.18-20.08,4.51-30.22,1.81-8.4,4.4-14.78-2.72-22.23-3.81-2.94-.73-5.83-1.55-8.73-2.41-11.7-4.56-25.11-3.39-36-10.72-1.52-3.21-1.51-6.23,1.14-8.91l3.81-4.87c1.56-2.18,2.13-5.15,5-6.25l3.91-4.94c7.48-15.08,18.32-26.82,33.92-33.8l-.21.06c8.84-6.36,16-13.74,15.7-25.65.42-1.42.85-2.84,1.27-4.26.09-10.76,7.87-14,16.3-16.71,7.34-1.31,14.68-1.64,21.93.61a10.89,10.89,0,0,1,4.65,4,6.15,6.15,0,0,1-1.91,5.37c-3.56,2.37-7.74,2.69-11.81,3.45-9.37,1.74-17.6,5.37-19.1,16s6.85,15.89,13.95,21.23c9.4,7.09,15.1-.69,21.26-6a18.18,18.18,0,0,1,7.07-4.13c3.14,0,5.48,1.57,7.48,3.79,2.71,3.78,3.83,8.39,6.37,12.27S335.12,274.85,334.4,279.9Z" transform="translate(-101.27 -210.15)"/><path class="cls-3" d="M172,327.84c22,14.28,48.15,18.6,71.29,30,5.3,2.62,12.86,1.17,15.78,8.28,0,3.64-1.88,6.2-4.81,8.13-29.64-7.07-59.41-13.41-89.92-15.49,8-6.07,17-1.18,24.32-2.6-10.66-.75-22.51-.9-34.37-.59-2.6-1.07.54.59-1.91-.76-8.67-4.75-24.55-5.1-23.85-16,.89-13.85,16-3.35,24.19-6.91C158.65,329.39,164.56,324,172,327.84Z" transform="translate(-101.27 -210.15)"/><path class="cls-4" d="M172,327.84c-12.83,5.82-23.8,20.24-43,3.09,5,17.3,21.41,11.57,24.08,22.88,1.47.84,2,1.68,1.49,2.54s-1,1.28-1.47,1.28c-18.91-.86-32.43-7.87-33.48-29.13a35.41,35.41,0,0,1-.92-22.84c-.1-6.76.94-12.82,9.08-14.44,8,4.29,15.53,9.45,23,14.5,1.42,2.47.85,7.83,6.49,4.42a4.23,4.23,0,0,1,4,1.72l10,12.48A12.28,12.28,0,0,0,172,327.84Z" transform="translate(-101.27 -210.15)"/><path class="cls-5" d="M132.07,534.5c1,5.65,12.68,13.26,1.36,15.76-5.31,1.18-13.84,11.94-25-2.15-10.86-13.72-9.22-14.9,3.89-18.57,10.79-3,5.23-21.27,19.76-20.17l-.1-.12C138.58,517.64,129.72,526.1,132.07,534.5Z" transform="translate(-101.27 -210.15)"/><path class="cls-6" d="M513.61,517.18l10.28.71c5.39,2.23,15.93,6.16,8.42,11-8.26,5.36-2,14.63-9.39,17.8-8.06,2-12.63-9.64-22.7-4.63-4.82,2.39-5.63-5.93-5.23-10.85,4.25-5.58,2.26-13.87,8.19-18.71C508,511.12,509.72,516.55,513.61,517.18Z" transform="translate(-101.27 -210.15)"/><path class="cls-7" d="M305.08,214.86l12,5h0q3.8.48,3.33,4.26a5.29,5.29,0,0,0,1.73,3.57c3.52,3.3,6.76,7.4,12.51,4.35,14.68-2,29.44-4.23,39.12,11.18-.89.81-1.79,1.6-2.69,2.38-14.9-1.53-31-9.73-42.37,7.86-2.13,2.13-4.55,3.62-7.68,3.59l-3.42-4c-6-10.67-11-21.68-12.65-34Z" transform="translate(-101.27 -210.15)"/><path class="cls-8" d="M402.42,303.63c-.12,9.42,23,16.69-1.94,27.73l22.11,6.3c1.48,9.29-7,9-11.83,12.19-4.65,2.45-7.71-.27-10.71-3.23A27.23,27.23,0,0,1,394.14,330c1.64-7.41-1.06-14.85,0-22.29a12.2,12.2,0,0,1,2.88-4.95A5.33,5.33,0,0,1,402.42,303.63Z" transform="translate(-101.27 -210.15)"/><path class="cls-9" d="M224,623.3c-2.45-.94-4.67-2.1-3.64-5.33,1.18-3.73,4.52-3.78,7.59-4.23,11.17-4.58,23.82,3.72,34.63-4q.24-10.28.47-20.54c1.2,0,2.39,0,3.59,0,3.4,11.1,5.09,22.22.23,33.38l-1.54.79-1.73-.13A106.32,106.32,0,0,1,224,623.3Z" transform="translate(-101.27 -210.15)"/><path class="cls-10" d="M401.87,345.42l8.89,4.43c.75,10.83,9.51,7.23,15.53,8.57,2.67,12.17-12.89,11.07-14.66,20q-2.43,2.93-5.46.63c-2-10-2.38-20.48-8.4-29.34C396.22,345.49,398.14,344.6,401.87,345.42Z" transform="translate(-101.27 -210.15)"/><path class="cls-11" d="M254.3,374.29c.19-3.54,1.3-6.54,4.81-8.13,8-4.07,16.34,5.52,24.3-.56,4,3.31,4.2,7.48,2.69,12-6.65,6.78-14.18,10.07-23.6,5.85a11,11,0,0,1-4.24-4.91Z" transform="translate(-101.27 -210.15)"/><path class="cls-12" d="M161.38,311.86l-4.07-.06c-4.8,2.6-6-1.9-8.37-4.18-10.32-1.26-16.12-8.31-21.11-16.4C144.32,289.52,154.52,298,161.38,311.86Z" transform="translate(-101.27 -210.15)"/><path class="cls-13" d="M258.26,378.57l4.54,1.53c2.9,3.51,3.58,7,0,10.53l-29.37.22c-2.69-2.42-2.64-4.91-.16-7.44C241.48,381.22,251.06,386,258.26,378.57Z" transform="translate(-101.27 -210.15)"/><path class="cls-14" d="M233.26,383.41c.05,2.48.11,5,.16,7.44-10.6-2.28-24.12,3-30-11.44Z" transform="translate(-101.27 -210.15)"/><path class="cls-15" d="M153.15,357.63c0-1.27,0-2.54,0-3.82A81,81,0,0,1,191,357.14l-26.64,1.66Z" transform="translate(-101.27 -210.15)"/><path class="cls-16" d="M266.82,622.64q-.1-16.7-.23-33.38c4.21-5,8.59-5.77,13.18-.48-9.22.37-9.08,6.43-8,13.06,0,2.78,0,5.55,0,8.33,2.75,4.41,2.89,8.62-1,12.5l-2,.2Z" transform="translate(-101.27 -210.15)"/><path class="cls-17" d="M414.31,619.08c4.79.83,4.33,4.32,4,7.76l-33.19-.42C393.33,618,406.16,627.79,414.31,619.08Z" transform="translate(-101.27 -210.15)"/><path class="cls-18" d="M224,623.3h39.6c-12.22,5.3-25.31.63-37.76,3.24A31.23,31.23,0,0,1,224,623.3Z" transform="translate(-101.27 -210.15)"/><path class="cls-19" d="M502.48,513.65q-2.14-3.39-4.3-6.78a5.82,5.82,0,0,1,1.57-7.64,6.57,6.57,0,0,0,3.38.08l10.47,17.86Z" transform="translate(-101.27 -210.15)"/><path class="cls-20" d="M118.75,305.66q.47,11.41.92,22.84C113.11,321.14,114.31,313.46,118.75,305.66Z" transform="translate(-101.27 -210.15)"/><path class="cls-21" d="M456.61,509.53v11.84c-3.71-5.36-6-10.71-.8-15.95C456.08,506.79,456.35,508.16,456.61,509.53Z" transform="translate(-101.27 -210.15)"/><path class="cls-2" d="M292.41,379.6c15.61,7.15,31.75,13.26,45.63,23.81,3,2.27,9.33,1.92,6.42,7.84-1.24,2.51-5.24,4.63-8.28,5.12-30.83,5-30.77,4.89-32.29,34.9-.13,2.59-2.11,5.09-3.22,7.63-16.68-6.29-18.32-22.74-24.44-36.1-3.72-8.11-7-16.43-10.5-24.9,11.63-5.71,14.25,3.52,18.11,10.6,2.58,4.72,5.52,8.55,11,3.41,4.69-4.36,7.56-9.53-.64-12.61-9.17-3.44-7.22-10.07-6.45-16.74a2.93,2.93,0,0,1-.9-3c.32-1,.64-1.47.95-1.47A4.36,4.36,0,0,1,292.41,379.6Z" transform="translate(-101.27 -210.15)"/><path class="cls-22" d="M481.23,484.49l-34.49-33.25,5.56-4.36c15.69,5.87,22.05,22,34.71,31.25C488.51,483.34,486.28,485.19,481.23,484.49Z" transform="translate(-101.27 -210.15)"/><path class="cls-23" d="M406.17,379.05l5.46-.63c33.08-1.53,8.77,15.73,8.3,25.18a4.81,4.81,0,0,1-4.88,2c-3.94-2.19-4.67-5.83-4.53-9.87l-4.64-12.51C406,381.86,406.07,380.45,406.17,379.05Z" transform="translate(-101.27 -210.15)"/><path class="cls-24" d="M414.58,404.24l5.35-.63h18.15c.12,10.45-8.85,14.34-11.73,21.64L414.5,408.46c-1.06-1-1.4-1.9-1-2.83S414.22,404.24,414.58,404.24Z" transform="translate(-101.27 -210.15)"/><path class="cls-25" d="M359.61,588.93c-19.61,2.77-39.21,2.37-58.82,0A93.54,93.54,0,0,1,359.61,588.93Z" transform="translate(-101.27 -210.15)"/><path class="cls-2" d="M414.58,404.24c0,1.41-.05,2.82-.08,4.22-5.84-.81-12.09,1.84-17.92-2,1.89-7.38,9.24-7.33,13.93-10.66Q412.55,400,414.58,404.24Z" transform="translate(-101.27 -210.15)"/><path class="cls-26" d="M288,379.25a21.58,21.58,0,0,0-.23,3.31c-7.66,4.75-15.68,8.39-25,8.07q0-5.26,0-10.53c7.6,6.19,14-.67,20.95-1.89A3.05,3.05,0,0,1,288,379.25Z" transform="translate(-101.27 -210.15)"/><path class="cls-27" d="M325.37,252.69c13.65-20.87,23.82-22.44,45.71-7.05,6.66,13.59,5.56,26.2-6.7,35.77-9.82,7.67-20.4,7.21-30-1.51l-9.08-10c-1.19-3.09.37-5,2.77-6.45,7.31-5.93-3-3.27-2.92-5.74A4.55,4.55,0,0,1,325.37,252.69Z" transform="translate(-101.27 -210.15)"/><path class="cls-1" d="M401.87,345.42q-2,2.15-4.1,4.28c-1.86-.89-3.64-2.1-5.6-2.62-16.48-4.38-27.08-15.18-27.71-31.78-.7-18.23,12-27.74,28.39-32.79a5.62,5.62,0,0,1,2.88,4.43c2.78,5.26,2.85,10.8,1.67,16.46-.08,1.27-.11,2.54-.11,3.81-9.2,7.28-2.46,14.34.31,21.46Z" transform="translate(-101.27 -210.15)"/><path class="cls-28" d="M267.87,341.33c-1.1,2.71-2.57,9.11-3.4,7.43-4.84-9.69-17.59-6.16-22.38-14.71-3.41-4.72-.44-6.85,3.51-8.59l19.91,8C266.29,336.08,267.08,338.7,267.87,341.33Z" transform="translate(-101.27 -210.15)"/><path class="cls-29" d="M393.49,286.53c-.15-1.35-.37-2.69-.64-4-1.62-6.14-8.62-9.84-7.79-17.09,3.41-4,7.23-6.73,12.74-3.82,10.8.5,8,6.41,5,12.41-3.31,3.4-5.64,7.15-4.44,12.18C396.81,287.78,395.21,288,393.49,286.53Z" transform="translate(-101.27 -210.15)"/><path class="cls-30" d="M288,379.25l-4.26-1q-.17-6.31-.34-12.61a8.9,8.9,0,0,1,.73-3.56c8.1,3.34,21.85,4,8.27,17.55Z" transform="translate(-101.27 -210.15)"/><path class="cls-31" d="M283.92,355.28c-7.51.45-16.55,2.73-12.54-10.5C278.69,344.58,284.11,346.6,283.92,355.28Z" transform="translate(-101.27 -210.15)"/><path class="cls-32" d="M305,219.16c11.25,8.72,15.26,20.11,12.65,34-9.25,6.8-14.14,23.12-30,15.77-13.07-6.08-24.55-15.52-19.63-32.16C273.45,218.32,288.36,216.11,305,219.16Z" transform="translate(-101.27 -210.15)"/><path class="cls-33" d="M232.85,329.34c-13.57,1.93-30.31,12.16-33.64-12.75,13.52.12,27,.51,39.44,6.87A7.39,7.39,0,0,1,232.85,329.34Z" transform="translate(-101.27 -210.15)"/><path class="cls-7" d="M279.59,215.1c8.51-4.27,17-8.09,25.61-.17Z" transform="translate(-101.27 -210.15)"/><path class="cls-34" d="M232.85,329.34l5.8-5.88,6.95,2-3.51,8.59C234,342.28,233.5,335.65,232.85,329.34Z" transform="translate(-101.27 -210.15)"/><path class="cls-35" d="M329.55,265.52l-4.23,4.39c-4.41-3.28-3.65-8.28-4.29-12.82,1.45-1.47,2.89-2.94,4.34-4.4q.58,2.94,1.16,5.9C329.67,260,331.65,261.86,329.55,265.52Z" transform="translate(-101.27 -210.15)"/><path class="cls-36" d="M481.23,484.49l5.78-6.36c6.95,5.41,10.26,13,12.74,21.1q-.78,3.81-1.57,7.64c-1.24-.49-2.46-1-3.65-1.64Q487.89,494.87,481.23,484.49Z" transform="translate(-101.27 -210.15)"/><path class="cls-37" d="M148.94,307.62l8.37,4.18c-2.07,4.23-4.66,8-9.69,9.9C143.27,316.51,150.51,312.38,148.94,307.62Z" transform="translate(-101.27 -210.15)"/><path class="cls-18" d="M262.53,609.78c-10.09,14-23.17,1.87-34.63,4C238.63,605.39,251.12,612.3,262.53,609.78Z" transform="translate(-101.27 -210.15)"/><path class="cls-38" d="M393.49,286.53l4.83-.34c5.54,0,10.29,2.1,14.67,5.27,1,8-4.25,10.53-10.57,12.17l-5-.23C391.6,298.81,394.05,292.33,393.49,286.53Z" transform="translate(-101.27 -210.15)"/><path class="cls-2" d="M397.6,328.67c-6-3.62-12.41-7.44-11.75-15.42.54-6.57,6.95-5.21,11.45-6C396.46,314.37,402.25,321.45,397.6,328.67Z" transform="translate(-101.27 -210.15)"/><path class="cls-39" d="M351.62,374.85c-10.39.6-16.56-4.32-15.33-14.58.55-4.57,1.21-14.59,7.44-12.69,9.74,3,18.85,11.06,21,21.22C366.15,375.19,357,374.38,351.62,374.85Z" transform="translate(-101.27 -210.15)"/><path class="cls-40" d="M329.55,265.52l-3-6.93c3.94-4.71,8.43-8,13.88-2.58,1.53,1.53,2.41,5.6,1.45,7.33C339,268.52,334.41,269,329.55,265.52Z" transform="translate(-101.27 -210.15)"/><path class="cls-41" d="M286.16,241.94c-.65,3.54-2.23,6.59-6.05,7.17-4.75.73-8.11-1.6-9-6.3-.73-4,1.78-6.76,5.51-7.21C281.22,235.05,284.4,237.71,286.16,241.94Z" transform="translate(-101.27 -210.15)"/></svg>