<svg id="Layer_1" data-name="Layer 1" xmlns="http://www.w3.org/2000/svg" viewBox="0 0 417.1 542.13"><defs><style>.cls-1{fill:none;stroke:#dd678f;stroke-linecap:round;stroke-miterlimit:10;}.cls-2{fill:#e86792;}.cls-3{fill:#e76692;}.cls-4{fill:#e66994;}.cls-5{fill:#e36590;}.cls-6{fill:#e86e98;}.cls-7{fill:#e36690;}.cls-8{fill:#e2648f;}.cls-9{fill:#e36d95;}.cls-10{fill:#e46590;}.cls-11{fill:#dd678f;}.cls-12{fill:#de678f;}.cls-13{fill:#e0648e;}.cls-14{fill:#e2648e;}.cls-15{fill:#f66b9a;}.cls-16{fill:#e96290;}.cls-17{fill:#fe76a4;}.cls-18{fill:#f5739f;}.cls-19{fill:#f76d9c;}.cls-20{fill:#e56490;}.cls-21{fill:#080505;}.cls-22{fill:#dc648d;}.cls-23{fill:#fb6d9d;}.cls-24{fill:#e76993;}.cls-25{fill:#fb699b;}.cls-26{fill:#fcfbfc;}.cls-27{fill:#e26b93;}.cls-28{fill:#8f475f;}.cls-29{fill:#fb74a1;}.cls-30{fill:#ea719a;}.cls-31{fill:#edebec;}.cls-32{fill:#1c1c1c;}.cls-33{fill:#f1f2f1;}</style></defs><path class="cls-1" d="M393.7,253.42c6-5.55,22.37-22.22,26.76-49a84.37,84.37,0,0,0-2.23-36.79" transform="translate(-116.29 -140.17)"/><path class="cls-2" d="M418,680.42c-43.7,3.85-44.17,3.93-50.85-35-1.57-9.13-4.86-11.2-13.13-10.86-14.64.59-29.51,1.91-43.92.1C288,631.89,271.19,632,276,662.21c1.41,8.92-5.28,17.38-14.84,18.4-18.77,2-37.83,3.62-56.15-3.63-4.94-2-9.9-4.07-10-10.23-.09-6.42,5.55-8.45,10.19-10,6.5-2.17,13.43-3,20.14-4.59s17,2.94,17.42-9.6c.34-10.23.89-19.29-11.57-25.44-47.39-23.39-61.45-64.25-56.59-113.9.32-3.25,2.21-6.35,3.36-9.52,4.32,2.1,2.59,6.59,3.92,9.87-1-4.46,1-9.65-3.17-13.35q.13-7.62.28-15.25c2.75-15.75,7.63-31.13,8.37-47.25,17.87-11.74,36.57-22.3,53-36.16,12.49-2,25.72-7.59,34.51,7.66,3,5.23,8,6,13.5,3.94,3.22-1.23,8.25-4.33,9.51-3.05,22.49,22.73,46.18-9,68.85,1.75,4.77,2.26,7.65-2.54,10.07-6,9.2-13,37.82-9.33,31.09-36A42.11,42.11,0,0,1,424.06,336c8-3.34,8.09-13.5,15.1-17.73,6.84,11.63,4.45,25,6.76,37.44S449,381,451,398.34c33.55-44.09,47.1-91.68,55.81-141.24a50.68,50.68,0,0,0,0-30.8,7.42,7.42,0,0,1-.87-4.88c-6.28-12.63-22.66-16.67-26.68-31.21-8.15-3.48-13.14-10.16-8.88-17.92s13.82,1.07,16.43-.06c13.66-5.93,26.15-15.35,25.24,10.84,1.6,6.29,7.58,8.63,11.55,12.79q-3.24,11.23-6.49,22.47a176.51,176.51,0,0,1,0,56.65c-12.17,52.66-26.33,104.54-56.49,150.53-6,9.15-.61,18,2.75,26.76C471.28,473,481,493.2,480.12,516.19a39.55,39.55,0,0,0,.07,31.06c2.09,20.81-11.39,35.25-21.08,51.24-2,5.83-5.52,9.87-12.25,10l-8.16,1.16c-3.25.07-5.26,1.48-5.39,4.93-1,1.22-1.84,3.17-3.13,3.56-12.61,3.86-28.16,4.43-28.58,22.8-.46,20.27,20.57,4.89,26.41,15.17-4.83,4.65-11.27.79-17.35,3.34,7.95-1.95,15.57,1,22.52-2.45,6.29-2.54,10.24,3.17,15.48,4.34,6.72,7.64.23,11.32-4.66,15.48l-10.28.56C428.1,676.52,422.67,676.64,418,680.42Z" transform="translate(-116.29 -140.17)"/><path class="cls-3" d="M428.47,339.9c-9.27,3.54-11.1,12.84-15.63,20.05-18.47,8.66-33.35,26.12-56.43,23.45-6.64-.77-11.72,1.44-16.29,5.61-7.62,7-15.21,6.45-23.07.44-3.37-2.57-7.47-6.64-11.35-4.75-26.47,12.9-32.06-7.49-40.06-24.31,2.38-12,11.59-15.88,21.92-18.46,8.94-.11,16.52,4.61,24.76,7.06,24.14,7.17,47.24-1.67,60.41-23.05,12.36-20.07,9.72-43.6-6.91-61.87-5.78-6.35-13.47-10.95-17.59-18.87-10.92-28.79-10.62-29.55,12.75-32a8,8,0,0,1,6,3c2.11,1.7-4,6.51,1.24,5.79,3-.41,6-4.46,10.1-5.1,9.37-.57,17.23,2.83,24.08,9,12.28,27.6,35.15,50.73,35.42,83.41C433.89,319.24,438.36,331.75,428.47,339.9Z" transform="translate(-116.29 -140.17)"/><path class="cls-4" d="M241.75,396.88c-2.45.74-6.66.95-7.09,2.32-6.81,21.94-27.67,22.13-44.25,28.9-23.45-8.38-23.82-33.12-35.6-49.79-2.05-9.35-6.38-18.14-7.28-27.82-3.69-27.17-19.13-52-16-80.55-2.9-16.68-3.25-33.35.24-50a3.48,3.48,0,0,1,.58-4.08c5.86-2.2,9.18.68,11.41,5.7-6.93,35.27-.44,69,11.5,102.2,10.09,6.05,8.71,17.8,13.3,26.58.92,3.88-.44,8.86,5.11,10.5,11.49,7.36,13,24.35,27.74,28.38,3.46-2.67,4.2-6.68,5.36-10.47,2.5-7.65,1.7-15.77,3.6-23.48,2.43-4.26,2.3-9,2.85-13.69,6.41-5.65,13.08-4.12,19.84-.74,4.06,5.14,5.95,11.23,7.83,17.35C242.22,371.06,250,383.8,241.75,396.88Z" transform="translate(-116.29 -140.17)"/><path class="cls-5" d="M143.73,221.56l-11.41-5.7c-4.89-9-10.24-17.86-14.46-27.19-2-4.52-2.72-10.3,2-14.26s7.44-.18,10.48,3c8.67,9.07,5.85-1.07,7.09-4.32,4.51-11.78,8.15-20,17.43-2,4.93,9.57,15.07-9.48,23.18,1,8.31,10.69-9.81,15.2-4.9,24.49,12.4,23.45,12,24.11-16.47,24.59C152.33,221.21,148,221.42,143.73,221.56Z" transform="translate(-116.29 -140.17)"/><path class="cls-6" d="M288.81,345l-21.54,16.08c-13.56,17.83-18.08,16.23-30.27-10.66-1.11-5.65-2.66-11.15-6.28-15.83-2.62-3.52-5.57-6.82-7.89-10.58-2.86-6.14-3.94-12.75-5.2-19.32a9.58,9.58,0,0,1,1.75-6.37q3.3-7.52,6.61-15c14.33.4,17.84,10.6,20.46,22,3.32,14.45,10.13,24.16,27.32,17.81C284.29,326.62,289.54,333.75,288.81,345Z" transform="translate(-116.29 -140.17)"/><path class="cls-7" d="M246.23,226.59c18,12.33,24.24-16.82,40.29-11.32,4.38-1.63,8.79-3.43,12.51,1.29a8.7,8.7,0,0,1-.27,6.5c-5.56,8.82,2.26,16.86,1.59,25.43-2.58,8.21-8.92,10.7-16.72,11-14.17-6.71-20.64,5.53-29.46,12-8.72,4.86-16.51,4.19-23-3.88,5.9-11.46,15.43-21.87,10.53-36.43A7.64,7.64,0,0,1,246.23,226.59Z" transform="translate(-116.29 -140.17)"/><path class="cls-8" d="M231.14,267.61c6.84.34,13.67,5,20.5,0,12.86,9.45,1.18,29.42,16.39,37.83a25,25,0,0,1,6.69,8.42c1,3.69.86,7.14-2,10,.3,11.23-10.39,10.32-14.49,8.8-9.56-3.53-19.78-13.78-18.34-21.85,2.63-14.75-7.27-19.55-13.89-27.59C225.36,277.28,227.46,272.19,231.14,267.61Z" transform="translate(-116.29 -140.17)"/><path class="cls-9" d="M306.84,199c1.78-10.92,14.23-.95,17.53-8.9,16.58-6,16,7.21,18.76,16.66-11,12.61,4.32,25.43-.26,38.14-8.23,3.9-16.75,3.39-25.34,1.73-13.76-3-23.1-9.39-19.17-25.61l0,0c3.44-3,2.5-7.53,3.94-11.22C304.44,206.45,306.77,203.2,306.84,199Z" transform="translate(-116.29 -140.17)"/><path class="cls-10" d="M479.26,190.21c5.15,13.58,34.11,6.93,26.68,31.21-5-.39-10-1-15-1.12-10.26-.15-21.95.4-26.44-10.42C459.39,197.59,477.57,199.38,479.26,190.21Z" transform="translate(-116.29 -140.17)"/><path class="cls-11" d="M428.85,172.74a9,9,0,0,1-15.33.56,1.09,1.09,0,0,1-.13-.17c-.93-1.28-1-1.25-2.06-2.67-4-5.52-8.64-11.64-7.15-17.74.92-3.81,3.81-7.24,8.88-10,11.85-6.54,18.38.73,22.77,10.26a8.93,8.93,0,0,1-.38,8.11Z" transform="translate(-116.29 -140.17)"/><path class="cls-12" d="M231.37,210.54c-5,.06-10.36,1.17-15.06,0-8.41-2.2-12.54-8.71-11.23-17.3s7.33-13.52,15.85-13.54,14.63,4.81,15.38,13.63c.49,5.78-.89,11.7-1.43,17.56Z" transform="translate(-116.29 -140.17)"/><path class="cls-13" d="M345.14,241.43c-7.86-10-26.67-18.87-3-31.8,4.48-2.36,8.91-1.93,13.3.26l5.28.77c5.06-1.88,5.93.82,5.46,5-28.2-5.44-14.31,16-17.23,26.76l-2.22.79Z" transform="translate(-116.29 -140.17)"/><path class="cls-10" d="M523.6,195.86c-8.43-.15-22.7,4.95-11.55-12.79,7.23-1.27,8.4-17.43,16.83-10.1C536.21,179.35,534.71,190.28,523.6,195.86Z" transform="translate(-116.29 -140.17)"/><path class="cls-10" d="M517.11,275V218.34C524,237.21,523.23,256.1,517.11,275Z" transform="translate(-116.29 -140.17)"/><path class="cls-14" d="M131.74,219.94l-.24,50C125.85,253.24,125.29,236.58,131.74,219.94Z" transform="translate(-116.29 -140.17)"/><path class="cls-15" d="M428.47,339.9l9.33-30.62c.45,3,.91,6,1.36,9C436.68,326,443,338.05,428.47,339.9Z" transform="translate(-116.29 -140.17)"/><path class="cls-16" d="M306.84,199c9.51,6.83,5.88,10-3.26,11.65a8.2,8.2,0,0,1-4.65-5.15c-1.32-3.47-4.42-9.48-3.67-10C299.86,192.28,303.45,196,306.84,199Z" transform="translate(-116.29 -140.17)"/><path class="cls-17" d="M231.37,210.54a5.06,5.06,0,0,0,3.51.3l11.35,15.75-4.56,4.59C235.69,225.56,230.08,219.76,231.37,210.54Z" transform="translate(-116.29 -140.17)"/><path class="cls-18" d="M418,680.42c3.27-11.09,8.68-11.35,15.76-3.09C429.1,681.58,423.59,681.32,418,680.42Z" transform="translate(-116.29 -140.17)"/><path class="cls-19" d="M433.18,657c-8,6.58-16.72,4.64-26.66,2.46,7.31-5.74,14.79-1.9,21.49-3.35Z" transform="translate(-116.29 -140.17)"/><path class="cls-20" d="M506.81,226.3q10.52,15.39,0,30.8Q506.82,241.7,506.81,226.3Z" transform="translate(-116.29 -140.17)"/><path class="cls-21" d="M450.16,624.91" transform="translate(-116.29 -140.17)"/><path class="cls-22" d="M298.93,205.5l4.65,5.15c2.58,5.6,4,10.62-5.2,10.35-2.62-4.65-7.27-5.12-11.86-5.73C289.76,210.88,297.79,212.54,298.93,205.5Z" transform="translate(-116.29 -140.17)"/><path class="cls-23" d="M480.19,547.25c-7.93-10.33-7.86-20.69-.07-31.06C482.93,526.54,483.35,536.89,480.19,547.25Z" transform="translate(-116.29 -140.17)"/><path class="cls-19" d="M178.69,490.22c7.09,5.57,6.09,12.6,3.82,20.34-6.75-4.57-1.88-11.71-4.57-16.86A2.4,2.4,0,0,1,178.69,490.22Z" transform="translate(-116.29 -140.17)"/><path class="cls-24" d="M433.31,614.53c-3-.63-8.42-.11-6.2-4.83,2.69-5.7,7.64-6,11.59-.1Z" transform="translate(-116.29 -140.17)"/><path class="cls-21" d="M459.11,598.49" transform="translate(-116.29 -140.17)"/><path class="cls-21" d="M446.86,608.44" transform="translate(-116.29 -140.17)"/><path class="cls-21" d="M454.19,614.56" transform="translate(-116.29 -140.17)"/><path class="cls-25" d="M374.64,650.26c-4.06-4.77-4.09-9.64-1.63-15.09C379.33,639.91,374.17,645.47,374.64,650.26Z" transform="translate(-116.29 -140.17)"/><path class="cls-26" d="M345.14,241.43a4.54,4.54,0,0,0,3.78,1c31.52,20,42.84,40.8,37.49,69-4.53,23.89-25.51,42.36-51.88,46.75-17.62,2.93-31.45-5.52-45.72-13.23q-8.06-10.53-16.1-21.05l-.75-9c-3.55-7.89-6.87-15.84-6.3-24.77,1.51-12.95,1.88-26.55,17.56-31.7l14.72-11.76c4-5.23,9.48-6.53,15.71-5.75Z" transform="translate(-116.29 -140.17)"/><path class="cls-13" d="M366.06,215.61l10,.28a30,30,0,0,1,2.35,4c-1.92,1.59-4.38,2.85-5.67,4.85-2.86,4.43-2.44,13.18-11.55,8.5-2.8-1.44-6.27-4.43-6.66-7.11C353.37,218,364.93,222.24,366.06,215.61Z" transform="translate(-116.29 -140.17)"/><path class="cls-27" d="M216.11,340.24c-.45-9.24-1.5-18.57,3.79-27,4.66,2.41.94,9.07,5.81,11.37,4.51.25,8.4,1.44,9.78,6.43-3.53,2-.37,8.09-5.57,9.09C225.35,343.72,220.74,343.64,216.11,340.24Z" transform="translate(-116.29 -140.17)"/><path class="cls-28" d="M229.92,340.12c.91-3.61,1.15-7.64,5.57-9.1l5.09,15.18c-4.74,1.6-3.67,6.09-4.75,9.51C230.26,351.87,231.66,345.41,229.92,340.12Z" transform="translate(-116.29 -140.17)"/><path class="cls-27" d="M210.94,381.33l-1.26-10.16q.58-7,1.2-14,1.85-1.81,3.69-3.66C214.33,362.88,218.43,372.85,210.94,381.33Z" transform="translate(-116.29 -140.17)"/><path class="cls-29" d="M225.71,324.6c-10,.32-2.63-8.21-5.81-11.37L221,304C228,309.68,224.89,317.58,225.71,324.6Z" transform="translate(-116.29 -140.17)"/><path class="cls-30" d="M283.22,258.45c-5.86,8.89-12,17.67-11.28,29.08-4.85,6.46.57,15.14-4.66,21.52-28.89-4.93-5.76-29.37-15.64-41.43C261.92,263.71,263.89,231.36,283.22,258.45Z" transform="translate(-116.29 -140.17)"/><path class="cls-22" d="M313.65,240.94l-15.71,5.75c1.78-8.53-27.76-17.56.42-25.67C304.81,226.62,302.92,238.6,313.65,240.94Z" transform="translate(-116.29 -140.17)"/><path class="cls-31" d="M267.28,309.05c1.31-7.22-1.7-15.38,4.67-21.52q0,13.7,0,27.39Z" transform="translate(-116.29 -140.17)"/><path class="cls-32" d="M323.69,288.06c-7.48,6.54-16.46,6.21-25.51,5.52-12.43-6.51-8.84-16.3-5.36-26.07l5.42-2c7.12-5.68,15-9,22.75-2.22C329,270.25,329.46,279.07,323.69,288.06Z" transform="translate(-116.29 -140.17)"/><path class="cls-33" d="M323.69,288.06c2.09-25.58-2.59-29.73-25.45-22.59,12.9-17.14,23-17.75,31.27,4.17C335.45,285.35,336.28,285,323.69,288.06Z" transform="translate(-116.29 -140.17)"/><path class="cls-31" d="M292.82,267.51c-2.62,9.59-1.62,18.44,5.36,26.07-7.59,4.35-12.44,2.1-15.62-5.87C278.24,276.88,288.3,273.68,292.82,267.51Z" transform="translate(-116.29 -140.17)"/></svg>