<svg id="Layer_1" data-name="Layer 1" xmlns="http://www.w3.org/2000/svg" viewBox="0 0 523.01 496.42"><defs><style>.cls-1{fill:#1cc9fe;}.cls-2{fill:#1cc9fc;}.cls-3{fill:#020202;}.cls-4{fill:#0f0f0f;}.cls-5{fill:#0f1011;}.cls-6{fill:#368b8d;}.cls-7{fill:#020404;}.cls-8{fill:#39898d;}.cls-9{fill:#1bbbe2;}.cls-10{fill:#1dd1ea;}.cls-11{fill:#030506;}.cls-12{fill:#1cc5eb;}.cls-13{fill:#27c0de;}.cls-14{fill:#1ebee7;}.cls-15{fill:#1ab8de;}.cls-16{fill:#19b9e0;}.cls-17{fill:#e86792;}.cls-18{fill:#372a2a;}.cls-19{fill:#f4f7f7;}.cls-20{fill:#eff2f6;}.cls-21{fill:#1cc6ed;}.cls-22{fill:#22e2f3;}.cls-23{fill:#bccecf;}.cls-24{fill:#3a8b8b;}.cls-25{fill:#18cbfb;}.cls-26{fill:#2f2119;}.cls-27{fill:#e3779d;}.cls-28{fill:#3c3037;}.cls-29{fill:#d5d5e0;}.cls-30{fill:#f5f9fa;}.cls-31{fill:#d3eef5;}.cls-32{fill:#bee4ee;}.cls-33{fill:#21cafb;}.cls-34{fill:#438d90;}.cls-35{fill:#318c87;}.cls-36{fill:#e6e8ea;}.cls-37{fill:#030404;}</style></defs><path class="cls-1" d="M484.13,336.68a1.09,1.09,0,0,0-.2-.25.88.88,0,0,0-.25-.2,8.75,8.75,0,0,0-4.2-2.73,4,4,0,0,0-1.11-.3h-.1c-11.82-1.77-21.76,22.22-34.89,2.62-5.41-5.35-6.87-12-6.17-19.24-2.22-11.66-2.52-24.19-12.82-32.62-.16-.15-.31-.25-.51-.41-.76-.4-1.56-.8-2.37-1.21-7.22-3.63-14.95-6.16-22.27-9.49-.61-.25-1.17-.51-1.77-.81a6.53,6.53,0,0,0-1.31-.35,16.59,16.59,0,0,0-2.68-.71,30.45,30.45,0,0,0-3.08-.56.18.18,0,0,0-.15.05c-7.43,1.67-20.25-3.88-16.42,12.63a4.87,4.87,0,0,0,1.11,1.11c-.55-.3-1.11-.61-1.66-.86-5.76-1.92-10.46-.5-14.09,4a5.19,5.19,0,0,0-.66.81c-.35,1-.76,2-1.21,3-4.95,11.36-14.24,20.45-18.13,32.42-.15.36-.3.76-.41,1.11,0,.05,0,.16,0,.21a14,14,0,0,0,1.77,6.51c.05,0,.05,0,.1,0h0a1.2,1.2,0,0,0,.36.35c5.05,4.05,11.36,5.46,16.81,8.59a.2.2,0,0,1,.16,0,27.57,27.57,0,0,1,2.47,1.62,2.72,2.72,0,0,0,.61.2h.05a14.67,14.67,0,0,0,5.7,1.16c1.16-.1,2.33-.25,3.49-.4a36.86,36.86,0,0,1,4.75-.41h.05a8.67,8.67,0,0,1,1.61-.05s0,.05.05,0a19.45,19.45,0,0,1,4.19.61c.61.2,1.27.45,1.87.71a18.07,18.07,0,0,1,6.32,6.21,20.56,20.56,0,0,1,1.11,3.13c.05.05.05.05,0,.1a14.28,14.28,0,0,1,.55,2.42,33.07,33.07,0,0,1,.25,8.74c-.05.45-.05.86-.1,1.31a56.05,56.05,0,0,1-2.22,9.95c-.25,1.11-.6,2.27-1,3.39-.15.65-.35,1.26-.55,1.91-1.67,6.52-5.76,11.57-10.15,16.37a71.26,71.26,0,0,1-19.65,15.05,0,0,0,0,1-.05,0c-35.5,19.24-92,19.69-130.2-2.07-1.16-.86-2.27-1.77-3.33-2.68l-2.07-1.77c-1.36-1.16-2.68-2.32-4-3.48-.45-.41-1-.81-1.41-1.21-.91-.81-1.82-1.57-2.73-2.33-3-2.37-6.26-4.49-10.1-5.3a11.23,11.23,0,0,0-1.87-.3h0a9.23,9.23,0,0,0-4.49,1.46,1.67,1.67,0,0,0,.25-.6,37.46,37.46,0,0,0,2.37-9.45v-.05a9.28,9.28,0,0,0-.81-5.55c-1.66-3.29-6.16-4.6-14.84-2.78a17,17,0,0,0-3.69,2.52,2.5,2.5,0,0,0-.56.46s0,.05-.1.1a0,0,0,0,0-.05.05,9.67,9.67,0,0,0-1,1c-1.77,2.37-1.26,5.45-2.32,8.08-.15-10.56-7-18.48-14-24.7-7.47-6.71-16.77-7.72-17.32,7.18,5,6.66,3.79,14,2.88,21.56-7.43,59.74-13.13,119.49-2.63,179.44,3.74,33.48,29.19,42.62,56.31,49.94l2.12-.2,1.72,1.31a59.47,59.47,0,0,0,4.49,4.2,6.86,6.86,0,0,0,.76.45,25.8,25.8,0,0,0,3.18,1.82c.36.2.76.4,1.11.55.61.26,1.22.51,1.82.71a9.83,9.83,0,0,0,1.62.61l.5.15c.61.2,1.27.35,1.92.5a24.49,24.49,0,0,0,3.84.66c2.42-.05,4.8-.05,7.22.1H232c1.21.05,2.53.15,3.79.3h.05a45.38,45.38,0,0,1,8.79,1.67c9.29.86,18.84-1.82,27.93,2.22,33.33-.76,66.81,1.42,99.94-4.69a11.8,11.8,0,0,0,7.42,1.76,39,39,0,0,0,4.15-.45l1.86-.3c8.49-.71,14.55-6.42,21.37-10.51C434,611.32,455.65,594.25,468,567.18c6.21-6.11,1.87-14.4,4.34-21.27V483.59c-.2-.5-.45-.95-.6-1.46-3.64-9.85,1.11-20.81-3.29-30.6-4.49-14.15-7.17-28.59-6.21-43.49-4.39-21.21-3.84-40.9,15.1-56.05C481.76,348.4,484.94,343.15,484.13,336.68ZM377,285.57h.05c.05,0,.05.05.1.11a4,4,0,0,1,1.36,1.41,11.6,11.6,0,0,0-1.46-1.36c0-.05,0-.05-.05-.05-.31-.26-.61-.51-1-.76A7,7,0,0,1,377,285.57ZM195.21,396.17l.3-.15a.18.18,0,0,0,.15,0c0,.1-.1.1-.15.15a.12.12,0,0,1-.1.11,8.15,8.15,0,0,1-3,1.76c.4-1.31,1.61-1.51,2.78-1.82Z" transform="translate(-37.17 -181.98)"/><path class="cls-2" d="M391.36,264.92l-1.06-2a17.8,17.8,0,0,1-2.78-5.4c-1.82-5.61-1-11.77-2.12-17.53-.15-.66-.3-1.31-.51-2-.05-.15-.15-.3-.2-.45-4.39-10.2-15.5-7.83-23.13-12.07-39.79-13.39-79.54-17.07-119.24.5-5.1.86-9.39,3-11.86,7.83-3,2.73-9.3.76-10,6.87v.05c-2.93,23.48-20.05,32.83-38.28,41.11-.51.2-1,.45-1.52.7-1.21.51-2.42,1.07-3.64,1.62-12.12,14.85-19.54,32.12-24.79,50.2-2.63,9-6.62,15.2-15,17.22a13.84,13.84,0,0,1-2.07.46c-.61.1-1.26.15-2,.2-1.16,3.58-.25,6.92,1.26,10.15,2.32,4.44,5.66,7.57,10.66,8.69,5.65-10.61,11.61-9.75,17.62-.36,4.35,6.72,8.44,13.64,12.63,20.46,4.09-2.18,4.95-5.91,5-10.05,15.81-5.76,15.86,4.19,15.1,14.84v.21l.05,0c2.22-.21,4.44-.36,6.67-.56.45-.66.9-1.31,1.31-2,5.4-9.14,3.58-19.54,4.24-29.59A33.51,33.51,0,0,1,209.7,356c2.53-6.56,7.12-10.65,12.83-13.33a5.82,5.82,0,0,1,1-.45,26.15,26.15,0,0,1,3.08-1.16,70.36,70.36,0,0,1,12.78-2.88c12.17-1.72,24.54-.36,36.81-.41H277c.76,0,1.46.05,2.22.05,3.39.16,6.77.21,10.15.1h.31c1.11,0,2.22-.05,3.33-.1s2.12-.1,3.18-.05h.4c1.52-.1,3.09-.1,4.65-.1H303a6.24,6.24,0,0,1,1,.05H304c8.53.05,17.07.36,25.55-.91l1.06-.15c.51-.1,1-.15,1.47-.25h.05c.91-.15,1.77-.35,2.67-.56a16,16,0,0,0,6.22-3.94c.25-.2.5-.5.75-.75-.15-2.17-.25-4.3-.35-6.42-.76-.35-1.46-.7-2.22-1.06-12.73-5.45-27.73-6.46-36.82-18.83a6.2,6.2,0,0,0-1-.16,3.44,3.44,0,0,0-1-.1c-10.35-1-15.7,9.09-24.29,12.07-11.77,4.19-21.51.76-28.28-9.09-7.17-10.35-5.15-20.75,3.79-29,9.29-8.63,19.49-7.87,29.24-.2,6.31,5,9.95,13.59,19.54,14.09l.46-.15a10.89,10.89,0,0,0,1.16-.35,19.64,19.64,0,0,0,7.68-5.76c.6-.66,1.16-1.36,1.76-2.07.71-.86,1.42-1.72,2.17-2.48,12.07-13.28,24.09-11.76,36.06,2.68,2.28,2.73,4.4,5.71,7.63,7a8.46,8.46,0,0,0,4,.66,10.17,10.17,0,0,1,6.87-5.56c2.72-.71,5.81-.6,8.79-.65h.05v-.11H377c-4.9-18.83,10.9-6.26,15.8-10.2a8.57,8.57,0,0,0,.66-4.39A17,17,0,0,0,391.36,264.92ZM178,349.31c1.77,8.33-.8,16.92.46,25.25a74,74,0,0,1-.05-32.27c2.83-13.13,8.79-1.26,13.08,1.87-3.74.3-5.35-5.66-9.9-3.23C177.93,342.84,177.28,346,178,349.31Z" transform="translate(-37.17 -181.98)"/><path class="cls-3" d="M110.51,325.57q12.36,12.27,24.8,24.55c-13-2.38-18.64-14.14-27.47-21.77l-.91-.76a17.68,17.68,0,0,1-1.87-1.61C98.29,319.81,94.5,311.33,89,304.21l-.91-1.06a28.12,28.12,0,0,0-2-2.37C81.88,293,76.63,285.47,77,276.13a8.27,8.27,0,0,1,0-1.57c.2-.4.4-.75.61-1.11.65.61,1.36,1.22,2,1.82,4,8.18,8.08,16.42,12.07,24.6C98,308.45,104.25,317,110.51,325.57Z" transform="translate(-37.17 -181.98)"/><path class="cls-4" d="M74.56,270.63c1,.95,2,1.86,3.08,2.82.65.61,1.36,1.22,2,1.82a6.25,6.25,0,0,1-2.68.86,5.52,5.52,0,0,1-4.34-2.07,4.49,4.49,0,0,1-.56-.61A15.8,15.8,0,0,1,70.92,272a23.78,23.78,0,0,1-2.83-4.75c-.15-.5-.35-1-.55-1.51-4.75-14,9.14-26.57,7-40.35,9.4,3.53,12.18,10.2,4.35,16.71C68.14,251,70.21,260.27,74.56,270.63Z" transform="translate(-37.17 -181.98)"/><path class="cls-5" d="M80.41,305.37Q74.27,291.66,68.24,278c-8.23-5.61-3-22.88-18.94-21.77,12.53-4.64,15.56,2.27,18.24,9.6.2.5.4,1,.55,1.51a30.81,30.81,0,0,0,3.33,7c0,.05.11.15.16.2a5.85,5.85,0,0,0,.25.91C74.81,285.32,86,293,80.41,305.37Z" transform="translate(-37.17 -181.98)"/><path class="cls-4" d="M186.82,194.16a11.6,11.6,0,0,1,1.06,9.65,18.13,18.13,0,0,1-1.66,2.27c-.86,1-1.82,1.87-2.78,2.78-3.74,3.38-8.08,6.31-10.05,11.26-.46.61-.91,1.16-1.42,1.72a11,11,0,0,1-1.66,1.46,10.51,10.51,0,0,1-3.74,1.77,6.17,6.17,0,0,1-.91.25c.15-.2.25-.35.41-.55,1.31-1.72,2.62-3.54,3.88-5.25-.2-10,3.44-16.16,14.75-14.75,0-3.23-.1-6.46-.1-9.7a8.35,8.35,0,0,1,.05-3.38,7.82,7.82,0,0,1,1.57,1.62C186.42,193.56,186.62,193.86,186.82,194.16Z" transform="translate(-37.17 -181.98)"/><path class="cls-6" d="M432.57,265.63c-3,5.9-2.63,13.78-8.18,18.33a14.49,14.49,0,0,1-3.13,1.92c-9-1.06-18.14-1.77-23.84-10.36a20.72,20.72,0,0,1-1.26-3.83c-.81-3-1.62-6-4.8-6.77a9.07,9.07,0,0,0-4,0c-10.76-6.36-6.67-15.61-4.85-24.44.71-1,1.41-1.92,2.22-2.88,7.32-9.25,17-16.57,22.93-27l.1-.1,0-.05v0c5.51-9.09-3.33-15.2-4.85-22.83-1-5.1-1.16-5.71,5.76-5.61h.1c.86,0,1.82,0,2.88,0C437.77,205.12,442.52,233.56,432.57,265.63Z" transform="translate(-37.17 -181.98)"/><path class="cls-7" d="M524.73,289.26l-.9,1.72c-12.93,15.4-21.92,34.19-39.75,45.3,2.68-4.14,5.35-8.33,8.13-12.48a0,0,0,0,1,.05-.05c7.53-11.31,15.61-22.27,26.06-31.31l0-.05c1.16-1,2.32-2,3.59-2.93A7.52,7.52,0,0,1,524.73,289.26Z" transform="translate(-37.17 -181.98)"/><path class="cls-8" d="M181.82,285.68c-.35-1-.75-2.08-1.16-3.09-7.12-18.53-17.88-36-15-57.27.15-.2.25-.35.41-.55,1.31-1.72,2.62-3.54,3.88-5.25a6.52,6.52,0,0,1,2,2.32,5.3,5.3,0,0,1,.31,3.69c2.22-.15,1.06-2,1.31-2.93,1.52-5.66,7.17-8.79,9.85-13.74a10.65,10.65,0,0,0,1.26-4.09c0-3.23-.1-6.46-.1-9.7a8.35,8.35,0,0,1,.05-3.38,3.35,3.35,0,0,1,.56-1.06c.86-1.21,2.47-1.72,4.9-1.47,1.76.36,3.58.71,5.4,1.07a9.27,9.27,0,0,1,.91,1.26c6,9.29-2.33,20.65,3.63,29.95,2.33,11.16,8.08,18.68,20.41,19.29v.05C225.56,264.92,214.3,278,181.82,285.68Z" transform="translate(-37.17 -181.98)"/><path class="cls-9" d="M78.85,242.14c-10.71,8.89-8.64,18.13-4.29,28.49a20.13,20.13,0,0,0-1.92,3.43,13.12,13.12,0,0,1-.81,1.31A5.6,5.6,0,0,1,68.24,278c-8.23-5.61-3-22.88-18.94-21.77-6-5.3-16.46-8.33-10.2-19.85,11.47,6.72,9.95-33.13,27.07-7.62.36.55,5.46-2.12,8.33-3.28C83.9,229,86.68,235.63,78.85,242.14Z" transform="translate(-37.17 -181.98)"/><path class="cls-10" d="M432.32,672.83a144.9,144.9,0,0,1-55.76.15c-7.88-12.88-.2-27.27-4-40.55,3.89-1.42,7.83-2.78,11.72-4.2a22.66,22.66,0,0,1-.15,5.51c-1.27,10-6.67,20.7,6.16,28.18a57.63,57.63,0,0,1,29.19,0c2.67,1.56,5.4,3.13,8.08,4.75C430.4,667.68,432.72,669.24,432.32,672.83Z" transform="translate(-37.17 -181.98)"/><path class="cls-11" d="M177.13,662.47a7.49,7.49,0,0,1-.41,1.17,2.12,2.12,0,0,1-.3.7c-1.52,3-5.56,3.29-7,6.27a2.34,2.34,0,0,0-.25.5c.2.86.4,1.72.65,2.53a13.23,13.23,0,0,1,.56,4.49c-2.43-1.46-4.8-2.93-7.17-4.39-1.67-9.6,8.94-6.37,11.76-11.27a17,17,0,0,0,2.23-3.93A8,8,0,0,1,177.13,662.47Z" transform="translate(-37.17 -181.98)"/><path class="cls-12" d="M135.31,350.12l-.15,2c-.25,3.43-.46,6.91-.71,10.35-12.42-7.73-22.22-18.13-30.35-30.15-.91-3.28-.56-5.4,1-6.31,1.16-.81,3-.91,5.45-.41Q122.87,337.84,135.31,350.12Z" transform="translate(-37.17 -181.98)"/><path class="cls-13" d="M91.73,299.87A11.52,11.52,0,0,1,89,304.21a9.59,9.59,0,0,1-4.75,2.37,25.92,25.92,0,0,0-3.84-1.21Q74.27,291.66,68.24,278c1.06-1.21,2.12-2.48,3.18-3.69a6.89,6.89,0,0,0,.66-.81c.86-1,1.67-1.87,2.48-2.82,1,.95,2,1.86,3.08,2.82.65.61,1.36,1.22,2,1.82C83.7,283.45,87.74,291.69,91.73,299.87Z" transform="translate(-37.17 -181.98)"/><path class="cls-14" d="M110.51,325.57c-.86.91-1.76,1.87-2.67,2.78-1.22,1.31-2.48,2.63-3.74,3.94a65.6,65.6,0,0,1-19.85-25.71c1.26-1.16,2.58-2.32,3.84-3.43s2.42-2.22,3.64-3.28C98,308.45,104.25,317,110.51,325.57Z" transform="translate(-37.17 -181.98)"/><path class="cls-15" d="M376.54,673l55.8-.14C413.76,680.53,395.16,680,376.54,673Z" transform="translate(-37.17 -181.98)"/><path class="cls-16" d="M221.87,672.68c-16.31,9.84-34.54,1.76-51.51,5.45-2.43-1.46-4.8-2.93-7.17-4.39a56.45,56.45,0,0,1,6.21-3.13,52.17,52.17,0,0,1,13.13-4.15,49.66,49.66,0,0,1,16.41-.2,60.31,60.31,0,0,1,19.65,6.67A4.4,4.4,0,0,0,221.87,672.68Z" transform="translate(-37.17 -181.98)"/><path class="cls-16" d="M206.06,662.27H206l0,.05a2.6,2.6,0,0,1-.65.46v.05a30.56,30.56,0,0,1-6.37,3.43,22.46,22.46,0,0,1-16.41.2,33.65,33.65,0,0,1-5.81-2.82c-.6-.36-1.16-.76-1.77-1.17a17,17,0,0,0,2.23-3.93c9.39,0,18.78-.06,28.18-.11a26.54,26.54,0,0,0,.65,3.49A.85.85,0,0,0,206.06,662.27Z" transform="translate(-37.17 -181.98)"/><path class="cls-17" d="M391.5,381c2.19,7.68.95,13.63-8,15.65C347.3,428,270.73,435.24,231.75,411.05c-4.57-4.26-11.8-5.7-13.65-12.84-.63-10.77,6-17.49,14.27-21.79,48.68-25.31,98.38-31.33,149.25-6.14C386.27,372.58,389.86,375.93,391.5,381Z" transform="translate(-37.17 -181.98)"/><path class="cls-18" d="M391.5,381c-47.13-23.39-95.14-26.78-143.63-4.9-11.49,5.18-25.79,8.6-28.42,24.59-2.43,3.87-5.86,3.1-9.36,2l-7.86-7c-2.88-11.72-5.81-23.44-1.12-35.4,18.8-26.34,46.06-23.31,73.11-21,8.38.49,16.62-3,25.06-1.09,10.85,7.63,21.72-1.42,32.6-.09,10.22,1.78,20.72.95,30.88,3.27,1.43-.29,2.84-.62,4.24-1,3.29-1.66,5.95,0,8.65,1.55,5,3.53,10.94,5.73,14.46,11.11,2.28,4.32,2.63,9.64,6.7,13.06C399.8,372.76,393.57,376.16,391.5,381Z" transform="translate(-37.17 -181.98)"/><path class="cls-19" d="M307,281.9c1.67-13.71,11.92-16.08,22.87-16.35,17.95-.46,25.13,12.65,31.53,26.34-1.55,14-8.94,24.52-20,32.81-16.4.07-35.69,6.16-40-19.05-3-2.61-3.16-5.8-2-9.26C302.28,291.73,316.09,292.71,307,281.9Z" transform="translate(-37.17 -181.98)"/><path class="cls-20" d="M235.39,407.8c47,20.81,92.47,12.82,136.83-8.3,4-1.88,7.17-3.19,11.28-2.81-1.77,15.63-13.79,23.7-26.12,26.95C310.29,436,263,443.5,219.25,412.14,222,401,227.86,401.31,235.39,407.8Z" transform="translate(-37.17 -181.98)"/><path class="cls-21" d="M553.62,250.63c-21.36,4.24-21.76,23.93-28.89,38.63-.2.51-.45,1-.7,1.47,0,.1-.15.15-.2.25-12.93,15.4-21.92,34.19-39.75,45.3-.15,0-.25,0-.4,0-2.33-.25-4.65-.51-7-.81.5-.76,1.06-1.46,1.56-2.22,12.78-18.33,26.11-36.26,38-55.15,7.22-11.46,16.46-24.24.4-37-4.19-3.38-3.53-13,.31-11.82,12.72,4.09,18.94-11.51,30.4-7.77l.25.5V222c1.57,4.6-3.23,11.67,4.6,13.64C567.46,239.47,556.7,245.32,553.62,250.63Z" transform="translate(-37.17 -181.98)"/><path class="cls-22" d="M221.16,627.68c-.1,1.51-.15,3-.25,4.49-.15,2.73-.3,5.51-.45,8.23v.06c-.31,4.89-.56,9.79-.86,14.64s-.56,10-.86,15c-.05,1-.1,1.87-.15,2.83-16.26.2-32.52.5-48.79.71-2.22.05-4.39.05-6.61.1-1.67-9.6,8.94-6.37,11.76-11.27h2.18c9.39-.05,18.78-.1,28.18-.2h.75a6,6,0,0,0,1.82.66h.1c3.84,1.06,4.55-1.21,4.8-3.89v0c.15-1.36.15-2.78.4-3.94.81-3.84.26-7.88-.05-11.87a13.36,13.36,0,0,1-.1-1.41c-.25-3.64-.15-7.27,1.57-10.66a4,4,0,0,1,.45-.91,17.14,17.14,0,0,1,1.92-2.57C218.34,627.63,219.75,627.63,221.16,627.68Z" transform="translate(-37.17 -181.98)"/><path class="cls-23" d="M362.76,341.38c-10.19,6.48-20.72,6-31.44,1.5a4.78,4.78,0,0,1-1.93-5.88c2.05-3.06,5.32-4.29,8.57-5.56a4.76,4.76,0,0,0,3.8-.33C349.75,332.51,361.46,326.36,362.76,341.38Z" transform="translate(-37.17 -181.98)"/><path class="cls-24" d="M387.3,264.92c.45-3.56-1.6-7.81,2.81-10.29,3.2,6.7,16.27,10,7.3,20.89-1.53,0-3.05-.1-4.58-.17Z" transform="translate(-37.17 -181.98)"/><path class="cls-25" d="M280.83,440.69l-27.65,1.93C261.49,431.14,271.77,440.31,280.83,440.69Z" transform="translate(-37.17 -181.98)"/><path class="cls-26" d="M387.17,355.92c-3-6.26-12.81-3.49-14.78-11.1,3.85-3.81,9-5.07,13.84-6.84l6.26,7.64C394.83,351.17,396.93,356.58,387.17,355.92Z" transform="translate(-37.17 -181.98)"/><path class="cls-2" d="M195.56,396.28c-.8,4.73-1.14,12.4-6.89,10.66-6.13-1.87-4.71-11.07-2.06-14.76,3.25-4.53,5.29,3.64,8.92,4.07Z" transform="translate(-37.17 -181.98)"/><path class="cls-27" d="M235.39,407.8c-6.49-2.68-11.93-1.45-16.13,4.34l-9.17-9.43,9.37-2C225.36,401.76,232.63,399.72,235.39,407.8Z" transform="translate(-37.17 -181.98)"/><path class="cls-28" d="M387.17,355.92c4.29-2.14,4.76-6.25,5.31-10.3,6.55,5.76,5.58,13.09,4.33,20.48C390.29,365.82,387.23,362.28,387.17,355.92Z" transform="translate(-37.17 -181.98)"/><path class="cls-29" d="M386.23,338c-3.83,3.86-7.06,8.93-13.84,6.84L367,340.38C372.52,332.41,379.46,335.9,386.23,338Z" transform="translate(-37.17 -181.98)"/><path class="cls-2" d="M377.07,285.68c3.78-.72,6.79-5.54,11-2.3.38.3-2,5.84-4.15,7.37-6.24,4.38-6.3-1-6.85-5.07Z" transform="translate(-37.17 -181.98)"/><path class="cls-2" d="M175.37,391.24v18.63c-9.93-9.49-8.55-14.58,0-18.63Z" transform="translate(-37.17 -181.98)"/><path class="cls-30" d="M301.56,295.39l-.12,10.26c-6.91.29-9.59,6.3-13.34,10.4-14.69,16.07-29.47,13.11-43.12-.35-13.1-12.91-11.1-32.65,3.14-44,13.68-10.93,32.39-7.75,43.07,8.09,2.79,4.13,4.66,8.67,9.27,11.18,1.58.66,2.27,1.55,2.07,2.65S302,295.39,301.56,295.39Z" transform="translate(-37.17 -181.98)"/><path class="cls-31" d="M276.33,344.62c-26.19-.06-51.85,2.35-75.23,15.69,3.47-21.37,21-26,37.76-29,12-2.16,24.84.18,37.3.52C280.12,336,280.33,340.31,276.33,344.62Z" transform="translate(-37.17 -181.98)"/><path class="cls-1" d="M180.41,381.19c-8.1-18.67-11.29-37.49-1.2-57.75,10.9,8,16.23,18.15,16.13,33.94-6.78-3.22-5-13.62-14.92-12.2v36Z" transform="translate(-37.17 -181.98)"/><path class="cls-32" d="M276.33,344.62q-.09-6.39-.17-12.79l13.89-.42c3.92,2.67,9.76.89,12.86,5.49a5.64,5.64,0,0,1-2.86,5.92Z" transform="translate(-37.17 -181.98)"/><path class="cls-33" d="M301.5,336.22l-11.45-4.81,47.9,0-5.78,4.26C322.05,341.86,311.84,343,301.5,336.22Z" transform="translate(-37.17 -181.98)"/><path class="cls-34" d="M185.66,216.94c-11.92,2.53-7.83,13.13-14.24,20.56-.46-5.56-.81-10-1.11-14.2-.15-1.26-.25-2.52-.36-3.78-.2-10,3.44-16.16,14.75-14.75.51.4,1,.86,1.52,1.31C190.46,210,193.64,215.27,185.66,216.94Z" transform="translate(-37.17 -181.98)"/><path class="cls-35" d="M185.85,239.36c5.76,10.74,5.83,16.57,1.74,23.9C180.09,256.87,183.11,250.59,185.85,239.36Z" transform="translate(-37.17 -181.98)"/><path class="cls-15" d="M419.44,661.87c-9.75,0-19.5,0-29.19,0C399.94,655.91,409.69,656,419.44,661.87Z" transform="translate(-37.17 -181.98)"/><path class="cls-36" d="M301.5,336.22l30.66-.52q-.42,3.6-.85,7.18c-10.42,2.57-20.85,9.41-31.25-.06Z" transform="translate(-37.17 -181.98)"/><circle class="cls-37" cx="249.24" cy="112.03" r="9.65"/><circle class="cls-37" cx="284.41" cy="112.03" r="9.65"/></svg>