<svg id="Layer_1" data-name="Layer 1" xmlns="http://www.w3.org/2000/svg" viewBox="0 0 441.78 392.94"><defs><style>.cls-1{fill:#bdd53a;}.cls-2{fill:#a6b635;}.cls-3{fill:#a8b835;}.cls-4{fill:#bed73b;}.cls-5{fill:#bbd237;}.cls-6{fill:#b2c43b;}.cls-7{fill:#b1c937;}.cls-8{fill:#b2c937;}.cls-9{fill:#c8e33b;}.cls-10{fill:#cae43e;}.cls-11{fill:#b5c53f;}.cls-12{fill:#b6c83a;}.cls-13{fill:#c6df3c;}.cls-14{fill:#c5de42;}.cls-15{fill:#f7f7f3;}.cls-16{fill:#fbfbf6;}.cls-17{fill:#fbfbf7;}.cls-18{fill:#fafbf4;}.cls-19{fill:#a9ba35;}.cls-20{fill:#aab936;}.cls-21{fill:#bdd535;}.cls-22{fill:#2d320c;}.cls-23{fill:#c0d642;}.cls-24{fill:#f5f6e5;}.cls-25{fill:#f7f8e7;}.cls-26{fill:#bdd43e;}.cls-27{fill:#c1d747;}.cls-28{fill:#bed445;}.cls-29{fill:#b9d22e;}.cls-30{fill:#c0d747;}.cls-31{fill:#bbd42f;}.cls-32{fill:#bbd52f;}.cls-33{fill:#bad32e;}.cls-34{fill:#39392c;}.cls-35{fill:#eef0dd;}.cls-36{fill:#c8e239;}.cls-37{fill:#37372d;}.cls-38{fill:#bed63d;}.cls-39{fill:#08080c;}.cls-40{fill:#1a1a1b;}.cls-41{fill:#494a43;}.cls-42{fill:#4a4a4c;}</style></defs><path class="cls-1" d="M346.05,224.34c17.24,10.21,33.46,7.82,48.93-3.92,8.11,1.82,16.15.75,24.19-.6l4,.55c3.65,5.22,8.93,9.45,9.88,16.31a7.71,7.71,0,0,1-2.25,5c-3.4,2.21-7.17,2.58-11.07,2.28a30.42,30.42,0,0,1-5.5-1.09A45.62,45.62,0,0,1,402,237.31c-.82-.56-1.27-2.17-2.79-1.34a6.31,6.31,0,0,1,1.75,3.44c-.73,20.33,6.46,30.54,24.07,34.17,6.66-3.21,13.7-3.68,20.92-2.92,2.95.78,4.31,3,5,5.72q-1.73,6.08-3.44,12.15c-4.11,11.89-18.37,17.85-18.72,31.93-1.74,6.84-6.46,13.55-.91,20.71l-.29-.37c2.15,3.58,1.54,7.57,1.61,11.44,0,2.22.59,4.6-1.44,6.37,4.07-.48.44-5.95,4.29-6.58,3.68,5.41,2.5,11.73,3.34,17.67,10.39,8.52,9.55,18.85,4.84,29.81-.16,17.4,7.83,33.2,9.09,50.63,4,55.59-22.16,94.35-76.74,110.23-7.29,11.78-6.56,23.64-.41,35.57,12.65-6.91,24.12-4,35,4.18.21,8.9-6.77,6.28-11.06,6.12-10.92-.41-22.07,2.34-32.77-1.86-6.88-11.1,7.94-30.57-8.88-35-12.15-3.19-27.15,4.37-40.87,7.13-16.83,9-34.55,5.18-52.08,3.69a14,14,0,0,1-5.28-3.31c-1.53-3.26.22-5.33,2.74-7.12-3.82.56-6.49,3.59-10.06,4.68-5.53,2.33-10.89-2.32-16.42-.35-5.64,9.73.78,20.95-3.89,30.77l.1-.09c-15.65,3.48-31.46,1.05-47.2,1.34-2.66-1.17-3.43-3.1-2.34-5.77,8.24-6.23,18.62-5.34,27.93-7.71,5.53-1.41,15,8.86,16.06-4.83.78-9.91,4.06-21.67-10.72-26.49-10.26-3.34-18.89-10.12-26.83-17.46C153,513.7,138.94,477.6,150.1,433.39c2.29-9.07,4-18.28,6-27.43,0-11.71-1.18-23.52,2.71-34.94,2.29-6,7.05-10.83,7.87-17.46s-.32-14.13,2.64-19.47c8.59-15.5,8.6-24.83-10-34.1-22.19-11-27.08-41.79-13.37-61.59,15.25-22,42.66-28.67,63.38-13,10.2,7.74,16.74,7.5,27.9,2.54,26.93-12,55.53-15.54,84.81-8.93,2,3.24.07,5.14-2.34,6.88-.89,4.23-13.08-5.09-7.82,6.51a8.9,8.9,0,0,1-2.32,4.72c-9.3,1.92-18.95,2.28-27.87,6.06-4.49.52-8.48-.91-12.28-3s-7.41-.87-10.76,1.44c-4.74,3.85-1.13,7.65,0,11.45,1.66,12.74-11.61,8.48-16.14,14.21-3.19,4.24-7.42,7.61-9.94,12.34-.69,1.62-1.4,3.21-2,4.85-4.82,12.27,11,17.57,9.71,28.61-2.84,2.55-5.74,5-5,5-.43,0,2.65-2.56,5.48-5.61,8.33-6.24,17.28-11.27,27.48-13.83a7.86,7.86,0,0,1,6.65,4.69,16.11,16.11,0,0,1,.58,5.48c-1.24,7.7-3.51,15.48,1.84,22.66,9.95,11.15,21.44,11.75,32,2.3,11.12-10,5.74-20.6-2-30.27a34.33,34.33,0,0,1-4.38-6.76A16.21,16.21,0,0,1,303.1,285c4.07-6.73,10-10.21,17.94-10a11.24,11.24,0,0,1,6.58,5.64c-2.93,20.24,7.86,29.75,26.29,33.26,1.24.43,2.43,1,3.64,1.49,4.81,1.93,10.69,5.95,14.58,1.4,4.28-5-4.62-8.08-4.84-13.11-1-17.78-8.73-29.6-27.88-31.41C329.22,259.77,331.63,242.57,346.05,224.34Z" transform="translate(-76.58 -215.78)"/><path class="cls-2" d="M440.26,399.51q-2.42-14.91-4.84-29.81c10.75-.89,17.36-12.05,28.69-11.51,6.8,2.92,14,.39,20.2,1.63,3.46,0,0-4.47.88-1.93.27.76-.25,1.2-1.57,1.21-4.4,0-9.16,2-12.82-2.24,17.43-6.56,32.33-2.33,47.56,8.75-8,6.71-15.22,2.69-21.52,5.26-2.54,9.75,9.1,9,11.52,15,4.24,13.85-5.32,10.14-11.62,8.4-9.23-2.56-13.09-1.26-9,8.88.48,2.39.95,4.78,1.43,7.17-.11,3.19-.61,5.71-4.45,2.63C472.42,400.19,458.15,393.9,440.26,399.51Z" transform="translate(-76.58 -215.78)"/><path class="cls-3" d="M163.23,373.53c-4.62,10.32-1.18,22.4-7.12,32.43-1.31-13.37-11.17-8.32-18.2-7.89-10.72.65-18.49,9.37-29.4,13.05-1.11-9.11,6.8-13.21,7.88-20.41l-14.08-1c-3.24-3.85-9.12.44-12.2-3.92,0-1.23.12-2.46.26-3.68,3.53-5,5.64-9.54-3.49-10.45-4.27-.43-9.86,1.14-10.3-6,4.46-5.79,9.86-9.59,17.67-8.22,12.75,1.25,25.42,1.11,38-1.84C146.28,355.22,156.51,361.36,163.23,373.53Z" transform="translate(-76.58 -215.78)"/><path class="cls-4" d="M309.51,235.72c0-1.25,0-2.5,0-3.76,5.59-5.88,11.05-.13,16.57.2,2.45,1.16.45-3.79.25-1.1-4.11-.94-10,.28-8.72-7.18l4.39-4.82,24,5.28c-2.8,11.7-5.35,23.48-8.53,35.08-1.58,5.76-.74,9.12,5.75,9.64-2.45,8.65-10,9.7-17.12,11.5l-5.22-5.66C320.9,260.75,316.5,247.86,309.51,235.72Z" transform="translate(-76.58 -215.78)"/><path class="cls-5" d="M431.37,236c-5.17-3.95-7.3-9.47-8.16-15.66,10.84,1,15.22,11.79,24.09,15.78,4.17,2.86,6.4,6.63,5.54,11.83a9,9,0,0,1-5.85,5.58C435.83,253,435.63,242.71,431.37,236Z" transform="translate(-76.58 -215.78)"/><path class="cls-6" d="M122.05,353.72l8.61,4.21c-12.19,3.93-24.4,10.26-36.41-.44C102.8,351,112.85,355.52,122.05,353.72Z" transform="translate(-76.58 -215.78)"/><path class="cls-7" d="M363.33,604.38c14.54-2.16,30,4.78,43.83-4.26,2.8,2.39,4.58,7,.25,7C392.71,607.48,377.56,611.84,363.33,604.38Z" transform="translate(-76.58 -215.78)"/><path class="cls-8" d="M180.46,604.41l48.23.38c-15.58,7-32,1.5-47.94,3.16-1.51-.67-2.06-1.41-1.64-2.24S180,604.41,180.46,604.41Z" transform="translate(-76.58 -215.78)"/><path class="cls-9" d="M447.56,252.23l3.53-4c3.62,1.91,2.15,6.28,4.32,8.88q-2.22,9.65-4.43,19.29l-3.43-3.93c-4.28-4.24-4.88-9.34-3.53-14.91A13.9,13.9,0,0,1,447.56,252.23Z" transform="translate(-76.58 -215.78)"/><path class="cls-10" d="M419.17,219.82c-7.77,11.78-16.05,3.54-24.19.6C403,217.12,411,215.65,419.17,219.82Z" transform="translate(-76.58 -215.78)"/><path class="cls-8" d="M233.89,568.44l-1.35,7.69c-3.18,9.33,3.24,20-3.95,28.75C230.67,592.78,222.34,579.18,233.89,568.44Z" transform="translate(-76.58 -215.78)"/><path class="cls-7" d="M372.2,595.94c-9-12-9.62-23.81.4-35.56C368.64,572.19,369,584.05,372.2,595.94Z" transform="translate(-76.58 -215.78)"/><path class="cls-11" d="M470.8,356.86l17.6,1.55c-8.26,3.09-16.45,5.56-24.29-.22Z" transform="translate(-76.58 -215.78)"/><path class="cls-12" d="M90.11,385.8c4.43.19,9.22-.73,12.2,3.92-4.83,1-9.37,5.92-14.39,2.29C85.87,390.53,87.29,387.21,90.11,385.8Z" transform="translate(-76.58 -215.78)"/><path class="cls-13" d="M432.08,352c-.55,3.11-1.11,6.22-2.08,11.65-4.4-9.05-2-16.08-2.38-22.88C433.31,342.88,432.45,347.55,432.08,352Z" transform="translate(-76.58 -215.78)"/><path class="cls-14" d="M426.62,321.05l2,12.18-.75,7.94C422,334.81,418.9,328.27,426.62,321.05Z" transform="translate(-76.58 -215.78)"/><path class="cls-15" d="M309.51,235.72c15.49,9.68,18.71,22.91,11.42,39.19q-7.73,5.16-15.43,10.34A17.92,17.92,0,0,1,293.22,289c-17.2-5-29.24-14.15-27.65-34.25,1.9-8,9.4-10.46,14.91-14.9C289.44,233.52,299.29,233.29,309.51,235.72Z" transform="translate(-76.58 -215.78)"/><path class="cls-16" d="M305.49,296.27c18,16.82,20.58,29.84,8.28,42.07C302.05,350,286.52,348,273,333.12c-2.8-3.07-1.78-6.81-1.82-10.35,1.92-3.1,9.77-5.77.71-9.75a5,5,0,0,1,.76-4.73,28.16,28.16,0,0,0,.29-3.55c3.41-9.25,11.05-12.35,20-13.67C298,290.46,301.9,293,305.49,296.27Z" transform="translate(-76.58 -215.78)"/><path class="cls-17" d="M326.15,280.56c2.62-8.39,12.17-6.55,17.12-11.5,26.07,5.69,29.6,10.45,26.3,35.37-1.69,8.35-5.8,13.79-15.34,12.72C324.45,313.08,318.36,305.14,326.15,280.56Z" transform="translate(-76.58 -215.78)"/><path class="cls-18" d="M241,312.58c-17.35-13.58-18.64-16.9-12.42-32a15.89,15.89,0,0,0,3.11,2.25c-.92-1-2.35-1.16-3.38-2-1.17-9.65,8.32-10.91,12.76-16.14,4.22-4.59,9.66-1.44,14.48-2.26,11.39,4.71,17.67,13.47,20.15,25.26A15.77,15.77,0,0,1,269.27,301c-8.18,7-16.88,12.78-28.44,11.52Z" transform="translate(-76.58 -215.78)"/><path class="cls-19" d="M186.5,239.92c5.93,1.87,18.24,1.67,14.84,10.35-4.69,12-7.69,29.25-21.62,32.58-9,2.14-21.23-6.64-19.92-20C161.23,248.18,171.23,241,186.5,239.92Z" transform="translate(-76.58 -215.78)"/><path class="cls-20" d="M427.45,276.48c-4.35,4.37-9,9.7-14.81,2.59-6.34-7.77-11.19-16.78-17.74-24.35s1-10.26,4-14.66c5.4-3.26,10.81-2.75,16.23-.06l4.05.08C438.62,252.92,439.61,257.27,427.45,276.48Z" transform="translate(-76.58 -215.78)"/><path class="cls-5" d="M427.45,276.48c6.63-14.27,2.75-26.15-8.31-36.4h12.19c4.29,4,8.83,8.79,9.58,14.21,1.11,7.94,5.74-2.32,6.65,2q0,8.1,0,16.19C441.7,278,433.6,272.44,427.45,276.48Z" transform="translate(-76.58 -215.78)"/><path class="cls-21" d="M354.23,317.15l15.34-12.72c1.69,5.92,17.14,3.64,9.6,14.48C370.68,331.11,362.17,323.47,354.23,317.15Z" transform="translate(-76.58 -215.78)"/><path class="cls-22" d="M256.85,374.16l81,.1c.4.81.8,1.62,1.21,2.42l-2.15,1.66-72.07.14a7.33,7.33,0,0,1-6.89,1.19l-2-1.42A2.93,2.93,0,0,1,256.85,374.16Z" transform="translate(-76.58 -215.78)"/><path class="cls-23" d="M280.48,239.86c-2,5.73-5.58,10.06-11.3,12.45a9.38,9.38,0,0,1-7.69,2.76,11.3,11.3,0,0,1-4.79-2.86c-13.51-5.39-8-10.79,0-16.2,4.07,5.77,8.13,2,12.19,0Z" transform="translate(-76.58 -215.78)"/><path class="cls-24" d="M256.57,385.51c-5.21,3.3-2.06,11.73-10.52,14.89l-9.51-22c6.48-4.68,13.27-3,20.08-1l.22,1C259.13,380.86,259,383.23,256.57,385.51Z" transform="translate(-76.58 -215.78)"/><path class="cls-25" d="M357,378.4c-3.82,7.3-5.33,16-13.73,22.73-2.31-8.33-4.32-15.56-6.34-22.79,0,0,.89-1.12.89-1.12C344.3,375.64,350.85,373.64,357,378.4Z" transform="translate(-76.58 -215.78)"/><path class="cls-26" d="M317.62,223.88c3.88,6.3,11.08,2.41,16.13,5.13-5.93,19.34-16.57-1.37-24.23,3C305,222.05,312.51,224.17,317.62,223.88Z" transform="translate(-76.58 -215.78)"/><path class="cls-27" d="M269.27,301q1.65-6.15,3.31-12.3c7.26-6.55,13.27-1.16,19.52,2,.55.87,1.08,1.74,1.62,2.62L272.9,304.74Z" transform="translate(-76.58 -215.78)"/><path class="cls-28" d="M447.56,256.26c-3-.68-4.84,9.46-7.87,1.66-2.41-6.21-9.05-10.37-8.36-17.85,0-1.35,0-2.7,0-4l16.19,16.2C447.58,253.58,447.58,254.92,447.56,256.26Z" transform="translate(-76.58 -215.78)"/><path class="cls-29" d="M256.7,252.21h4.07c3,6.24,5.6,12.28-5.25,12.91l-14.49-.4c-5.16-5.17-4.52-8.31,3.11-6.32C250.84,260.15,255.75,260.87,256.7,252.21Z" transform="translate(-76.58 -215.78)"/><path class="cls-30" d="M305.49,296.27l-11.77-3-.86-1c-1.94-2.39-1.94-4.69.36-6.87l12.28-.15C305.5,288.92,305.49,292.59,305.49,296.27Z" transform="translate(-76.58 -215.78)"/><path class="cls-5" d="M415.09,240l-16.23.06-9.61-7.44C399.76,231.51,407.79,234.44,415.09,240Z" transform="translate(-76.58 -215.78)"/><path class="cls-31" d="M240.83,312.5c-1.64,11-9.64,7.9-18.63,8.6C228.83,315,235,314,241,312.58Z" transform="translate(-76.58 -215.78)"/><path class="cls-32" d="M268.88,236c-2.22,3.22-4.28,9-6.69,9.13-4.62.29-5.15-5-5.5-9.13C260.75,237.37,264.82,231.35,268.88,236Z" transform="translate(-76.58 -215.78)"/><path class="cls-33" d="M256.57,385.51c.09-2.37.17-4.74.26-7.1l8,.07c-.84,4.68-1.37,9.54-6.4,12Q257.51,388,256.57,385.51Z" transform="translate(-76.58 -215.78)"/><path class="cls-34" d="M256.62,377.41l-20.08,1c5-9.9,13.46-3.22,20.31-4.25A23.57,23.57,0,0,1,256.62,377.41Z" transform="translate(-76.58 -215.78)"/><path class="cls-35" d="M272.61,308.29c.18,1.72.37,3.44.55,5.15,2.19,2.44,2.25,4.86-.1,7.24q0,6.22-.1,12.45C267.24,324.92,266.39,316.66,272.61,308.29Z" transform="translate(-76.58 -215.78)"/><path class="cls-36" d="M255.62,572.64l-6.93-1c4.61-4.9,10.08-4.1,16.22-2.46C262.75,573.74,258.42,571.21,255.62,572.64Z" transform="translate(-76.58 -215.78)"/><path class="cls-37" d="M357,378.4l-19.18-1.18c0-1,0-2,0-3C344.28,375.3,352.46,368.47,357,378.4Z" transform="translate(-76.58 -215.78)"/><path class="cls-38" d="M293.22,285.4c-.12,2.29-.24,4.59-.35,6.88l-20.29-3.6c-2.4-10.21-8.75-17.59-17.06-23.56,5.46-2.81,5.25-7.9,5.25-12.91l8.41.1C267.08,270.64,279.47,278.51,293.22,285.4Z" transform="translate(-76.58 -215.78)"/><path class="cls-39" d="M293.56,255.45c-.33,4.43-3.37,6.18-8,5.8-3.88-.32-6.66-3.34-6.28-6.36.5-4,3.93-6.73,8.57-6.58C292.07,248.44,293.2,251.37,293.56,255.45Z" transform="translate(-76.58 -215.78)"/><path class="cls-40" d="M273.06,320.68c0-2.41.07-4.82.1-7.24,5.52.25,11.62-3.2,16.27,2.31.59.7.4,2.86-.26,3.69C284.33,325.6,278.65,322.94,273.06,320.68Z" transform="translate(-76.58 -215.78)"/><path class="cls-41" d="M336.46,284.16c3.83,0,6.94,1.38,5.54,5.73-.71,2.2-3.16,4.91-5.26,5.35-3.68.79-5.95-2.4-6.53-5.68C329.4,284.94,333,284.36,336.46,284.16Z" transform="translate(-76.58 -215.78)"/><path class="cls-42" d="M228.27,280.86c5.13-1.63,10.5-7.75,15.24.32,2.64,4.51,0,8.22-4,9.45-8.65,2.69-9.47-4.33-11-10.05Z" transform="translate(-76.58 -215.78)"/></svg>