<svg id="Layer_1" data-name="Layer 1" xmlns="http://www.w3.org/2000/svg" viewBox="0 0 408.67 394.3"><defs><style>.cls-1{fill:#fe8700;}.cls-2{fill:#ef8504;}.cls-3{fill:#f68705;}.cls-4{fill:#f48405;}.cls-5{fill:#e68203;}.cls-6{fill:#e37c02;}.cls-7{fill:#e68004;}.cls-8{fill:#fa8602;}.cls-9{fill:#ef8605;}.cls-10{fill:#f58c10;}.cls-11{fill:#e77907;}.cls-12{fill:#352727;}.cls-13{fill:#f78604;}.cls-14{fill:#ef6795;}.cls-15{fill:#faf4eb;}.cls-16{fill:#e86c94;}.cls-17{fill:#f99a04;}.cls-18{fill:#e3e0da;}.cls-19{fill:#eeebec;}.cls-20{fill:#e9e5dd;}.cls-21{fill:#f9940e;}.cls-22{fill:#f48b10;}.cls-23{fill:#faf7f2;}.cls-24{fill:#e1760f;}.cls-25{fill:#f0f0ee;}.cls-26{fill:#f6dcb6;}.cls-27{fill:#d77302;}.cls-28{fill:#0a0604;}</style></defs><path class="cls-1" d="M386.64,266.5c6.58-7.34,17-6.95,24.63-12.25,12.85-1.62,19.56,3.07,13.83,16.12-4,9.09-3.09,19.09-10,28.22-5.69,7.46,9.23,12,12.7,19.32-1.69,7.21-5.44,14.66,2.43,20.78,2.78,5.29,5.18,10.53-1.14,15.11-9.12,8.31,2.82,8.71,4.85,12.83,11.73,5.11.19,10.38.23,15.57,1.61,5.25,9.38,5.14,9.82,11.29a10.9,10.9,0,0,1-4.54,6.61c-1.6,1.14-3.87,1.83-4.74,3.42-3.72,6.81.42,32.13,6.28,39.85,5.27,3,9,7,8.68,13.59-9.34,7.56-17.44,16.44-25.92,24.88-1.25,1.3-3.13,1.76-4.45,3,1.55-1,3.17-1.89,4.72-3,8.31,4.49,3.23,16.59,12,20.82a7.78,7.78,0,0,1-.95,5.19c-7.63,8.35-13.17,16.92-2.94,27.22-4.86,15.61-9.52,31.35-25.59,39.77a1.25,1.25,0,0,0-.57,2.07c-13.68,13.67-30.53,17.85-49.22,16.47-8.35,9.12-8.71,18.14.13,27.06,10.24,2.91,22.38.07,30.18,10.07-2.79,13.27-14.79,2.56-20.64,7.88l-4.16.05c-6.61-4.32-15.83,2.45-21.7-5.06-.91-40.91-.91-40.91-41.87-40.55a48.08,48.08,0,0,0-7.88.49,19.35,19.35,0,0,1-6.23,1c-5.87-.76-11.64-2.55-17.66-2.23-35.42.76-57.22-15.8-72.21-54.76.38-4.33-.6-8-5.07-10-4.83-7.59.84-18.88-8.84-24.74,2.22-11.25,12.48-21.14,2.12-34.73-2.37-3.11,8.66-16.36,13.52-24.95-3.76-11.94,14.47-22,3-34.55-8.69-9.31-20.71-15.88-24.27-29.39.33-3,1.78-5.08,4.79-5.9,6.69.89,10.19,6.75,15.48,9.81,4.29,2.4,8.29,2.27,11.91-1.27,6.32-10.75,11.86-22,21.24-30.61,12.39-11.38,17.55-10,23.19,5.9,2.4,6.76,1.16,17.05,13.41,15.55,5.63,1,10.31,4.16,15.39,6.42,5.4,2.58,11.18,2,16.89,2,13.39-.07,26.76-.13,40.1,0,4.62-.13,9.32.35,13.7-1.73,3.66-3.35,13.55-.46,10.44-10.54,8.22-17-1.18-24.89-15.63-30.17a25,25,0,0,1-4.78-2.7c-3.8-3.83-8.11-7.35-8.56-13.32,3.09-8,5.74-16.14,3.12-24.92-1.39-15,8.1-20.24,20.45-20.05,9.3.14,18.24-.31,27.17-2.59,7.14-2.61,14,4,21.63.83C400.59,268.64,387.85,279,386.64,266.5Z" transform="translate(-112.32 -244.56)"/><path class="cls-2" d="M495.18,285.73c15.43-18.48,15.28,7.78,24.08,8.33,5.8,10-4.49,8.73-8.44,11.9-12.47,1.71-8.14,13.32-11.94,20.14l-7.09,8.45c-4.11,1-6.13-.2-4.93-4.72,2-11.35,14.83-21.55,3.67-34.3C488.53,290.59,491.09,287.8,495.18,285.73Z" transform="translate(-112.32 -244.56)"/><path class="cls-3" d="M475.79,359.86l-33.21,33.76c-3.76-5.75-17.35-.08-15.06-12.87,12.83.62,20.28-9.79,30.41-14.7q4.88-5.88,9.76-11.74C473.63,351.46,476.62,352.9,475.79,359.86Z" transform="translate(-112.32 -244.56)"/><path class="cls-4" d="M198.76,410.88q1.5-2.22,3-4.46c22,15.62-4.51,24.23-5.33,36.55-6.52-.43-7.76-3.94-5.71-9.54C193.44,425.93,196.08,418.4,198.76,410.88Z" transform="translate(-112.32 -244.56)"/><path class="cls-5" d="M475.79,359.86c-1.38-3.76-4.28-5.32-8.1-5.55l3.23-5c8.5-3.91,9.05-14.28,15.94-19.5l4.93,4.72C489.09,344.64,483.3,352.79,475.79,359.86Z" transform="translate(-112.32 -244.56)"/><path class="cls-6" d="M285.51,634.94l0,3.93-47-.23c-.15-3-.64-6.07,3.37-7C256.38,632.81,271.48,626.84,285.51,634.94Z" transform="translate(-112.32 -244.56)"/><path class="cls-7" d="M386.18,631.75c5.1.34,3.81,4,3.64,7l-23.43-.37C371.5,631.8,381.05,638.29,386.18,631.75Z" transform="translate(-112.32 -244.56)"/><path class="cls-7" d="M342.68,638.8a5.6,5.6,0,0,1,.07-3.85c6.55.88,13.81-2.21,19.48,3.5Z" transform="translate(-112.32 -244.56)"/><path class="cls-8" d="M334.15,322.42c2.38,3.91,8.44,5.14,8.05,11.05-2.83,4.29-7.29,5.25-11.92,5.85-8.79.76-17.61.47-26.41.33-5.05,0-10.13,0-15.18-.14-19.9,4.26-21.75,6.88-21,29.84a7.88,7.88,0,0,1-2.09,5c-11.13,11-14.67,5.09-16.67-6.91-1.18-7,.76-18.26-5.7-20-7.63-2.1-11.84,8.61-17.58,13.8-7.74,7-8.76,17.5-14.94,25.13-5.08,0-9.38-1.39-11.29-6.72-2.12-9.43,8.64-16.67,4.5-26.46-.64-13.31,13.41-21.7,11.84-35.33a13.4,13.4,0,0,1,3.47-7.44,22.91,22.91,0,0,1,13.32-8c5.65-1.16,8.07-4.22,5-9.89-4-5.46-7.74-10.93.23-16.2,27.51,10.18,36.21-11.53,47.92-28.14a18.45,18.45,0,0,1,8.11-2.53c10.63,3.78,21.44-4.22,32.08.4l2.55,9.23c14.82-9.9,27.42,11.34,42.63,2.91,4.23-2.35,11.43-1.84,7.62,7.25,3.21,3.61,4.79,7.71,3.78,12.58-7.07,6.32-15.52,4.47-23.79,4.09-10.68-.49-19.32,2.08-20.42,14.82-6.2,4.53-14.65,2.88-20.81,7.56a14.82,14.82,0,0,1-8-.27c-4.93-1.59-10-5.15-14.61.39a5.24,5.24,0,0,0,.23,7.3c4.83,5.19,9.83,1.52,14.76-.05a15.13,15.13,0,0,1,8.28,0C323.82,314.81,330.14,316.88,334.15,322.42Z" transform="translate(-112.32 -244.56)"/><path class="cls-9" d="M144.6,282.28c3.6,3.51,6.52,7.9,1.89,11.87-13.92,11.93-4.49,21.84,2.07,32.16,12.92,14.48,28,27.55,31.75,48.05l-3.76,5.36c-16.28-13.46-27.39-30.78-37.13-49.17-6.06-11.41-8.08-25.54-23.28-30.71-4.92-1.67-5.51-7.32.74-10.46C123.34,276.22,134.61,281.76,144.6,282.28Z" transform="translate(-112.32 -244.56)"/><path class="cls-10" d="M216.5,254.65l16.94,8c1.17,2.75.25,5.11-1.38,7.35a15,15,0,0,1-4.32,3.05c-2.9,1.37-6.05,2.52-5.53,6.7,2.4,11.06,11.2,10,19.3,10.33,5,9.09,9.29,18.18-7.77,16.49-6.69-.66-8.29,6.15-13.46,7.18A139.22,139.22,0,0,1,200.84,282c-4-9-6.85-18.82,1-27.8Z" transform="translate(-112.32 -244.56)"/><path class="cls-11" d="M382.43,278c-4.87-3.12-3.85-8-3.78-12.58l8,1.06c4.56,5.45,9.38,2.18,14.33.66,4.41-1.37,9.38-2.5,12.24,2.57,2.21,3.91-.39,7.53-2.21,11-3.14,6-7.41,3.8-11.64,1.63C394,279.63,388.61,277.38,382.43,278Z" transform="translate(-112.32 -244.56)"/><path class="cls-12" d="M303,333.93l25.42.05c5.62,5.37,11.42,8.35,18,1.47,11.81.18,20.74,5.24,23.46,17,1.65,7.09,4.37,16.19-7,19.33-4.92,1.77-10.13.49-15.15,1.43-5.53.17-10.66-1.65-15.88-3-14.81-5.89-29-.73-43.38,2.24a20.7,20.7,0,0,1-5.39.1c-5.89-2.59-11.65-.09-17.46.49-9.18-22.68-3.57-33.53,19.71-38.15C291.61,341.48,297.45,340.46,303,333.93Z" transform="translate(-112.32 -244.56)"/><path class="cls-13" d="M447.07,458c.55,5.71,18.23,15.95-4.39,15.7-4.44-.05-4.79,1.67.11,13.59,3.55,8.63,7.8,16.68-7.69,15.55-17.38,1.34-6.71-14.46-12.43-20.24h0C427.68,471.32,430.91,458.29,447.07,458Z" transform="translate(-112.32 -244.56)"/><path class="cls-14" d="M285.85,370.3q23.2-13.23,48.28-4c-2.19,18.17-15.73,4.18-21.83,8.3,6.85-.19,14.63,1.79,22.85.78,5.25-.64,10.87,2.27,7,9.92a197.72,197.72,0,0,1-48.19.49C290.16,381.2,283.85,377.89,285.85,370.3Z" transform="translate(-112.32 -244.56)"/><path class="cls-15" d="M334.15,322.42c-6.57-.24-13.35,0-16.53-7.6-2.82-4.38-2.92-8.71.24-13,4.77-10,12.4-8.09,20.36-4.91C345.73,306.84,343.29,315.16,334.15,322.42Z" transform="translate(-112.32 -244.56)"/><path class="cls-3" d="M437.74,398.15c-4.25,5.77-8.06,10.44-.91,18,8,8.43,10.68,19.3,2.6,30.09-3.92,0-11.34-.66-10.63-2.36,6.26-14.83-7-29-.84-43.39C430.09,395.51,433.8,396.12,437.74,398.15Z" transform="translate(-112.32 -244.56)"/><path class="cls-16" d="M342.11,385.32c-3.52-11.67-13.24-6.23-20.31-6.74s-14.41,1.1-23.52,2c3.75-11.63,12-11.35,19.27-9.52,7.08,1.78,13,3.77,16.58-4.71l15.74,4.37c4.76,3.13,4.4,7.78,3.76,12.52C350.26,386.45,346.19,386,342.11,385.32Z" transform="translate(-112.32 -244.56)"/><path class="cls-17" d="M285.51,634.94c-14.52-1.72-29.61,4-43.69-3.35,9.65-8.7,21.24-3.45,32-4.4,9.75.51,5.21-7,6-11.13,1.53-8.26-2.34-17.12,2.64-25.07l4.72.42Q286.31,613.17,285.51,634.94Z" transform="translate(-112.32 -244.56)"/><path class="cls-13" d="M434.89,506.58c4.88,5.77,9,11.5-1.16,16.19-5.79,2.66-1.9,8.14-3.56,12-13,3.91-2-11.95-10.09-12.11C426.66,518.8,421.43,504.15,434.89,506.58Z" transform="translate(-112.32 -244.56)"/><path class="cls-6" d="M282.4,591c-.11,10.51,0,21-.42,31.54-.21,5.11-1.56,9.94-8.19,4.66,10.69-19.3,7.81-32.73-8.59-40C271.31,586.74,277.64,585.35,282.4,591Z" transform="translate(-112.32 -244.56)"/><path class="cls-18" d="M265.67,373c5.36-1.86,8.2-18,16.55-2.9,2.42,5.39,4.57,10.7-3.71,13.06a22.83,22.83,0,0,1-12.95-8.77Z" transform="translate(-112.32 -244.56)"/><path class="cls-19" d="M346.46,335.45c-1.62,5.63-2.73,13.75-9,13.73-8.37,0-7.36-9.18-9-15.2l13.78-.51Z" transform="translate(-112.32 -244.56)"/><path class="cls-7" d="M355,587.19c-10.39,12.25-4,26.4-4.56,39.76C345.86,613,338.23,598.71,355,587.19Z" transform="translate(-112.32 -244.56)"/><path class="cls-20" d="M353.63,383.21c-4.68-3.15-3.26-8.13-3.75-12.53,5.13-9.24,9-3.31,13.05,1.06C365.23,379.92,359.05,381.26,353.63,383.21Z" transform="translate(-112.32 -244.56)"/><path class="cls-16" d="M278.51,383.14c4.53-3.42,3.11-8.53,3.71-13.06,1.21.13,2.42.2,3.63.22,4.09,4.45,9.69,8.12,8.07,15.52C288.64,385.76,283.06,387.37,278.51,383.14Z" transform="translate(-112.32 -244.56)"/><path class="cls-3" d="M418.16,397.19c-.71,2.91-2.73,4.75-5.43,3.43-2-1-4.58-3.47-4.65-5.37-.15-3.74,3.51-2.27,5.74-2.48C417,392.46,418.7,393.78,418.16,397.19Z" transform="translate(-112.32 -244.56)"/><path class="cls-13" d="M422.67,482.6c-2.52,3.55-4.08,9.28-10.22,5.31-1-.66-1.56-4.28-.78-5.17,3.35-3.79,7.28.71,11-.14Z" transform="translate(-112.32 -244.56)"/><path class="cls-21" d="M495.18,285.73l-4.65,9.8c-3.62-2.35-5.11-5.65-2.95-9.48C489.61,282.47,492.52,283.19,495.18,285.73Z" transform="translate(-112.32 -244.56)"/><path class="cls-22" d="M229.53,269.89q2-3.64,3.91-7.28l8.24,2.43c6.43-2.36,17.46,3.69,17.64-10.47,0-3.11,5-7.5,10.51-4.33l16,.33c-.67,12.13-9.52,21.4-15.35,30-8,11.7-21.65-.37-32.85-2.49A14.24,14.24,0,0,1,229.53,269.89Z" transform="translate(-112.32 -244.56)"/><path class="cls-23" d="M311,315.48c-6.55,8.42-13.83,9.25-21.34,1.53-5.43-5.57-5.2-12.11.05-17.38,7.14-7.18,14.66-8.17,21,1.53C313.52,305.87,313.49,310.65,311,315.48Z" transform="translate(-112.32 -244.56)"/><path class="cls-24" d="M229.53,269.89c5.14.3,7.93,2.93,8.11,8.15-4.67,5.91,1.55,8.33,3.87,12-15.34,10.63-20.77,1.36-24.18-12,2.69-4.77,9.28-3.61,12.21-8Z" transform="translate(-112.32 -244.56)"/><path class="cls-25" d="M303,333.93c-.92,6.18-.61,15-8,15.38s-8.22-8.3-9.64-14.48Z" transform="translate(-112.32 -244.56)"/><path class="cls-26" d="M311,315.48l-.33-14.32,7.24.69-.24,13Z" transform="translate(-112.32 -244.56)"/><path class="cls-27" d="M229.54,270.09c-.43,8.19-6.41,8-12.21,8C214.36,264.71,225,272,229.54,270.09Z" transform="translate(-112.32 -244.56)"/><circle class="cls-28" cx="186.91" cy="63.84" r="5.62"/><circle class="cls-28" cx="218.54" cy="63.63" r="5.62"/></svg>