<svg id="Layer_1" data-name="Layer 1" xmlns="http://www.w3.org/2000/svg" viewBox="0 0 448.86 468.95"><defs><style>.cls-1{fill:#fed001;}.cls-2{fill:#f9cd02;}.cls-3{fill:#f8ce03;}.cls-4{fill:#f9d103;}.cls-5{fill:#facd01;}.cls-6{fill:#f3cb06;}.cls-7{fill:#f3cd0e;}.cls-8{fill:#debe0e;}.cls-9{fill:#efcb05;}.cls-10{fill:#fcdc00;}.cls-11{fill:#f9cf03;}.cls-12{fill:#fdd310;}.cls-13{fill:#fcfaf6;}.cls-14{fill:#e76891;}.cls-15{fill:#fbf9f6;}.cls-16{fill:#120c08;}.cls-17{fill:#050403;}.cls-18{fill:#f9d20e;}.cls-19{fill:#e96a8d;}.cls-20{fill:#d5607e;}.cls-21{fill:#f5d10b;}.cls-22{fill:#f0cc09;}.cls-23{fill:#f2cb06;}.cls-24{fill:#edca03;}.cls-25{fill:#fad905;}.cls-26{fill:#fed21a;}.cls-27{fill:#fedd02;}.cls-28{fill:#d6b805;}.cls-29{fill:#f0c906;}.cls-30{fill:#2e1914;}.cls-31{fill:#f56ca1;}.cls-32{fill:#fbfbf9;}.cls-33{fill:#fcfcfa;}.cls-34{fill:#f7f4e9;}.cls-35{fill:#fdd20b;}.cls-36{fill:#d8ae18;}.cls-37{fill:#b89e22;}.cls-38{fill:#cca818;}.cls-39{fill:#2b2a2b;}.cls-40{fill:#434444;}.cls-41{fill:#3b3b3c;}.cls-42{fill:#3c3b3b;}</style></defs><path class="cls-1" d="M272.93,673.24c-14.37-3-32.8,8-42.25-12.12,1.61-5.69,8.08-4,11.3-7.44,5.51-5.88,11.13-11.49,9.59-20.65-1.65-9.76-9.45-11.89-17.19-14.12-18.28-5.27-37.55-8.27-51.71-22.8l.25.15c-43.15-15.32-60.19-48.91-64.45-91.47.35-12.15-.82-24.37,1.12-36.47,13.28-15.53,23.95-16.72,36-2.09,10.88,13.22,21.59,1.44,32.32,1.7a47.51,47.51,0,0,1,13.91,1.26c8,2.58,16.44,2.78,24.58,4.6,12.07,3.19,24.54,2,36.79,3.35a46.89,46.89,0,0,1,7.53,1.4,225.54,225.54,0,0,0,72.78-.21,89.27,89.27,0,0,1,18.85-2.05c10.81.23,21.18-3.06,31.83-4a60.48,60.48,0,0,1,20.33,2.32c1.68.52,8.61,9.94,6.35-2.28a14.34,14.34,0,0,1,5.85-2.85c9.2-.26,18.19,2,19.95,11.81,2,11.35-8.08,13.19-16.33,15.44-6.56,1.78-10.29,6.48-13.06,12.23-3.18,5.83-4.6,12.65-9.78,17.35-5.32,1.44-8.19-3.55-13.8-6.69.91,26.35-10.86,39.51-34.85,47.2-11.89,3.82-30.54,13.32-20,34.59,6.22,16.68-8.32,13.64-16.19,17-13.67,3.59-29.43-6.9-41.66,6.2C284.58,641.81,289.35,659.26,272.93,673.24Z" transform="translate(-85.78 -204.74)"/><path class="cls-2" d="M474.46,395.74c20,12.68,27.46,34.33,38.47,53.45,14.82,16,15.89,35.88,15.88,56.05.83,8.35-1.87,17,1.87,25.12,6.3,25.5-4,51.85,4,77.27a19.24,19.24,0,0,1-3.3,5.45c-11,8.22-14.94-8.07-23.94-6.81-3.8.62-8,1.78-9.22-3.61-.87-3.8,1.77-5.3,5-6.29,4.37-1.33,8.65-2.93,13-4.42,5.73-18.44,5.42-36.58-2.77-54.3-2.27-6.9-2.8-14.25-5.43-21-6.08-18.37-8-37.83-14.88-55.93-1.63-1.3.69-5.93-4-4.46.08,7.3.13,14.38-1.64,21.32-3.1,8-1.76,17.6-8.61,24.24-8.85,6-.7,19-10.15,24.86-10.27-1.1-5.15-9.25-6.54-13.64-6.37,13.66,17.41,20.5,9,35.44-9.58,8.38-16.51,1-22.56-4.73-12.72-12-26.07-23.35-36.89-37.19,5.23-8.6,6.53-22.38,22.8-15.92,3.91,1.56,8.71-2.25,8.43-6-.78-10.23-10.1-9.81-17.31-11.7-.13-10.65,9.8-10.53,15.85-14,11.35-6.5,20-14.29,20.45-28.34C469.57,420.2,459.25,403.41,474.46,395.74Z" transform="translate(-85.78 -204.74)"/><path class="cls-3" d="M205.94,244.41c-25-6.67-48.76-6.33-69.45,12.1-22.56,20.11-28.11,45-16.06,73.16,3.74,8.74,7.59,17.43,11.22,26.22,3.93,9.52,5.34,19.43-5.34,25-11.48,6-17.37-2.72-22.48-11.26-2.4-4-4.72-8.11-7.07-12.16,0-12.56-7.91-24-5.23-36.95,3.93-9.38,3.12-18.86.59-28.36q0-6.23,0-12.45c1.18-23.68,9.87-42,34.82-48.87,45.68-18,87.24-14.17,122.55,22.92,4,2.93,8,5.89,7.91,11.63-3.86,12.2-9.57,13.32-17.2,2.83l-15.32-13.46C222.55,244.06,211.9,248.48,205.94,244.41Z" transform="translate(-85.78 -204.74)"/><path class="cls-4" d="M520.49,362.61c-1.69,2.6-3.34,5.24-5.08,7.81-5,7.38-10.26,15.54-20.74,11.12-11.1-4.69-11.24-14.08-7.25-24,3.54-8.77,6.46-17.89,11-26.15,14.13-26,8.38-49.26-10.29-69.64-19.52-21.31-43.9-26.68-71.6-17.25-8.1,2.75-14.62,9.59-23.93,9-6-2.28-12.76-3.37-15.53-10.43,1.72-12.07,13.8-8.29,20.25-13.14,31.66-12.21,63.26-12.73,94.78.53,14.88,6.53,24,18.16,29.6,33,5.32,19.83,9.81,39.78,9,60.51-2.41,6.59.42,14.21-4,20.39l-1.3,4.45c1.28,5.59,1.64,10.86-4.81,13.77Z" transform="translate(-85.78 -204.74)"/><path class="cls-5" d="M335.21,601.8c-10.21-5-20-8.75-3.67-20.17,13.16-9.19,20.11-25.47,40.66-26.14,9.4-.3,16.17-13.13,16.06-26.08-.06-6.86-8.51-17.46,2.7-20.7,12.27-3.54,8.63,12.87,16,16.83,18.68,1,20,12.21,13.34,25.39-7.73,15.33-9.18,29.51,1.38,43.82a6.43,6.43,0,0,1-.7,6.4l-4.48,1.3c-5.12,1.85-8.8,7.26-15.14,6.12a34.65,34.65,0,0,1-13.1-5.16C370.81,591.66,353.33,588,335.21,601.8Z" transform="translate(-85.78 -204.74)"/><path class="cls-6" d="M363.92,654.34c3.38,6.7,27.8-3.27,13.75,17.25-14.28,1.13-28.79,5.45-42.37-3.07-7.57-13,.1-26.87-2.37-40.11a42.21,42.21,0,0,1,.44-6.83c5.08-10.82,14.92-2,21.86-5.18L355,640.06C357.75,644.94,359.4,650.54,363.92,654.34Z" transform="translate(-85.78 -204.74)"/><path class="cls-7" d="M473.76,558.73l-4.08,1.41c-3.28-3.42-3.62-7-.57-10.74,2.89-13.82-15.4-22.88-7.91-38.43,2.77,5.09,5.33,9.83,7.9,14.56,6-7.06-.92-16.73,4.87-23.83,9-5.63.42-18.21,9.48-23.8,10.26,10.39,4,24.66,8.64,36.37a36.42,36.42,0,0,1,.1,15.1c-3.14,9.24-4.42,19.73-15.48,23.88Z" transform="translate(-85.78 -204.74)"/><path class="cls-6" d="M334.89,621.34l-2.25-.4-2.2.62c-15.94-1.19-31.87-2.43-47.74.63h-2.21l-2.13.61c14-14.3,31.91-2.94,47.46-7.07,5.05-2.56,9.23-3.15,9.79,4.34Z" transform="translate(-85.78 -204.74)"/><path class="cls-8" d="M516.19,549.42q.64-7.15,1.3-14.32c6.17,19.1,8.45,38.12-1.33,56.85Z" transform="translate(-85.78 -204.74)"/><path class="cls-9" d="M531.44,611.37c-5.19,6.5-12.76,4.28-19.44,5.29-1.9-3.3.33-8.42-4.6-10.39C517.46,598.38,521.87,616.93,531.44,611.37Z" transform="translate(-85.78 -204.74)"/><path class="cls-10" d="M92.12,292.18c6.07,9.58,6.62,19.05-.59,28.36C88.69,311,90,301.59,92.12,292.18Z" transform="translate(-85.78 -204.74)"/><path class="cls-8" d="M526.86,505.63a14.17,14.17,0,0,0,3.56,2.37q.12,11.18.26,22.36C523.79,523,526.78,514.08,526.86,505.63Z" transform="translate(-85.78 -204.74)"/><path class="cls-11" d="M85.78,611.35c9.43-24.87.73-51.2,6.24-76.38,4.31-8.12-.44-17.47,3.49-25.64-.79-30.06,11.69-56.14,25.16-81.8,7.22-13.76,15.42-27,23.18-40.51,8.65.41,13.17,5.47,12.47,13.56-1.57,18.17,7.11,23.79,23.86,21.49,4.61-.63,10.42-.06,11.5,5.39,1,5.13-4.05,7.71-8,10.14-6.36,3.46-14,1.55-21.09,5,1.57,15.83,23.82,14.58,25.33,30.11C173,476.31,154.64,492.86,149,462.07c-.39-2.1-5-5.18-7.3-4.88-9.61,1.26-4.93,11.51-10.25,17.65-1-4.66-1.77-8.26-2.71-11.81-.09-.34-1.52-.62-2.2-.44s-1.21,1-1.81,1.48c-4.09,4.09-4.44,10.47-8.84,14.38-10.37,17.64-6.89,37.89-10.75,56.76-1.35,20.51-6.12,41.17,2.79,61.21,6.71-.79,9.43,3.84,11.93,8.75-9.21.53-9,15.78-18.17,13.16C96.62,616.9,88.05,619.93,85.78,611.35Z" transform="translate(-85.78 -204.74)"/><path class="cls-12" d="M469.11,549.4l.57,10.74A21,21,0,0,1,459.21,573c-8.18,3.54-13.67-6.11-23.56-3.76a39.81,39.81,0,0,1-.26,22c-3.85,3.49-8,6.39-13.52,6.13-22.63-11-17.93-29.31-8.51-44.6,8.41-13.63,6.64-20.66-6.42-27.23-.71-6.92,1.53-13.11,4.82-19,15.91,2.22,21.87,17.14,32.85,25.65C452.53,538.28,457.2,548.93,469.11,549.4Z" transform="translate(-85.78 -204.74)"/><path class="cls-13" d="M261.65,482.92c-12.52.47-25.06,1.15-37-3.81-2.85-4.55-4.33-9.4-3.37-14.81,1.45-7.78,3.23-15.49,4.69-23.29,1.78-8.41,3.21-16.91,6.46-24.92,6.26-15.46,18.68-17.86,32.89-14.33s13.9,15.08,12.58,26.38a121.19,121.19,0,0,1-4.57,20.55C268,459.59,274.58,474.58,261.65,482.92Z" transform="translate(-85.78 -204.74)"/><path class="cls-14" d="M261.65,482.92c3.57-11.54-.58-24.38,6-35.41l4-.11c27.17,2.57,55-5.31,81.63,5.46-5.09,7.11-5.09,7.11-16,7.78,5.94-.38,12.11,2.54,17.79-2.32a7,7,0,0,1,6.66.26c7.28,7,9.06,14.7,3.06,23.39l-18.53,1.19a363.68,363.68,0,0,1-79.43,0Z" transform="translate(-85.78 -204.74)"/><path class="cls-15" d="M364.77,482q-2.79-12.45-5.57-24.91a28.15,28.15,0,0,1-6.41-14.67c.33-12.65-11.17-29.27,10-35.28,16-4.52,30.15,7.29,35.95,27.89-1.09,13.12,1.78,24.65,13.49,32.58,1.46,12.61-11.11,4.74-14.7,10Z" transform="translate(-85.78 -204.74)"/><path class="cls-16" d="M412.72,471.2c-18.12-2.85-21.34-15-19.2-30.53,21.94-11.24,44-21.66,69.17-9.5,9.72,7.5,5.71,14.09-1.09,20.93-10.14,10.19-24,13.78-35.92,20.83l-2.19-.27-2.11.66C417.82,475.35,415.28,473.24,412.72,471.2Z" transform="translate(-85.78 -204.74)"/><path class="cls-17" d="M230.38,444.69c.16,6.83.88,13.78-4.08,19.54a34.17,34.17,0,0,1-25.64,9.22l-12.78-.73c-4-2.26-8-4.48-12-6.8-10.77-6.28-26.79-13.81-24.31-25.21,3-13.63,20.24-3.14,30.75-6.16C199.88,430.71,216.3,432.21,230.38,444.69Z" transform="translate(-85.78 -204.74)"/><path class="cls-18" d="M335.61,620.06l-9.79-4.34c1.62-5.65,16.48-2.42,9.39-13.92,21-24,21-24,66.72,3.67l-29.8,9.85c-.72,2.26-1.89,2.42-3.47.76l-13.43.32C351.08,630.35,342,618.28,335.61,620.06Z" transform="translate(-85.78 -204.74)"/><path class="cls-19" d="M266.81,483.17h79.42C319.77,489.71,293.29,489.27,266.81,483.17Z" transform="translate(-85.78 -204.74)"/><path class="cls-20" d="M200.66,473.45c7.45-6.1,16.49-7.78,25.64-9.21q-.84,7.42-1.67,14.86C216.47,477.93,207.65,479.54,200.66,473.45Z" transform="translate(-85.78 -204.74)"/><path class="cls-2" d="M412.72,471.2l8.66,2.12c1.56,1.75,4,3.29,4.52,5.31,1.49,5.73-3.48,3.89-5.27,3.07-7.41-3.39-15.17-4-23.09-4.11C400.72,471,407.56,473.08,412.72,471.2Z" transform="translate(-85.78 -204.74)"/><path class="cls-1" d="M230.38,444.69l-48-10.14c-1.21-3.13,9.94-9.63,1.54-7.67-27.36,6.4-38.6.39-32.37-28.9.63-3-4.95-7.27-7.65-11,4.65-14.23,14.61-28.43.24-42.77-1.51-7.32,3.7-6.85,8.27-7.13,17,9.25,31.06,28.29,54.51,16.74,10.74-6.48,21-13.26,21.77-27.59,4.16-16.95-10.2-29.87-10-45.93,2-3.41,4.31-5.83,8.6-3.55,5.78-.66,10.64-2.69,13-8.55,7.25,4.08,13.41,5.57,14.18-5.88l14,.24c6.73-4.84,18.63-8.33,4.84-18.51-4.6-4.63-10.3-10.14-2.49-15.52,10.54-7.26,19.41-2.81,26.11,7,2.29-1,6.13,5.81,7.14-1.31,1.16-8.12-1.19-16.53,2-24.49a31.56,31.56,0,0,1,.33-4.76c4.62-.68,8.85-.6,10.22,5.14,2.91,9.92,3.26,19.82-.26,29.68-.43,8.14,4.15,5.62,8.79,4.47,6.26-1.54,14-10.94,18.51-2.82,5.59,10-11.36,7.73-12.68,15.62,2.48,6.74,10.65,1.68,14.16,7,.24,9.25-10.68,6.41-13.68,11.7,7.42-3.42,15.86-10.39,22.2.82,4.2,7.43-1.53,11.34-8.64,13.13-1.34.34-1.23,1,1.09,3.34.27.26-1.85,6.58,2.67.68,7.1-9.26,10.3-29.19,30.33-17.91,9.15,4.07,14.33-3.92,21-7,35.75-16.61,71.8,2.64,78.67,42.17-4.91,2.66-9,.47-13.13-2-6.77-5.51-9.59-14.33-16.85-19.56-15.22-11-30.49-12.12-45.77-.58-15.62,11.79-16.86,27.9-11.13,44.61,5.36,15.64,23.26,24.7,40.12,22,8.43-1.34,16.37-6.25,25.4-3.48,3.2,2.08,5.27,4.57,3.09,8.57l14,35.11c-10.52,9.63,6.68,28.41-11.77,35.43-23.66-1.19-45.83,8.44-69.17,9.5-2.38-7.31,1-17.39-5.9-21.89-8.28-5.42-19.59-10.31-28.71-6.6-9.52,3.88,0,13.59-.69,20.74-.4,3.83.16,7.76.28,11.64-29.59,8.81-59.6,9.14-89.87,4.48l-1-1.52c.9-5.38,2.36-10.74,2.56-16.14.31-8.47,10.8-21.09-5.42-23.82-13.82-2.33-29-1.49-29.6,19.53C235.05,433,235.24,439.73,230.38,444.69Z" transform="translate(-85.78 -204.74)"/><path class="cls-4" d="M379,275.92c-19.46.9-24.41,16.72-32.36,30.29,2.52-7.36-20.89-17.29,3.15-22.8.66-.15,1.29-4.4.49-6-1.57-3.19-5.46-4.45-8.07-2.44-7.19,5.52-14.08,6-22.54.16l21.21-8.81c-2.37-4.28-9.45-3.2-10-9.17,12.67,0,26.58,12.65,37.67-3.65,6.52-.1,13.22-.83,18,5.12C386.36,265.37,371.85,266,379,275.92Z" transform="translate(-85.78 -204.74)"/><path class="cls-21" d="M460.43,360.63l-6.58-7c4.24-16,7.68-32.29,15.17-47.27l9.68,4.74C483.07,331.41,476.49,347.76,460.43,360.63Z" transform="translate(-85.78 -204.74)"/><path class="cls-1" d="M386.56,258.59c-6.33-.56-13.57,2.06-18-5.12,1.7-4.73,4.61-8.18,9.85-9.11,6.72,0,11.43,3.08,14.16,9.19Z" transform="translate(-85.78 -204.74)"/><path class="cls-22" d="M152.5,339.69c-3.58.11-6.67,1.1-8.41,4.56-12.51-26.39-8.17-51,12-68,21.08-17.75,46.74-17.56,71.15.52l-7,6.3a15.74,15.74,0,0,1-9.3.89c-41.33-6.45-54.08,4.36-55.51,47.08C155.33,334.27,155.09,337.36,152.5,339.69Z" transform="translate(-85.78 -204.74)"/><path class="cls-23" d="M205.94,244.41c7.05,2.1,25.24-16,18.9,10.37Z" transform="translate(-85.78 -204.74)"/><path class="cls-24" d="M95.51,509.33c0,8.71,3.63,17.9-3.49,25.64l0-23.23A34.77,34.77,0,0,0,95.51,509.33Z" transform="translate(-85.78 -204.74)"/><path class="cls-25" d="M488.76,507.93c-.34,2.66-.67,5.33-1,8-8.66-11.86-2.36-25.41-4.31-38q.39-17.26.77-34.52c12.07,4.49,4.4,14.62,6.34,22C489.62,479.56,492.6,493.89,488.76,507.93Z" transform="translate(-85.78 -204.74)"/><path class="cls-26" d="M474,501.7c-1.29,8,3.2,17.2-4.87,23.83C471.28,517.7,464.25,508,474,501.7Z" transform="translate(-85.78 -204.74)"/><path class="cls-27" d="M107.26,297.27c3.73,4.38,3.69,8.87,1.48,13.88C103,306.77,107.66,301.67,107.26,297.27Z" transform="translate(-85.78 -204.74)"/><path class="cls-24" d="M107.89,596.42c-13.45-19.83-7.45-40.55-2.79-61.21C107,555.57,102,576.24,107.89,596.42Z" transform="translate(-85.78 -204.74)"/><path class="cls-28" d="M316.26,239.85q.14-14.83.26-29.68C324.05,220.13,321.51,230,316.26,239.85Z" transform="translate(-85.78 -204.74)"/><path class="cls-29" d="M435.39,591.24c-2.45-9.84-13-21-1.81-29.42,11.78-8.83,16.33,8.71,25.63,11.2A53.3,53.3,0,0,1,435.39,591.24Z" transform="translate(-85.78 -204.74)"/><path class="cls-28" d="M306,209.79c.29,8.6,2,17.46.53,25.75-1.87,10.47-6.34,5.47-9.69.05C308.12,229.9,298.12,216.7,306,209.79Z" transform="translate(-85.78 -204.74)"/><path class="cls-30" d="M268.63,449l89.87-4.48.69,12.52a13.52,13.52,0,0,0-4.34,1.34v0c-22-6.94-44.61-2.64-66.92-3.85C281.41,454.24,272,461,268.63,449Z" transform="translate(-85.78 -204.74)"/><path class="cls-31" d="M354.85,458.42c-7,7.71-15.39,5.44-24,1.58l24-1.56Z" transform="translate(-85.78 -204.74)"/><path class="cls-32" d="M469,306.32c1.83,17.95-2.42,34-15.17,47.27-35.58,16.72-67.85,4.71-72.08-27.24-2.89-21.88,5.36-38.81,25.87-48.26,19.17-8.84,41.48-2,54.35,16.09C464.69,298,466.7,302.26,469,306.32Z" transform="translate(-85.78 -204.74)"/><path class="cls-33" d="M152.5,339.69c-7.06-20.06-6.83-38.78,10.64-53.93,18.24-15.82,37.51-13.57,57.1-2.67,12.29,13.33,19.72,28.1,13.89,46.78-8.12,1.5-7.78-6.66-11.64-10a20.24,20.24,0,0,0-9.08-5.72c-5.28-1.45-9,.56-11.43,5.21-3.84,8.67,3.69,13.44,6.74,19.7,2.63,6,4.71,12.11,1.93,18.69C185.4,370.5,167.63,359.33,152.5,339.69Z" transform="translate(-85.78 -204.74)"/><path class="cls-34" d="M226.1,315.78l8,14.09c-1.95,14.2-10.55,22.84-23.48,27.86-3.23-5.22-5.16-10.8-4.55-17C213.39,332.88,218.78,323.56,226.1,315.78Z" transform="translate(-85.78 -204.74)"/><path class="cls-35" d="M248.52,315.05c12.5,11.27,12.5,11.27,7.54,36.83C253.26,338.19,251,327.28,248.52,315.05Z" transform="translate(-85.78 -204.74)"/><path class="cls-36" d="M292.14,373c9.06,7.47,19,12.33,31.26,9.76-13,4.69-26.44,10.82-31.17-9.85Z" transform="translate(-85.78 -204.74)"/><path class="cls-37" d="M292.23,372.94c-8.71-10.62-7.6-21.87-.09-33.5V373Z" transform="translate(-85.78 -204.74)"/><path class="cls-38" d="M321.51,331c8.22,5,11.05,9.51,9.91,16.59C323.78,345.73,323.6,339.74,321.51,331Z" transform="translate(-85.78 -204.74)"/><path class="cls-7" d="M489,461.65a42.69,42.69,0,0,1,3.58,2.72c-2.19,14.44,3.69,29.58-3.81,43.56Q488.87,484.8,489,461.65Z" transform="translate(-85.78 -204.74)"/><path class="cls-39" d="M451,310.46c10.73,6.7,5.8,15.61,2.94,23.79-2.29,6.53-8.68,6.53-13.93,5.31-9.59-2.23-14.5-8.53-12.95-18.82C435,317.21,440.89,309,451,310.46Z" transform="translate(-85.78 -204.74)"/><path class="cls-40" d="M451,310.46c-6.39,7.09-13,13.69-23.94,10.28C431.49,309.09,437.73,301.64,451,310.46Z" transform="translate(-85.78 -204.74)"/><path class="cls-41" d="M226.1,315.78c2.28,15.45-3.11,24.77-20,24.91-6.91-6.85-23.24-10.3-9-24.78,7.14-1.26,12.82-7.81,20.89-5.73Q222,313,226.1,315.78Z" transform="translate(-85.78 -204.74)"/><path class="cls-42" d="M218,310.18c-6.6,3.24-11.13,14-20.89,5.73C202.19,307.22,208.52,303,218,310.18Z" transform="translate(-85.78 -204.74)"/></svg>