<svg id="Layer_1" data-name="Layer 1" xmlns="http://www.w3.org/2000/svg" viewBox="0 0 365.74 369.25"><defs><style>.cls-1{fill:#aa499b;}.cls-2{fill:#a9489a;}.cls-3{fill:#a64898;}.cls-4{fill:#ad4aa0;}.cls-5{fill:#a44797;}.cls-6{fill:#b84aa1;}.cls-7{fill:#a7489a;}.cls-8{fill:#faf9fb;}.cls-9{fill:#faf8fa;}.cls-10{fill:#fbf8fa;}.cls-11{fill:#ab4a9e;}.cls-12{fill:#e56692;}.cls-13{fill:#a9499a;}.cls-14{fill:#ad519e;}.cls-15{fill:#110b0e;}.cls-16{fill:#aa4a9b;}.cls-17{fill:#0e090c;}.cls-18{fill:#a94a98;}.cls-19{fill:#bb4dab;}.cls-20{fill:#9e418b;}.cls-21{fill:#a43d8f;}.cls-22{fill:#a94b9a;}.cls-23{fill:#aa4899;}.cls-24{fill:#a24792;}.cls-25{fill:#af57a1;}.cls-26{fill:#131313;}.cls-27{fill:#3d3d3c;}.cls-28{fill:#494947;}.cls-29{fill:#9f4190;}.cls-30{fill:#fbfafb;}.cls-31{fill:#d4d0d5;}.cls-32{fill:#e96a95;}.cls-33{fill:#f8f7f9;}.cls-34{fill:#a84d9a;}.cls-35{fill:#63263b;}.cls-36{fill:#d5d3d6;}.cls-37{fill:#faf9fa;}.cls-38{fill:#ad4fa1;}.cls-39{fill:#ac4ba1;}.cls-40{fill:#a14693;}.cls-41{fill:#a74a98;}.cls-42{fill:#1f1e1e;}.cls-43{fill:#040404;}.cls-44{fill:#272826;}.cls-45{fill:#babebf;}.cls-46{fill:#191a1a;}</style></defs><path class="cls-1" d="M237.91,495.81c-29.56-16.66-39.8-44.8-44.49-75.8-2.33-15.46-4.52-31.22-4-46.75.48-15.22-5-22-19.85-21.92-5-3.89-11.85.43-16.74-3.83a39.26,39.26,0,0,1-8.35-5.81c-5.64-8-15.73-13.12-15.82-24.63-11-26.72-5-50.84,13.41-71.5,13-14.62,29.06-26.54,28-49.15-.29-6,4.87-9.91,11-11.53,6.27-1.67,7.36,2.91,8.82,7.1,8,7.38,18,13.76,13.61,27.28l3.69,6.78c-.93,15.32-14.87,10.09-22.77,14.41a74.19,74.19,0,0,0-9.07,5.11c-14,11.09-25.81,23.59-27.61,42.53.09,28.39,7,35.87,39.92,43.35a30,30,0,0,1,5.22,1.33,14.54,14.54,0,0,1,4.44,2.85c1.44,2.12,3.06,4.91,2.07,7-5.35,11.25,5.09,1.28,5.7,4.31,3.4,1.84,5.62,4.81,7.46,8,8.29,14.41,20,17,34.62,10.3a28.17,28.17,0,0,1,10.68-2.79c4.8.07,9.25.92,12,5.46,2.9,9.81-10.81,21.37,3.2,30,21.29,7.8,42.63,7.67,64,.71,14.77-5.64,8.42-16.3,6.2-25.93,2.46-3.54-.58-7.45.67-11.12,1.54-2.29,3.54-3.79,6.43-3.76a10.8,10.8,0,0,1,4.74,3c20.45,22.4,32.35,21.9,50.5-2.14,7.2,1.09,3-4.5,4.09-7,2-4.58-1.77-3.09-3.8-3.47-12.15-20.83-31.35-17-50.24-14.4-9.2-8.67-.49-14.62,3.25-21.33a13.15,13.15,0,0,1,4.94-2.44c35.19-7.52,39.43-16.84,21.39-47.11a37,37,0,0,0-3.31-17.37c-2.2-5.19-1.1-9.78,6.5-8.53,26.77,18.81,36.88,46.47,40.49,77.21,1.05,8.93,2.08,16.3,13.31,16.24,5.88,2.63,12.58,4.48,12.59,12.83-24.34,6-33.19,20.58-31.87,46.14C424,411.67,418,434,409.54,455.28c-7,17.59-18.2,31.2-34.64,40.57-5.44,5.39-14.61,3.5-19.48,10-3.51,7.29-3.16,14.78-1.22,22.32a23.3,23.3,0,0,0,2.95,3.69c4.91,5.18,12.43,1.79,17.82,5.38,10.5,3,7.82,7.2,1.1,11.79-7.29,2.76-14.91.66-22.31,1.49-14.46,1.62-20.9-5.41-21.46-19.12-4.06-9,4.3-21-6.81-28.31-12-.22-24.05.39-35.92-.89-12.5-1.35-15.15,4.11-14.48,15.06.57,9.26,1.75,18.92-3.55,27.57-12.46,10.22-27.21,3.88-40.84,5.63-13.06-1.59-14.51-6.65-4.57-15.13,7.07-2.23,14.83,1.57,21.74-2.36a15,15,0,0,0,3.92-3.34c.94-9.7,6-19.8-2.9-28.44C245.08,499.67,240.86,499,237.91,495.81Z" transform="translate(-123.13 -183.99)"/><path class="cls-2" d="M469.61,280.26c-8.16-14.06-16.11-28.31-29.48-38.34a69.15,69.15,0,0,0-12.68-7.78c-7.15-3.26-23.32,4.43-19-11.15,1.5-5.44-5.81-20.51,10.11-20.65.77,0,2.14-4.27,2.15-6.56.1-18.28,10.41-10.63,18.94-7.56,5.54,10.8,3.08,23.22,7,34.35,5.1,11.27,11.6,21.19,24.29,25.19v.29C473.13,258.89,486.64,270.21,469.61,280.26Z" transform="translate(-123.13 -183.99)"/><path class="cls-3" d="M443.48,332.72c19.65-9,29.24-23.88,27.24-45.68,11.11,2.48.59,13.32,6.9,17.82.44,2.33,1.52-2.09-.41-.45-.82.69-1.65.26-1.29-1,3.51-12.08-12.11-27.49,6.43-36.93a9.76,9.76,0,0,1,3.08,8.92c0,11.35-1.36,22.67-.67,34-5.26,15.46-13.56,28.25-30.05,33.81Z" transform="translate(-123.13 -183.99)"/><path class="cls-4" d="M482.35,266.51c-12.68,11.35-1.09,26.63-6,40.09-5.15-6.29.57-14.59-5.64-19.56l-1.11-6.78c8.5-10.4.67-21.47,1.33-32.21C477.44,252.55,480.41,259.22,482.35,266.51Z" transform="translate(-123.13 -183.99)"/><path class="cls-5" d="M333.45,529.62c5,26.63,26.38,17.34,42.62,19.38-14.85,3.57-29.9,9.12-43.09-4.2C330.1,539.64,329.87,534.57,333.45,529.62Z" transform="translate(-123.13 -183.99)"/><path class="cls-4" d="M470.94,247.76c-13.15.24-22.93-9.9-24.29-25.19Q458.8,235.16,470.94,247.76Z" transform="translate(-123.13 -183.99)"/><path class="cls-6" d="M484.76,309.47c-5-11.45-5.9-22.82.67-34C490.86,286.89,489.27,298.2,484.76,309.47Z" transform="translate(-123.13 -183.99)"/><path class="cls-7" d="M231.6,551.78a20.86,20.86,0,0,0-1.54-3.06c13.9-.55,28,1.53,41.48-3.92C260.57,560.42,244.84,549,231.6,551.78Z" transform="translate(-123.13 -183.99)"/><path class="cls-7" d="M231.28,534.4l6.71-1.22,3.78-.23,11.38.22c-6.67,7.37-15.38,2.82-23.11,3.92A9.82,9.82,0,0,0,231.28,534.4Z" transform="translate(-123.13 -183.99)"/><path class="cls-5" d="M352.43,532.54l11.14.4c3.8,1.41,8.65.06,11.4,4.27C367.45,535.69,358.48,541.11,352.43,532.54Z" transform="translate(-123.13 -183.99)"/><path class="cls-8" d="M386.4,260.32c11.18,10.3,19.71,21.45,11.82,37.66-8.13,16.72-22.61,17.73-38.44,15.25-6.13.5-10.45-2.79-14.43-6.83a23.78,23.78,0,0,1-5.23-13.07,52.2,52.2,0,0,1,.6-14.71c2.46-13.24,9.43-22.37,23.23-25.27C372.61,251.88,380.73,252.22,386.4,260.32Z" transform="translate(-123.13 -183.99)"/><path class="cls-9" d="M356.75,333.94c25.74-14.61,37.92-11.13,51.61,14.75,4,3,3.74,6.15.13,9.29-4.54,13.69-12.15,23.52-28.21,24.16-17.51.7-25.14-10.66-31.27-24.24-3.76-2.28-3.75-5.8-3.19-9.52C348.11,342.56,350,336.41,356.75,333.94Z" transform="translate(-123.13 -183.99)"/><path class="cls-10" d="M255.38,366c-26.17,14.72-39.39,9.92-51.1-18.57-3.83-3-4.07-7-3.21-11.28,6.17-15.34,16.52-24.58,34.15-23.47s26.92,11.3,31.06,27.42a18.55,18.55,0,0,1,.68,5.74,48.38,48.38,0,0,1-3.74,13.35C261.42,362.36,259,364.91,255.38,366Z" transform="translate(-123.13 -183.99)"/><path class="cls-11" d="M356.75,333.94l-7.62,14.71c-7.06,2.89.25,10.45-4.59,14.05.6,2.76,3.91,5.79-.85,8-6.72,4-12.42.32-18.27-2.39a17.61,17.61,0,0,1-3.75-4.23c-2.44-4.25-3.67-8.75-2.8-13.67,10.52-13.78,13.32-29.63,12.48-46.47,6.87-8.67,12.28.72,18.4,1.46l10,7.85C362.68,320.71,350.39,326,356.75,333.94Z" transform="translate(-123.13 -183.99)"/><path class="cls-12" d="M341.16,400.06c-24.41,13.59-48.79,11.94-73.13-.21,1.18-12.28,10-15.23,20.22-16.48a129.42,129.42,0,0,0,33.77-.11C331,386,343,385.15,341.16,400.06Z" transform="translate(-123.13 -183.99)"/><path class="cls-13" d="M386.4,260.32,364.85,257c-12.54,3.64-19.84-.16-20.12-14,1.39-4.73,2.45-9.45-2.1-13.34a16.49,16.49,0,0,1-1.65-5c-.3-3.83.56-7.23,3.53-9.88,13.82,7.26,30.71,9.15,40.71,23.09-4.82,5.83.85,8.6,3.82,11.69C394.15,254.92,391.68,257.83,386.4,260.32Z" transform="translate(-123.13 -183.99)"/><path class="cls-14" d="M193,295.67l9.57-24.08c-1.21-5.21,1.45-8.47,5.56-11a17,17,0,0,0,3-.6c5.25.31,9,2.79,10.89,7.74,2.06,8.09,2.16,16.4,2.57,24.68a21.4,21.4,0,0,1-3.76,10.07c-4.63,5-9.28,10-12.69,16-2.09,3.46-3.91,7.08-5.78,10.67-1.57,2.81-3.19,5.59-6.26,7.1l-3.78,0c-3.14-9.06-2.54-18.16-.31-27.28Q192.54,302.27,193,295.67Z" transform="translate(-123.13 -183.99)"/><path class="cls-15" d="M341.16,400.06c-3.68-8.65-10.88-12.36-19.63-13.91a3.31,3.31,0,0,1-4.4-.38c-1-4.55,2.6-7.61,3.7-11.49,1.21-3,2-6.32,5.44-7.74,6.59-1.88,11.63,2.7,17.42,4.14C351.2,381.19,362.21,392,341.16,400.06Z" transform="translate(-123.13 -183.99)"/><path class="cls-16" d="M255.38,366l5.3-7.28c3.38-.42,4.23-3.3,5.55-5.73,2.21-3.32,2.13-7.39,3.6-11a13.81,13.81,0,0,1,10-7.23c8.32,1.9,13.7,7.12,16.83,14.89,2.57,7.08-5.27,9.1-6.88,14.2a15.63,15.63,0,0,1,.11,11.81,6.4,6.4,0,0,1-3.76,3.14c-5.77-3-12-5.16-17.69-8.28C265.32,365.6,260,366.76,255.38,366Z" transform="translate(-123.13 -183.99)"/><path class="cls-17" d="M268.48,370.56c10.37-6,16.71-3.22,19,8.57a5.6,5.6,0,0,1,4.72,5.74,3.59,3.59,0,0,1-4.5,1.65c-8.65,1.37-14.63,6.66-19.65,13.33C252.88,389.85,261.17,380.21,268.48,370.56Z" transform="translate(-123.13 -183.99)"/><path class="cls-7" d="M252.92,533.38c0-12.53,2-25.13-1.52-37.51C264.67,507.85,257.26,520.68,252.92,533.38Z" transform="translate(-123.13 -183.99)"/><path class="cls-7" d="M265.32,521.53c-1.57-10.87-2.63-18.2-3.79-26.25C269.2,506.14,269.2,506.14,265.32,521.53Z" transform="translate(-123.13 -183.99)"/><path class="cls-18" d="M196.13,336.2c.08-3.12.71-6,3.8-7.59,3.47,1.68,4.14,5.22,5.52,8.28l-1.17,10.53c-2,1.4-5.37,4.32-5.75,4C193.85,347.12,197.11,341.3,196.13,336.2Z" transform="translate(-123.13 -183.99)"/><path class="cls-19" d="M352.34,503q.24,15.19.49,30.38C345.7,523.35,346.5,513.2,352.34,503Z" transform="translate(-123.13 -183.99)"/><path class="cls-18" d="M192,308.88q.15,13.64.31,27.28l-4.75-.33C190.42,327.06,186.28,317.16,192,308.88Z" transform="translate(-123.13 -183.99)"/><path class="cls-20" d="M344.54,362.7c1.82-4.59-4.23-11.73,4.59-14.05,0,3.09-.09,6.17-.13,9.25Z" transform="translate(-123.13 -183.99)"/><path class="cls-21" d="M408.49,358c0-3.1-.09-6.19-.13-9.29,6.76-3.86,4.47,2.37,4.43,4.49S415.4,361.43,408.49,358Z" transform="translate(-123.13 -183.99)"/><path class="cls-22" d="M344.51,214.82V226.2c-2.86,4.54-6.83,6.51-10,1.24-6.45-10.6-16.26-13-27.16-11.57-12.17,1.57-10.16-5.14-8.41-12.31,0-1.33-.08-2.67-.13-4l4-.79c5.11.75,10.39-1.88,15.4.81C321,214.91,337.13,207.31,344.51,214.82Z" transform="translate(-123.13 -183.99)"/><path class="cls-23" d="M298.91,203.56c4.31,1.17-3.41,10.89,7.06,8.71,13.36-2.79,26.25-1.57,31.91,14.4.2.56,4.33-.28,6.63-.47V230c2.1,2.11,6.22,3.22,3.82,7.58-1.33,12.25,2.58,20.07,16.51,19.42-11.39,3.44-17.31,12-21.08,22.51,2.73,5-10.4,10.2.2,15.08l5.79,10.79c-5.55,2.4-12.24-6.92-17.18,1.67-13.83-3.5-27.44-8.25-42.06-7.42a15.31,15.31,0,0,1-6.62-9.39c-1-6.07-.85-11.82,4.72-15.94,4.39-1.86,8.58-.43,12.66,1.08,12,4.41,22.34,2.3,29.77-8.27,7.7-11,4.14-21.18-3.64-30.62-1.58-1.92-3.23-3.78-5-5.52-5.56-5.27-11.86-4-18.23-2a78.07,78.07,0,0,1-9.71,3.39,10.08,10.08,0,0,1-7.55-1.56,9.25,9.25,0,0,1-1.57-4.86c1.84-6.64,5.67-12.16,10.07-17.34Z" transform="translate(-123.13 -183.99)"/><path class="cls-1" d="M287.42,226.21c0,1.26,0,2.51,0,3.76a18.28,18.28,0,0,1-2.25,10.34c-4.51,8.75-11.5,14.22-21.27,16-10.08-.81-20.33.13-30.25-2.69-4.48-4.58-3.87-10.53-4.38-16.17.59-6.65,4.58-9.79,10.92-10.48,3.19.12,5.92,1.55,8.75,2.88,11.33,5.31,13.69.83,10.36-9.64a4.84,4.84,0,0,1,2.4-4.18l10.1-1.42C283.76,209.41,286.4,216.72,287.42,226.21Z" transform="translate(-123.13 -183.99)"/><path class="cls-22" d="M287.42,226.21c-4.44-4.88-5.88-13.82-15.64-11.56,7.12-5,15.78-4,23.65-6.06C296.21,216,293,221.67,287.42,226.21Z" transform="translate(-123.13 -183.99)"/><path class="cls-24" d="M226.76,238.3a33.76,33.76,0,0,1,3.72-.68c5.41,4,3.19,9.82,3.69,15-1,3.92-3.79,5.64-7.68,5.9-5.23-1-7.16-4.49-7.27-9.41Z" transform="translate(-123.13 -183.99)"/><path class="cls-25" d="M219.22,249.1l8.14,7.83c.82,6.28-.84,10.9-8,11.87L211.16,260C213,255.7,214.87,251.5,219.22,249.1Z" transform="translate(-123.13 -183.99)"/><path class="cls-26" d="M362.81,283.94c-5.22-.51-8.2-3.09-7.82-8.39.34-4.79,2.21-8.46,8-7.77,4.92.59,8.18,3.16,8.14,8.34S367.65,283.6,362.81,283.94Z" transform="translate(-123.13 -183.99)"/><path class="cls-11" d="M344,294.59c-9.95-1.48-9.95-1.48-.2-15.08Q343.85,287.06,344,294.59Z" transform="translate(-123.13 -183.99)"/><path class="cls-27" d="M370.79,351.89c-5.85.48-9.33-2.62-10.27-7-1.41-6.63,4.12-8.58,9.1-9.26,5.14-.7,8.36,2.79,8.6,7.65S375,351.05,370.79,351.89Z" transform="translate(-123.13 -183.99)"/><path class="cls-1" d="M287.43,290.67l3.93,8c-1.91,12.77-6.32,24.79-11.13,36.68l-8,8.45c-8.23,1.7-3.84-6.36-6.66-8.51,1.06,3.21,2,6.61-1.44,9.42-4.4-14.61-11.45-26.29-28.79-27.69-15.42-1.25-23.75,7.57-29.88,19.91-3.94-1.37-5.33-4.42-5.52-8.28l3.82-11.38c6.76-3.37,10.52-9.73,15.2-15.18.08-3.14.76-6,3.86-7.6.7.34,1.41.68,2.12,1,3.48,3.23,7.27,5.77,12.3,5.71,11.34,1.73,21.31-1.93,30.76-7.62,5.76.85,10.15-3.05,15.27-4.48A4.62,4.62,0,0,1,287.43,290.67Z" transform="translate(-123.13 -183.99)"/><path class="cls-28" d="M233.86,336.31c-1.27,4.45-4.09,7.75-9.13,7.59-5.89-.18-9.29-4-9.2-9.66.09-5.3,5-7.95,9-7.9C229.76,326.39,233.81,329.91,233.86,336.31Z" transform="translate(-123.13 -183.99)"/><path class="cls-29" d="M264.12,344.67l1.59-8.95,6.51,8c-.12,4.18.68,8.66-3.8,11.39-7.76.28-5.4-4.42-4.21-8.53A1.31,1.31,0,0,1,264.12,344.67Z" transform="translate(-123.13 -183.99)"/><path class="cls-1" d="M264.21,346.62c.58,3.25.79,6.67,4.21,8.53-.83,5-1.82,9.59-7.74,3.56Q262.45,352.67,264.21,346.62Z" transform="translate(-123.13 -183.99)"/><path class="cls-30" d="M280.23,335.31c-2.93-14.23.87-26.43,11.13-36.68,15.67-6.63,29.3-3.25,41.21,8.42,7.9,17.37,3.54,31.51-11.4,42.84a5.86,5.86,0,0,1-3.42,4.38,27.5,27.5,0,0,1-17.36.3,9.56,9.56,0,0,1-4.41-3.71Z" transform="translate(-123.13 -183.99)"/><path class="cls-31" d="M326.27,366.54l-1.11,11.93c-5.4,1.6-10.82,4-16.11-.35-3.44-5.52-3.36-10.93.5-16.22,5.71-3.51,11-3.31,15.68,1.85A3.3,3.3,0,0,0,326.27,366.54Z" transform="translate(-123.13 -183.99)"/><path class="cls-16" d="M325.23,363.75l-15.7-.62a8.82,8.82,0,0,1-7.58,2.06,7.24,7.24,0,0,1-4-3.17c1.11-7.07,6.87-6.22,11.74-6.84a11,11,0,0,0,8.21-3.7,6.39,6.39,0,0,1,3.29-1.59Q323.19,356.82,325.23,363.75Z" transform="translate(-123.13 -183.99)"/><path class="cls-32" d="M287.68,386.52a8.14,8.14,0,0,1,3.26-1.42c9.08-7.1,18.28-4.45,27.5-.35a8.18,8.18,0,0,1,3.09,1.4C310.3,391.24,299,390.74,287.68,386.52Z" transform="translate(-123.13 -183.99)"/><path class="cls-22" d="M348.33,237.58,344.51,230c3.34.37,7.89-1.16,9.31,2.87C355.3,237.08,351,236.85,348.33,237.58Z" transform="translate(-123.13 -183.99)"/><path class="cls-33" d="M272.31,294.68c-10.11,11.26-22.72,14-37.07,10.79-6-1.59-9.17-6.38-12.48-11l.05,0c-4-8.17-4.23-16.84-3.42-25.65q4-5.94,8-11.87l6.81-4.32c9.76-3.8,19.39-2.71,29,.74,10.53,1.47,13.75,9.55,16.47,18.09a35.9,35.9,0,0,1,.61,11.65A13.83,13.83,0,0,1,272.31,294.68Z" transform="translate(-123.13 -183.99)"/><path class="cls-34" d="M219,302.05q-1.62,13.54-15.2,15.18C208.39,311.75,210,303.24,219,302.05Z" transform="translate(-123.13 -183.99)"/><path class="cls-35" d="M318.44,384.75l-27.5.35-3.48-6-.15-1.68a14.14,14.14,0,0,1,11.82-2.92c4.06.43,7.49,2.75,11.38,3.74l14.66.19Z" transform="translate(-123.13 -183.99)"/><path class="cls-36" d="M302.23,378l-14.92-.57q.4-7.21.8-14.41c3.4-3.17,7.15-2.78,11-1.09l3.65,1.15C306.52,368.22,307.3,373.22,302.23,378Z" transform="translate(-123.13 -183.99)"/><path class="cls-1" d="M299.14,362l-11,1.09c-3.57-.67-8.52-1.21-7.51-5.84,1.61-7.39,5.12-1.09,7.41,0,7.38,3.5,3.43-6.66,8-6.34a3.68,3.68,0,0,1,3,.95c3.93,4.68,13.94-3.43,15.08,7.13C309,359.46,303.39,357.37,299.14,362Z" transform="translate(-123.13 -183.99)"/><path class="cls-37" d="M325.14,228c21.19,21.08,18.71,45.23-5.25,53.31-10.93,3.68-19.54-1.22-28.42-6-5.91-2.12-8.87-6.8-10.85-12.36a26.82,26.82,0,0,1,1-19.09c2.39-6.07,7.42-9.88,12.14-14,1.91-3.7,5.91-2.75,8.94-4C310.4,224.53,318.26,221,325.14,228Z" transform="translate(-123.13 -183.99)"/><path class="cls-38" d="M283.75,263.92q3.86,5.71,7.72,11.44c-5.79,3.94-3.51,10-4,15.31h-3.79c-3.43-1.52-4.63-5.1-7.06-7.55q-.15-5.75-.31-11.49C277.88,268.22,279.32,264.63,283.75,263.92Z" transform="translate(-123.13 -183.99)"/><path class="cls-39" d="M313.94,287.79c-7.44,3.27-14,4-24.23-3.42Z" transform="translate(-123.13 -183.99)"/><path class="cls-22" d="M325.14,228c-7.28-2.77-14.86-2.21-22.41-2.07C310.71,221.16,318.45,218.91,325.14,228Z" transform="translate(-123.13 -183.99)"/><path class="cls-22" d="M293.8,230l-9.53,12.73q-3.33-2.16-.64-5.09c.06-3.12.72-6,3.77-7.62Z" transform="translate(-123.13 -183.99)"/><path class="cls-40" d="M240.86,229.42c5.59-5.56,12.07-9.49,20-10.68,3.59,4.46,11.9,9.43,5.89,14.8C258.21,241.18,248.54,237.17,240.86,229.42Z" transform="translate(-123.13 -183.99)"/><path class="cls-41" d="M283.63,237.59c.21,1.7.42,3.39.64,5.09q-.27,10.62-.52,21.24-3.74,3.85-7.48,7.72-6.57-9.15-13.14-18.3C271.78,250.44,278.29,244.78,283.63,237.59Z" transform="translate(-123.13 -183.99)"/><path class="cls-23" d="M276.58,283.13c4.84.21,7,2.93,7.06,7.55-3.07,3.32-5.91,7.29-11.33,4Z" transform="translate(-123.13 -183.99)"/><path class="cls-34" d="M222.76,294.47l12.48,11C227.4,306,223.26,302.26,222.76,294.47Z" transform="translate(-123.13 -183.99)"/><path class="cls-42" d="M306.81,313.34c-.44,4.83-2.84,8.23-8,8.13s-10.58-2-11-7.45c-.48-6.42,5.86-6.69,10.55-7.69C304.05,305.11,306.1,308.39,306.81,313.34Z" transform="translate(-123.13 -183.99)"/><path class="cls-11" d="M314.08,358.94c-3.26-6.09-11.6-1.51-15.08-7.13l18.88-.33C317.8,354.57,317.12,357.35,314.08,358.94Z" transform="translate(-123.13 -183.99)"/><path class="cls-43" d="M302.23,378q.28-7.47.56-14.92l6.74,0q.48,7.58,1,15.13C307.65,381.56,304.88,381.69,302.23,378Z" transform="translate(-123.13 -183.99)"/><path class="cls-44" d="M241.81,260.2c4.38,3.46,5.84,8,3.09,12.77-2,3.41-5.88,4-9.62,2.81-6.18-2-5.61-7-5-11.94C236.32,269.56,236.39,256.46,241.81,260.2Z" transform="translate(-123.13 -183.99)"/><path class="cls-45" d="M241.81,260.2c-4.46-.71-5.21,10.25-11.54,3.64C232.84,258.6,235.76,254.48,241.81,260.2Z" transform="translate(-123.13 -183.99)"/><path class="cls-46" d="M310.47,244c-.37,4.78-3.32,7.86-8.22,7.94-5.09.09-8-3.27-8.09-8.29-.1-6.46,4.94-5.8,9.23-6.09C307.85,237.25,310.57,238.78,310.47,244Z" transform="translate(-123.13 -183.99)"/></svg>