<svg id="Layer_1" data-name="Layer 1" xmlns="http://www.w3.org/2000/svg" viewBox="0 0 357.88 391.81"><defs><style>.cls-1{fill:#f90316;}.cls-2{fill:#f50315;}.cls-3{fill:#f81023;}.cls-4{fill:#fefefe;}.cls-5{fill:#030202;}.cls-6{fill:#f80415;}.cls-7{fill:#fcfafb;}.cls-8{fill:#f6050b;}.cls-9{fill:#f7010b;}.cls-10{fill:#f90423;}.cls-11{fill:#f70e22;}.cls-12{fill:#e81023;}.cls-13{fill:#eb0411;}.cls-14{fill:#f91024;}.cls-15{fill:#eb1022;}.cls-16{fill:#eb0617;}.cls-17{fill:#0b0b0b;}.cls-18{fill:#fc333f;}.cls-19{fill:#eeeaea;}.cls-20{fill:#edecec;}.cls-21{fill:#f6041d;}.cls-22{fill:#f40619;}.cls-23{fill:#bdbcba;}</style></defs><path class="cls-1" d="M218,494.59l-17.09-26.9c-3.42-1.84-6.21-4.11-5.88-8.51-.57-2.4-1.13-4.79-1.7-7.19-13.18-16.36-15.27-36.26-18.18-54.58-8.82,14.86-20.58,27.81-40.08,31.24-10.34-4.27-6.79-12.26-5.18-19.62,6.1-27.83,18.49-53,33.12-77.19,3.15-12.23,8.64-23.72,11.5-36l-.09.07c2.76-23.71,8.86-45.57,32.08-58.05l.21,0c1.07-9,8.77-9.79,15.13-12.25L241.27,215c22.8-14.9,46.85-23.08,74.17-13.79,24.34,1.84,47.75,7.69,70.55,16.2,23.06,7.43,41.44,20.24,50.57,43.68,12.7,21.25,12.23,46.35,20.26,69,2.06,8.14-5,9.37-9.61,11.87-8.31,4.54-13.38,11.74-11.89,20.41,3.15,18.33-10.42,19.65-21.75,23-13.9,4-9-11.17-15-15.45a20.54,20.54,0,0,1-.24-10.64c.28-4.45,4.63-9.51-2.06-12.7-7.24,10-13.65,10.39-18.8-1.58-2.25-5.24-4.91-10.37-5.58-16.18,3.32-49.25-4.43-60.52-57.65-83.77-2.42-1.82-2.34-6.08-6.06-6.42-.61-.06-.63,2.22.3,3.43-.29,2.68-1.94,4.24-4.08,5.47a25,25,0,0,1-4.88,1.56c-13.43,1.69-23.3,9.87-33.17,18-1.09,1.19-2.25,2.33-3.36,3.49-3.24,3.56-5.1,7.91-7,12.24-.58,1.5-1.27,2.94-2,4.39-1.67,3.68-3.09,7.53-6.68,9.87-3.92,2.82-3.08,8.9-7.65,11.27-1.41.06-3.81-1-4,.53-.33,2.1,1.6,2,3.2,1.09,4,1,6.56,3.88,9.44,6.41a14.44,14.44,0,0,1,2.85,4.24,13.53,13.53,0,0,1-.74,10.33c-5.47,10.22-18.6,10.07-25.49,18.81-2.55,3.23-5,5.43-3.42,9.68,7.39,19.37,10,40.46,22.79,57.81,11.93,16.2,26.49,28.52,45.81,34.82,16.67,7.45,36.36-3.14,52.57,7.93-1.35,7.68-7.26,8.12-12.07,8.1-15.76-.08-19.22,6.86-14.05,20.89,5.31,14.43,6.84,29.89,12.07,44.53,3.13,8.77,17,11.37,12.59,23.3a2.73,2.73,0,0,1-1.59,2.33,2.66,2.66,0,0,0,2.57-1.59c13-.36,23.77,10.94,37.67,6.1.84-.42.39-.42-1.72,0a7.18,7.18,0,0,1-7-2.2c-4.32-4.91,4.86-3.65,3.59-7.69-2.15-6.88,3.71-6.71,7.74-8.06,6.38-.3,11.66,1.76,15.4,7.11,13.39,8.87,29.2,13.81,41.29,25-26.08,15.18-95.55,14.44-122.85-1.19-6.67-.25-8.21-12-17-7.55-26.24,28-60,18.78-91.88,18.21-9.73-.17-19.44-1.87-29.15-2.87-4.61,0-10.36.15-11.82-4.54s3.46-8.3,7.34-10.33c25.14-13.16,48.8-29.78,78.23-33.8-4.51-6.49-14-8.48-13.89-17.82-1.88-3.78-4.13-7.17-8.7-8C223.73,506.13,219.07,501.71,218,494.59Z" transform="translate(-127.96 -197.25)"/><path class="cls-2" d="M401,368.72c9.5,8.6,17.89,10.73,26,7.74,2.69-1,5.54-1.4,4.4-4.49-9.13-24.71,10.3-32,25.44-41.93,6.64,3.57,5.22,12.37,10.86,16.59,5.18,3.59,8.17,8.06,5.94,14.63-6.73,7.94-12.71-3.15-19.49-.92-1.87,8.88,8.81,12.69,8.26,20.81-.33,8.1-12.74,4.54-12.65,13.08a68.42,68.42,0,0,1-8.95,9.83c-16.36,7.68-6.48,25.86-14.8,36.75-9.83,5.64-16.23-.34-21.34-7.22-6.17-8.31-14-15.17-19.89-23.67-1.28-14.46,5.07-26.84,10.85-39.38A5.51,5.51,0,0,1,401,368.72Z" transform="translate(-127.96 -197.25)"/><path class="cls-3" d="M405.51,479.37,393.73,491c-15-6.24-21.9-17-15-31.11,6.71-13.81,3.9-24.3-3.08-35.69.95-7.1,2.95-13.44,11.14-15.3,7.81,4.52,14.52,10,19.1,18.12,4.06,7.25,9.19,14,19.2,13.11a3.09,3.09,0,0,1,4.34-.6,3,3,0,0,1-.8,4.29,6.79,6.79,0,0,0-3.41,1.26c-5.06,3.71-4.79,10-7.3,14.94-.68.51-1.37,1-2.05,1.56-8.55.82-14.46,3.28-8.39,13.29A5.7,5.7,0,0,1,405.51,479.37Z" transform="translate(-127.96 -197.25)"/><path class="cls-4" d="M248.45,330.76c-.21-3.77-.42-7.55-.62-11.32-2.08-12.44,5.55-23.7,4.42-36l-.15.26c5.2-3.61,5.18-10.22,8.6-14.85l.2-.32c10.1.25,19.38-6.18,30-3,5.85,1.73,8.28-2.31,7.23-7.86-.84-4.43-2.5-8.77,1.49-12.55l3.9-.38c6.12,1.85,12.24,3.09,18.78,2.53,4.92-.42,6.86,2.58,5.87,7.44-2.1,10.36-2.07,10.48,9.64,9.37,4.32-.41,9.75-3.86,12.31,1.28,2.83,5.67-2.37,9.33-6.33,12.72-19.27,12.61-19.69,17.23-3.22,35.71,3.49,4.84,3.72,11.13,6.81,16,6.92,10.93,2.37,16.67-10.39,20.52,6.44,1.08,11,2.34,11.62,8.08a7.57,7.57,0,0,1-2.32,4.71c-10.7,7.56-27.23-.84-35.67,13a22.5,22.5,0,0,1-11.38,2C275,370.09,251.76,361.06,248.45,330.76Z" transform="translate(-127.96 -197.25)"/><path class="cls-5" d="M386.75,408.93,378,424.56c-4.16,19.37-19.31,27.17-36,30.9-17.65,3.93-36,3.74-54,.64-37.35-10.94-54.15-39.73-64.56-74-2.44-8-4.6-16.12-6.88-24.19.34-5.1,3.95-5.28,6.26-2.59,13.48,15.68,32.34,25.59,45,42.09a41.56,41.56,0,0,1,1.22,5.68c1.25,7.34-.72,17.17,9.63,18.9,10.81,1.8,11.25-8.46,14.47-15.12a11.46,11.46,0,0,1,3.86-4.3,24.63,24.63,0,0,1,20.32-.37,10.31,10.31,0,0,1,4.13,3.86c3.75,6.79,3.63,18.1,15.57,15.95,11.51-2.07,7.22-13.37,10.13-20.5,13.48-15.71,31.29-27,44.59-42.91,1.74-2.09,4.7-1.68,7.08,0,.81,3.93,1.67,7.87-.85,11.56Z" transform="translate(-127.96 -197.25)"/><path class="cls-6" d="M397.22,356.8c-12.3,18-26.69,33.85-46.8,43.55-9.21,7.94-19.14,11.63-30.81,5.27l-23.2-.53c-12.08,3.39-22.4.65-30.81-8.76-19.82-8.42-31.35-27.37-49.08-38.43-3.28-3.77-5.33-6.45,1.42-9.69,10.54-5.06,20.37-11.56,30.51-17.45,10.46,22.19,26.82,37.45,51.16,43.37,3.3,2.34,8.58,1.38,10.4,6.16,2.89,3.69,6.4,5.47,11.12,3.69-.81-2-3.1-3.21-3.06-5.71a11.54,11.54,0,0,1,4.27-6.55c7.75-4.75,17.34-4.14,25.2-8.58l-.77-1.1.82,1.06c9.29-10.66,14.29-25,27.46-32.33,3.62,7,7.25,14.05,10.65,20.64,7.24.23-2.27-18.74,11.93-8.93a6.72,6.72,0,0,1,2.23,6.09C399,351.31,398.56,354.2,397.22,356.8Z" transform="translate(-127.96 -197.25)"/><path class="cls-2" d="M288,456.1c34.81,3.1,67.09-1,90-31.54,11.79,9.42,15.74,18.59,5.75,33.35-8.23,12.17-1.56,24.47,10,33.12l-7.52,8.44c-12,1.7-20.35-7.06-30.53-10.59-7.5-2.59-15.35-11.38-22.81-3.12-7.07,7.83,2,15.35,4.36,22.95,2.83,8.91,12.63,15.21,9.83,26.19l-.1,1.82c6,12.36,17.31,8.57,27.28,8.78l9.21,3.54c-6.8-.36-1.7,10.45-9.4,11.41l15.56,1.66c-.74,1.28-1,2.42-1.67,2.77-17.08,8.8-32.92.1-49.11-3.58h0c-2.5-5.6,4.81-19.75-11.79-13.33-1.31.51-5.84-2.63-5.73-3.78,2.31-24.57-10.08-46.21-13.59-69.55-1.05-7,2.26-11.1,9.89-11a112.14,112.14,0,0,0,20.93-1.17C322.09,455.71,304,465,288,456.1Z" transform="translate(-127.96 -197.25)"/><path class="cls-7" d="M375.05,330.77c-6.66,12.88-13.23,25.84-27.46,32.33-1.17-10.3-9.79-8.25-17.73-9.81,5-6.71,11.13-10.28,20.57-12.64-9.29-7.24-10.34-16.07-11.61-24.82,22.56-17.74,22.56-17.74,3.93-40.08L350,264.41c-14.21,8.14-26.63,9.88-34.28-2.68-5.24-8.59,10.49-1.91,9.11-11.07-7.19-.12-16.2,2.52-21.29-6l5.31-3.09c2.07-2.4,4.15-3.37,6.23,0C366.55,255,385,282.45,375.05,330.77Z" transform="translate(-127.96 -197.25)"/><path class="cls-7" d="M299.64,245.06c.25,3.77-.3,7.54,2.95,10.72,5.94,5.8-3.54,9.76-2.22,15.14-12.85-5.86-26.95,8.7-39.47-2.42C270.08,254.55,282.92,246.62,299.64,245.06Z" transform="translate(-127.96 -197.25)"/><path class="cls-7" d="M252.25,283.41c6.3,13,1.49,24.56-4.42,36a8.23,8.23,0,0,1-2.69-.51c-4.08-7.46-3.78-14.87.25-22.24Q248.83,290,252.25,283.41Z" transform="translate(-127.96 -197.25)"/><path class="cls-8" d="M315.08,241.58h-6.23c-3.33-1.09-7.75.59-9.74-3.27-.32-.62,2.76-4.1,4.66-4.53C310,232.38,315,233.63,315.08,241.58Z" transform="translate(-127.96 -197.25)"/><path class="cls-9" d="M245.39,296.69l-.25,22.24L237,311.19c-1-.86-1.33-1.71-1-2.57s.66-1.28,1-1.28C243.9,307,236.16,295.2,245.39,296.69Z" transform="translate(-127.96 -197.25)"/><path class="cls-2" d="M397.62,349.7c0-2.4,0-4.81,0-7.22,9.2-.54,9.91,1.81,4.72,15.65C398.83,356.4,398.65,352.81,397.62,349.7Z" transform="translate(-127.96 -197.25)"/><path class="cls-7" d="M260.7,268.82c-.06,6.57-1.07,12.58-8.6,14.85C252.18,277.12,255.78,272.59,260.7,268.82Z" transform="translate(-127.96 -197.25)"/><path class="cls-2" d="M338.84,561.3c-1.9,3.24-3.49,7-8.31,6.09a3.2,3.2,0,0,1-1.49-2.73c1.9-4.75,6.32-2.76,9.79-3.37Z" transform="translate(-127.96 -197.25)"/><path class="cls-10" d="M237,307.34c0,1.29,0,2.57,0,3.85l-2.67,4.29a13.6,13.6,0,0,1,0-12.42Z" transform="translate(-127.96 -197.25)"/><path class="cls-11" d="M471.83,425.55c-11.94-1.66-15.21-11.58-19.58-20.45l.6-4.06c3.28-6.18,14.43-9.34,7.48-19.44-.28-.58-.6-1.14-.82-1.74-3.16-8.59-20.9-12.33-10.56-24.91,11.08-13.49,13,11.18,22.81,7.09l4.09,4.28c3.51,12.33,5.45,24.86,4.65,37.72-2.79,7,10.57,11.63,3,19.42" transform="translate(-127.96 -197.25)"/><path class="cls-12" d="M440,401q-6,19.61-12.08,39.21c-1,0-1.94,0-2.9-.08C427.51,426.16,417.16,407.27,440,401Z" transform="translate(-127.96 -197.25)"/><path class="cls-13" d="M460.33,381.6l12.32,16c-7.84.85-14.54-1.24-19.8,3.44l-4.27-7.61C440.32,377.46,454.25,383.41,460.33,381.6Z" transform="translate(-127.96 -197.25)"/><path class="cls-14" d="M347.07,534.9c-7.1-13-14.16-26-21.34-38.93-3.29-5.93-2.39-10.91,2.39-15.68s9.72-5.57,15.74-2.43c14.06,7.33,28.23,14.42,42.36,21.61C375.57,513.92,361.92,525.06,347.07,534.9Z" transform="translate(-127.96 -197.25)"/><path class="cls-15" d="M374.25,545.5c-14.25,13-23.26,9.86-27.28-8.78l19.34,4.3Q370.29,543.26,374.25,545.5Z" transform="translate(-127.96 -197.25)"/><path class="cls-16" d="M416.39,459.5a39.11,39.11,0,0,1-10.75,16.16c-8.69-2-7.42-9.2-5.68-14.19C403.5,451.36,410.84,460.39,416.39,459.5Z" transform="translate(-127.96 -197.25)"/><path class="cls-17" d="M342.75,275.75c11.41,3.16,20.62,8.91,19.21,22.27-1.38,13.14-10.9,17.69-23.14,17.81-10.35-4.47-17.18-11.29-15.11-23.56C325.48,281.69,331.39,275.52,342.75,275.75Z" transform="translate(-127.96 -197.25)"/><path class="cls-7" d="M347.54,363.14c-6.62,6.93-15.82,8.25-24.31,11.08-4.14,1.86-8.23,3.09-11.84-1C318.33,351.59,334.73,363.79,347.54,363.14Z" transform="translate(-127.96 -197.25)"/><path class="cls-18" d="M311.39,373.19l11.84,1-3.94,3.53c-3.25,3.36-6.54,6.55-11.76,3.72l-7.92-7.34Z" transform="translate(-127.96 -197.25)"/><path class="cls-19" d="M265.6,396.33l30.81,8.76c-.39,20.46-9.61,29-24.49,21.16C259.21,419.56,266.69,406.59,265.6,396.33Z" transform="translate(-127.96 -197.25)"/><path class="cls-20" d="M319.61,405.62l30.81-5.27c-1.92,9.3,8.11,23.08-9.35,26.57C323.85,430.35,317,422.5,319.61,405.62Z" transform="translate(-127.96 -197.25)"/><path class="cls-21" d="M307.53,381.47l11.76-3.72,7.64,5.23C312.85,392,311.28,391.84,307.53,381.47Z" transform="translate(-127.96 -197.25)"/><path class="cls-22" d="M347.55,499.38c8.52,2.23,15.88,2.64,16.87,11.28.12,1.12-6.45,4.7-9.34,4.15C347.14,513.3,349.17,506.38,347.55,499.38Z" transform="translate(-127.96 -197.25)"/><path class="cls-23" d="M352,289c-.5,2.7-1.91,4.93-4.78,4.85A4.68,4.68,0,0,1,342.5,289c0-2.66,1.64-4.82,4.64-4.83S351.23,286.54,352,289Z" transform="translate(-127.96 -197.25)"/></svg>