<svg id="Layer_1" data-name="Layer 1" xmlns="http://www.w3.org/2000/svg" viewBox="0 0 294.07 358.23"><defs><style>.cls-1{fill:#f90316;}.cls-2{fill:#f10415;}.cls-3{fill:#eb0416;}.cls-4{fill:#df0414;}.cls-5{fill:#fb031a;}.cls-6{fill:#fcfbfb;}.cls-7{fill:#0b0707;}.cls-8{fill:#f30416;}.cls-9{fill:#d3d3d3;}.cls-10{fill:#24120f;}.cls-11{fill:#d5cbcc;}.cls-12{fill:#eee5e4;}.cls-13{fill:#ded7d5;}.cls-14{fill:#eb0611;}.cls-15{fill:#4f1c1e;}.cls-16{fill:#cabdbd;}.cls-17{fill:#ed0714;}.cls-18{fill:#282828;}</style></defs><path class="cls-1" d="M350.71,196.47a3,3,0,0,0,2.8.32c12.6,12.22,4.18,23.63-1.31,35.16-2.45,5.52-6.42,10.62-4.89,17.25a10.15,10.15,0,0,0,7.66,6c2.79.6,5.41,1.71,8.14,2.44,7.08.92,13.32-2.46,19.95-3.87a83.09,83.09,0,0,1,21.19-.7,22.85,22.85,0,0,1,14.84,7.43,5.2,5.2,0,0,0,3.14,1.55c8,1.33,12.07,6.56,9.2,13.77-3.69,9.29-12,7.6-19.74,5.25-6.51-2.73-12.82-6-19.8-7.55-.93-.29-1.88-.63-2.85-.9-2.32-.62,1-.55-1.44-.47.21.71,1,.42,1.51.81,7,2,13.95,3.9,20.11,7.76,4,1.23,7.9,2.84,10.9,5.93,5,5.18,10.48,10.39,8,18.59-3,9.86-11.44,5.53-19.38,6.17,5.2,12,2.9,23.68,1.26,35.54,16.42-27.67,31.76-55.56,23.15-89.75l.14-.16c4.76-2.15,7.46-9,14.37-6.24,1.61,3,4.34,3.24,7.28,3,1.38,1,3.41,1.36,3.54,3.59a4.47,4.47,0,0,0,0,3.26c-6.6,11.19-.08,26-10.06,36.25-.39,2.28-.79,4.55-1.18,6.82.43,4.09.89,8.19-3.48,10.75q-5.08,12.78-10.19,25.57c-3.24,11.12-5.62,22.76-17.49,28.64l-8.91,10.2a296.3,296.3,0,0,0-23.87,36.28c-3.86,16.6-6.77,33.48-11.81,49.71C366,482.58,355.81,497.77,340,508.46c-3.58,9.45-.86,18.89.05,28.33,3.73,6,12.42,1.47,16.89,7.13-5.38,8.28-13.79,5.69-20.54,7.64-5.32,3.33-9.06.71-12.46-3.24-3.1-5.41-3.08-11.46-3.1-17.41,0-9.5-4.07-14-14-14.34-10.75-.39-13.32,4.77-13.15,14.2.17,8.79-2.76,16.52-11.81,20.34l-10.2.45c-6,4-10.84,2.86-14.55-3.28-2.32-4.15-.61-6.25,3.43-8,17.72-7.85,20.63-26.73,6.37-40-20.6-19.17-22.77-45.55-27.74-70.82-7.92-9.23-1.88-24.64-14.23-31.9l-6.94-4.88a4.66,4.66,0,0,1-3.83-2.82c-9-10.11-19.44-19.15-24.79-32.08,2.38-2.48,4.64-5.18,8.61-4.93,4,.93,7,3.49,9.33,6.95-8.5-23.55-1.22-43.12,11.39-60.4-5.35,3-13.74,8.66-19.74-.39-5.53-8.34.6-15.85,7.07-21.61,4.43-3.94,9.71-6.86,14.26-10.71a20.31,20.31,0,0,1,4.59-2c8-1.2,15.76-3.37,23.73-4.47a12.7,12.7,0,0,0,9-5,10,10,0,0,1,9.3-4.13c4.9-1.5,3.56-4.57,1.9-7.68-3.1-4.44-7.69-6.21-12.75-7.16a22.74,22.74,0,0,1-6.47-2.45c-3.71-3.13-8.06-5.23-12.27-7.61-3.72-2.72-6.77-5.92-7.85-10.58-.7-11.11,6.86-12.92,15.2-12.49a40.21,40.21,0,0,1,29.52,14.52c.77.78,1.15,2.28,2,2.73,1.83,1,1.73.69.25-.89a15.92,15.92,0,0,1-4.53-9.53c.32-9.36,3.45-15,14.14-10.71l4.44,4c2,1.47,3.77,3.17,4.36,5.73a118.92,118.92,0,0,0,3.44,16.72c.7,3.94-.25,8,1,14-1-6.16-.36-10.29-.85-14.38-1.52-5.72-3.11-11.41-3.38-17.36-.15-6.5,4.5-9,9.44-11.17l0,.24c3.64-.87,5,1.56,6.17,4.24,1.07,8,.29,16.14.54,24.17a25.94,25.94,0,0,1-.15,4.12s.07-.49.19-1.66c0-4.9,0-9.62.05-14.36,3.47-18.8,8.7-22,21.33-13.13.1,2.66-.87,5.88,3,6.74,2.65.59,4.06-1.24,5.21-3.26C342.44,199.22,343.73,194.06,350.71,196.47Z" transform="translate(-164.43 -195.68)"/><path class="cls-2" d="M189.15,257.31c-11.37,5.88-12.19,15.39-10.8,26.88,2.9,23.85,12.25,45.83,18.39,68.72-1.33,3.35-4.05,4.59-7.42,4.82-19.32-30.35-20-65.35-24.72-99.29-1.52-10.85,7.4-9.45,13-8.75C181.71,250.19,185.32,254.63,189.15,257.31Z" transform="translate(-164.43 -195.68)"/><path class="cls-3" d="M354.7,257.53c-8.61,7-7.32-4.28-11.19-6a70,70,0,0,1,5.91-19c4.8-7.07,9.88-13.78,19.41-14.59l7.16-4.15c6.78-1.85,13.48-5,20.62-1.34,5.48,5,4.06,10.42.82,15.89-5,6.66-13.41,8.18-19.74,12.84C368.81,244.91,361.48,250.83,354.7,257.53Z" transform="translate(-164.43 -195.68)"/><path class="cls-4" d="M214,224.15,224.08,222c3.69,2.35,8.19,0,11.93,2,4,4.14,11.58,2.16,14.45,8.29l7.66.37c4.7,3.71,9.73,7,14.57,10.46,10.78,8.69-2,8-4.56,11.39-3.64-4.46-9-2.49-13.52-3.52a26.62,26.62,0,0,1-15.6-7.31c-7-1.48-14.23-2.35-21-4.61C210.07,236.42,207.85,231.14,214,224.15Z" transform="translate(-164.43 -195.68)"/><path class="cls-5" d="M220.73,268.29a14.88,14.88,0,0,1-3.47,0c-6.71-1.63-15.65,9-19.92-1.42-4.35-10.63,9-10.79,13.43-16.57l10.29-.75c.72.21,1.44.42,2.16.6,4.49.89,9.18-.38,13.63,1.2a7.24,7.24,0,0,1,3.38,3.27c.17,3.61-1.64,6.14-4.42,8.15-3.36,2-7.88,1.6-10.47,5.14Z" transform="translate(-164.43 -195.68)"/><path class="cls-4" d="M239.15,247a10.47,10.47,0,0,0,.22,2.74l-2,1.9c-5.37-.09-10.86,1.63-16.07-1l-.28-1.06C226.62,245.38,233.12,247.82,239.15,247Z" transform="translate(-164.43 -195.68)"/><path class="cls-6" d="M307.54,275.56c24.76,0,45.87,20.79,45.88,45.25,0,24.76-20.64,45.19-45.69,45.2-25.38,0-45.68-19.92-45.84-45C261.75,296.61,282.85,275.59,307.54,275.56Z" transform="translate(-164.43 -195.68)"/><path class="cls-7" d="M349.75,421.13c-5.56.46-11.2,2.18-16.52-1.05-3.22-2.93-6.44-5.9-10.86-1.85l-17.18-.65c-4.47-4-8.68-3.33-12.69.71l-12.92,2.47c-5.37-1.82-7.3-7.1-10.89-10.72-1.34-1.85-2.44-3.75-.92-6,2.39-4.1,6.2-6.33,10.52-7.86,4.57,9.48,7.08,5.71,9.56-1.31.76-2.16,3.22-3.34,5.28-4.53,5.71-2,11.43-3.86,17.47-1.25,4.1,10.05,10,4.82,15.56,1.78,12.31,3,19.24,13.11,27.83,21C356,416.5,354.1,419.37,349.75,421.13Z" transform="translate(-164.43 -195.68)"/><path class="cls-8" d="M393.88,232.6l18-.37c8.65,19.91-8.77,15.19-17.64,18.55-5.81,4.12-13.12,3.64-19.41,6.29-5.15.28-9.57,3.27-14.63,3.89l-5.48-3.44c1.13-12.69,10.94-15.42,20.84-18C380.85,235.07,387.37,233.84,393.88,232.6Z" transform="translate(-164.43 -195.68)"/><path class="cls-9" d="M326.16,390.84c-3.41,5.18-5.4,11.44-11.27,15.19-4.84-5.13-3.28-11.37-4.29-17C316.16,386.43,321.06,389.5,326.16,390.84Z" transform="translate(-164.43 -195.68)"/><path class="cls-10" d="M267.77,404l3.85,4c2.38,7.55-2.8,11.75-7.25,16.26-4.51,1.33-11.32,5.53-7.94-4.85C258.41,413.32,262,407.67,267.77,404Z" transform="translate(-164.43 -195.68)"/><path class="cls-11" d="M293.13,390.31c-2.17,5.31-2.61,12.67-8.26,14.57-3.64,1.23-4.06-5.85-6.58-8.73C282.44,392.19,287.11,389.56,293.13,390.31Z" transform="translate(-164.43 -195.68)"/><path class="cls-12" d="M264.37,424.27c-.37-6.65,5.09-10.72,7.25-16.26,6.44,1.9,5.64,8.29,7.95,12.75Z" transform="translate(-164.43 -195.68)"/><path class="cls-13" d="M292.5,418.29a25.73,25.73,0,0,1,10.28-13.58c.9,4.79,1.65,8.83,2.41,12.87Z" transform="translate(-164.43 -195.68)"/><path class="cls-5" d="M239.37,249.7l14.08.71c2.15,1.89,6.32.14,7.34,4.05,0,.95,0,1.89,0,2.84-7.9,3.05-15.49,4.26-21.58-3.57h0c-1.16-.7-1.55-1.41-1.17-2.12s.76-1.07,1.15-1.07Z" transform="translate(-164.43 -195.68)"/><path class="cls-14" d="M239.22,253.73c6.69,4.25,14.17,3.7,21.58,3.57-1.66,3.83-4.21,6.53-8.68,6.82-4.42-5.87-11.07-2.1-16.46-3.8Q237.45,257,239.22,253.73Z" transform="translate(-164.43 -195.68)"/><path class="cls-15" d="M349.75,421.13l4.24-9.27c4.37,3.17,8.47,8.24,5.58,12.53C356.51,428.93,353.41,421.6,349.75,421.13Z" transform="translate(-164.43 -195.68)"/><path class="cls-16" d="M322.37,418.23c2.14-3.44,4-8.68,8.54-7.59,3.33.8,2.06,6.06,2.32,9.45Z" transform="translate(-164.43 -195.68)"/><path class="cls-17" d="M281.76,500.81l-12.54-9C278.28,490,281,494,281.76,500.81Z" transform="translate(-164.43 -195.68)"/><path class="cls-14" d="M239.2,250.54c0,1.06,0,2.13,0,3.19-5.48-3.74-13.56,7.13-17.88-3.15Z" transform="translate(-164.43 -195.68)"/><path class="cls-18" d="M311.73,304.21c6,2,13.66,6.44,13.5,16.7s-6.63,16.37-17.2,16-16.86-6.71-15.79-17.13C293.16,310.91,297.13,302.81,311.73,304.21Z" transform="translate(-164.43 -195.68)"/></svg>