<svg id="Layer_1" data-name="Layer 1" xmlns="http://www.w3.org/2000/svg" viewBox="0 0 498.04 417.34"><defs><style>.cls-1{fill:#fc8701;}.cls-2{fill:#fe8700;}.cls-3{fill:#fa8702;}.cls-4{fill:#fb8e0e;}.cls-5{fill:#f58403;}.cls-6{fill:#050403;}.cls-7{fill:#e66790;}.cls-8{fill:#f9f8f5;}.cls-9{fill:#faf9f5;}.cls-10{fill:#fbfaf8;}.cls-11{fill:#cececb;}.cls-12{fill:#eeeee8;}.cls-13{fill:#e36782;}.cls-14{fill:#eee6d9;}.cls-15{fill:#fbeee3;}.cls-16{fill:#fc9203;}.cls-17{fill:#fef2f4;}.cls-18{fill:#f38504;}.cls-19{fill:#0f0f0f;}</style></defs><path class="cls-1" d="M176.83,319c0-6.12,3.71-13.24-4.67-17.09-6.12-5.68-8-13.05-8.47-21,1.3-12.45,7.88-20.49,20.05-23.86a7.72,7.72,0,0,1,7.3,4.9c7.12,14.28,21,27.05,8.67,46.52,15.29-7.18,36.33-3.76,35-28.29-.32-5.67,5.48-8.56,10.35-9.26,13.12-1.89,26.14-6.17,39.65-2.84,3.6,6.05-.23,12.62,1.3,18.81,3.31,13.37,11.56,21.93,25.7,20.3,12.71-1.46,17.8-11.47,16.82-23.32-1.14-13.91-10.48-19.2-23.75-18.72-5.62.21-11.21,2.65-16.89.25-7.89-5.51-6.67-12-2.18-19,1.93-4.64,10.23-.09,10.37-7.3-2-6.19-4.24-12.29.18-18.29,8.88.7,17.06-13,26.83-1.19,1,1.19,6.75,1.07,6.16,3.57-7.11,30.08,18.93,17.41,30.23,23.61C370.67,248,381,251,390.72,257.37c14.06,9.19,24.71,6.52,33.19-8.07,5.64-9.7,10.62-19.75,17.69-28.55l0-.1c17.48.38,7,16,12.49,22.84q0,9.38,0,18.74c.21,16.78-2.53,32.46-16.42,44l-.1.12c-4.11,10.15-4.28,19.9-1.14,30.85,3,10.39,7.27,21.78,1.14,32.92.05,2.83.11,5.67.16,8.5,3.06,7.64.36,22.81,16.9,12.87l0,0c8.83-14.16,15.65-29.57,26.57-42.43,8.32-13.1,10.86-26.63,2.79-40.79-3.08-5.38-2.37-10.5.17-15.72,19.53-16,41.14-8.16,61.29-3.32,12.18,2.93,13.33,23.44.06,31.47-24.26,14.69-36.93,35.66-45.1,61.4-3.75,11.81-14.68,18.74-23.85,26.52-10.94,6.45-20.95,14.12-33.27,18.64-17.58,6.45-7.53,23.24-10.81,35.15q-1.12,3.44-4.35,1.8c-5-5.81-4.12-13.32-6-19.63,1.39-3.07-4-1.74-1.12-1.6.58,0,.44.64-.06,2-1.85,4.84-3,14.38-9.86,9.09-19.51-15-40.82-7.55-61.55-7.73-5,0-10,.76-14.34-2.43-3-4.94.68-7,4-9.24,3.37-1.75,6.92-3.17,10.28-5A116.69,116.69,0,0,0,367.77,417c15-15.55,24.78-34.09,32.33-55.74-7.17,6.54-12.51,12.8-19.68,16.88-6.41,3.15-11.4,8.44-17.73,11.75-40.08,17.52-79,16.57-116.47-7.28a173.3,173.3,0,0,0-19-14.69,297.68,297.68,0,0,0-23.13-25.28c-12.89-6.08-15.05,5.2-19.25,12.26-2.78,4.67-3.54,11.57-10.62,10.93s-5.67-8.74-9.11-12.79c-3.51-7.91,4.37-11.54,6.53-17.31C179.73,332.09,179.5,325.91,176.83,319Z" transform="translate(-56.98 -214.83)"/><path class="cls-2" d="M165.14,353.05c7.32-1.07,5,9.29,13.09,9.94-2.38-14.95,8.87-20.73,18-28.77,10.1-8.93,6.57,4.24,10.25,5.26,5,15.36,7.37,31.43,12.88,46.7,6.3,17.46,16.45,29.35,36.73,28.71a6.12,6.12,0,0,1,3.32,4.53c-2.87,5.45-4.84,10.61,3.93,12.52,18.09,5.45,36.08,10.48,55.3,6.44,5.41-1.13,11.17-.81,15.45,3.89,20.09-1.13,40-4.13,60.37-2.12,9.18.9,16.58,2.09,19.59,14.76,2.79-10.52,2.78-18.7,11.49-24.88,1.36,12.64,2.54,23.63,3.73,34.62,2.37,3.61,4.07,7.45,4.09,11.87.17,29.63-32.68,74.62-61.87,84.8-10.39-.59-16.9-5.78-19.95-15.87-3.14-10.38-3.48-23-18.54-24.87-1.89-.22-3.25-2.57-3.09-5,1.44-21.08-16.16-23.78-29.49-26.82-18.07-4.13-40.47-4.47-51.91,10-10.31,13-16,30.6-27.61,43.94-2.75,3.17-4.47,7.25-8.84,8.77a8.91,8.91,0,0,1-5.86-.93l-7.85-5.76c-3.51-2.08-6.94-4.22-7.11-8.94,7.53-18.74-3.85-28.25-17.93-36.43-2.81-1.3-3.79-4-5-6.5a2.93,2.93,0,0,0-.65-3.45c-8.61-12.65-10.15-27-9.73-41.7.21-7.54,1.68-15.19-4.11-21.51-.87-12.48,11.64-22.24,7.35-35.48,1.75-8.22-1.6-16.87,2.23-24.88Q164.26,359.47,165.14,353.05Z" transform="translate(-56.98 -214.83)"/><path class="cls-3" d="M209.33,550c6.85-18.51,31.28-26.65,29.56-50.74-.34-4.72,6.91-8.62,12.37-10.54,27-9.5,53.4-10.48,78.07,6.91,1.15.81,3.18,1.79,3.16,2.65-.59,19.22,24.31,24.87,23.57,43.86-.39,10.2,7,12.82,14,16.11A19.4,19.4,0,0,1,374.6,572c-.82,14.29,4.87,22.25,19.78,24.41,8.31,1.21,17.54,5.13,17.23,15.49-.29,9.78-9.16,13.35-17.26,16.34a60.5,60.5,0,0,1-22.92,3.36c-22.13-.67-27.91-6.56-32-32.47,2.33-28.56,2.33-28.54-26.21-25.64-5.66.57-11.33,1-17,1.43-.21-1-.41-2-.62-2.93,5.18-6.56,16-10.25,9.46-22.42-2.58-4.76,2.94-7.15,7.06-8.48,5.87-1.9,12.64-.56,22-6.32-22.39-1.55-41-4.15-32.71-33-10.26,9.39,2.2,28.78-17.33,27.25-11.16-.87-16.52-14.66-29-17.22,3.53,11.32,15.81,15.79,17.27,27.07a15.4,15.4,0,0,1-4.64,10.9c-17.12-7.05-26,6.46-37,14.79C220.19,564.68,211.57,562,209.33,550Z" transform="translate(-56.98 -214.83)"/><path class="cls-3" d="M163.37,395.58c8.89,12.54,1,19.71-8.5,26.37-4,1.66-5.79-1.89-8.4-3.51l-13.27-9.8c-14.1-9.27-23.41-21.35-27.58-38.33-4.3-17.55-14.84-31.65-31.12-40.9-8.8-5-17.16-11.28-17.46-22.33-.28-10.5-.31-22.64,16.72-17.86l-.06,0c14-3.16,27.35-9.62,42.54-2.92,6.31,2.78,10.75,5.51,13,11.79-9.18,18.46-11.76,36.83.68,55,3.74,5.12,5.42,11.23,8.24,16.8l.06.13c8,5.31,11.92,13.76,16.92,21.4l0,0C157.43,393.67,161.48,392.5,163.37,395.58Z" transform="translate(-56.98 -214.83)"/><path class="cls-2" d="M287.72,246.43c-.63,6.07-3.78,12.19.42,18.14a4.08,4.08,0,0,1-3.31,3.71c-10.18,1.7-19,8-30.71,5.79-4.33-.84-21.64-3.07-13.33,14.7,2.73,5.84-5.87,11.77-11.08,16.16-6.37,5.36-18.51-.19-21.94,11.2l-11.49-3.94c1.74-4.54-6.59-6.11-2.27-12.91,7-11.06,4.2-15.49-6.28-21.58-9.63-5.6-.77-10.16,1.87-14.93,11.89-2.54,24.08-3.57,35.79-7a1.74,1.74,0,0,0,2.36-1.13c3.16-9.08,11.74-5.75,18-7.82l25-5.34c3.7-1.74,7.6-1.84,11.57-1.45A8,8,0,0,1,287.72,246.43Z" transform="translate(-56.98 -214.83)"/><path class="cls-4" d="M232.09,561.65c2.08-2.85,4.79-5.43,6.15-8.59,7.33-16.94,16.65-17.5,28.08-3.86-4.35,11.66-8.89,22.68-1,35.46,3.86,6.3,3.6,17.24-4.83,20.61-11.38,4.55,0,10.77-2.91,15.36l-8.3,5.16c-12.28,8.14-25.64,7.37-38.91,3.86-8-2.11-13.9-7.48-14.88-16.19-1.14-9.94,6.53-12.92,13.83-16.17,6.34-2.83,14.41-1,19.37-7.26C232.21,580.86,229.3,570.9,232.09,561.65Z" transform="translate(-56.98 -214.83)"/><path class="cls-5" d="M257.54,620.63c-5.09-3.9-9.93-8.1-11.57-14.58-.8-3.16-1.72-6.11,4.29-6.54,11.69-.83,16.94-9.6,9.27-17.47-15.54-15.93-2.85-23.5,6.79-32.84.1-3.5.84-6.68,4.28-8.52,20.77,5.76,25.2,12.91,21.75,35.18a13.08,13.08,0,0,1-8,2.59c-7.17-1.19-13.34-1-12.5,8.95-.18,6.28-.69,12.46-5.4,17.3C264.05,610.34,265,617.8,257.54,620.63Z" transform="translate(-56.98 -214.83)"/><path class="cls-2" d="M176.67,237.16c-1.18,9.05,10.93,12.41,9.31,21.64-8.77,5.26-17,11-18.27,22.32-4.24-1.31-5-4.45-4.36-8.3-3.12-12.22-2.37-24.46-.26-36.71-.41-6.57-.18-12.62,9.2-11.24C173.55,229,172,234.21,176.67,237.16Z" transform="translate(-56.98 -214.83)"/><path class="cls-2" d="M176.83,319c5.93,3.24,9.87,7.59,6.81,14.76-2.78,6.53-7.56,3.75-12,2A23.6,23.6,0,0,1,176.83,319Z" transform="translate(-56.98 -214.83)"/><path class="cls-6" d="M254.93,418.22c-14.05,6.58-24,1.54-30.88-11.19-11.36-21.06-20.57-42.75-17.62-67.55l23.89,24.35c1.31,8.78,8,16,6.7,25.53,1.45-5.92,2.39-11.52,9.78-12.3,37.26,22.06,75.82,26.24,116,8.37,2.63-4,5,13.45,8.26,0,1-4.28,4.41-8.38,7.84-11.79l22.73-27.55,6.66,5.54c-6.71,27.1-17.81,51.87-40.64,70.48-5.67,2.1-11.29.76-16.93-.18-23.44-4.42-46.79-8.76-70.85-3.68C271.8,419.94,263.22,421.67,254.93,418.22Z" transform="translate(-56.98 -214.83)"/><path class="cls-7" d="M254.93,418.22c33.68-11.71,67.37-10.29,101.06-.08.64,3-.89,5.16-2.68,7.25-4.22,3.32-6.85,8-10.22,12.05l-9,4.83c-25.77,4-51.34,5.76-75.57-6.94-1.31-4.82-3.75-9.38-3.32-14.59A1.92,1.92,0,0,1,254.93,418.22Z" transform="translate(-56.98 -214.83)"/><path class="cls-8" d="M386.11,329.5c-2.85,13.78-11.07,24-28.36,23.89-16.32-.12-28.83-13.14-27.23-29,1.67-16.43,11.38-26,28.11-26.25C373.84,297.9,387.05,312.65,386.11,329.5Z" transform="translate(-56.98 -214.83)"/><path class="cls-9" d="M284.83,268.28l3.31-3.71C312.24,254,330,258.92,334.63,278c2.86,11.79.52,22.47-9.91,30-10.17,7.37-21.14,8-31.61,1.18-10.29-6.68-15-16.6-12.52-29C281.41,276.09,283.39,272.23,284.83,268.28Z" transform="translate(-56.98 -214.83)"/><path class="cls-10" d="M244.91,302c14-8.7,25.91-4.59,35.14,7.24,8.21,10.53,8,22.53-.23,33-8.79,11.22-20.9,14.66-33.9,8.2-15-7.43-18.37-20.19-13.27-35.58,3.52-1.8,6.76-.19,10,.71,10.82-1.64,1.36-5.8,1.06-8.79A4.05,4.05,0,0,1,244.91,302Z" transform="translate(-56.98 -214.83)"/><path class="cls-11" d="M246.8,377.06l-8.6,21.71c-9.18-10.46-9.15-22.55-7.89-34.93C236.67,367.18,242.88,370.7,246.8,377.06Z" transform="translate(-56.98 -214.83)"/><path class="cls-12" d="M378.87,373.63c-.54,10-5,18.33-12.85,28.95-1.43-7.55-2.33-12.34-3.24-17.15C366.32,379,372.43,376.11,378.87,373.63Z" transform="translate(-56.98 -214.83)"/><path class="cls-13" d="M351.72,421.41l4.27-3.27,11.64,4-15.21,11.07C347.84,429.51,349.15,425.5,351.72,421.41Z" transform="translate(-56.98 -214.83)"/><path class="cls-14" d="M240.2,318.94l-7.55-4.1c1.62-6.64,5.37-11.26,12.26-12.89.07,1.63.14,3.26.2,4.89C246.84,312.23,245,316.17,240.2,318.94Z" transform="translate(-56.98 -214.83)"/><path class="cls-15" d="M351.72,421.41q.34,5.89.7,11.76l-9.32,4.27C343.22,430.62,343.18,423.73,351.72,421.41Z" transform="translate(-56.98 -214.83)"/><path class="cls-16" d="M283.46,242.28l15.83-.88c-.12,10.21-8.06,2.56-11.57,5Z" transform="translate(-56.98 -214.83)"/><path class="cls-3" d="M193.42,536.8c-11.08-10.74-18.46-23.47-21-38.82,3.76-1.28,5.9-9.41,9.38-5.87,6.9,7,5.81,21.18,19.95,22C200.44,522.2,199.26,530.35,193.42,536.8Z" transform="translate(-56.98 -214.83)"/><path class="cls-17" d="M255.15,420.74c1.86,4.69,6.73,8.7,3.32,14.59C250.68,432,246.8,427.75,255.15,420.74Z" transform="translate(-56.98 -214.83)"/><path class="cls-4" d="M297.21,572.75l-5.77,0c-1.5-14.2-7.85-25.26-20.84-32q-10.67-11.8-21.32-23.61c-3-3.34-5.51-7.52-2.51-11.42,3.57-4.66,8.82-3.91,13.33-.8,3.48,2.4,6.34,5.71,9.9,8,6.38,4,10.11,15.49,18.12,12.45,8.86-3.37.26-12.35,1.06-18.71.85-6.77,6.37-10.55,12.17-13.84,6.16,3.12,3.77,9,3.23,13-2.35,17.91,5,24.6,22.68,22.4,4.89-.61,13.42-2.91,13.91,5.1s-5.8,12.21-14.39,11.75c-5.64-.29-11.3-.05-20.25-.05C326.8,564.61,314.33,569.76,297.21,572.75Z" transform="translate(-56.98 -214.83)"/><path class="cls-18" d="M163.09,236.11q.14,18.36.26,36.71C158.06,260.62,157.89,248.39,163.09,236.11Z" transform="translate(-56.98 -214.83)"/><circle class="cls-19" cx="199.38" cy="110.31" r="5.89"/><circle class="cls-19" cx="244.98" cy="60.41" r="5.89"/><circle class="cls-19" cx="298.69" cy="108.84" r="5.89"/></svg>