<svg id="Layer_1" data-name="Layer 1" xmlns="http://www.w3.org/2000/svg" viewBox="0 0 338.28 397.01"><defs><style>.cls-1{fill:#bdd53a;}.cls-2{fill:#bcd539;}.cls-3{fill:#bad049;}.cls-4{fill:#c6e529;}.cls-5{fill:#c1df26;}.cls-6{fill:#bbd23a;}.cls-7{fill:#c4de42;}.cls-8{fill:#b9cd4c;}.cls-9{fill:#cbe441;}.cls-10{fill:#f1f4dd;}.cls-11{fill:#f7f8f3;}.cls-12{fill:#e5678f;}.cls-13{fill:#bfd544;}.cls-14{fill:#ec6298;}.cls-15{fill:#cbe63d;}.cls-16{fill:#c2d946;}.cls-17{fill:#464e15;}.cls-18{fill:#b8d034;}.cls-19{fill:#4e451c;}.cls-20{fill:#464d15;}.cls-21{fill:#c7de43;}.cls-22{fill:#5d671d;}.cls-23{fill:#313233;}.cls-24{fill:#0f0f12;}.cls-25{fill:#cc567f;}</style></defs><path class="cls-1" d="M322.14,311.94c9.35-6.9,8.95-19.4,16-27.63a9.54,9.54,0,0,1-.52-5.44c5.77-3.06,8.26.6,10.39,5-4.58,5.81,6.07,8.63,2.83,14.2-7.71,6.95-12.85,14,1.77,18.43,22.43,6.81,38.12,21.89,51.4,40.18,11.05,9.15,15.51,21.1,15.05,35.14-3.51,6.77-8.67,8.58-14.47,3.31-6.87-6.24-15.68-10.45-20.46-18.92-5-4.62-7.5-13.34-18.59-10.14.86,10,12.85,11,15.37,18.94.36,9.77-6.7,13.33-14,16.69-2.61,1.11-5.3,2-8,3-7.81,2.57-15.87,4.57-22.63,9.64a14.49,14.49,0,0,1-13.62,1.35c-10.15-6.14-20.54-6.83-31.19-1.33a43.13,43.13,0,0,1-15.37.28c-5.23-2.43-9.8-8.08-16.4-3.17-3.43,8.05-2.93,16,.4,23.83,5,7.87,11.24,12.15,20.7,7.14,3.56-1.55,7.15-2.81,11.08-1.43,10.29,13.86,0,16.64-9.66,19.37,6.08.81,17.45-1.43,7.27,11.41a10.56,10.56,0,0,0-2.36,5.55c-.52,5.43,27.63,46.37,33.37,48.49,18.63,6.9,41.93.38,52.52-14.77,2.35-3.35,4.07-7.56,7.33-9.77,24-16.28,36.1-38.25,33.47-67.59,1.75-2.9,4-4.88,7.68-3.93a12.69,12.69,0,0,1,1.32,6.26c-1.13,17.07,3.39,33.88,2.41,50.91,2.78,5.83-.5,12.76,3.31,18.43,2.74,25.51,14.73,47.85,24.43,71,2.89,6.9,6,13.81,7.86,21,2,7.76,5.75,17.06-.64,23.42-6.73,6.68-14.1-.91-20.39-3.74-11.32-5.08-22.34-4.51-30.11,4.06-8.15,9-16.34,8.54-22.49,1.54-9.29-10.59-17.7-8.18-26.7-1.76-12.77,9.11-24.46,10.66-36.56-1.35-7.82-7.76-18.65-8.65-26-1.39-17.86,17.62-32.92,16-47.89-2.91-1.56-2-4.62-2.75-7-4.08-5.45-6.81-7.78,0-11.09,2.52-6.47,3.44-13,6.75-19.37,10.37-9,5.15-17.92,5.3-21.87-5.13-6.44-17-16.52-14.23-29.19-8.34-10,4.66-21.56,16.87-31.3,8.26-11.71-10.34,1.61-23.74,3.64-35.87C137,568.08,146,557.43,158.13,549l0,0c2-4.87,3.75-10,9.52-11.88,13.85-13.88,13.48-32,13.88-49.4.73-31.89.76-63.77,9.16-94.89,9.08-33.67,25.82-61.2,60.36-74.17,15.84-5.94,4.66-12.7,1-19.33.17-3.5-5.82-3-4.65-7.21,4.55-7.31,10.43-12.87,19.16-14.77,4.46,2.1,5.42,5.12,2.4,9.17,4.13,10.6,3.1,25.41,20.6,25.1C300.35,314.72,311.24,314.39,322.14,311.94Z" transform="translate(-125.48 -233.42)"/><path class="cls-2" d="M350.83,298.08c-.32-4.05-9.81-5.86-2.88-11.69,4.27-3.41,9.08-1.83,13.71-1.35,13.06,1.35,21.32-3.83,22.35-17.32.93-12.17-8.82-20.52-22.66-19.91-5.36.24-10.59,2.64-16.1,1.07a8.6,8.6,0,0,1-4.44-3.59c12.08-15.31,27.19-13.44,43-7.56,5.1,3.29,9.75,7,12.11,12.85C401,289.09,388.26,302.47,350.83,298.08Z" transform="translate(-125.48 -233.42)"/><path class="cls-3" d="M219.1,245.71c3.25-7.74,12-7.35,17.51-11.85,35.55,4.84,47.31,24.07,32.28,52.74L266,278.72c-9.63-29.64-12.28-31.51-42.2-29.84A9.55,9.55,0,0,1,219.1,245.71Z" transform="translate(-125.48 -233.42)"/><path class="cls-4" d="M247.17,294.39c1.91,1.38,8.14-1.34,4.81,5-17.54,4.36-31.1-.78-40.1-16.75,1.57-4.24,4.48-6.05,9-5C229.37,283.69,238.93,288,247.17,294.39Z" transform="translate(-125.48 -233.42)"/><path class="cls-5" d="M218,278.64l-6.14,4c-4.4-4.57-4.82-10.45-5.39-16.29,4.23-6.87,4.74-16,12.61-20.66l4.81.23C227.89,257.9,222.4,268.17,218,278.64Z" transform="translate(-125.48 -233.42)"/><path class="cls-6" d="M421.35,432.74a20.55,20.55,0,0,0,3.08,2.58l.9,23.56c3.1,11,3.25,21.92-.95,32.71C417,472.3,422.15,452.37,421.35,432.74Z" transform="translate(-125.48 -233.42)"/><path class="cls-2" d="M338.89,278.16q-.39,3.07-.76,6.15c-8.23-9.32-9.73-19.29-2.95-30.06,6.13-.32,6.69,4.42,7.9,8.59C343.55,268.45,343.56,274,338.89,278.16Z" transform="translate(-125.48 -233.42)"/><path class="cls-7" d="M322.14,311.94c-10.92,5.52-21.81,5.86-32.65-.24A100.48,100.48,0,0,1,322.14,311.94Z" transform="translate(-125.48 -233.42)"/><path class="cls-8" d="M339.21,263q-2-4.4-4-8.79c.11-4.1,2.61-6.7,5.64-9l7.25,1.4C348.61,254,348.44,261,339.21,263Z" transform="translate(-125.48 -233.42)"/><path class="cls-9" d="M232,613.65c.6-5.8,4.19-7.79,9.55-7.2,3.69.4,4.38,2,1.54,4.68Z" transform="translate(-125.48 -233.42)"/><path class="cls-6" d="M359.43,400.86l4-3.39c8.26,3.53,5.68,11.37,6.87,17.59,4.54,23.59,13.94,28.83,36.81,20.15,3.16-1.2,6.2-2.8,9.62-.92,0,2.73.12,5.46,0,8.18-.85,18.56,7.34,40.11-19,49.75-6.35,2.33-13.25,9.11-15.57,15.43-11.57,31.53-37.56,25.21-61.44,24.69-3.16-.06-8.49-1.2-9.07-3-6-18.87-24-29.86-30.9-48.28-3.76-10.08-1.45-14.56,8.45-17.17L277.49,462c2-7.85,23.8-3.6,11.81-19.6-4.16-10,.11-15.69,9.7-18.62,15.51,2.93,2.45,16.19,8.26,22.59-2.92,8.83,6.5,7.6,9.59,11.54,7.92,10.19,10.13,23.78,21.28,34.42.77-24.95,14.39-35,42-31.4-21.35-16.9-44.57-21.79-59.36-39.19a11.23,11.23,0,0,1-.3-5.78c.55-.81,1.11-1.62,1.66-2.44,4.49.09,9.22,1,12.39-3.5C342.55,406.3,352.09,406.56,359.43,400.86Z" transform="translate(-125.48 -233.42)"/><path class="cls-1" d="M416.72,434.29c-11.28,7-22.05,18.36-36.62,8-12.74-9-18.08-21.54-13.9-37.41.55-2.1-1.78-4.95-2.78-7.45,8.12-.6,13-5.3,15.91-12.48-1.93-7.45,3.67-9.55,8.64-12.1,9.39,6.73,13.77,20.22,27.89,20.57q2.13,4.65,4.27,9.31.54,13.68,1.1,27.37Z" transform="translate(-125.48 -233.42)"/><path class="cls-10" d="M218,278.64c-5.4-12.22,2.45-22.07,5.89-32.7,31.72-7,46.23,4.3,42,32.78-4.23,7.63-11.71,11.4-18.78,15.67C234.39,294.79,225,289,218,278.64Z" transform="translate(-125.48 -233.42)"/><path class="cls-11" d="M339.21,263l8.85-16.35c10.11-4.16,20.31-8.44,30.64-.87,11.15,8.16,15.41,18.92,8.93,31.64-9.36,18.38-24.16,16-39.68,8.93a15.85,15.85,0,0,0-9.06-8.23Q339,270.6,339.21,263Z" transform="translate(-125.48 -233.42)"/><path class="cls-12" d="M298.26,426.06c-6.3,3.64-7.26,10.2-8.95,16.35l-8.57,3.93c-10.09,3.4-16.45-4.35-24.16-8.06-6.43-11-7.33-22.06-.07-33.11,7.7.81,15.35,1.76,20.78,8.26,4-2.86,8.09-1.83,12.2-.32a5.32,5.32,0,0,1,5-.54,12.28,12.28,0,0,1,5.24,5.94A8.57,8.57,0,0,1,298.26,426.06Z" transform="translate(-125.48 -233.42)"/><path class="cls-13" d="M388,372.89,379.34,385c-5.56.28-7.57-5.16-11.65-7.14-4.55-2.21-11.68-1.94-9.64-10,1.17-4.59,3.6-9,8.59-10.52,6.2-1.91,10.19,2.06,13.81,6.2C383.08,366.57,385.47,369.78,388,372.89Z" transform="translate(-125.48 -233.42)"/><path class="cls-14" d="M256.58,438.28c10.3-4,15.31,7.76,24.16,8.06C268.8,455.23,262.05,448.68,256.58,438.28Z" transform="translate(-125.48 -233.42)"/><path class="cls-15" d="M292.63,413.6a6.27,6.27,0,0,1-3.14-.49c11-11.78,21.91-12.64,32.61.43l-.15.68C312.1,417.47,302.41,413.54,292.63,413.6Z" transform="translate(-125.48 -233.42)"/><path class="cls-16" d="M215.46,606.25c2.45.44,6.88,1.22,4.76,3.9-5,6.29-11.38,6.09-17.18.17C204.35,600.38,210.36,604.68,215.46,606.25Z" transform="translate(-125.48 -233.42)"/><path class="cls-17" d="M243.76,389.43c1.36,2.14,3.94,4.34,3.83,6.4-.25,4.74-4.19,2.72-5.26,1-2.58-4.07-16-3.41-6.21-13.16C240.45,383.24,242.53,385.78,243.76,389.43Z" transform="translate(-125.48 -233.42)"/><path class="cls-18" d="M215.46,606.25c-4.53.15-9.42-.74-12.42,4.07-2.86.36-9.67,4-5.56-3.16C201.35,600.36,209.08,599.72,215.46,606.25Z" transform="translate(-125.48 -233.42)"/><path class="cls-19" d="M277.29,413.43l-20.78-8.26C265.59,402.53,273.77,402.15,277.29,413.43Z" transform="translate(-125.48 -233.42)"/><path class="cls-20" d="M359.43,400.86c-5.93,9.51-15.38,9.5-24.95,9.17C341,402,350.57,402.45,359.43,400.86Z" transform="translate(-125.48 -233.42)"/><path class="cls-21" d="M243.76,389.43l-7.64-5.73c.59-2.61,1.09-6.38,4.76-3.37C243.29,382.3,249.5,384.39,243.76,389.43Z" transform="translate(-125.48 -233.42)"/><path class="cls-1" d="M298.26,426.06q.33-3.82.68-7.65c7.36-7.39,15.32-1.61,23.05-1.05,15,15.21,34.51,23.08,53.05,32.45,5.25,2.65,13.62,2.7,10.72,11.25-2.4,7.05-9.41,5.75-15.78,5-19.23-2.2-25.32,4-23.86,24.36.38,5.34-.35,10.05-5.61,11.56-5.1,1.46-6.22-3.95-8.41-7.14a148.71,148.71,0,0,1-18.1-36c-3.07-3.86-3.47-9.48-8.18-12.25-8-.66-7.85-4.72-5-10.7C302.55,432.35,306.92,427.23,298.26,426.06Z" transform="translate(-125.48 -233.42)"/><path class="cls-22" d="M322,417.36c-7.36,7.73-15.5-1.76-23.06,1.05l-6.3-4.81c9.92-6.68,19.67-5.52,29.32.61A20.71,20.71,0,0,1,322,417.36Z" transform="translate(-125.48 -233.42)"/><path class="cls-1" d="M305.82,446.57c15.31-4.28,5.38,8.22,8.18,12.25C305.79,458.37,297.62,457.91,305.82,446.57Z" transform="translate(-125.48 -233.42)"/><path class="cls-1" d="M403.73,418c-.13,7.67-5.06,7.92-10,7.92-10.28,0-14-8.23-16.3-15.52-1.73-5.47,3.74-11.16,9.53-10.28C396.83,401.63,399.67,411.14,403.73,418Z" transform="translate(-125.48 -233.42)"/><path class="cls-23" d="M240.93,258.89c-.31,3.5-1.5,6.4-5.39,7.13-4.81.91-8.09-1.61-8.45-5.93-.31-3.7,3-5,6.75-5.47S240.28,254.58,240.93,258.89Z" transform="translate(-125.48 -233.42)"/><path class="cls-24" d="M363.85,257c-.39,5.46-3.71,8.14-6.68,7.92-4.05-.3-7.94-3.32-6.36-8.4a7.3,7.3,0,0,1,7.78-5.35C363,251.56,363.76,254.76,363.85,257Z" transform="translate(-125.48 -233.42)"/><path class="cls-25" d="M271.78,417.55c3.67,7.28.87,11.81-.15,16.76C266.41,428.9,269.07,424.35,271.78,417.55Z" transform="translate(-125.48 -233.42)"/><path class="cls-1" d="M329.14,443c6.05,1.39,11,4.8,12.15,11.56a5.91,5.91,0,0,1-6,6.87c-7-.21-10.83-5.22-12.27-11.62C322.14,445.77,324.67,443.52,329.14,443Z" transform="translate(-125.48 -233.42)"/></svg>