<svg id="Layer_1" data-name="Layer 1" xmlns="http://www.w3.org/2000/svg" viewBox="0 0 486.89 430.74"><defs><style>.cls-1{fill:#fdf001;}.cls-2{fill:#f8ed03;}.cls-3{fill:#f9ef03;}.cls-4{fill:#f4e904;}.cls-5{fill:#f3eb05;}.cls-6{fill:#080705;}.cls-7{fill:#090804;}.cls-8{fill:#0f0d06;}.cls-9{fill:#fdfdfc;}.cls-10{fill:#fefefd;}.cls-11{fill:#fcf005;}.cls-12{fill:#fbfbf5;}.cls-13{fill:#e96699;}.cls-14{fill:#df6587;}.cls-15{fill:#e96b8e;}.cls-16{fill:#f6ec05;}.cls-17{fill:#9d8e11;}.cls-18{fill:#ac9c10;}.cls-19{fill:#c6bb0b;}.cls-20{fill:#feee0d;}.cls-21{fill:#fefd14;}.cls-22{fill:#f0e90c;}.cls-23{fill:#131314;}.cls-24{fill:#101011;}.cls-25{fill:#fcfcfc;}</style></defs><path class="cls-1" d="M89.16,418.8l4.26.87c13-4.95,18.11-17.69,26.63-27.07,1.63-11.25,2.82-22.59,5-33.74,6.63-34.33,6.78-34.31-7.66-61.43,8-7.84,24.89,8.75,27.42-7.79,1.57-10.31-5.29-21.89-9.31-36.25L172,265.54c3.29-12-.84-23-1.67-34,8.09-4.44,13.48,1.57,18.06,4.59,18.8,12.39,22,3.24,20.63-13.62,3.25-4.34-4.09-14.59,7.89-14.05,3.86,8.24,12.48,11.22,19.19,15.78,7.32,4.95,7.23-2.49,7.58-7.34,1.75-2.25,2.71-5.2,5.65-6.41a32.76,32.76,0,0,1,20,1.88c14.19,7.1,14.19,7.1,27.54-16.65,9-8.29,12,1.33,16,5.78,6.8,7.61,13.09,15.28,25,11.48l15.76-9.1c3.25,3.71,7.14,7.59,6.84,12.61-.87,14.24,6.55,12.94,15.78,9.09l12.93-4.9c11.06-.32,4.58,9.68,8.15,13.77.37,2.84.73,5.69,1.1,8.53,6.49,5.31,13.26,7.7,21.29,2.95,4.75-2.81,9.47-2.55,13.34,2V283c8.65,4.16,15.41-3.52,23.74-2.07-13.28,41.92-1,78.32,25.56,111.36,3.88,2.21,6,5.2,4.46,9.85-4.45,6.87-16.75,6.15-16.76,17.31,1,16.13-4.27,30.72-11,44.95-.63,1.21-1.94,2.12-2.34,3.27-1.07,3.07-15.88,1.05-3.46,9.11a17.89,17.89,0,0,1-6.07,13.47q-26.26,4.84-22,31.17c-12.51,18-31.4,28-49.41,39-6.15,9.93-.75,21.85-5.54,32-1.58,4.48-7.61,4.14-10.56,11.91,7.67-8.32,14.39-9.4,21.59-5.17a15.31,15.31,0,0,1,4.27,4c3,1.42-4.15,6.45.78,5.17,7.73-2,14.73-7.24,21.42,1.56a7.39,7.39,0,0,1-2.11,6.08c-3.81,3.49-8.14,4.66-13.12,3.1-15-1.08-30.11,1.63-45-1.65-6.38.17-8-3.47-7.12-9-4.22-11-1.66-22.46-1.78-33.67C338.57,563,334.28,559,323,563.66c-21.69,4-43.42,3.83-65.19.73-6.71,5.87-2.91,13.58-3.09,20.31-.7,24.71-8.62,33.35-33.39,34.16-8,.26-16,1.21-23.84-1.44-9.09-.39-19.63.46-12.05-14.09,14.39,1.37,29,3.5,40.29-8.89l-.2.14c7.74-1.31,6-4.71,5.16-11.4-1.56-11.94-13.27-29.64,11.49-33.2,1.64,2.41-.17-1.05,1.5,1.34a14.75,14.75,0,0,1,2.43,5.84c.47-3-1.5-4.76-3.3-6.7-10.36-1.72-18.12-5.94-18.12-18-.57-16.71-1.82-33.42,1.27-50,2.83-13.23,10.31-22.09,23.88-25.19,23.56,6.44,47.61,2.69,71.12,3.37-.27-.55-.61-.08-.67-.07-1.26.11-2.53.17-3.93.17-23.32-.37-46.61,1.21-69.64-2.9-5.65,3.79-12.23,2-18.34,3-20.66,13.46-30.74,31.62-25.31,56.63,1.83,3.8,3.67,7.6,4.14,11.88a18.3,18.3,0,0,1-1.05,6.43c-4,6.23-9.54,8.8-16.89,6.91-14.8-4.7-23.22-17.59-34.53-26.78-6.19-4.11-10-10-12.71-16.75-10.65-19.36-16.2-40.25-18.21-62.67-14.74,2.14-11.35,15.63-15.81,23.44-6.72,11.79-12.93,20.3-22.35,3.63-3.49-6.17-5.45-4.12-9.47-2.63-7.59,2.82-14-5.43-12-7.58,10.34-11.27-3.46-20-1.44-29.87C70,413.21,79.64,416.31,89.16,418.8Z" transform="translate(-62.56 -192.5)"/><path class="cls-2" d="M522.06,468.7c0,1.08,0,2.14-.12,3.21-16.07,4.21-18-9.22-21.73-18.54-7-17.34-18-30.24-35.52-37.31,1-15.05,14.84-11,23-15.37l3,.59c9.54,10.2,16.45,25.79,35.22,17.1,23.69-2.37,27.26,1.3,20.5,21C539.69,450.26,523,453,522.06,468.7Z" transform="translate(-62.56 -192.5)"/><path class="cls-3" d="M189.31,542.7c5.3-2.75,11.44-4.27,14.81-9.89,8.59,1.85,16.89,5.44,26,4.28-1.81,10.74,16,2.43,13.5,13.82h0c-18.92,12.83-18.75,20,1.33,45.47-7.19,6.42-13.13.49-19.34-1.81C237.54,560.58,209.4,554.44,189.31,542.7Z" transform="translate(-62.56 -192.5)"/><path class="cls-3" d="M197.53,617.42c15.45-2.2,31.33,2.13,45.23-12.54,6.08-6.41,9.07-10.69,9.76-18.57.65-7.49-3.55-16.36,5.33-21.92-.41,4.29-1.09,8.56-1.17,12.85C255.8,623.08,244.74,630.62,197.53,617.42Z" transform="translate(-62.56 -192.5)"/><path class="cls-3" d="M225.77,594.44c-9.52,20.57-23.55,20.81-40.29,8.89C197.18,592.59,212,595.64,225.77,594.44Z" transform="translate(-62.56 -192.5)"/><path class="cls-4" d="M323,563.66c11.95-7.72,17.68-4.07,17.68,9.71,0,11.72-.16,23.43-.24,35.14-5.3-10.28-4.06-21.53-3.14-32.14C338.4,564.09,331.78,563.41,323,563.66Z" transform="translate(-62.56 -192.5)"/><path class="cls-5" d="M269.4,212.41c-6.88,3.24-13.74,3.48-20.58-.07-4.12-5.55,2-8.81,3-13.2C263.1,196.41,265.21,205.78,269.4,212.41Z" transform="translate(-62.56 -192.5)"/><path class="cls-4" d="M398.53,617.1l-5,4.12c-15.24-2.06-31.16,4.29-45.92-3.72Z" transform="translate(-62.56 -192.5)"/><path class="cls-6" d="M62.76,423.49" transform="translate(-62.56 -192.5)"/><path class="cls-6" d="M89.16,418.8" transform="translate(-62.56 -192.5)"/><path class="cls-7" d="M154.78,515.92" transform="translate(-62.56 -192.5)"/><path class="cls-8" d="M482.4,392.33" transform="translate(-62.56 -192.5)"/><path class="cls-8" d="M490.69,401.28" transform="translate(-62.56 -192.5)"/><path class="cls-9" d="M264.51,396.42c-44,15.07-75.13,5.35-89.06-27.79-10.43-24.82-4.16-53.53,15.25-69.78,21.75-18.21,51.4-19.42,75.19-3,4.19,2.89,8.17,6.09,12.25,9.14C309.08,329.09,301.73,378.42,264.51,396.42Z" transform="translate(-62.56 -192.5)"/><path class="cls-10" d="M318.41,383.89c-5.77-2.26-9.32-6.27-10-12.58.22-6.64,1.42-12.74,8.58-15.58a19.27,19.27,0,0,1,2.16-.23c10.42-.31,24.32,4.4,26.85-10.93,2.48-15.06-12.45-15.24-21.85-19.59-8.79-8.79-11.64-18.67-5.45-30.16,18.1-18.93,40.14-17.93,62.24-10.56,22.7,7.57,38.58,32.16,38.53,56.1,0,22.32-13.79,44.74-33.35,51.9-4.59,1.68-9.53,2.61-13.87,5.17-9.22-8.65-18.62,6.26-27.86-.2-4.7-.09-9.93,1.56-13-3.9C332,383.45,327.31,380.79,318.41,383.89Z" transform="translate(-62.56 -192.5)"/><path class="cls-11" d="M264.51,396.42c31.92-34.8,34.38-51.34,13.63-91.42,11.78-4,18.55-27.54,36.05-9.16a20.6,20.6,0,0,1-1.57,14.75c-8,16.15-11.79,32.49-4.86,50.1,1.35,3.44.25,7.13-2.56,9.94L283.3,397h0c-1.39.21-3.84.08-4,.67C272.4,419,268.92,402.38,264.51,396.42Z" transform="translate(-62.56 -192.5)"/><path class="cls-12" d="M305.2,370.63c-12.8-26.81-6.49-51.35,9-74.79,1.33-1.16,2.37-3.6,4.56-1l4.62,28.47c-2.13,11.35-2,23.09-5.83,34.15-4.52,3.65-2.41,11.62-9.07,13.88A11,11,0,0,1,305.2,370.63Z" transform="translate(-62.56 -192.5)"/><path class="cls-13" d="M230.09,537.09c-11.07,13.13-19.15,8.2-26-4.28a8.49,8.49,0,0,1,.63-3.79c5.26-12,.68-25.93,7-37.71,4.14-7.73,6.4-18.54,19.5-13.82.29.11.4,1.15.32,1.72a9.81,9.81,0,0,1-.75,2Z" transform="translate(-62.56 -192.5)"/><path class="cls-14" d="M230.8,481.22c-21.5,3-15.27,21-17.77,33.79-1.19,6.1,5.06,15.37-8.28,14l-5.92-7.48c-.71-26.19,13.32-46.39,27.19-66.67,6.46-2.48,11.95.54,17.51,3.09,2-1.43,3.56-1,4.59,1.24C238.6,463.61,235,472.64,230.8,481.22Z" transform="translate(-62.56 -192.5)"/><path class="cls-15" d="M226,454.87c1.46,3.29,3.83,7.4.8,10-17.36,15-17.38,38.41-28,56.63C191.14,495.44,199.63,474.63,226,454.87Z" transform="translate(-62.56 -192.5)"/><path class="cls-16" d="M446,489.25c-4.63,11.82-10.94,22.42-21.81,29.68-8.08-8-3.33-17.76.34-24C428,489,436.38,481.67,446,489.25Z" transform="translate(-62.56 -192.5)"/><path class="cls-17" d="M248.12,459.2,243.53,458c17.73-7.42,35.12,4.34,53,.85,8.47-1.66,17.51-.44,26.29-.52,4.53-2.29,8.59-3.63,8.28,4C303.39,462.29,275.54,466.45,248.12,459.2Z" transform="translate(-62.56 -192.5)"/><path class="cls-4" d="M367.93,594.64c10.3,1.16,21.22-2.16,30.81,4.21-4.5,7.77-12.93.68-18.38,4.84-4.45-1.59-8.38-5.29-13.78-1.34-2.5,1.83-3,9.89-8.53,4.38-2.8-2.79-5.28-7.5-3-11.68C358.67,588.24,363.57,594.39,367.93,594.64Z" transform="translate(-62.56 -192.5)"/><path class="cls-4" d="M402.38,599.76c6,2.53,15.87,3.75,4.17,12.26-7.35-8.61-14.44,1.71-21.59.3-12-2.36.88-5.71-.2-8.57C389.85,599,397.14,603.91,402.38,599.76Z" transform="translate(-62.56 -192.5)"/><path class="cls-12" d="M344.44,397.23c9.27,2.68,18.69-16.88,27.86.2Q358.32,405,344.44,397.23Z" transform="translate(-62.56 -192.5)"/><path class="cls-12" d="M318.41,383.89c5.79-.45,7.51-11.28,12.49-7.67,4.2,3,9.45,11.16.52,17.11A21.87,21.87,0,0,1,318.41,383.89Z" transform="translate(-62.56 -192.5)"/><path class="cls-3" d="M243.59,550.91c12.53,6.78,3.69,13.24.66,23.31-5.78-10.2,1.47-16.68-.67-23.3Z" transform="translate(-62.56 -192.5)"/><path class="cls-18" d="M369.77,450.67c-5.8,3.38-11,7.77-18.22,5.2C356.59,448.7,363.18,448.75,369.77,450.67Z" transform="translate(-62.56 -192.5)"/><path class="cls-11" d="M308.79,272.75c12.5-4.76,18-2,23.76,2.56C325,280.74,320.21,272.84,308.79,272.75Z" transform="translate(-62.56 -192.5)"/><path class="cls-19" d="M331.09,462.3l-8.28-4c5.23-4.59,11.69-7.05,15.57-.14C340.52,462,334.43,462.15,331.09,462.3Z" transform="translate(-62.56 -192.5)"/><path class="cls-16" d="M455,467.34c.46,3.86-.57,7.15-3.71,9.64-2.57-2-7.63-4.7-7.3-5.78C445.66,465.88,451,467.87,455,467.34Z" transform="translate(-62.56 -192.5)"/><path class="cls-11" d="M283.3,397c4.42.55,8.56,1.53,8.09,7.29-.08,1-1.71,2.7-2.3,2.57-5.34-1.16-5.24-5.74-5.81-9.85Z" transform="translate(-62.56 -192.5)"/><path class="cls-20" d="M175.22,307.43c-2.62-6.68-3.61-11.84.74-13.38,4.72-1.67,2.48,2.89,2.07,5C177.65,301,176.8,302.83,175.22,307.43Z" transform="translate(-62.56 -192.5)"/><path class="cls-21" d="M402.38,599.76c-4.83,5.91-11.6,3.32-17.62,4-1.47,0-2.94-.06-4.4-.06,4.81-6.58,12.25-3.22,18.38-4.84A2.87,2.87,0,0,1,402.38,599.76Z" transform="translate(-62.56 -192.5)"/><path class="cls-22" d="M540.55,437l8,12.79c-1.89,6.89-4.12,15.6-13.36,11-10.71-5.38-8,6.72-13.12,8C516.5,451.34,534.62,447.69,540.55,437Z" transform="translate(-62.56 -192.5)"/><path class="cls-23" d="M225.91,347.4c-2.54,12.1-9.15,20-22.38,19-12.14-.87-18.5-8.54-18.11-20.43s7.36-19.22,19.4-19.29C217.91,326.61,224.32,334.72,225.91,347.4Z" transform="translate(-62.56 -192.5)"/><path class="cls-24" d="M317.54,357.43c-6.31-12.78-5.41-24.34,5.83-34.15,11.53-2.5,21.79-1.42,28.07,10.24,4.3,8,3.22,15.79-3,21.93C339.05,364.76,328.31,363.82,317.54,357.43Z" transform="translate(-62.56 -192.5)"/><path class="cls-25" d="M203.65,344.36c-4.86-3.19-8.22-4.38-7-7.69.83-2.32,2.94-5.25,6.3-3.57,1.76.88,4.21,3.14,4,4.48C206.63,340.14,204.65,342.48,203.65,344.36Z" transform="translate(-62.56 -192.5)"/></svg>