<svg id="Layer_1" data-name="Layer 1" xmlns="http://www.w3.org/2000/svg" viewBox="0 0 319.08 317.43"><defs><style>.cls-1{fill:#fed001;}.cls-2{fill:#fbce02;}.cls-3{fill:#f9cd03;}.cls-4{fill:#f4cc08;}.cls-5{fill:#e9c704;}.cls-6{fill:#fce905;}.cls-7{fill:#e2c305;}.cls-8{fill:#dcbd05;}.cls-9{fill:#ddbe04;}.cls-10{fill:#f7cf0a;}.cls-11{fill:#f0cc09;}.cls-12{fill:#332726;}.cls-13{fill:#f5f4f1;}.cls-14{fill:#3f3432;}.cls-15{fill:#ebca05;}.cls-16{fill:#facd07;}.cls-17{fill:#fbed05;}.cls-18{fill:#f1cd0a;}.cls-19{fill:#fed00c;}.cls-20{fill:#e1b607;}.cls-21{fill:#dbaf0a;}.cls-22{fill:#f2cc08;}.cls-23{fill:#271b28;}.cls-24{fill:#2a1e2f;}.cls-25{fill:#fedc08;}.cls-26{fill:#fdd310;}.cls-27{fill:#f4c903;}.cls-28{fill:#f5d014;}.cls-29{fill:#f0ca10;}.cls-30{fill:#fcd311;}.cls-31{fill:#fcdc04;}.cls-32{fill:#faf9f2;}.cls-33{fill:#281c2a;}.cls-34{fill:#241e1f;}.cls-35{fill:#ede8dc;}.cls-36{fill:#121212;}.cls-37{fill:#1e1e1d;}</style></defs><path class="cls-1" d="M432.74,364.31l.75,5.6c3.05,9.31,7.83,17.93,10.85,27.24a6.29,6.29,0,0,1-2.62,5.47c-2.35,1.09-4.71.48-7,0-2.48,4,1.3,7.37,1,11.09-1.3,11.91-2.65,23.8-13,32l.65.54-.61-.58a17.43,17.43,0,0,1-9.06,13.21l0,0c-9.18,17.24-23.79,27.2-42.58,31.57l-4.58.61c-1.9,1.08-2.65,3.33-4.51,4.46-4,1.12-8.57-1.46-12.35,1.62-17.94,2-35.89,3.74-54,2.84-9.39,2.59-18.26.32-27.05-2.8a21.19,21.19,0,0,1-5.89-3.11c-1.83-1.15-4-1.72-5.49-3.47l-2.64-3.12c-2.81-1.48,7.62-2.69,0-4.6s-9.51-6.29-6.48-14.27C253,455.88,259.5,445.24,271.72,438c9.56-5.62,17.88-13.29,25-21.77,4.2-5,8.41-7.72,17.11-5.66-6.64-1.94-11.35.61-15.58-1.14-3.86-1.61-4.28-4.3-.48-6.91,10.06-3.55,20.47-1.4,30.7-2,2.54,0,5.09-.09,7.62.09a51.8,51.8,0,0,1,9.68,1.38c5.1,1.77,10.46,2.08,15.78,2.62a29.67,29.67,0,0,1,4.39.88c5.12,2,10.71,2.2,15.94,4.12,2.11.77-.54-2.37.23-3.67-.05-4.9,1.12-9.65,1.19-14.49,1.12-11.9-6.07-13.81-15.62-12.93a15.72,15.72,0,0,1-4.53-.61c-26.34-19.69-54.69-21.17-84.52-9.35-16.88-4.59-33,4.77-49.67,3-4.56,1.23-9,3.52-13.89,1.15a3.23,3.23,0,0,0-.6,2.82c.86,5.66,3.54,14-2.71,15.58-7.26,1.89-9.29-7-11.28-12.68-2.07-5.85-4.05-12.15-.81-18.44,2-18.58,10.4-34.18,22.34-48.16,4.36-8.77,11.86-14.79,19-21,4.44-3.89,9-7.44,9.78-13.81,2.45-4.6-2.36-14.89,9.49-12.2,2.53,11.28,7.62,14.8,19.66,9.86,20.24-8.3,41.67-6.16,62.84-3.2,6.57.13,12.38,5.37,19.33,2.83a10.16,10.16,0,0,0,.76-3.08,5.8,5.8,0,0,1,4-1.45c4.83,1.38,6.43,5.83,9,9.34,6.75,8.76,16.34,14.44,24.13,22.13,10.16,10,18.78,20.85,24.59,33.87a44.22,44.22,0,0,1,2.07,3.91C432.57,346.54,430.62,355.9,432.74,364.31Z" transform="translate(-155.66 -215.23)"/><path class="cls-2" d="M295.68,405.27c6.38,5.66,14.47.94,22.32,4.89-15.57-3.41-18,11.58-26.87,17.66-8.6,5.87-15.8,14.18-25.33,18.88-12.12,6-9.82,19.58-15.63,28.92-2.17,3.49,8.8,4.6,14.83,7.05l-10.33,4.83a27.06,27.06,0,0,0-2.85-.15c-5.21-1.79-11.43-1.94-13.84-8.35-4.14-1.35-8.08-3-10.31-7.11-3.67-3.34-8.74-5.86-7.16-12.25,3.18-6.69-2.84-12.15-2.53-18.46a4.52,4.52,0,0,1,3.05-2.87c9.12,3.61,18.29,7.12,27.89,1.59,7.3-4.21,9.83-9.15,1.78-15.25-1.36-6.73,4.76-8.43,8.08-12,4.59-4.18,12.51-1.87,16-8.24C282,400.66,289,398.88,295.68,405.27Z" transform="translate(-155.66 -215.23)"/><path class="cls-3" d="M199.72,360c1,13.79,2.06,16.3,12.54,30.06,0-3,.31-5.05-.06-7-1.47-7.64-6.25-17.22,9.32-13.18,1.95.51,4.69-2.06,7.07-3.2a7.45,7.45,0,0,1,2,3.76c-3.4,10.49,7.5,15.73,9,24.42a10.31,10.31,0,0,1-4.15,5c-13.41,7.79-20.33,18.31-14.79,34.28a5.54,5.54,0,0,1-1.71,5.77h0c-5.09.57-10.27-.61-15.35.66-8.05-6.11-10.56-14.58-10.44-24.18a25.44,25.44,0,0,1,.76-4.34c-.1-2.64,3.6-5.38-.26-7.84-2.23.78-3.58,2.54-5.06,4.17-1.81,2-3.65,3.9-6.68,3.63-2-1.18-3.13-2.69-1.85-5.06C189.44,392.47,196.39,377,199.72,360Z" transform="translate(-155.66 -215.23)"/><path class="cls-4" d="M203,259.59,200,258c-5.79-30.05,6.08-43,37.48-40.7,12.43,3.45,21.54,9.32,17.9,24.45-4,3.37-6.72-.27-9.75-1.81-16.64-8.45-25.86-6-35.38,9.66C208.11,253.12,206.92,257.35,203,259.59Z" transform="translate(-155.66 -215.23)"/><path class="cls-5" d="M174.29,449.55c-10.58,6.22-12,5.29-18.63-12.58a30.61,30.61,0,0,0,15.11-9.92c2.77-1.07,4-.35,3.21,2.74-.25,5.24,3.7,8.09,6.37,11.83C186.28,449.92,180,449.68,174.29,449.55Z" transform="translate(-155.66 -215.23)"/><path class="cls-6" d="M362.88,529.06c-3.2-11.28-1.05-22.67-.67-34l4.37-4c2.47,10.35-5.84,22.48,5.25,31.4a24.18,24.18,0,0,1,16.87,0c2.3,2.86,7.78,1.5,8.54,6.41A76.08,76.08,0,0,1,362.88,529.06Z" transform="translate(-155.66 -215.23)"/><path class="cls-7" d="M174,429.79l-3.21-2.74c.07-8.11,3.37-14.71,9.35-20.08l3.21,4.15C184.53,419.5,176.05,423.05,174,429.79Z" transform="translate(-155.66 -215.23)"/><path class="cls-8" d="M362.88,529.06l34.36-.13c-10.76,6.89-22.67,1.34-33.9,3.09A7,7,0,0,1,362.88,529.06Z" transform="translate(-155.66 -215.23)"/><path class="cls-9" d="M266.52,529c-1.8,4.38-6.24,2.18-9.2,3.67L232.5,532q-2.25-2.71.69-4.67C244.53,523.2,255.64,523.88,266.52,529Z" transform="translate(-155.66 -215.23)"/><path class="cls-8" d="M388.7,522.52l-16.87,0C377.46,518.53,383.08,518.75,388.7,522.52Z" transform="translate(-155.66 -215.23)"/><path class="cls-9" d="M240.92,522.5c.44-.84.84-1.7,1.21-2.58l5.61-.64c3.29,1.09,7.3.06,9.87,3.31C252,527,246.46,527,240.92,522.5Z" transform="translate(-155.66 -215.23)"/><path class="cls-10" d="M410.63,216.72c20.81,12,25.66,25.58,14.89,41.66-3-2.33-4.19-5.9-6.06-9-8.51-14.11-16.85-17-32.72-11.43-3.87,1.36-7.59,3.82-11.94,1.55a6.69,6.69,0,0,1,.33-6.5c1.28-9.6,9.92-11.89,16.37-16.36A32.41,32.41,0,0,1,410.63,216.72Z" transform="translate(-155.66 -215.23)"/><path class="cls-11" d="M254.31,247.4c1,3-1,6.74,2.4,9.07,1.21,2.77,2.41,5.55,3.61,8.32-9.86.62-1.78,9.92-6.37,13.08-4.68-3.4-6.29-12.68-15.24-7.92C240.14,259.84,245,252.06,254.31,247.4Z" transform="translate(-155.66 -215.23)"/><path class="cls-12" d="M362.77,408c-5.73,0-11.51.42-16.7-2.76,2.15-2.15,4.39-2.69,5.43-1.8-3.8.2-9-1.42-14.2,1.1l-6.5-.24a15.68,15.68,0,0,0-3.83-2.16c-8.81-1.34-17.78.6-26.56-1.3-6.56-7.16-17-6.18-24.45-11.57-1.08-3.22.49-5.72,2.18-8.2,11.58-18.75,31-11.92,47.43-13.83,13-1.5,23.7,6.11,32.61,14.6,4.85,4.63,9.56,5.87,15.53,5.49a10.32,10.32,0,0,1,4.22,1.62,14.46,14.46,0,0,1,3.05,3.39c2.72,3.8,1.49,8.86,4,12.73-2.07,2.24,5.91,11-5,7.55-4.86-1.56-9.82-2.81-14.74-4.21.42-1,1-1.49,1.84-1.43C365.27,405.63,364.12,407.25,362.77,408Z" transform="translate(-155.66 -215.23)"/><path class="cls-13" d="M374.62,388.86c-7.32,2.45-16.34,10.34-18-5.48-.44-4.16-2.28-3.58-5.14-2.11-4.93,2.54-8.36,1-9-4.61-.9-8-3.82-5.23-7.68-2a6.89,6.89,0,0,1-5.78.91c-10.56-4-16.55-.79-28.35-1.18-9.91-.33-14.52,4.46-21,8.36-3.2,1.4-5.58-.2-7.89-2.12-2.06-2.19-3.48-4.66-3.35-7.79.47-4.58,4.88-4.51,7.63-6.39,32.22-17,62.15-13,90,9.78C370,379.75,378.27,380.28,374.62,388.86Z" transform="translate(-155.66 -215.23)"/><path class="cls-14" d="M330.76,401.68c0,.88,0,1.76,0,2.64l-35.12.95c-7.64-.64-15.19-.5-22.42,2.49-4.65,3.51-11.4,1.17-15.72,5.61-11.39,2.65-16.24-1.11-12.85-13a32.5,32.5,0,0,1,4.29-8.55,11.89,11.89,0,0,1,5.4-4.09c5.71-.58,11.23.51,16.67,2,2.35,3.66,3.86,1.15,5.45-.79,7.73,2.51,18.82-2.81,22.32,9.53C309.12,403,320.43,397.45,330.76,401.68Z" transform="translate(-155.66 -215.23)"/><path class="cls-15" d="M443.05,397.65c9,8.16,11.36,20.3,18.06,29.83,1.35.14,2,.61,2,1.42-.05,1-.25,1.45-.59,1.45.62,3.29,3.91,3,5.95,4.41,2.94,2,7.07,3,6.19,7.93-7.72-1.51-5.05,12.51-14.44,9.28-9.18-3.15-20.23-3.84-6.9-16.81,4.67-4.54-2.31-10.39-4.44-15.38-2.65-6.23-6.27-12-9.47-18Z" transform="translate(-155.66 -215.23)"/><path class="cls-16" d="M255.06,389l-3.51,3.45c-10.5-4.67-14.81-15.58-23-22.61v-3.18c13.17,3,25.62-2.56,38.43-3.69,4.68-.41,6.38,1.49,9.05,3.46L270,372.9C267.39,380.47,262.07,385.53,255.06,389Z" transform="translate(-155.66 -215.23)"/><path class="cls-17" d="M240.92,522.5l16.69.09c11-8.93,2.74-21,5.21-31.38l4.47,3.54c.17,11.42,1.84,22.88-.77,34.24H232.35C232.63,523.44,236.39,522.47,240.92,522.5Z" transform="translate(-155.66 -215.23)"/><path class="cls-18" d="M373.06,255.83c.83-1.81,1.65-3.63,2.47-5.44,7.94,3.4,14.29,7.86,12.06,18-9.38-.31-8.93,9.93-14.66,13.54-2.11-4-3.25-8.6-7.55-11.1Z" transform="translate(-155.66 -215.23)"/><path class="cls-19" d="M369.1,376.22c6.83-7.19,10.91.32,15.38,3.27,5.29,3.51,5.22,8.21.62,12.67-2.14,2-4.32,1.85-6.53.12h0C379.69,384.43,372.22,381.6,369.1,376.22Z" transform="translate(-155.66 -215.23)"/><path class="cls-20" d="M301.87,302c5,7,3.08,14.16,2.65,25.26C296.45,316.68,298.84,309.3,301.87,302Z" transform="translate(-155.66 -215.23)"/><path class="cls-21" d="M326.18,325.44c-2.21-9.4-3-16.55,1.76-23.43C330.56,309.23,333.08,316.45,326.18,325.44Z" transform="translate(-155.66 -215.23)"/><path class="cls-22" d="M369.1,376.22c6,3.69,16.43,4.79,9.48,16.07l-4-3.43-8.54-12.62Z" transform="translate(-155.66 -215.23)"/><path class="cls-22" d="M378.57,392.28l6.53-.12c3.09,4.33.19,8.62-.07,12.93Z" transform="translate(-155.66 -215.23)"/><path class="cls-23" d="M337.3,404.56c5-4.46,10.48-3.12,19.82-.93l-11.05,1.63Z" transform="translate(-155.66 -215.23)"/><path class="cls-24" d="M362.77,408c2.87-3.61,6.77-4,11.25-3.69-1.2,5.69-5.95,2.76-8.74,4.1l-1.33.23Z" transform="translate(-155.66 -215.23)"/><path class="cls-25" d="M433.74,399.77q-.57,5.72-1.13,11.43C429.13,407,427.42,403,433.74,399.77Z" transform="translate(-155.66 -215.23)"/><path class="cls-26" d="M219,439.94c-6.81-21.12-4.6-30.56,10.25-41.76,1.15-.87,3.78.2,5.72.37,6.86,3,5.48,8,3.23,13.21-1.8,4.16-6.31,8.17-2,12.9,4.85,5.31,9.8-.54,14.75-.65,4.72.06,10-.31,11.56,5.49,1.11,4.14-2.93,6.28-5.28,8.92C245,452.14,232,446.94,219,439.94Z" transform="translate(-155.66 -215.23)"/><path class="cls-27" d="M251,424c-4,7.52-9.2,11.63-17.33,5.51-7.19-5.42-6.17-11,0-16.86,4.14-4,4.91-9,1.37-14.11l3.19-3.2c3.82-.51,7.33-.12,9.84,3.28-1.61,7.55-4.67,16.17,9.16,12.29a4,4,0,0,1,3.34,3.56Z" transform="translate(-155.66 -215.23)"/><path class="cls-28" d="M206.72,446.12l-.81-5.51c3.85-10.17,8.62-2.58,13.09-.68,2.32,4,4.53,8,7,11.89,3.81,6.1-.61,6.83-4.9,7.71-4.16,1.34-5.34-3.09-8.23-4.21C207.84,454.22,206.32,450.8,206.72,446.12Z" transform="translate(-155.66 -215.23)"/><path class="cls-29" d="M260.5,414.48l-3.34-3.56c4.9-3.43,10.49-3.34,16.1-3.16C272.62,416.82,263.3,409.5,260.5,414.48Z" transform="translate(-155.66 -215.23)"/><path class="cls-30" d="M248,398.63c-3.58-.21-7.46.51-9.84-3.28-3.75-8.28-18.57-12.44-9.57-25.48,12.67,2.47,17.49,12.87,23,22.61Z" transform="translate(-155.66 -215.23)"/><path class="cls-31" d="M196.93,411.21q-1.73-4.87-3.43-9.76l4.35-3.75C201.52,402.47,200.63,406.94,196.93,411.21Z" transform="translate(-155.66 -215.23)"/><path class="cls-32" d="M254.31,247.4c-3.45,8.67-8.28,16.4-15.55,22.52-14.52,5.34-26.85,3.29-35.79-10.34,2.37-13.88,8.3-25,23.36-28.29,12.24-2.63,21.47,2.28,28,12.71Z" transform="translate(-155.66 -215.23)"/><path class="cls-32" d="M387.59,268.41l-12.06-18q-.11-4.53-.19-9c23.41-19.2,43.89-12.28,50.19,17C413.82,273.75,406.07,275.8,387.59,268.41Z" transform="translate(-155.66 -215.23)"/><path class="cls-33" d="M330.76,401.68c-11.27,0-22.55,0-33.82-.1-.34,0-.68-.57-1-.87l2.9-2.21C309.42,400,320.65,395.25,330.76,401.68Z" transform="translate(-155.66 -215.23)"/><path class="cls-34" d="M276.5,389,275,393.12l-2.25-1.89c-3.51-4.26-8.41-8.57.53-12.3l6.38,3.83Z" transform="translate(-155.66 -215.23)"/><path class="cls-35" d="M273.3,378.93c-7.24,3.8,1.5,8.28-.53,12.3-6.31,2.53-12.16,1.29-17.72-2.2A42.63,42.63,0,0,1,270,372.9Z" transform="translate(-155.66 -215.23)"/><path class="cls-36" d="M232.91,244.83c-.33,4-1.94,7.17-6.3,7.5-4.85.38-8-2-8.23-7.08s3.34-5.38,7.21-5.89C230.15,238.75,232.48,240.31,232.91,244.83Z" transform="translate(-155.66 -215.23)"/><path class="cls-37" d="M411.25,245c-.14,4.46-2.36,7.43-7.48,7.53-4.3.08-6.86-2.47-7.49-6.36-.67-4.09,1.08-7.09,5.79-6.95C406,239.3,410.84,238.32,411.25,245Z" transform="translate(-155.66 -215.23)"/></svg>