<svg id="Layer_1" data-name="Layer 1" xmlns="http://www.w3.org/2000/svg" viewBox="0 0 474.44 424.91"><defs><style>.cls-1{fill:none;stroke:#19c5d6;stroke-miterlimit:10;}.cls-2{fill:#00e0fe;}.cls-3{fill:#02ddfa;}.cls-4{fill:#04daec;}.cls-5{fill:#03d9ec;}.cls-6{fill:#03e0fb;}.cls-7{fill:#03d5ee;}.cls-8{fill:#03d0e2;}.cls-9{fill:#11c5d2;}.cls-10{fill:#01f2fe;}.cls-11{fill:#04dff8;}.cls-12{fill:#0fe2fe;}.cls-13{fill:#02dbf7;}.cls-14{fill:#f6fbfb;}.cls-15{fill:#f7fbfb;}.cls-16{fill:#f3f8f9;}.cls-17{fill:#02ddf9;}.cls-18{fill:#02d5ee;}.cls-19{fill:#d66f98;}.cls-20{fill:#03eefc;}.cls-21{fill:#f35f8d;}.cls-22{fill:#03edfc;}.cls-23{fill:#0a9fb3;}.cls-24{fill:#015d69;}.cls-25{fill:#04d8ea;}.cls-26{fill:#027084;}.cls-27{fill:#ef6591;}.cls-28{fill:#0cc5cc;}.cls-29{fill:#02cede;}.cls-30{fill:#0fe2fd;}.cls-31{fill:#0dc6d3;}.cls-32{fill:#19c5d6;}.cls-33{fill:#2a282a;}.cls-34{fill:#e56896;}.cls-35{fill:#343433;}.cls-36{fill:#1ce2fa;}.cls-37{fill:#3b393c;}</style></defs><path class="cls-1" d="M489.27,275.52A92,92,0,0,0,404,340" transform="translate(-63.9 -255.09)"/><path class="cls-1" d="M126,279.27A103.49,103.49,0,0,1,195.35,347" transform="translate(-63.9 -255.09)"/><path class="cls-2" d="M387.7,302.67l7.55,5.58c11.46,1.17,16.52,17.93,30.69,12.51-6.5,9.83-4.86,17.85,2.5,27.44,15.19,19.79,22.38,43.87,32.12,66.53,8.07,14.94,23.51,25.07,27.85,42.44a9.15,9.15,0,0,1-4.87,7c-12.62,9.68-1.14,24.29-7.19,35.32-3.15,17.65-1.09,35.36-.87,53-1.73,5,3.36,11.81-4,15.41-3.64,3.29-2.58,7.79-3.1,11.88-2.74,9.63-6.84,18.29-16.42,23.07l-13.48,11.54c-14.17,18.24-36.49,19.91-55.94,27.46a75.08,75.08,0,0,1-12.52,2.53c-12.79.2-25.52-1.4-38.3-1.63-10.38-3.1-21.2-.24-31.64-2.34-22.54-12-46.28-8.29-69.95-5.23a23.17,23.17,0,0,1-5.79.92,26.55,26.55,0,0,1-8.33-2.63l-8.63-1.48c-1.9-16,12.87-16.56,21.27-23.32,23.46-18.91,52.9-33,57-68.05a49.38,49.38,0,0,1-3.94-10.56c-19.4-17.75-35.71-40.82-67.59-35.46-7.45,1.25-14,1.87-16.77,10-3.4,6-6.13,12.3-9.86,18.08-15.55,10.22-13,32.73-28.88,42.6-.62,0-1.24-.89-2.1-.43a9.11,9.11,0,0,1,1.82,3.82c-1.72,7.76-3,16-14.39,11.82a22.41,22.41,0,0,1-7.15-17.15c.3-21.69-2.52-43.23-2.67-64.88,3.68-10.91,3.22-22.24,3.24-33.51-.36-7.1,1.22-14.07,1.72-21.31-2.27,10.16-8.83,16-18.09,19.35-5.4-.88-6.71-4.72-6.85-9.42,1.44-9.89,8.88-15.81,15.4-22.07,8.56-8.21,15.71-17.11,18.77-28.77l-.15-.05c2.6-8.84-1.78-19.85,8.2-26.41l4.13-3.55c18.7-.53,21.45-2.52,34.82-25.78-7.58,5.5-13.64,13.22-23.5,7.43-3.35-8.59,2.46-13.46,7.56-18.63,9.68-8.61,22.06-12.67,33.85-15.82,8.86-2.36,24.38-7.31,22,13.4-1.15,10.06,7.09,5.56,11.85,6.18,11.48,4,22.49,9.09,33.57,14,4.06,14.19-5.21,29.05,2.14,43.1-1.71,10.53-11.72,7.38-17.69,10.93-3.05,1.82-12.36,4.92-1.33,9.6,6.72.32,11.67,4.74,17.47,7.17a97.24,97.24,0,0,0,13.07,4.46c6.34,2.24,13.26,2,19.52,4.54,3.6,1.71,6.19,4.57,8.65,7.54,4.24,5.78,9.31,7.76,15.75,3.41,8.69-7.71,3.28-16.91,2.76-25.57,2.67-12.17,10.87-25.08-5.89-34.25-3.86-2.11-5.31-7.21-1.1-10.64,9.35-7.62,5.93-19.63,10.64-28.76,2.94-8,7.65-15.46,7.53-24.4,2.41-8.59-1.92-24.1,17-15.72,3,1.34,4.13-6.69,8.61-7.74C382.18,297.16,385.69,298.57,387.7,302.67Z" transform="translate(-63.9 -255.09)"/><path class="cls-3" d="M288.89,538.71c8.48,13.36-.4,23-8.28,31.35-19.9,21-39.93,42.14-67.15,54.15a9.2,9.2,0,0,0-6,7.84l-8.58-3.73c-4,2.87-7.11-.05-10.47-1.53-4.07-2.85-8-5.79-8.81-11.22-.14-10.16,4.55-17.11,15-15,19.45,3.95,30-7.37,40-20.53,3.12-3.8,6.76-7.15,9.57-11.2C245.08,538.17,268.83,541.17,288.89,538.71Z" transform="translate(-63.9 -255.09)"/><path class="cls-4" d="M91.53,491.4c9.44-12.32,14.08-27.79,25.57-38.75.24,3.52.76,6.91,4.15,9-7.34,12.93-14.83,25.77-22,38.81-4.26,7.8-5.51,15.06,1.83,22.8,7.58,8,12.15,16.82-6.45,14.06-7.37-1.09-7.35,7.34-12.06,9.76-6.11-2-7.2-7.11-7.8-12.51-3.47-4.09-15.14-2.37-9.29-13l.19-.24c8-6,14.65-13.29,20.82-21.07Z" transform="translate(-63.9 -255.09)"/><path class="cls-5" d="M487,455.83c10.55,14.7,21,29.61,26.81,46.84,4.08,12.12,15.63,12.91,24,18.6.62,4.77,2.43,9.94-5.93,9.56-8.62-.38-3.43,4.67-2.72,7.88-11.39,15.93-19.73-7.37-31.2-3.09-1.63.6,1.8-9.58,5.29-13.45,6-6.63,4.39-12.59.46-19.35-7.8-13.41-15.18-27.06-22.73-40.6Z" transform="translate(-63.9 -255.09)"/><path class="cls-6" d="M160.78,368.88,171.4,354.4c13.65,1.23,17.39-18.13,34-15.39-8.72,15.63-15.71,30.49-30.07,41-11.31,8.31-10.92-2.84-14.78-7.27A33.89,33.89,0,0,0,160.78,368.88Z" transform="translate(-63.9 -255.09)"/><path class="cls-7" d="M233.23,637.09c-2,12.75,4.37,26.38-4.07,38.45-14.4,4.47-29.17.94-43.72,2.05-3.41-.13-8,.13-8.14-4.14-.25-8.26,7.27-8.7,12.9-10.77l4.3-.71c8.73-7.45,20.29,7.53,26.83-1.91,4.92-7.11-1.61-18,2.29-26.84l5.21-.4A5.07,5.07,0,0,1,233.23,637.09Z" transform="translate(-63.9 -255.09)"/><path class="cls-8" d="M421.58,675.51l.21,4.16-49.68-.74a26.68,26.68,0,0,1-.22-3.46C388.46,666.75,405,668.32,421.58,675.51Z" transform="translate(-63.9 -255.09)"/><path class="cls-9" d="M481.83,255.68c10-3.16,13.85,7.25,21.33,9.66l0-.11c-.59,4.48,1.65,9.48-2.46,13.31-8.83,3.82-18.44,2.16-27.56,3.89l-1.1.16-1.06-.29C469.83,271.5,470.16,261.28,481.83,255.68Z" transform="translate(-63.9 -255.09)"/><path class="cls-10" d="M301.76,273.89,318.9,278c-13,14.38-29.42,14.45-42.82.18l17.1-4.27Z" transform="translate(-63.9 -255.09)"/><path class="cls-6" d="M378,296a14.85,14.85,0,0,0,.87,3.33c-4.17,4.91-.43,14.37-9.55,16.43-8.86,2-3.64-8.69-8.95-10.11-4.73,4.73-2,10.71-3.24,15.87-5.36.81-8.09-3.51-11.8-6A50.64,50.64,0,0,1,341,312c-18.52-16.77-27.65,4.24-40.56,10a5.41,5.41,0,0,1-2-.48c-32.7-24.15-39.61-21.79-49.06,16.72a7.79,7.79,0,0,1-2.29,3.44c-5,1.08-6.49,11.06-14,5.75-9.73-6.92-2.51-14.72,0-22-20-6.67-33.87,7.82-50.26,12.31.46-4.4.92-8.81,1.33-13.21,9.42,4,12.08-5.1,17-9.24,22-18.56,45-34.77,75-37.14,14.3,6.15,28.57,6.43,42.82-.18,15-1.91,27.91,6.49,42.06,8.82Z" transform="translate(-63.9 -255.09)"/><path class="cls-11" d="M262.91,420c-.8,4.77-2.81,8.46-8,4.69-5.4-3.91-4.28-8.74-1.84-14.64,5.43-13.13,20.05-5.21,27.47-13,2.67-1.25,5.44-1.07,8.27-.75,28.34,3.25,36.41-5.58,30-32.92-.82-3.47-1.91-6.77.56-10,9.61-3.58,18.72-9.47,29.76-6.33-5.79,10,2.23,26.14-19,31.58,27.88,8.63,26.05,23.25,14.61,40.17l-4,4.81a30.33,30.33,0,0,1-19.85,8.9c-7.41-.86-14.89-.44-22.31-1-5.7-2.1-12.39-1-17.4-5.3C273.57,428.53,272.92,410.53,262.91,420Z" transform="translate(-63.9 -255.09)"/><path class="cls-12" d="M288.89,538.71c-2.05,2-4,5.55-6.15,5.64-18.26.73-33.36,4.6-32.81,27.53,0,.32-2.57.71-3.94,1.07-5.82,4.55-11.46,2-14.65-2.55C218.41,552,198.82,539.94,186,521.61c-.43-7.35.78-13.88,8.57-17.13,14-4.26,19.4,9,29.06,14.29,3.27-5.57,1-12.78,5.67-17.81,3.52-3.73,7.16-7.19,12.64-6.73,5.23.44,7.51,5,7.53,9,.07,19.31,12.11,23.06,28,22.77,2.83,0,5.26,1.94,7.16,4.17Q286.74,534.44,288.89,538.71Z" transform="translate(-63.9 -255.09)"/><path class="cls-13" d="M186,521.61c17.61,8.65,30.5,22.72,42.27,37.75,4.92,6.28,8.66,13.13,17.75,13.59a14.69,14.69,0,0,1-8.55,8.52c-5.56,1-11.43,1.1-16.18,4.62-8.77,6.49-17.74,9.51-26.81,1s-9.53-18.37-4-29c1-1.87,1.8-3.83.86-7.94-9.12,5.7-13,14.43-11.36,22.77,4.09,20.18-4.91,25.4-22.66,23.37-4.41-.3-7.95-1.66-8.19-6.89-.35-2.71-.69-5.42-1-8.13a25.89,25.89,0,0,0,7.85-16.94h0c7.44-7.12,10.23-16.56,13.59-25.87C172.36,530.64,175,521.89,186,521.61Z" transform="translate(-63.9 -255.09)"/><path class="cls-14" d="M319,354.92c9.48,13,14,26.9,1.73,40.16s-26.32,11.13-40.21,1.91c-11.85-13.88-6.25-27.95-.45-42A18.6,18.6,0,0,1,293,343.83c6.09-.34,11.82,1.45,17.61,3C314.53,348.34,317.82,350.55,319,354.92Z" transform="translate(-63.9 -255.09)"/><path class="cls-15" d="M292.84,346.4c-4.22,2.91-6.13,9.24-12.77,8.56-13.11.8-24.33-3.09-33-13.27-4.39-16.46-3.72-31.22,14.42-39.31,20-8.91,29.13,6.81,40.19,18,3.73,3.24,3.9,7.4,3.13,11.82C303,338.76,299.25,343.7,292.84,346.4Z" transform="translate(-63.9 -255.09)"/><path class="cls-16" d="M301.68,333.8V320.39c15-24.78,30.95-27.56,44.8-7.83q-1.35,2.32-2.66,4.68c.84-1.58,1.59-3.2,2.28-4.85,7.18-1.17,7.13,6.34,11,9.13-.15,9.29-3.52,17.56-8,25.47-9,6.59-19.16,8.61-30.07,7.93l-9.33-4.58C303.63,346.45,299.45,341.66,301.68,333.8Z" transform="translate(-63.9 -255.09)"/><path class="cls-17" d="M284.59,530.17c-7.14,0-14.34-.56-21.41.11-12.94,1.23-18.27-3.79-17.48-17,.31-5.19,3.94-15.09-5.84-14.69-7.06.28-11.67,7.22-10.12,15.94.82,4.64.6,9.47,1,16.64-15.51-6.67-21.08-23.5-36.17-26.7-1-10.62-.07-16.9,14.61-14.91,8,1.08,17.92,2.65,26.79-1.67,3.42-1.67,11.52-1.14,11.57,2.06C247.9,514.83,287.54,503.07,284.59,530.17Z" transform="translate(-63.9 -255.09)"/><path class="cls-3" d="M233.23,637.09l-4.39-4.27c16-9.48,58.34-6.88,68.62,4.21-3.44,4-9.21.35-12.78,3.9C267.23,643.66,250.49,636.91,233.23,637.09Z" transform="translate(-63.9 -255.09)"/><path class="cls-18" d="M421.58,675.51l-49.69,0c-3.45-11.31-1.28-22.81-1.12-34.24l8.46-4.09c-.08,4.92-.24,9.85-.23,14.78,0,8.58-2.1,16.38,13.11,11.64C401.42,660.66,415.66,662,421.58,675.51Z" transform="translate(-63.9 -255.09)"/><path class="cls-19" d="M340.76,450.48c-9.27,5.77-16,2.69-21.19-6,.87-2.94,2.22-5.56,5-7.23,7.21-3.43,13.78-4.19,18,4.42C342.87,444.79,341.81,447.63,340.76,450.48Z" transform="translate(-63.9 -255.09)"/><path class="cls-20" d="M472.81,496c2.3,18.46,3.19,36.92,0,55.37A85.59,85.59,0,0,1,472.81,496Z" transform="translate(-63.9 -255.09)"/><path class="cls-21" d="M340.76,450.48c-.19-3.35-.39-6.69-.59-10-4.58-7-5-14,.19-20.93l4.34-.76C349.24,430.05,352.6,441.2,340.76,450.48Z" transform="translate(-63.9 -255.09)"/><path class="cls-22" d="M284.68,640.93c3.22-4.68,8.17-3.73,12.78-3.9,11.37,1.87,23.7-4.15,34.28,4.15C316,643.13,300.36,642.61,284.68,640.93Z" transform="translate(-63.9 -255.09)"/><path class="cls-23" d="M296.9,428.24,324.14,427a5.5,5.5,0,0,1,.22,5.33c-2.76,3.24-6.47,3.75-10.41,3.59-7.08-1.07-14.95,2.56-21.19-3.5A7.65,7.65,0,0,1,296.9,428.24Z" transform="translate(-63.9 -255.09)"/><path class="cls-24" d="M262.91,420c13.82-29.13,8.36,14.7,17.18,4.5l.26,2.56Z" transform="translate(-63.9 -255.09)"/><path class="cls-25" d="M139.31,495.91c-.59-11.83-1.26-23.66,3.44-35C142.16,472.65,146.67,484.86,139.31,495.91Z" transform="translate(-63.9 -255.09)"/><path class="cls-13" d="M155.94,564.37c-4.28-2.39-9-4.72-6.7-10.86.51-1.35,4.22-3,4.55-2.69,3.86,3.88,1.49,9,2.15,13.55Z" transform="translate(-63.9 -255.09)"/><path class="cls-26" d="M280.35,427a8.85,8.85,0,0,1-.26-2.56l16.81,3.77-4.14,4.13C288.09,431.81,282.69,433,280.35,427Z" transform="translate(-63.9 -255.09)"/><path class="cls-27" d="M314,435.87c1.12-4.72,4.82-5.12,8.72-5.18,3,3.08,3.26,6.34.65,9.79l-3.75,4Q316.75,440.19,314,435.87Z" transform="translate(-63.9 -255.09)"/><path class="cls-28" d="M473.1,282.43c7.63-12.28,17.89-6,27.56-3.89L498,282.2c-4.49,4.83-11.74-1.26-16.11,4C478.58,285.87,474.38,287.51,473.1,282.43Z" transform="translate(-63.9 -255.09)"/><path class="cls-9" d="M481.92,286.23c2.61-12.29,11.3-.47,16.11-4a14.31,14.31,0,0,1-.32,3.63C492.46,286.42,487.26,289.31,481.92,286.23Z" transform="translate(-63.9 -255.09)"/><path class="cls-29" d="M181.78,679.66c-.83-1.08-1.61-2.18-2.34-3.33l49.72-.79C214,684.43,197.44,676.78,181.78,679.66Z" transform="translate(-63.9 -255.09)"/><path class="cls-30" d="M168.77,611.55l-13.29-16.49c5-9.25,14.39-1.57,21.93-5.6-6.23-15-4.47-29.05,5.87-41.35,3.24-3.85,6.78-10.5,13.7-4.56,5.2,4.46,6,8.41.24,13.94-8.38,8.09-8.8,17.69-.34,26.26,9.2,9.33,16.36,3.65,23-4s12.25-4.63,17.54,1.7C228.9,599,217.21,612.26,195.5,605c-12.64-4.23-9.8,8-15,11.34Z" transform="translate(-63.9 -255.09)"/><path class="cls-31" d="M113,255.56l4.32,1.17c4,3.29,5.59,10.77,13.28,7.23,6.85,6.56.92,15.21,3.69,22.44a72.86,72.86,0,0,0-8.37.24c-9.37,1.33-18.44,2.22-23-8.84S105,260.85,113,255.56Z" transform="translate(-63.9 -255.09)"/><path class="cls-32" d="M130.64,264c-.95,4.68-1.9,10.5-8.34,8.42-7.88-2.53-4-10.15-4.94-15.65C123.8,255.47,128.31,257.71,130.64,264Z" transform="translate(-63.9 -255.09)"/><path class="cls-33" d="M346.1,312.39c3.83,5.46,7.08,11.18-1.23,15.3-4.36,2.15-8.78.27-9.64-4.6-1.47-8.42,3.93-10.78,11.25-10.53Z" transform="translate(-63.9 -255.09)"/><path class="cls-34" d="M323.32,440.48c-.22-3.26-.43-6.53-.65-9.79a11.32,11.32,0,0,1,1.45-3.74c7.22,1.4,9.89-7,16.24-7.44l-.18,20.93C334.55,436.21,328.94,440.22,323.32,440.48Z" transform="translate(-63.9 -255.09)"/><path class="cls-35" d="M311.71,376.46c-5.18.05-8.17-3.33-8.36-7.61-.24-5.79,4.94-5.43,9.11-5.9s6.84,1,6.85,5.39C319.31,373.2,316.74,376.07,311.71,376.46Z" transform="translate(-63.9 -255.09)"/><path class="cls-36" d="M301.68,333.8q4,8.26,8,16.54c-6.25,1.42-11.45-1.66-16.83-3.94C294.47,341.28,296.2,336.23,301.68,333.8Z" transform="translate(-63.9 -255.09)"/><path class="cls-37" d="M285,330.32c-5.71-.81-8.73-3.15-8.87-8.08-.15-5.09,3.45-7.85,7.63-7.95,5.2-.13,9.48,2.92,9,8.83C292.26,327.85,288.3,329.62,285,330.32Z" transform="translate(-63.9 -255.09)"/></svg>