<svg id="Layer_1" data-name="Layer 1" xmlns="http://www.w3.org/2000/svg" viewBox="0 0 392.61 382.3"><defs><style>.cls-1{fill:#fef000;}.cls-2{fill:#fbee01;}.cls-3{fill:#f7eb03;}.cls-4{fill:#fbef03;}.cls-5{fill:#f2e804;}.cls-6{fill:#ece704;}.cls-7{fill:#f2eb04;}.cls-8{fill:#eae503;}.cls-9{fill:#fcfd01;}.cls-10{fill:#fbfd02;}.cls-11{fill:#efe605;}.cls-12{fill:#e5db03;}.cls-13{fill:#edf104;}.cls-14{fill:#141419;}.cls-15{fill:#090804;}.cls-16{fill:#fdfd01;}.cls-17{fill:#faf90a;}.cls-18{fill:#faee03;}.cls-19{fill:#fbfaf7;}.cls-20{fill:#e4d407;}.cls-21{fill:#e2d205;}.cls-22{fill:#f8ec01;}.cls-23{fill:#bdb104;}.cls-24{fill:#ad9d15;}.cls-25{fill:#c7bd06;}.cls-26{fill:#f9f9f4;}.cls-27{fill:#fdf00f;}.cls-28{fill:#f7eb0b;}.cls-29{fill:#f8f7f2;}.cls-30{fill:#fcf00f;}.cls-31{fill:#fbf610;}.cls-32{fill:#fcf012;}.cls-33{fill:#2c2b28;}.cls-34{fill:#2d2d2d;}.cls-35{fill:#f1e503;}</style></defs><path class="cls-1" d="M146.66,455.88l3.44-4c10.88-16.5,8.11-36.32,13-54.32,2.18-8.09,4.93-15.43,9.47-22.28,2.9-4.94-1.81-11.93,4.34-16,2.34-6.05-3-9-5.35-13.17-7.06-12.51-13.35-25.28-13.65-40.07q.13-5.65.25-11.32c1.37-6,4.56-10.09,11.11-10.77,11.13-1,23.49,1.22,30.16,8.24,17,17.86,32.77,12.2,49.8,2.22,4.31-1.2,8.26,0,13-4.12,11.88-10.44,22-5.85,22.75,9.42.67,13.19,2.65,28.36-18.57,27.55-3.2-.13-3.32,3.12-3.8,5.55-3.68,5.44-10.46,7.51-14.11,13-2.61,3.13-5.37,6.13-7.2,9.83-4.07,16.21-1.9,32.84.81,48.41,2.65,15.28,16.56,23.76,31.58,28.23,5.88-1.48,11.56-4.1,17.85-3,7.18,2.35,14.16,4.91,21.7.39,7-4.22,13.3-.75,19.23,3.27,4.6,2.36,9.21,4.37,14.16,1.57-.2.07,1.31.29,1.31.29s-.44-1.45-.55-1.41a6.61,6.61,0,0,1-7.49-1.08c-4.62-9.45-.68-12.84,8.73-12.36,1.6.95,2.51,3.29,5,2.53-1.85.25-3.13-.78-4.43-2-2.49-2.41-5.81-2.42-8.74-3.47-5.18-1.86-12.75-2.58-13.07-9s7.35-5.41,11.76-7.2c5.17-2.11,5.18-8.63,9.83-11.13,25.26-5.83,26-11.29,24.49-29.11,9-17.25,16.09-37.2,42.39-31a32,32,0,0,1,7.92.74c4.39,1.79,8.05,4.1,6.75,9.79-6.83,5.8-2.1,11.37.37,17,8,18.08,13.43,36.81,14.61,56.64-2.5,5.94-1.51,11.93-1.15,16.22-.69-1.2-.49-3.8,2.23-6,2.23,18.13,14.33,31.48,22.7,46.65,1.67,3.11-.19,4.65-2.62,5.93-5.45.44-8.13-3.36-10.82-6.92-3.72,1.43-.33,4.6-1.67,6.54-.09.86-.2,1.68-.3,2.49l.29,7.77c2.16,12.78,2.66,25.54-.28,38.28C440.65,551.4,418.49,563,389.3,563c-11.41,0-22.81.4-34.22.62a10.93,10.93,0,0,1-10.21.53l.59.16c-5.15-6.33-12.27-4.68-19-4.64-18.73,2-37.4,1-56-.77-8.31-.1-10.55-10.75-21.83-9.53-14.23,1.54-28.71-10.13-43.92,2.26-5.44,4.43-15.8-.24-23.93-.07-23.66-8.28-26.07-27.94-26.3-48.77,3.72-9-.76-18.87,2.88-27.89.61-3.53,2.37-7.63-.65-10.31-2.62-2.32-5.57-.59-7.28,2.43-5.17.38-5.53-3.17-5.69-6.89A7,7,0,0,1,146.66,455.88Z" transform="translate(-107.01 -246.4)"/><path class="cls-2" d="M261.52,331.92c-1.3-2.5-7-2.49-4.77-6.68,2.05-3.82,4.34-6,10.3-2.83,6.83,3.62,15.09.76,13.21-8.88-1.51-7.77,8.1-19.14-5.94-23.21-3.88-1.12-8.94-3.93-11.46,4.54-3.5,11.72-9.07,1.95-13.68-.43,1.77-11.13-18.71-17.24-6.94-30.63,9.25-3.37,17.32-.05,24.79,4.88,9.34,6.16,15.64,3.34,18.86-6.36,3-9.07,7-17.13,17.88-15.77,11.07,1.39,15.17,10,16.16,20.28,1.66,4.39-2.67,9.4,2.68,13.74,14.08,11.41,13.85,11.84-1.7,22.1-4.12,1.25-10.56,2.61-8.42,7.65,7,16.43-4.45,26.59-11.35,38.46a10.07,10.07,0,0,1-4.95,1.87c-10-1.52-14.74-13.3-25.69-12.91C266.88,336.76,263.07,336.05,261.52,331.92Z" transform="translate(-107.01 -246.4)"/><path class="cls-3" d="M319.17,298.64c5.26-.6,9.74-1.28,9.58-8.69-.16-6.86-3.72-5.18-8.27-6.11-10.16-2.08-3.26-10.9-4.85-16.54,9.9,5.22,18.73-.85,28-2.63l17,1.08c5,2.85,4.4,7.42,3.77,12-2.53,5.7-6.5,11.1-3.93,18-14.39,4.65-9.6,13.58-4.52,21.9,7.9,12.92,19.81,17.23,29.8,11.47,5.52-3.19,8.7-9.07,14.19-12.33,9.69,1.23,16.34,5.29,15.29,16.45-13.06-1.13-25.12-1.29-28.71,15.78-.87,4.15-6.36,7.33-9.72,10.95-4.16,5.09.88,16.47-11.13,16.18-3.92-14.09-1.48-31.25-18.79-38.9C328.61,330.8,326,313.21,319.17,298.64Z" transform="translate(-107.01 -246.4)"/><path class="cls-4" d="M180.73,551.52c1.63-1,3.16-2.58,4.91-2.89,22.65-4,45-15.61,68.22.17,4.8,3.27,1.32-7.59,5.93-9.26q2.81,7.88,5.58,15.76a6.84,6.84,0,0,1,2.3,4.1,12.24,12.24,0,0,1-1.69,4.49h.37a5.82,5.82,0,0,0-3.3,1.63,8.84,8.84,0,0,1-5.38,1.29c-13.34-6-27.62-2.57-41.43-3.95C203.49,561.59,190.88,560.59,180.73,551.52Z" transform="translate(-107.01 -246.4)"/><path class="cls-5" d="M438.27,283.78l11.29,0c-2.58,20-4.52,40.29-19.1,56.27l-7.6-7c-.95-1.65-1.72-3.62-1-5.26,6.45-14.58.49-20.08-14.1-19.44a13.39,13.39,0,0,1-7.11-11.7,11.6,11.6,0,0,1,1.73-5.52,4.72,4.72,0,0,1,5.3-1.3l-.18,1.88C419.28,294.92,429.34,291.5,438.27,283.78Z" transform="translate(-107.01 -246.4)"/><path class="cls-6" d="M108.06,510.19c23.08-9.08,23.43-35.25,38.22-50.55,1,2.45,2.06,4.89,3.1,7.34-2.44,5-4.43,10.26-7.41,14.9-7.69,12-11.2,23.66.88,34.26-2.86,8.05-9.93,2.29-13.2,5.82-6.41,6.92-10.83,9.85-11.47-3.41-.38-7.82-7.19-.49-10-3.3A3.46,3.46,0,0,1,108.06,510.19Z" transform="translate(-107.01 -246.4)"/><path class="cls-7" d="M357.5,609.73c6.27-4.28,12.89-5.35,20-2.12s15.8,7,14,15.79c-1.66,7.9-10.8,4.17-16.73,4.63-7,.54-14.08,0-21.11.19-9.63.31-7.6-6-7-11.66C348.35,611.31,352.68,610.13,357.5,609.73Z" transform="translate(-107.01 -246.4)"/><path class="cls-8" d="M465.69,519.56l1.14-5.8c-.39-6.2,2.26-11.57,4.69-17,2.55-2.52,5.12-5.05,9.13-2.77,2.92,9.68,18,7.22,19,18.81-5.28,3.73-1.6,12.53-8.67,15.24-3.65-.74-8.27,1.59-10.57-3.35C476.62,519.73,468.46,527.35,465.69,519.56Z" transform="translate(-107.01 -246.4)"/><path class="cls-9" d="M266,563.89l-.6-4.76c21.55-5.16,43.81,1.57,65.35-3.81,6.11,1,12.22,2,14.73,8.95Z" transform="translate(-107.01 -246.4)"/><path class="cls-10" d="M257.67,566.81l3.64-3.79c3.81,20.5,2.68,41,.48,61.59l0,0c-15.39,4.35-26.13-.34-31.22-16,.32-.56.69-1.62,1-1.59,25.61,2.48,25.59,2.48,25.68-23C257.25,578.28,257.52,572.55,257.67,566.81Z" transform="translate(-107.01 -246.4)"/><path class="cls-11" d="M230.6,608.6c1.07,6.47,17.7.3,11.22,13.78-.64,1.35,7.34,2.77,9.61.14,5.44-6.29,7.1.89,10.39,2.07-13.41,7.89-27.93,1.69-41.83,3.28-5.36-5.79-2.15-10.52,1.88-15.15C223.42,608.47,227.29,609.12,230.6,608.6Z" transform="translate(-107.01 -246.4)"/><path class="cls-12" d="M357.5,609.73l-10.91,6.83q-.85-26.22-1.72-52.45l10.21-.53C354.44,579,349.57,594.72,357.5,609.73Z" transform="translate(-107.01 -246.4)"/><path class="cls-11" d="M261.79,624.61,261.31,563l5,.87C260.13,583.78,269.35,604.82,261.79,624.61Z" transform="translate(-107.01 -246.4)"/><path class="cls-13" d="M480.65,494l-7,3.83c-3.74-1.4-4.33-4.4-4-7.86q-2.55-5.62-5.11-11.23c-1-.86-1.29-1.69-.91-2.5s.72-1.18,1.07-1.18l4.49-4.45C477.43,476.24,478.06,485.58,480.65,494Z" transform="translate(-107.01 -246.4)"/><path class="cls-14" d="M107.78,518" transform="translate(-107.01 -246.4)"/><path class="cls-15" d="M499.62,512.78" transform="translate(-107.01 -246.4)"/><path class="cls-15" d="M491,528" transform="translate(-107.01 -246.4)"/><path class="cls-16" d="M446.52,423.93c-.41,2.88-.81,5.75-1.9,13.46-3-11.37-4.09-17.69.82-23.71Z" transform="translate(-107.01 -246.4)"/><path class="cls-17" d="M169.22,284l-11.11,10.77C153.94,283.08,159.43,281.32,169.22,284Z" transform="translate(-107.01 -246.4)"/><path class="cls-18" d="M350.17,390.83c-3.47,8.74-4.29,20.57-20.69,14.18,5.77,9.48,19.37,4.68,20.43,16.22h0c-7.56.53-11.92,3.17-7.67,11.51-1.32,9.16-8.23,1.28-11.72,3.82-6.27-5.66-13.07-7.62-19.59-1-7.43,7.56-12.08,1.49-17.32-2.68-3.82-3.19-8.95-1.16-13-3.26-3-5.27,6.9-7.23,2.55-14.86-4-7,4.73-13.27,10.24-19,7.18-7.4,14.51-9.11,23.91-5.25,3.77,1.55,7.26-1.46,10.79-2.8,6.8-2.1,13.53-2.6,20.09.84Z" transform="translate(-107.01 -246.4)"/><path class="cls-19" d="M261.52,331.92l11.6,1.55c12.22,4.9,14.67,11.29,3.13,19.84-2.78,10.34,5.58,6.19,9.75,7.44,9,1.27,7.51,8.67,8.62,14.6-6.24,17.86-19.73,21.29-36.49,18.26C243.24,387.77,236,377,236.91,360.93c2.75-6.07,7.5-11.18,8.68-18C247.52,334.38,255.36,334.36,261.52,331.92Z" transform="translate(-107.01 -246.4)"/><path class="cls-18" d="M238.84,359.87c-2.56,15.61,8.29,22.86,19,30.22,4,4,9,3.1,13.93,2.87,6.12-.28,9,4.31,5.47,8.12-9.58,10.32.59,18.51,1.47,27.6.19,4.28-3.49,6-5.8,8.56-17.09-3.23-32.68-15-35.13-28.71-3.15-17.67-7.73-37.66.3-56.27C240.86,354.53,240.52,357.13,238.84,359.87Z" transform="translate(-107.01 -246.4)"/><path class="cls-20" d="M205.67,319.14c-2.75,7.91-11.46,18.91-15.8,18.45-12.1-1.29-13.19-14.81-16.08-24.79-1.65-5.68.84-11,7.64-9.83C191.22,304.67,202.26,305.54,205.67,319.14Z" transform="translate(-107.01 -246.4)"/><path class="cls-21" d="M407.62,306.35c7.22,2.16,15.6-8.11,20.83-.82,6.84,9.54-1.64,18.67-5.58,27.53l-7.64.14a40.42,40.42,0,0,0-15.33-15.4C398,311,402,308.1,407.62,306.35Z" transform="translate(-107.01 -246.4)"/><path class="cls-18" d="M365.49,375.3c7.79-2.18,5.79-11.52,11.31-15.37,3.7,23.43-5.93,34.61-26.64,30.89l-.76-.91C351.81,381.81,355.57,375.18,365.49,375.3Z" transform="translate(-107.01 -246.4)"/><path class="cls-22" d="M330.73,555.32c-21.37,8.32-43.62,1.7-65.35,3.81,0-1.28,0-2.55,0-3.83Z" transform="translate(-107.01 -246.4)"/><path class="cls-23" d="M330.52,436.56c2.31-6.13,8.92.82,11.72-3.82l7.62-3.67q3.47,3.66,0,7.32C343.44,439.36,337,443.69,330.52,436.56Z" transform="translate(-107.01 -246.4)"/><path class="cls-18" d="M249.65,434c-.64,4.75-2,8.32-6.79,8.45-1,0-3.13-2.74-2.85-3.6,1.12-3.39,1.51-8,6.43-8.11C247.56,430.73,248.76,433.08,249.65,434Z" transform="translate(-107.01 -246.4)"/><path class="cls-24" d="M272.88,437.24c1.53-2.45,3.05-4.91,4.57-7.36q.76-3.42,3.34-1.05c4.6.31,9.6-.65,12.81,4.06C286.16,431.79,279.69,435.29,272.88,437.24Z" transform="translate(-107.01 -246.4)"/><path class="cls-25" d="M349.87,436.39c0-2.44,0-4.88,0-7.32,3.53.12,9.18-1.23,9.55,2.74C360.06,438.64,353.44,435.41,349.87,436.39Z" transform="translate(-107.01 -246.4)"/><path class="cls-26" d="M238.84,359.87q-.41-3.81-.79-7.61l7.54-9.34C246.6,349.86,246.27,356.27,238.84,359.87Z" transform="translate(-107.01 -246.4)"/><path class="cls-18" d="M349.91,421.23l16.27-.73c-7.35,5.64-11.88,5.77-16.27.73Z" transform="translate(-107.01 -246.4)"/><path class="cls-27" d="M319.17,298.64c6.21,6.87,18.42,14.78,17.44,20.42-2.42,14.05,10.59,8.19,13.33,13.92-16.48,5.16-33,10.31-41.58,27.39-9.1.42-8.32-6.07-8.41-11.95-.38-5.9.06-13.16,5-15.55,9.68-4.7,6.95-10.61,3.58-16.76C301.77,303.77,305.53,298.35,319.17,298.64Z" transform="translate(-107.01 -246.4)"/><path class="cls-26" d="M293.67,372c-5-.52-1.68-9.72-8.63-8.15-3.37-4.72-8.86-7.39-12-12.34,7.31-9.92,7.31-9.92.08-18.07,11.8-1.2,14.66,10.14,21.81,15.45,7.1,5.6,5.81,12.79,3.83,20.11A5,5,0,0,1,293.67,372Z" transform="translate(-107.01 -246.4)"/><path class="cls-28" d="M296.07,371.36q-.57-11.22-1.13-22.44l5-.5L307.62,360c4.87,3.85,6,9.25,6.32,15C304.37,388.19,304.37,388.19,296.07,371.36Z" transform="translate(-107.01 -246.4)"/><path class="cls-29" d="M311.41,375.44q-1.91-7.74-3.79-15.49c9.29-26.1,13.39-28.71,42.32-27,15.85,10.21,21.93,24,15.55,42.32L349.4,389.91l-22.35-.15C317.71,389.47,313.73,383.35,311.41,375.44Z" transform="translate(-107.01 -246.4)"/><path class="cls-30" d="M407.62,306.35,399.9,317.8c-4.31,12.7-12.28,22.34-26.54,19.05C356.49,333,344.78,315,346,300.7c1.13-13.8,10.83-2.91,15.54-6,.7.5,1.4,1,2.12,1.49,5.4,6.21,7.13,21.83,20.37,7.85a41.92,41.92,0,0,1,3.23-4.15c4.61-4.25,8.84-9.64,16.29-5.6Z" transform="translate(-107.01 -246.4)"/><path class="cls-31" d="M438.27,283.78c-6.38,17.56-17.7,16.08-30.76,7.94C417.57,288.31,426.76,281.6,438.27,283.78Z" transform="translate(-107.01 -246.4)"/><path d="M96.06,540" transform="translate(-107.01 -246.4)"/><path class="cls-32" d="M311.41,375.44l15.64,14.32c-7.61,21.26-17.36-4.86-23.63,1.41-12.36-1.57,14.37,12.32-5.83,8.69-6-1.07-16.14,7.84-10.87,15.92,6.74,10.32-4.16,8.82-5.93,13.05-1.11.37-2.22.71-3.34,1-3.62-4.2-5.07-9.78-7.84-14.12-6-9.39-6.49-15,8.76-16.69-8.51-4.89-17.39-.57-20.56-9,15.67,1.31,29.43-1.15,35.86-18.06a8.75,8.75,0,0,0,2.4-.67C303.17,365.28,301.16,393.28,311.41,375.44Z" transform="translate(-107.01 -246.4)"/><path class="cls-33" d="M273,351.54c7.08,1.13,18.07-1.51,12,12.34-7.69,4.34-14,.51-18.12-5C264.53,355.62,270.48,353.73,273,351.54Z" transform="translate(-107.01 -246.4)"/><path class="cls-34" d="M357.68,357.45c-.25,5.55-4.07,8.19-8.69,8.06-4.11-.13-9.11-1.28-9.05-7.37s3.73-9.4,9.52-9.18C354.3,349.15,357.53,352.15,357.68,357.45Z" transform="translate(-107.01 -246.4)"/><path class="cls-35" d="M361.54,294.68l6.86,1h.07c8.65-.23,14.54,4.68,19.88,10.61-3.77,6.54-8.76,10.77-16.94,8.62C360.3,312,363.8,301.92,361.54,294.68Z" transform="translate(-107.01 -246.4)"/></svg>