<svg id="Layer_1" data-name="Layer 1" xmlns="http://www.w3.org/2000/svg" viewBox="0 0 246.82 243.47"><defs><style>.cls-1{fill:#e86792;}.cls-2{fill:#da618a;}.cls-3{fill:#e0658f;}.cls-4{fill:#fd71a2;}.cls-5{fill:#e66792;}.cls-6{fill:#de658e;}.cls-7{fill:#cf5c83;}.cls-8{fill:#cc5c82;}.cls-9{fill:#d45e86;}.cls-10{fill:#d25d85;}.cls-11{fill:#f66f9c;}.cls-12{fill:#f66e9c;}.cls-13{fill:#e46691;}.cls-14{fill:#f8f6f7;}.cls-15{fill:#f9f6f7;}.cls-16{fill:#faf7fa;}.cls-17{fill:#faf6f8;}.cls-18{fill:#e86b95;}.cls-19{fill:#ea7da2;}.cls-20{fill:#faf7f9;}.cls-21{fill:#faf8fa;}.cls-22{fill:#f36d9a;}.cls-23{fill:#e75d8c;}.cls-24{fill:#e67ca0;}.cls-25{fill:#1d1b1b;}.cls-26{fill:#e8779d;}.cls-27{fill:#191a19;}.cls-28{fill:#e2648f;}.cls-29{fill:#343333;}.cls-30{fill:#353333;}.cls-31{fill:#272425;}.cls-32{fill:#3b3939;}</style></defs><path class="cls-1" d="M377,423.54c.15,19.95-8.84,33.91-29.2,40.89-9.68,3.33-13.95,7.81-12.61,17.66-7.19-1.74-.5-9.16-5-12-20.12,3.28-40.39,3.78-60.3-.37-10.75-2.24-12.38,1.71-11.45,10.62.31,3,1.45,6.45-1.49,9-5-5.15-1.07-11.66-2.68-17.32-.7-2.75-1.36-5.53-4.56-6.56l-1-.58h-1.12c-3.48-1.24-7-2.31-10.19-4.33-16-11.49-18.6-28.49-18.73-46.22A319.39,319.39,0,0,1,223,357.59c.55-3.07,3.78-7-2.61-7.82l-9.24,8.17c-2.34,1-3.4-.38-4.17-2.26-.24-2.1.08-4.45,1.65-5.6,16.16-11.8,17.92-30.68,23.82-47.53a17.55,17.55,0,0,1,2.17-4.3c2.34-2.69,4.31-5.78,7.78-7.27,5.41.6,6.41,3.63,4.29,8.11-1.33,2.77-3.34,5.23-3.84,8.38-3.76,16.91.56,21.48,16.82,17.68,2.41-.57,4.74-1.24,7.09.11,1.4,1.71,1.31,3.73,1.18,5.74-.39,5.79,1.5,10.47,7.17,12.63,6.46,2.47,10.81-.73,14.08-6.08a5.78,5.78,0,0,1,7-3c12.79,9.85,14.2,10,24.74,1.85,2.44-2.8,2-7.79,6.71-8.85,9.76,4.46,18.38,2.68,25.95-4.75,5,2.18,1.42-6.85,6.32-4.86a6.56,6.56,0,0,1,1.06.53c4.23,3.2,3.07,11.19,8.33,12.13s7.63-6.05,12-8.65c2.08-1.25,4.08-2.48,6.65-1.91,1.67.89,2.89,2,1.83,4.08-2.56,3.06-4.61,6.84-7.77,9-10.77,7.52-14.52,17-10,29.49A6.43,6.43,0,0,0,371,367c.08,1-.42,2,.19,3a3.14,3.14,0,0,1,1.24-3,122.51,122.51,0,0,1,4.55,39.54A27.11,27.11,0,0,0,377,423.54Z" transform="translate(-170.68 -248.79)"/><path class="cls-1" d="M359.75,318.57c-3.29-.37.12,6.72-4.92,4.39-2.43-2.06-2.83-5.46-5.11-7.62-.73-.77-1.39-1.58-2.06-2.39-5.33-8.53-14.28.42-20.41-4.2a7.16,7.16,0,0,1-1.16-3.37c-.27-5.61.22-11.5-6.6-14.09-7.44-2.82-12.27,1.11-16.68,6.24a11.26,11.26,0,0,1-4.27,2.72c-8,.4-8.52-7.44-12.65-11.3-2.76-3.69-5.66-2.59-8.59-.18-3.08,3.43-5.13,8.19-10.76,8.34-6.5-8,2.75-13.8.18-21.38-2.51.07-8.06,1.28-12.37-2.92a2.4,2.4,0,0,1,.33-3.07l2.21-2.78c1.71-2.77,3.59-6.4,7.38-4.34,5.91,3.21,7.83-2,11.15-4.33,3.39-4.86,9.09-4,13.81-5.53,11.08-5,3.81,5.39,6.65,8.34,9.45-5.13,19.68-8.06,29.82-11.27,3.62-1.35,8.47-2.33,7.41,3.26-1.75,9.2,3.32,6.25,7.91,5.82,6.25-.58,13.07-5.11,18.48,2.07l4.64,1.61c2.63,6.64-4.63,4.5-6.44,7.2-3,.21-2.83,2.64-3.28,4.64.72,2.91-.78,4.83-2.89,6.47-2.68,3-1.31,6.58-1.28,9.92A1.71,1.71,0,0,1,352,292c.19,5,.17,10.05,3.51,14.28C359.93,309.34,363.22,312.81,359.75,318.57Z" transform="translate(-170.68 -248.79)"/><path class="cls-2" d="M413.18,272.46c10.55,11.57-.79,17.05-6.73,24a4,4,0,0,1-3.38-2.62c1.65-4.25.58-7.5-3.55-9.63-.06-8.09,1.05-9.23,11.9-12.25A1.68,1.68,0,0,0,413.18,272.46Z" transform="translate(-170.68 -248.79)"/><path class="cls-3" d="M186.09,394.28c0,2.33-.79,4.62.85,6.9,2.08,2.91,6.93,5.29,2.66,9.95-3.81-6.08-7.47,9.52-15.35-1.52s-.79-8.91,4-10.91c2.32-1,2.42-2.89,3.44-4.45C183.15,392.93,184.62,392.81,186.09,394.28Z" transform="translate(-170.68 -248.79)"/><path class="cls-4" d="M254.75,470c4.33,6,1,13,2.25,19.38l.05.14a61.74,61.74,0,0,1-26.65-.07c.13-4.34,3.22-4.89,6.58-5.1,4.29-2.15,8.94.61,13.28-1C256.88,480.61,250.87,473.65,254.75,470Z" transform="translate(-170.68 -248.79)"/><path class="cls-1" d="M336.18,484.23h3.23c4.57-1.08,9.14-1.46,13.69.16,1.56,2.35,6.22.85,6.31,5-8.9,2.23-17.84,1.52-26.8.44v0C331.63,486.65,331.31,483.81,336.18,484.23Z" transform="translate(-170.68 -248.79)"/><path class="cls-5" d="M186.09,394.28l-4.43,0q3.41-8.56,6.8-17.13l4.56-5c2.85-.38,4.16.61,3.25,3.6Z" transform="translate(-170.68 -248.79)"/><path class="cls-6" d="M196.27,375.71l-3.25-3.6c4.2-6.43,8.75-12.56,14.82-17.39l3.3,3.22Z" transform="translate(-170.68 -248.79)"/><path class="cls-7" d="M398.91,310.76c0,1,.09,1.93.14,2.9l-9.35,10.42-3.11-3.25,5.33-9.55,4.78-4.9C398.77,307.17,400.12,308.32,398.91,310.76Z" transform="translate(-170.68 -248.79)"/><path class="cls-8" d="M398.91,310.76l-2.21-4.38,6.37-12.51,3.38,2.62C405.27,301.94,403.34,307,398.91,310.76Z" transform="translate(-170.68 -248.79)"/><path class="cls-9" d="M332.61,489.88l26.8-.44C350.54,493.36,341.59,492.7,332.61,489.88Z" transform="translate(-170.68 -248.79)"/><path class="cls-10" d="M230.4,489.43l26.65.07C248.16,493.05,239.27,493.32,230.4,489.43Z" transform="translate(-170.68 -248.79)"/><path class="cls-9" d="M336.18,484.23c-2.51,1.06-3.11,3.32-3.58,5.67-4.12-6.22-.59-13.34-2.36-19.83,5.26,2.53.61,9.12,5,12A4.25,4.25,0,0,1,336.18,484.23Z" transform="translate(-170.68 -248.79)"/><path class="cls-11" d="M377,423.54c-3.75-5.65-3.65-11.33-.07-17A49.08,49.08,0,0,1,377,423.54Z" transform="translate(-170.68 -248.79)"/><path class="cls-10" d="M249.29,482.38c.28.67.53,1.34.75,2-4.37,2.79-8.71,0-13.06-.07C240.68,481.12,245.15,482.81,249.29,482.38Z" transform="translate(-170.68 -248.79)"/><path class="cls-6" d="M220.38,349.77l3.5-2.55c2.44,3.69,2,7.14-.89,10.37C222.1,355,224.26,351.38,220.38,349.77Z" transform="translate(-170.68 -248.79)"/><path class="cls-12" d="M372.39,367c-.28,1.89-.55,3.77-1.06,7.22-2.07-5.18-2.4-8.56.56-11.6Z" transform="translate(-170.68 -248.79)"/><path class="cls-9" d="M353.1,484.4l-13.69-.16C344,481.46,348.57,481.44,353.1,484.4Z" transform="translate(-170.68 -248.79)"/><path class="cls-13" d="M242.47,291.72A51.63,51.63,0,0,1,255,272.16c3.55.43,7.24,1.67,10.61,1.08,4-.69,7.29.7,7.78,3.58.95,5.51-5,1.3-4.79,1.68,3.38,6.56-4.64,12-1.67,18.32,4.13,6,3.8,15,12,18.33a4,4,0,0,1,.78,3.15c-1.67,2.54-4.56,3.26-7,4.7-2,1.1-4.1,2-6.48,1.52-.82-.22-1.77-.58-1.9-1.27C260.6,302.5,253.1,304.51,240.18,307c-.51-3.51,1.28-6,3.68-8.21C247.28,295.64,246.12,293.45,242.47,291.72Z" transform="translate(-170.68 -248.79)"/><path class="cls-14" d="M240.18,307c15-10,24.89-3.55,26.67,17.31a1.4,1.4,0,0,1-.41,2.22c-1.53.21-3.39-.07-4.53.71-6.79,4.57-13.49,5.6-20-.27C235.34,321,237,314,240.18,307Z" transform="translate(-170.68 -248.79)"/><path class="cls-15" d="M323.21,338.1c-11.52,10.94-18.12,10.35-27.41-2.42-4.5-7.17-1.59-12.9,3.54-18.21a14.24,14.24,0,0,1,9.3-3.81c8,1,14.44,4,16.43,12.76C323.7,330.19,325.52,334.48,323.21,338.1Z" transform="translate(-170.68 -248.79)"/><path class="cls-16" d="M328.07,308.94c8.12-1.67,17.73-10.15,22.21,4.83-.69.44-1.35.9-2,1.32a12.87,12.87,0,0,0,1.87-1.51c6,.92,4.29,5.69,4.73,9.38-8.69,12.57-16.37,14.13-27,5.51-1.45-1-2.82-2-3.38-3.76-1.86-4.64-1.76-9.15.93-13.48A7.73,7.73,0,0,1,328.07,308.94Z" transform="translate(-170.68 -248.79)"/><path class="cls-17" d="M266.44,326.52a9.77,9.77,0,0,0,.41-2.22l4.94-3.51c3.8-1.45,7.87-1.15,11.79-1.87,8,2.74,12.43,7.67,10,16.66-3.59,9.3-9.68,15.62-20.13,11.52C264.13,343.44,261.52,335.85,266.44,326.52Z" transform="translate(-170.68 -248.79)"/><path class="cls-18" d="M293.59,335.58c-.89-6.52-3.76-11.77-9.67-15.08-1.42-1.2-4,0-4.89-2.29,0-.59.06-1.18.07-1.78,7.74-4.65,13.42-11.57,19.73-17.81l1.66-2.06c5,3.89,4.43,10.12,6.45,15.25.08,3.73-5.68,3-5.33,7-5,4.57-6.12,10.48-5.8,16.88C295.07,335.66,294.33,335.63,293.59,335.58Z" transform="translate(-170.68 -248.79)"/><path class="cls-19" d="M326.45,325.62l1.41,2.85c-3.61,2.22-.67,7.59-4.65,9.63q.12-6.12.25-12.23C324.35,324.48,325.35,324.39,326.45,325.62Z" transform="translate(-170.68 -248.79)"/><path class="cls-20" d="M298.83,298.62c-3.57,9.25-7.81,17.76-19.73,17.81-13-1-12.2-10.54-12.14-19.61l10.1-9.72c3-2.07,5.9-2.36,8.78.18C292.17,288.78,292,297.71,298.83,298.62Z" transform="translate(-170.68 -248.79)"/><path class="cls-21" d="M306.75,313.34c-5.17-4.45-6.58-10.29-6.26-16.78,4.18-8.24,10.66-12.4,19.72-9,10.27,3.9,9.35,12.71,7.86,21.35,0,.79,0,1.57,0,2.36-5.16,5.45-11.44,5.26-18,3.56A3.47,3.47,0,0,1,306.75,313.34Z" transform="translate(-170.68 -248.79)"/><path class="cls-22" d="M350.8,279.74q-.24,5.81-.47,11.59c-.22.74-.45,1.48-.67,2.23-2.88-4.62-3-9.63-2.19-14.79Z" transform="translate(-170.68 -248.79)"/><path class="cls-23" d="M285.84,287.28l-8.78-.18C280.07,283.27,283,282.18,285.84,287.28Z" transform="translate(-170.68 -248.79)"/><path class="cls-24" d="M279,318.21l4.89,2.3-12.13.28C273.56,318.12,276.46,318.63,279,318.21Z" transform="translate(-170.68 -248.79)"/><path class="cls-25" d="M257.7,309.94c2.39-.2,3.55,1.29,4.05,3.27s.09,4.13-2.27,4.67c-2.79.64-4.48-1-5-3.63C254,311.85,255.87,310.84,257.7,309.94Z" transform="translate(-170.68 -248.79)"/><path class="cls-26" d="M308.47,313.88c6.85,1.53,13.12-1.35,19.61-2.58-2.68,4.53-2.87,9.35-1.63,14.32l-3,.25c-3.25-5.84-8.47-8.63-14.9-9.53-.81-.52-1.09-1.06-.84-1.61S308.21,313.88,308.47,313.88Z" transform="translate(-170.68 -248.79)"/><path class="cls-27" d="M317.58,332.61c-2.87.58-4.2-1.11-4.67-3a3.62,3.62,0,0,1,2.64-4.68c2.76-.62,4.58.92,5.06,3.59C321.05,330.93,319.18,331.93,317.58,332.61Z" transform="translate(-170.68 -248.79)"/><path class="cls-28" d="M308.47,313.88l.09,2.46-6.95,2.46c-2.59-5.85,2.68-4.34,5.14-5.46A2.65,2.65,0,0,1,308.47,313.88Z" transform="translate(-170.68 -248.79)"/><path class="cls-29" d="M350.1,313.58c.81,3.3,1.64,6.87-3.23,7.35a3.77,3.77,0,0,1-4.23-4.68c.93-5,4.5-3.4,7.63-2.48Z" transform="translate(-170.68 -248.79)"/><path class="cls-30" d="M289.06,330.15c.15,3.1-.85,4.72-3,5.21-2.89.65-4.51-.89-4.9-3.62a3.62,3.62,0,0,1,3-4.39C287,326.72,288.13,328.81,289.06,330.15Z" transform="translate(-170.68 -248.79)"/><path class="cls-31" d="M291.35,299.16c-.14,2.06-.72,3.63-2.55,3.89-2.83.42-4.52-1.14-4.84-3.85-.24-2,1.14-2.63,3-2.53C289,296.77,291,296.93,291.35,299.16Z" transform="translate(-170.68 -248.79)"/><path class="cls-32" d="M325.31,299.44c-.12,1.45-1.63,2.44-3.82,2.42-2.88,0-4.37-1.72-4.09-4.45a3.48,3.48,0,0,1,3.89-3.46C324.26,294.07,325.49,295.65,325.31,299.44Z" transform="translate(-170.68 -248.79)"/></svg>