<svg id="Layer_1" data-name="Layer 1" xmlns="http://www.w3.org/2000/svg" viewBox="0 0 290.41 356.01"><defs><style>.cls-1{fill:#1cc9fe;}.cls-2{fill:#1dc8fb;}.cls-3{fill:#1cc8f7;}.cls-4{fill:#28ccfb;}.cls-5{fill:#1dc8f8;}.cls-6{fill:#1bc6f1;}.cls-7{fill:#1bc9f6;}.cls-8{fill:#21c3f5;}.cls-9{fill:#e86792;}.cls-10{fill:#030303;}.cls-11{fill:#1cc5f7;}.cls-12{fill:#f7f0f4;}.cls-13{fill:#f6eff2;}.cls-14{fill:#1ed6fa;}.cls-15{fill:#1dd6fd;}.cls-16{fill:#f3f6f6;}.cls-17{fill:#1cc8f9;}.cls-18{fill:#28cbfb;}.cls-19{fill:#e5eeef;}.cls-20{fill:#1bc6f7;}.cls-21{fill:#0dc7fa;}.cls-22{fill:#17c4f3;}.cls-23{fill:#14d1fc;}.cls-24{fill:#1dc9f4;}.cls-25{fill:#1bc2f6;}.cls-26{fill:#1fc6f4;}.cls-27{fill:#dfe3e5;}.cls-28{fill:#1bbfef;}.cls-29{fill:#e8eced;}.cls-30{fill:#020404;}</style></defs><path class="cls-1" d="M407.65,371.5l8.09,17c7.55,6.54,4,16.23,6.89,24.08.52,5.78.19,11.17-6.25,13.79a9.45,9.45,0,0,1-4.67-.66c-7.72,2.75-.1,8.85-2.68,12.7-2,21-7.32,41.39-13.36,61.49-9.32,31-34.24,43-63.1,49.77-7.3,1.54-14.64,15-22,.06-14.18-3.55-28.37-3.21-42.57-.2-6.91,6.8-.59,16-4.36,23.41a3.51,3.51,0,0,0-.83,2.93c-15.48,10.43-25.08,10.46-39.11.09l.12.1c-5.58-5.34-.18-7.51,3-10.33h0c4.75-3.69,14.78.67,15.26-9.16.48-10-10-10.5-15.22-15.55-11.63-4.9-22.81-10.57-32.48-18.83-13.08-4.69-16.1-16.83-19.83-27.88A130.73,130.73,0,0,1,167.47,447c.21-6.5-.4-13.1,1.92-19.38-.44-3.86,6.78-3.71,5-4.79-12.82-7.67-7.44-15.15-.69-22.88,3.85-4.4,6.77-9.65,11.8-13a8.55,8.55,0,0,1,4.83.3C192,391,194,394.15,198.89,392c3.15,2.9,4.71,6.71,6.2,10.57,5.88,14.75,12.27,29.12,26.86,37.69a59,59,0,0,0,17,6.33c24.16,3,48.22,4.55,71.82-3.39a71.13,71.13,0,0,0,17-6.53c12.93-7.93,24-17.42,28.22-32.83,5.91-13.29,3.85-27.69,5.79-41.51,3.3-7.67,12.14-15.31,16.91-12.52,9.47,5.54,6.47,17.84,6.82,28.27,3.9-1.74,3.26-8.65,8.63-9.2A3.32,3.32,0,0,1,407.65,371.5Z" transform="translate(-147.03 -227.68)"/><path class="cls-2" d="M404.56,370.39c-2.25,7.49-7.1,12.73-16.39,17.38,6.91-13.06.61-24.33.51-36.87-2.77,6.43-8.67,6.79-13.39,9.1-8.24-.75-13.55-7.95-21.38-9.61-9.07-6.28-14-1.34-17.9,6.55-4,3.17-8.64,4.43-13.57,4.94-4.08.27-9.18-5.29-12.08,2.12a6.81,6.81,0,0,1-4.69-.1c-5.94-7.53-7.31-14.81,1.11-21.6,5.4-1.91,11.3-1.39,16.68-3.4,5.34-1.26,8.33-4,6.39-9.93-1.18-8.45-2.86-17.07-13.58-17.38-9.88-.28-11.67,8.08-13.83,15.46a9.66,9.66,0,0,1-4.13,5.47,10.75,10.75,0,0,1-10.36-.88c-3.76-4.41-4-9.47-2.69-14.68-1.18-1.29,4.69-2.4.05-4-2.3-1.53-3.31-3.84-4.24-6.25-1.17-4.91-4.8-7.61-8.83-10-2-1.7-3.29-3.68-2.33-6.44,3.45-3.15,7.56-3.24,11.83-2.6a20.43,20.43,0,0,1,4.49,1.57c3.1,1.72,6.09,3.18,6.14-2.63,3.27-10.69,13-16.9,18.08-26.34,12-3.42,21.65.8,30,9.16,1.76,3.58,2.36,7.26,0,11.11,3.85-4.55,10.53-6.45,10.5-13.29.49-4.18,2-7.75,5.86-9.83,10.87,1.89,4-9.55,9.05-12.13a6.35,6.35,0,0,1,4.14-2.58c17.59,7.25,7.47,19.42,5.44,30.18-9.18,14,3.71,24.43,6,36.56L389,323.73C401.38,336.91,406.67,352.42,404.56,370.39Z" transform="translate(-147.03 -227.68)"/><path class="cls-3" d="M159.38,240.69q4.68-3.88,9.35-7.78c9.83-6.77,19.38-7.64,28.43,1.38l19,13c9.91,5.68,18.82,12.12,19.1,25.1-8.07,2.86-8.84,16-20.16,14.31-3.11-2.83-4.76-6.74-7.38-9.94-13.83-16.83-19.35-16.61-32.23,1.4a14.49,14.49,0,0,1-7,5.13l.12-.07c-14.08,3.95-20.79.3-21.51-12.79C146.46,258.88,150.15,248.51,159.38,240.69Z" transform="translate(-147.03 -227.68)"/><path class="cls-4" d="M190.51,388.47h-3.6c-5.8-2.39-12.95-2.14-16.74-8.5-4.07-9.31,1.22-16.53,5.37-24l1-5.82c2-19.31,5.63-37.88,22.91-50.28,10-.66,15.12,6.59,20.09,13.09a69.77,69.77,0,0,0,19.64,18.12,9.18,9.18,0,0,1,3.52,6.81c-2,10.12-9.63,14-18.42,16.72a20.14,20.14,0,0,1-5.12.71c-4.74-.38-7.65-2.49-7.65-7.69,0-7.43-4.25-11.64-12.13-15.13-2.46,11.21,15.51,13.64,9.31,24.48-2.36,6.16-5.68,11.89-8.18,18C197.83,380,197.16,386.43,190.51,388.47Z" transform="translate(-147.03 -227.68)"/><path class="cls-5" d="M367.74,243.27c17.58-19.94,33.12-20,59-.35,1.28,3.55,1.74,8,7.36,7,6.32,5.42,2.39,10.49-.56,15.58-8.9,2-15.79-2.73-23-6.68-8-4.41-16.06-7.82-24,.17-3.71,5.92-4.77,14.43-14.38,14.56C370.23,263.53,384.54,251.14,367.74,243.27Z" transform="translate(-147.03 -227.68)"/><path class="cls-6" d="M408.49,515.17c9.16,1.19,11.23-3.88,10.84-11.72-.93-19-1.61-38.08-2.4-57.12,4-6.51.44-14.1,3-20.83,2.06-2.73-.85-8.65,5.57-8.55,11.19,28.31,15.56,57.24,8,87.25-1.24,4.82-2.35,9.65.07,14.46,2.27,6.27,4.78,12.6-3.67,16.49-9.16,4.22-16.1-.38-22.6-5.95C401.47,524.17,401.45,519.3,408.49,515.17Z" transform="translate(-147.03 -227.68)"/><path class="cls-7" d="M154.23,424.63q2.07-3.57,4.15-7.12c10.27,0,9.92,7.45,10.27,14.44,0,4-.24,7.85-3,11.05-1.72,24.08-7.87,48.13-.5,72.28,4.8,6,2.64,11.94,0,17.91-16.73,3-18-2.08-16.17-19,2.84-27.16,1.09-54.94,4.58-82.32C153.76,429.45,154,427,154.23,424.63Z" transform="translate(-147.03 -227.68)"/><path class="cls-8" d="M346.52,565.36a8.15,8.15,0,0,0,3.26,1.24c5.8,9.74-2.52,10.92-8.25,12.34-23.59,5.83-29.78.32-31.94-27.57a3.73,3.73,0,0,1,0-4.32,3.43,3.43,0,0,1,4.25.49c4.22,5.88,4.22,5.88,16.52-3.13-2.86,5.64-2.7,11.5-1.24,17.45C334.16,566.67,341.24,561.59,346.52,565.36Z" transform="translate(-147.03 -227.68)"/><path class="cls-9" d="M324.26,446.59c-25.91,10.68-52.27,10.75-78.93,3.23-5.6-4-4-11-6.56-16.5-5.18,1.73-4,8.56-8.76,10.2-15.92-9.17-24.48-23.46-28.63-40.82,3.42-8,10.84-11.05,18.16-13.67C265,372.8,310.16,372.68,355,391.63c6.81,2.89,13.12,6.2,15.22,14.08-4.36,16.57-15.29,27.25-30.63,34-4.6-2-4-8.17-8.46-10.64C327.7,434.59,330.44,442.36,324.26,446.59Z" transform="translate(-147.03 -227.68)"/><path class="cls-10" d="M370.18,405.71c-55.71-32.07-112-30.14-168.8-3l-4.06-10.53c-3.42-6-1.49-12.05.07-18.06l8.19-16.88c2.8-5.75,7.87-2.48,12-3,7.31,2.05,4.32,10.48,8.77,14.48,3.53-4.9,3-12.17,9.64-14.85,23.4,4.4,46.77,8.93,70.67,9.47l3.6-.54c2.9-3.77,7.77-.69,11-3.17,4.07-3.68,9.34-3.44,14.26-4.33a4.7,4.7,0,0,1,4.75.53c3.34,3.74,3.08,9,6.53,14.56,3.73-5.68,1.86-12,4.2-17a7,7,0,0,1,3.6-3.38c10.14-3.38,15.75,2.6,20.69,9.95C375.91,375.5,377.53,391.11,370.18,405.71Z" transform="translate(-147.03 -227.68)"/><path class="cls-11" d="M165.7,433c-.52-6.08-.59-12.37-7.32-15.53,2.18-12.93,5.76-25.37,13.06-36.48,6.34,0,12.5.43,15.47,7.44-1.15,6.16-7.16,8.67-10.18,13.44-4.19,6.6-12.7,13.06.53,19.44,2.09,1,3.64,4.88.53,7.12-.56.4-3.51-2.47-5.35-3.83C168.92,426.43,171.64,433.18,165.7,433Z" transform="translate(-147.03 -227.68)"/><path class="cls-12" d="M230,443.52c.74-7.6,1.79-15.1,7.47-23.07,9.25,8.84,7.1,19.55,7.85,29.37A18.9,18.9,0,0,1,230,443.52Z" transform="translate(-147.03 -227.68)"/><path class="cls-13" d="M324.26,446.59c.38-9.37-.9-19.06,5.69-28.07,8.69,4.72,7.85,13.58,9.6,21.17C335.24,443.71,330.33,446.43,324.26,446.59Z" transform="translate(-147.03 -227.68)"/><path class="cls-14" d="M309.71,547.85l-42.89-.57c15.69-5.27,31.36-5.7,47,.26Z" transform="translate(-147.03 -227.68)"/><path class="cls-15" d="M419.24,413.26l3.58,3.8q-.1,5.58-.19,11.15c-5.22,3.4,2.94,12.73-6.38,14.31,0-6.3-5.7-11.38-3.88-18.08C420,423.94,418.83,418.14,419.24,413.26Z" transform="translate(-147.03 -227.68)"/><path class="cls-11" d="M197.39,374.11l-.07,18.06c-4.16,2.23-7,2.11-6.81-3.7Q193.95,381.29,197.39,374.11Z" transform="translate(-147.03 -227.68)"/><path class="cls-16" d="M241.32,337.84,239,333.93c-3.25-1.17-3.73-4.29-4.92-6.91-1.32-28,12.16-38.87,38.13-30.9,6.54.54,10.13,4.53,12.16,10.36l3.75,6.47-.07,0q.18,8.85.35,17.71c-1.36,13.18-10.62,21.22-21.71,23C256.12,355.28,245.89,349.39,241.32,337.84Z" transform="translate(-147.03 -227.68)"/><path class="cls-17" d="M241.32,337.84c24.87,16.5,25.62,18.06,47.12-7.22l10.73,0c7.74-1.81,9.61,4.08,12.09,9.17-.18,2.94-2.94,3.63-4.64,5.25-2.16,6.08-2.48,12.17,0,18.26-25.3,9.12-48.88-.74-72.81-6.62-5.17,2.52-8.51.55-10.64-4.34C229.66,348.08,237.07,344.92,241.32,337.84Z" transform="translate(-147.03 -227.68)"/><path class="cls-18" d="M274,297.85c-27.38-3.23-34.79,2.53-37.19,28.92-20.59-10.2-26.57-21.39-21.5-40.27h0c8.64-2,8.35-16.16,19.74-14.39l9.69-3.64c4.29.15,8.63-.3,12.81,1.14a21.71,21.71,0,0,1,4,1.83c3.85,2.28,7.24,5,9.27,9.14a12.47,12.47,0,0,1,1.15,4.14c0,2.16-1.15,4.06-1.57,6.13l3.6,3.63c1.25.74,1.67,1.48,1.27,2.24S274.38,297.85,274,297.85Z" transform="translate(-147.03 -227.68)"/><path class="cls-18" d="M262.47,254.77c-1.38-4.92-2.46-9.83.58-14.57,4.34-.8,7.89.69,10.92,3.7,5.41,4.76,6.12,13.18,13.95,17.13,5.35-5-.11-12.67,3.86-17.82-.45-9.29,6.42-6,11.14-6.47q.52,3.57,1,7.12c3,5.86-11.29,17.55,6.28,18.49,4.48,14.23-16.09,15.74-14.54,28.48-3.62,3.24-7.24,2.52-10.87,0h0c-3.9-4.28-10.91-2.35-14.51-7.23h0c0-7.23-4.39-10.1-10.88-10.86h0c-2.23-2.09-6.14-3.35-3.85-7.69C255,259.72,272.55,266.41,262.47,254.77Z" transform="translate(-147.03 -227.68)"/><path class="cls-19" d="M311.08,340.92l-11.91-10.26c-1.3-13.34,2-25.15,17.5-24.8,14.89.33,19.22,11.18,16.36,25,.63,8.83-8.47,7.63-12.3,11.86C317.35,343,313.74,344.51,311.08,340.92Z" transform="translate(-147.03 -227.68)"/><path class="cls-17" d="M339.32,356l-3.8-.67c-3.91-6-2.56-9,4.67-11.2s12.77-3.8,14.41,5.95l-.43.68C349.51,353.3,346.08,359.31,339.32,356Z" transform="translate(-147.03 -227.68)"/><path class="cls-5" d="M339.28,272.64c5.61,2.3,10.84,3.17,14.07-3.64,5.41,15.73-16.08,7.7-14.81,19.82C334.11,281.93,340.08,277.81,339.28,272.64Z" transform="translate(-147.03 -227.68)"/><path class="cls-1" d="M380.47,347.35c-3.83-4.37-9.33-7.44-3.94-13.23,1.38-1.48,5.72-2.76,6-2.3C385.81,336.5,385.49,341.33,380.47,347.35Z" transform="translate(-147.03 -227.68)"/><path class="cls-5" d="M357.87,258.4c1.78-6,4.61-11.41,9.93-15.16,1.83,8.06-4.79,15-.91,23.26C359,266.7,362,259.42,357.87,258.4Z" transform="translate(-147.03 -227.68)"/><path class="cls-20" d="M270.32,283.61c6.23-.36,11.77.65,14.51,7.23h-14.5C266.29,288.44,270,286,270.32,283.61Z" transform="translate(-147.03 -227.68)"/><path class="cls-17" d="M320.94,341.4,333,330.83c2.46,1.59,5.4,3.7,3.78,6.69-2.59,4.74-7.88,3.83-12.4,4.15C323.14,343,322,342.84,320.94,341.4Z" transform="translate(-147.03 -227.68)"/><path class="cls-17" d="M321.26,359.63c-3.15,2.89-6.9,3.71-11,3.17C309.68,347.14,317,358.8,321.26,359.63Z" transform="translate(-147.03 -227.68)"/><path class="cls-20" d="M284.83,290.84H295.7c.47,2.12,2.86,5.08.2,6.22C290.17,299.48,287.22,295.27,284.83,290.84Z" transform="translate(-147.03 -227.68)"/><path class="cls-21" d="M320.94,341.4c1.15.12,2.31.21,3.47.27-5,5.91-11.83,2.44-17.79,3.41l4.46-4.16Z" transform="translate(-147.03 -227.68)"/><path class="cls-20" d="M288.16,313c.63-3.16-.64-7,2.69-9.2,1.82-1.21,3.38,0,3.4,2,.05,4-3.25,5.51-6.16,7.19Z" transform="translate(-147.03 -227.68)"/><path class="cls-20" d="M274,297.85c0-1.13,0-2.26,0-3.38q11.32.72,10.48,12Z" transform="translate(-147.03 -227.68)"/><path class="cls-22" d="M416.25,442.52c4.84-3.57.6-11.15,6.38-14.3-1.48,6.16,4.1,14.54-5.7,18.11C416.71,445.06,416.48,443.79,416.25,442.52Z" transform="translate(-147.03 -227.68)"/><path class="cls-23" d="M434.06,249.92c-1.44,2.58-3.16,4.91-6.52,3.1-5.27-2.84-1.91-6.61-.84-10.1A10.87,10.87,0,0,1,434.06,249.92Z" transform="translate(-147.03 -227.68)"/><path class="cls-24" d="M165.12,533.19V515.28C179.13,519,179.13,519,165.12,533.19Z" transform="translate(-147.03 -227.68)"/><path class="cls-25" d="M218.47,355.13l-12.89,2.1c3.56-8.47-4.31-9.26-8.36-13-4.43-4-8.67-8.87-3.06-15.32,6.85-7.87,9.55,1.19,14.36,3,10.25,3.83,4.19,16,11.78,20.67Q221,355,218.47,355.13Z" transform="translate(-147.03 -227.68)"/><path class="cls-26" d="M215.28,286.5c-2.13,18.36,10,29.14,21.5,40.27.75,2.39,1.5,4.77,2.26,7.16-19.22-3.24-22.13-25.52-38.16-32.48C204.36,295.2,208.52,289.6,215.28,286.5Z" transform="translate(-147.03 -227.68)"/><path class="cls-27" d="M218.47,355.13a4.48,4.48,0,0,0,1.83-2.52,4.24,4.24,0,0,0,2.87-.23l10.64,4.33c-1.44,8.07-2.87,16.14-4.64,26.06C217.35,374.87,219.29,364.49,218.47,355.13Z" transform="translate(-147.03 -227.68)"/><path class="cls-28" d="M291.78,243.21c4,7.12,5.76,14.3.33,21.54-1.71,2.29-4.07,2.26-6.19.83-7.7-5.15-13.71-11.31-11.95-21.68,4-2.5-1.44-9.9,5.62-10.83C287.35,232,286.88,240.84,291.78,243.21Z" transform="translate(-147.03 -227.68)"/><path class="cls-11" d="M255.59,265.07c1.28,2.57,2.57,5.13,3.85,7.69-4.94-1.36-10.55-.43-14.75-4.3C247.61,265.06,251.62,265.11,255.59,265.07Z" transform="translate(-147.03 -227.68)"/><path class="cls-29" d="M339.32,356a24.21,24.21,0,0,1,14.85-5.25c-.06,10.88,1.84,22.29-8.5,32.44C340.91,373.39,340.07,364.69,339.32,356Z" transform="translate(-147.03 -227.68)"/><path class="cls-11" d="M259.44,272.76c6.72-4.48,10.34,1.66,15,4.34q-2.06,3.25-4.09,6.52Z" transform="translate(-147.03 -227.68)"/><circle class="cls-30" cx="168.49" cy="97.22" r="8.38"/><circle class="cls-30" cx="123.76" cy="97.22" r="8.38"/></svg>