<svg id="Layer_1" data-name="Layer 1" xmlns="http://www.w3.org/2000/svg" viewBox="0 0 382.29 332.59"><defs><style>.cls-1{fill:#e1f1d5;}.cls-2{fill:#e9f7e0;}.cls-3{fill:#ecf7e0;}.cls-4{fill:#ebf9e0;}.cls-5{fill:#a4cd9a;}.cls-6{fill:#eff7e5;}.cls-7{fill:#eaf7e1;}.cls-8{fill:#ecf8e3;}.cls-9{fill:#daf0cf;}.cls-10{fill:#e3f4da;}.cls-11{fill:#e8f5e2;}.cls-12{fill:#e1f5db;}.cls-13{fill:#e9f5e0;}.cls-14{fill:#93c38a;}.cls-15{fill:#a5cf9c;}.cls-16{fill:#ebf7e1;}.cls-17{fill:#e8f7df;}.cls-18{fill:#edf7e4;}.cls-19{fill:#d3eecc;}.cls-20{fill:#e0f3d7;}.cls-21{fill:#edf6e5;}.cls-22{fill:#f0f9e6;}.cls-23{fill:#aacda0;}.cls-24{fill:#d8ecd1;}.cls-25{fill:#ebfae2;}.cls-26{fill:#e2f7d8;}.cls-27{fill:#e6f7de;}.cls-28{fill:#d5e9cc;}.cls-29{fill:#e7f5de;}.cls-30{fill:#ebf7e2;}.cls-31{fill:#b0d1a6;}.cls-32{fill:#9ecc97;}.cls-33{fill:#a8cfa0;}.cls-34{fill:#aacda1;}.cls-35{fill:#afd6a7;}.cls-36{fill:#91c08a;}.cls-37{fill:#89c581;}.cls-38{fill:#8fc98a;}.cls-39{fill:#97cb8f;}.cls-40{fill:#c6e2bd;}.cls-41{fill:#a2d096;}.cls-42{fill:#aed4a6;}.cls-43{fill:#92c189;}.cls-44{fill:#8ac183;}.cls-45{fill:#8bc083;}.cls-46{fill:#8dc186;}.cls-47{fill:#8dc288;}.cls-48{fill:#8ec085;}.cls-49{fill:#99c492;}.cls-50{fill:#e1f6d6;}.cls-51{fill:#81c279;}.cls-52{fill:#8ec187;}.cls-53{fill:#8bc082;}.cls-54{fill:#8ac082;}.cls-55{fill:#8dc284;}.cls-56{fill:#97c791;}.cls-57{fill:#8cc483;}.cls-58{fill:#98c791;}.cls-59{fill:#88c181;}.cls-60{fill:#8fc485;}.cls-61{fill:#8ac280;}.cls-62{fill:#85bf7d;}.cls-63{fill:#86b880;}.cls-64{fill:#84bf7e;}.cls-65{fill:#85c07c;}.cls-66{fill:#83c274;}.cls-67{fill:#82b57c;}.cls-68{fill:#7bc579;}.cls-69{fill:#8cc282;}.cls-70{fill:#81b978;}.cls-71{fill:#123211;}.cls-72{fill:#81b280;}.cls-73{fill:#84b57d;}.cls-74{fill:#81b17c;}.cls-75{fill:#142e12;}.cls-76{fill:#0c240a;}.cls-77{fill:#172a14;}.cls-78{fill:#0b2b09;}.cls-79{fill:#1c4c19;}.cls-80{fill:#133b10;}.cls-81{fill:#86b87d;}.cls-82{fill:#0e2e0c;}.cls-83{fill:#132e0f;}.cls-84{fill:#85a480;}</style></defs><path class="cls-1" d="M391.41,552.1c-6.32-1.77-10.52,4.9-16.58,4.15-7.76,4.69-16.82,1.49-24.91,4.14l-4.1.06c-16.53,2.3-32.58,10.38-49.82,4.1h0c-1.61-1.46-3.65-.82-5.5-1.15-2.57-.46-4.59-1.31-1.92-4.22,4.1-2.44,8.67-1.81,13.06-1.7,14.77.4,29.29-2.41,44-3,10.75-2.48,21.93-2.86,32.52-6.24a49.37,49.37,0,0,0,16.49-5.94c8.19-3.43,18.18-.58,25.44-7.28a11.51,11.51,0,0,1,2.72-.93,5.41,5.41,0,0,1,4.05,1c1.15,1.94.21,3.53-.84,5.11-1.45,1.8-3.89,2.11-5.53,3.64h0C411.17,548,400.63,547.7,391.41,552.1Z" transform="translate(-113.44 -236.53)"/><path class="cls-2" d="M457.8,276.17c4.89,7.16,16.74,7.4,18,18,.87,7.08,7.68,12.15,6.54,19.86-8.67.67-9.13-7.7-13.28-12a27.38,27.38,0,0,0-6.89-10.59c-5.73-10-15.75-14.51-25.28-19.74-4.85-2.67-11.32-3.45-13.39-10a4.33,4.33,0,0,1,1.21-2.73c10.2-.79,16.9,6.38,24.76,10.91h0A12.3,12.3,0,0,1,457.8,276.17Z" transform="translate(-113.44 -236.53)"/><path class="cls-3" d="M285.62,564.54c-8.12.77-14.62-5.22-22.28-5.63C251,558.27,241.9,548.32,229.61,548c-2-3.51-10.49-1.74-7.59-9.28,10.54-1.09,20.45,2.08,29.66,6.22,8.45,3.81,16.35,8.53,25.9,9.23a10.09,10.09,0,0,1,6.95,4.11C285.61,560.21,286.38,562.24,285.62,564.54Z" transform="translate(-113.44 -236.53)"/><path class="cls-4" d="M117.57,369.51c-2.06-16.59,5-31.54,8.75-47.05.52-2.18,2.27,1.27,3.71,1.43,5.07,8.37-.89,16.21-1.13,24.33a40.62,40.62,0,0,1-4,17c-1.54,2.09-3.27,4-5.89,4.71Z" transform="translate(-113.44 -236.53)"/><path class="cls-5" d="M463.74,504.51l-1.77,2c-3.77,3.69-5.29,9.94-11.88,10.39-5.42.45-8.24,4.7-11.53,8.11-4.57,4.74-9.38,9-16,10.46l0,0a1.76,1.76,0,0,1-2.59.12c-2.38-7.16,4.77-9.1,7.38-13.53,6.05-6.8,14.24-11,20.72-17.31,2.9-1.35,5.27-3.67,8.35-4.72a8.7,8.7,0,0,1,5.47-.43,4.69,4.69,0,0,1,2.06,3.5C463.85,503.58,463.79,504,463.74,504.51Z" transform="translate(-113.44 -236.53)"/><path class="cls-6" d="M204.67,253.21c1.34-9.73,8.64-16,19.84-16.39,7.92-.3,15.87,0,23.8,0,.16,1,.23,2.42-.73,2.7C233.15,243.66,219.46,250.15,204.67,253.21Z" transform="translate(-113.44 -236.53)"/><path class="cls-7" d="M296,564.55c16.94,2.64,32.94-6.06,49.82-4.1-.39.94-.62,2.58-1.2,2.71-14.72,3.33-29.36,7.45-44.74,5.41C297.42,568.24,296.41,566.74,296,564.55Z" transform="translate(-113.44 -236.53)"/><path class="cls-8" d="M476.48,489.88c1.06,2.26,1.46,4.18-2.07,4.15-2.23.05-4.07-.58-4.87-2.92,2.26-8.82,3.27-18,7.08-26.41,2.61-3.68,3.89-9.07,10.2-8.07,1.51,5.29,7.61,11.09-3.05,14.5-3.22,1,1.52,9.23-5.2,10.45C476,483.86,478.89,487.54,476.48,489.88Z" transform="translate(-113.44 -236.53)"/><path class="cls-9" d="M204.67,253.21c13.23-9,28.9-11.47,43.64-16.44.68,0,1.35,0,2-.05l8.31-.19L259,238c-5.76,7-15.44,4-22.1,8.66a40.67,40.67,0,0,1-6.91,2.56c-6,.78-11.89,2-16.37,6.67-6.62,1.38-11.4,7-18.28,7.89-2.12,0-4.08-.38-5.41-2.27Z" transform="translate(-113.44 -236.53)"/><path class="cls-10" d="M213,535.53c-14.48-7.21-26.35-18.77-41.46-24.93-2.8-1.36-5.78-2.6-4.15-6.7a5.63,5.63,0,0,1,4.32-.84c8.91,4,16.9,9.67,25.18,14.82,6.16,6.22,16,7.45,20.94,15.32a3.72,3.72,0,0,1-.68,2.83A3.27,3.27,0,0,1,213,535.53Z" transform="translate(-113.44 -236.53)"/><path class="cls-11" d="M449.45,514.74c6.36.58,6.14-8.84,12.52-8.23.44,11.78-11.71,12.3-17.33,18.67-2.91,3.31-5.89,6.23-7.58,10.33-1.51,3.89-5.78,2.25-8.29,4.14h0a2.9,2.9,0,0,1-4.17,0c.68-1.41,1.37-2.83,2.05-4.25C434.49,528.78,439.83,519.4,449.45,514.74Z" transform="translate(-113.44 -236.53)"/><path class="cls-12" d="M144.55,487.8l-2.1-4.11c-1.46-1.32-3.6-2-4.14-4.21,0-.66,0-1.32-.05-2a16.69,16.69,0,0,1-8.21-8.37h0a5.83,5.83,0,0,1-.86-7.38c3.23-2.59,4.53.39,6.26,2.15A243.76,243.76,0,0,0,159,491.32c3,3,7.34,5.57,6.74,10.95a1.83,1.83,0,0,1-2.55.11c-5.79-.33-7.67-6.42-12.37-8.36C148.76,491.9,147.32,489.18,144.55,487.8Z" transform="translate(-113.44 -236.53)"/><path class="cls-13" d="M482.65,317.66c4.25,0,5.1,3.87,5.41,6.38,2,15.82,11.16,30.92,5,47.58a5.86,5.86,0,0,1-2-2.47c-1.88-4.88.46-10.58-3-15.17-2.88-4.85-1.39-10.66-3.51-15.68C485.61,331.27,478.05,325,482.65,317.66Z" transform="translate(-113.44 -236.53)"/><path class="cls-14" d="M482.65,317.66c-.22,7.19,6,13,4.31,20.52a2,2,0,0,1,.58,1.69c-.1.6-.23.9-.37.9-5.05.37-4.22-4.29-5.87-6.83-.4-.84-.74-1.71-1.08-2.58-2.07-5.51-2.68-11.62-6.68-16.34a64.76,64.76,0,0,0-4.33-6.57c-.58-.66-1.11-1.35-1.65-2-2.61-3-6.3-5.5-4.86-10.38a3.65,3.65,0,0,1,1.93-1.84c4.33.21,3.77,4.61,5.81,6.79,5.59,2.89,5.36,11.1,11.94,13.09Z" transform="translate(-113.44 -236.53)"/><path class="cls-4" d="M117.47,427.7c-3.48-.61-4-3.09-4-6.08q.06-23.07,0-46.14c0-3,.61-5.45,4.12-6l0,0C121,373,120,377,119.41,381.15c-1.44,10.92-1.7,21.89.27,32.8a23.16,23.16,0,0,1,.76,5.43C120.26,422.44,120.26,425.58,117.47,427.7Z" transform="translate(-113.44 -236.53)"/><path class="cls-15" d="M370.7,240.87a5.72,5.72,0,0,0,1.89.14c3.17,2.34,7.37-.53,10.5,2.06l0,0c6.05,2.16,12.48,2.78,18.61,4.5,4.9,1.37,9.5,3.78,11,9.42a3.46,3.46,0,0,1-2.49,1.72A84.16,84.16,0,0,1,394,253.8c-7.27-3.69-15.17-5-23.13-6.18a19.35,19.35,0,0,1-3.11-.67c-3.89-1.87-9-.14-12.16-4.23a2.83,2.83,0,0,1,1.35-3C361.69,238.55,366.35,237.87,370.7,240.87Z" transform="translate(-113.44 -236.53)"/><path class="cls-16" d="M130.11,460.74q0,4.18-.07,8.37c-7-11.49-14.15-22.94-12.46-37.33,8,1.68,5.35,10.05,9.14,14.37a20,20,0,0,1,1.06,2.58c.89,3.53,2.51,6.9,2.51,10.65C130.24,459.83,130.17,460.29,130.11,460.74Z" transform="translate(-113.44 -236.53)"/><path class="cls-17" d="M126.08,349.17q2-12.65,4-25.28h0c2.39-2.26,1.45-6.19,4.14-8.31a30.79,30.79,0,0,0,0-4.9c-1.17-7.28,3-4.53,6.26-3.38,1.8,2.95.59,6.06.48,9.11-3.11,9.29-7.2,18.26-9.07,28C130.59,346.77,129.41,349.26,126.08,349.17Z" transform="translate(-113.44 -236.53)"/><path class="cls-18" d="M449.51,269.94c-9.48-.61-15.35-9.89-24.89-10.37-1.91.55-2.59-.16-2.09-2.06.32-1.7,1.3-4.41,2.68-3.52C433.36,259.23,444.92,259.35,449.51,269.94Z" transform="translate(-113.44 -236.53)"/><path class="cls-19" d="M495.09,388.17c2.8,17.62-4.42,34.45-4.11,51.87-1.56,1.61-.79,5-4.14,5.26a4.08,4.08,0,0,1-2.6-1.23c-.81-2.59.13-5,.83-7.4,1.86-7.49.45-15.48,3.42-22.81a19.56,19.56,0,0,1,1-3.1c1.18-4.67.26-9.45.82-14.13C490.67,393.25,489.58,388.74,495.09,388.17Z" transform="translate(-113.44 -236.53)"/><path class="cls-20" d="M422.53,257.51l2.09,2.06-.06,2.23c-5.85,3.43-9.3.29-12.14-4.47-4.48-6.94-11.9-8.45-19.12-10.33-3.56-.94-7.36-1.26-10.25-3.95,11.26,1,22.55,1.63,31.43,10.25C416.57,255.33,419.07,257.61,422.53,257.51Z" transform="translate(-113.44 -236.53)"/><path class="cls-21" d="M391.41,552.1c8-8.59,19.26-5.9,29-8.31C411.86,550.37,402,552.54,391.41,552.1Z" transform="translate(-113.44 -236.53)"/><path class="cls-22" d="M213,535.53h4.13c3.47-1.08,4.4.77,4.34,3.77,1.54,4,8.07,3.28,8.15,8.66C220,549.24,214.57,545,213,535.53Z" transform="translate(-113.44 -236.53)"/><path class="cls-23" d="M495.09,388.17c-3.68,4.4-1.75,9.63-2.09,14.51-.24,3.58,1.17,7.44-1.95,10.48-3.07-2.47-2.91-6-2.95-9.39-.13-11.17-.13-22.34,1.74-33.41a2,2,0,0,1,3.12-.59,4.82,4.82,0,0,0,.12,1.85C494.64,377,495.76,382.49,495.09,388.17Z" transform="translate(-113.44 -236.53)"/><path class="cls-24" d="M190,261.52l6.41.12c-.88,6.58-8.46,5.11-11.25,9.4-4.75,2.22-8.76,5.76-13.61,7.81a3.39,3.39,0,0,1-2.66-.82,3.2,3.2,0,0,1,.56-4A56.55,56.55,0,0,1,190,261.52Z" transform="translate(-113.44 -236.53)"/><path class="cls-7" d="M349.92,560.39c8.05-2.87,16.41-3.91,24.91-4.14.16,1.44,5.12,3.86-.57,4.08C366.16,560.64,358,560.4,349.92,560.39Z" transform="translate(-113.44 -236.53)"/><path class="cls-24" d="M161,282.29l4.22-4.07a2.73,2.73,0,0,1,4-.2l.36.37c-2,10-9.22,14.35-18,17.1a3.13,3.13,0,0,1-1.84-2.15,3.45,3.45,0,0,1,1.07-2.64h0C152.48,285.78,157.23,284.61,161,282.29Z" transform="translate(-113.44 -236.53)"/><path class="cls-25" d="M470.4,492a4.24,4.24,0,0,1,4,2.06c.09,7.2-5.33,8.8-10.67,10.48l-.32-.09c.62-3.52-.36-7.27,1.57-10.61C466.43,492.15,468,490.72,470.4,492Z" transform="translate(-113.44 -236.53)"/><path class="cls-26" d="M126.1,448.2c-5.77-3.95-4-11.84-8.52-16.42,0-1.36-.07-2.72-.11-4.08q.14-4.32.26-8.64C124,424.71,128.51,440.51,126.1,448.2Z" transform="translate(-113.44 -236.53)"/><path class="cls-27" d="M150.7,292.79c.06.73.11,1.47.17,2.2,2.69,7.13-1.15,10.58-7.19,12.81l-1.39-.71c-1.85-2.75.15-5.4.21-8.09C145.38,297.12,145.67,291.81,150.7,292.79Z" transform="translate(-113.44 -236.53)"/><path class="cls-28" d="M485.31,444.22l1.73.08c2.27,2.78,1.52,5.51-.12,8.23,0,1.37-.07,2.73-.1,4.1-3.91,1.57-5.3,5.57-8,8.32l-1.19-1.06C476.34,455.83,481.38,450.24,485.31,444.22Z" transform="translate(-113.44 -236.53)"/><path class="cls-27" d="M161,282.29c-2.08,4.44-6.85,5.58-10.25,8.4C149.47,282.11,155.11,282,161,282.29Z" transform="translate(-113.44 -236.53)"/><path class="cls-29" d="M163.15,502.38l2.27-.11c1.63-.55,2.18.21,2.1,1.73l4,6.6C163.26,513.45,163.32,507.79,163.15,502.38Z" transform="translate(-113.44 -236.53)"/><path class="cls-16" d="M130.05,469.12a20.19,20.19,0,0,1,8.21,8.37C131.92,478.23,129.16,475.47,130.05,469.12Z" transform="translate(-113.44 -236.53)"/><path class="cls-30" d="M138.31,479.48c2.68.13,4.08,1.51,4.14,4.21-1.81.37-2.75,5-5.25,1.36C136,483.33,133.1,480.33,138.31,479.48Z" transform="translate(-113.44 -236.53)"/><path class="cls-18" d="M457.8,276.17c-3-1.71-6.76-2.51-8.29-6.23C456.53,266.35,457.72,270.53,457.8,276.17Z" transform="translate(-113.44 -236.53)"/><path class="cls-17" d="M150.7,292.79c-3.53,1-3.82,6.3-8.2,6.21,2.31-3.22.74-10.31,8.28-8.3Z" transform="translate(-113.44 -236.53)"/><path class="cls-8" d="M486.92,452.53c0-2.74.07-5.49.11-8.23l4-4.26C490.69,444.55,492.47,449.73,486.92,452.53Z" transform="translate(-113.44 -236.53)"/><path class="cls-21" d="M424.59,539.64l4.17,0c-.75,5.43-5,3.81-8.3,4.13Z" transform="translate(-113.44 -236.53)"/><path class="cls-7" d="M285.62,564.54l-2-4.37a3,3,0,0,1,4.09.23l8.3,4.15Z" transform="translate(-113.44 -236.53)"/><path class="cls-4" d="M134.18,315.57c.19,3.55-.4,6.72-4.14,8.31C130.37,320.59,128.79,316.35,134.18,315.57Z" transform="translate(-113.44 -236.53)"/><path class="cls-27" d="M138.43,315.82a13.75,13.75,0,0,1,2-8.53,13.47,13.47,0,0,0,1.89-.2l.54.47C145.06,312.29,144.14,315.33,138.43,315.82Z" transform="translate(-113.44 -236.53)"/><path class="cls-16" d="M144.55,487.8q5.91.31,6.23,6.22C146.77,493.89,146,490.47,144.55,487.8Z" transform="translate(-113.44 -236.53)"/><path class="cls-27" d="M169.23,278l-4,.2c-2.12-4.9,1.57-4,4.16-4.16C169.36,275.38,169.29,276.7,169.23,278Z" transform="translate(-113.44 -236.53)"/><path class="cls-21" d="M428.77,539.65l8.29-4.14C436.32,540.93,432.05,539.31,428.77,539.65Z" transform="translate(-113.44 -236.53)"/><path class="cls-25" d="M476.48,489.88c.85-2.73-2-6.38,2.08-8.3C478.31,484.46,479.4,487.67,476.48,489.88Z" transform="translate(-113.44 -236.53)"/><path class="cls-31" d="M287.7,560.4l-4.1-.23a14.33,14.33,0,0,0-10.21-4c-4.53,0-9.28-.78-12.7-3.33-11.74-8.73-26.1-9.28-39.23-13.58l-4.34-3.77c0-.7,0-1.4.07-2.11,2.94-2.38,6-1.24,8.68.22,7.42,4.08,15.55,5.1,23.72,6.06,8.23,4,16,9.18,25.4,10.45,3.92,1.15,7.67,3,11.91,2.94,1.65.16,3.3.26,5,.38,15.25,4.95,30.44-1.8,45.67-.19,3.68.22,7.56-.3,10.34,3a234.13,234.13,0,0,1-46.73,4.24Z" transform="translate(-113.44 -236.53)"/><path class="cls-32" d="M347.87,556.27l-10.42-.13a2.72,2.72,0,0,1,.86-2.86c3.66-2.59,8.28-1.55,12.16-3.29,5.13-1.32,10.59,0,15.65-2,4.21-.46,8.35-2.61,12.7-.66a2,2,0,0,1,.25,2.87C369.12,554.57,358.47,555.27,347.87,556.27Z" transform="translate(-113.44 -236.53)"/><path class="cls-33" d="M449.45,514.74c-8.24,6.18-12.78,16.44-22.81,20.66l-4.11.07c6.63-6,14-11.16,19.52-18.27C443.89,514.85,446.69,514.69,449.45,514.74Z" transform="translate(-113.44 -236.53)"/><path class="cls-34" d="M420.31,535.35l2.2.14c-6.88,9.11-17.52,6.6-26.69,8.64-.25-.46-.49-.93-.74-1.4,2.6-7.66,11.05-5.16,15.79-9.12C414.3,532.66,417.52,532.86,420.31,535.35Z" transform="translate(-113.44 -236.53)"/><path class="cls-34" d="M379.07,550.21c0-.76-.08-1.53-.13-2.3.42-5.5,5.46-4.48,8.62-6.12,2.89-.44,5.69-.51,7.9,1.87l.36.47C390.87,547.92,385.46,550.4,379.07,550.21Z" transform="translate(-113.44 -236.53)"/><path class="cls-14" d="M412.42,257.33c4.33.74,7.23,5.33,12.14,4.47q13.74,7.72,27.46,15.45a27.92,27.92,0,0,1,12.16,13.28,3.14,3.14,0,0,1-.07,4.25l-.11.09-1.15.82a5.5,5.5,0,0,1-2.55-1c-4.09-3.37-6.47-8.86-12.35-10.05-8.07-6.29-17.62-10.24-25.84-16.27-2.52-2.06-5.68-2.88-8.51-4.33a11.85,11.85,0,0,1-2.28-1.57c-1.2-1.44-2.42-2.88-1.24-4.91Z" transform="translate(-113.44 -236.53)"/><path class="cls-35" d="M464.11,294.78c0-1.41.05-2.83.07-4.25,3.85,2.43,6.44,5.61,6.26,10.45Z" transform="translate(-113.44 -236.53)"/><path class="cls-26" d="M117.73,415.15c-4.51-11.29-1.88-22.9-1.41-34.4.15-3.75.84-7.48,1.28-11.21q2.18-2.06,4.37-4.09c2.38,2.38,2.25,5.3,1.78,8.29-2.1,7.85-3.73,15.56-2.53,24C122,403.49,122,410,117.73,415.15Z" transform="translate(-113.44 -236.53)"/><path class="cls-36" d="M121.51,373.52q.22-4,.46-8.07a36.37,36.37,0,0,0,4.11-16.28l4-4.52a5.93,5.93,0,0,1,2.24,3.71,36.9,36.9,0,0,1-4.42,21c-1.24,2.07-2.46,4.18-5.06,4.81Z" transform="translate(-113.44 -236.53)"/><path class="cls-37" d="M449.48,506.44c-6,6.67-13.73,11.17-20.7,16.63a3.32,3.32,0,0,1-4.27.31c-.27-.66-.59-1.62-.21-1.93,15.41-12.59,22.2-32.5,38-44.75,2.5-1.94,5.09-3.61,8.4-1.73a6.32,6.32,0,0,1,1.56,4.44c.63,5.49-1.92,9.26-6.45,12C457.9,493.72,454.8,501.29,449.48,506.44Z" transform="translate(-113.44 -236.53)"/><path class="cls-38" d="M424.6,523l4.18,0c-.68,5.57-8.6,6.16-8.47,12.29l-10.21.18c-.82-4.37,5.63-3.86,5.28-7.92C417.69,524.53,419.53,520.5,424.6,523Z" transform="translate(-113.44 -236.53)"/><path class="cls-39" d="M449.48,506.44c3.84-6.42,4.7-15.45,14.57-16.55,1.41,1.82.1,3.46-.31,5.17a8.27,8.27,0,0,1-1.53,2.26c-2.13,1.08-3.15,3.13-4.42,5Z" transform="translate(-113.44 -236.53)"/><path class="cls-40" d="M461.86,496.07c.08-.64.15-1.28.22-1.92,1.37-1.31,2.75-1.42,4.14,0,.17,3.74-.09,7.36-2.8,10.31l-1.5-4.18A2.87,2.87,0,0,1,461.86,496.07Z" transform="translate(-113.44 -236.53)"/><path class="cls-41" d="M461.86,496.07l.06,4.17-4.13,2.06C457.78,499.33,457.83,496.39,461.86,496.07Z" transform="translate(-113.44 -236.53)"/><path class="cls-42" d="M466.22,494.11l-4.14,0c.66-1.41,1.31-2.83,2-4.25,4.13-2.22,6.61-5.43,6.24-10.36,2.36-3.58-1.08-8.2,2.07-11.64a9.19,9.19,0,0,1,1.78-2.15,3.89,3.89,0,0,1,3.94-.67l.76-.12c-3.82,8.69-2.56,19-8.45,27Z" transform="translate(-113.44 -236.53)"/><path class="cls-43" d="M258.76,237l33.09-.21,55.79.26,8.56,3.73c0,.71,0,1.43,0,2.14-5.1,4.32-10.7,1.11-15.77.44a169.24,169.24,0,0,0-47,.07c-10.46,1.54-20.91-2.67-31.56.14-4.19,1.1-8.74,1.36-13,2.7a14.84,14.84,0,0,1-3.44,1.1c-3.64.35-7.33.81-10-2.55C242.14,239.07,251.62,241.55,258.76,237Z" transform="translate(-113.44 -236.53)"/><path class="cls-44" d="M183.83,269.6c2.36-5.53,8.51-5.08,12.55-8,5.77-.88,8.69-8.61,15.69-6.54,1.88-.33,2.79-3,5.18-2.11,2.36,3.45-.11,5.72-2,8.06-5.55,6.75-13.34,10.54-20.47,15.14-5.07,3.26-8.08-1.07-11.3-4A2.23,2.23,0,0,1,183.83,269.6Z" transform="translate(-113.44 -236.53)"/><path class="cls-45" d="M235.43,244.84l10.78.22c-1.6,7.68-4.34,8.61-15.73,5.37a2.41,2.41,0,0,1-.87-3.32Z" transform="translate(-113.44 -236.53)"/><path class="cls-43" d="M229.61,247.11v2.09c-3.23,4.07-6.87,7-12.41,4.19l-5.12,1.71C215.59,247.33,222.89,247.86,229.61,247.11Z" transform="translate(-113.44 -236.53)"/><path class="cls-46" d="M250.33,541.82c-12.24,1.91-22.31-4.73-33.14-8.4-6.89-4.91-16-6.55-21-14.26l1-1.27c4.22-2.49,8.65-2,12.79-.22,14,6,26.93,13.89,40.25,21.12A2.55,2.55,0,0,1,250.33,541.82Z" transform="translate(-113.44 -236.53)"/><path class="cls-47" d="M167.52,504l-2.1-1.73c-10.62-12.26-23.35-22.74-31.48-37.12l1.2-.87a5.61,5.61,0,0,1,2.85.53c12,7.82,18.66,21.72,32.16,27.95,3.69,1.7,2.06,6.09,2.56,9.34a4.38,4.38,0,0,1-1.27,2.54Z" transform="translate(-113.44 -236.53)"/><path class="cls-48" d="M171.44,504.64l.09-2.39c1.27-6.45,4.58-4.84,7.62-1.63,3.67,3.86,7.58,6.29,13.18,6.61,9.34.52,1.76,8,4.28,11.49l-.43.44A103.35,103.35,0,0,1,171.44,504.64Z" transform="translate(-113.44 -236.53)"/><path class="cls-36" d="M117.73,415.15c2.31-13.78-3-28.25,3.78-41.63l.34.24c3.73,3.41,2.66,8,2.78,12.18.12,4,.24,8,2.6,11.46,3.43,12.29-.41,25.42,4.39,37.56-.59,4.32-.59,8.55,1.9,12.41a23.15,23.15,0,0,1,1.16,2.77c1.23,4.93,3.73,9.9-.34,14.71l-.39.3c-1.29-1.47-2.56-2.94-3.84-4.41l0,.06c-1.62-4.11-2-8.63-4.12-12.57l.09,0c-1-10.23-6.64-19.12-8.37-29.14Z" transform="translate(-113.44 -236.53)"/><path class="cls-49" d="M491.1,369.37q0,21.9-.05,43.79v0c-1.88,1-.82,6.94-5.5,3.26a10.54,10.54,0,0,1-1.4-3.27c-1.86-20,.87-40.1-.55-60.15.74-4.24-.56-9,3.1-12.52.08-.76.17-1.51.26-2.27,3.84,4.29.22,10.44,3.71,14.82C493.05,358.4,492.36,363.88,491.1,369.37Z" transform="translate(-113.44 -236.53)"/><path class="cls-50" d="M491.1,369.37q-.23-8.19-.43-16.37c4.72,5,1.5,11.18,2.29,16.77C492.34,369.62,491.72,369.49,491.1,369.37Z" transform="translate(-113.44 -236.53)"/><path class="cls-51" d="M486.8,353l0,62.2c1.08,18.54-4.54,35.48-12.45,51.86h0c-2.31,2.3-2.59,5.62-4.14,8.31-8.78,5.4-17.33,10.8-21.37,21.25-4.57,11.84-15.74,18-24.26,26.45-4,.49-5.66,4-8.29,6.23-6.65,3-12.05,8.93-20.06,8.88-4.68.44-8.8.75-13,4.44C377,548.05,368,548,360,549.84c-1.06.1-2.11.16-3.17.17-9,1.43-18.47-1-27.11,3.34-12-3.62-23.86,4-35.91.74a11,11,0,0,1-3.14-.73c-5.57-2.94-11.7-3.66-17.8-4.54-8.25-1.2-16.14-3.31-22.49-9.17-7.37-4-15.59-4.67-23.26-10.37-7.5-5.58-18.26-13.36-30.5-10.56-1.22-5.45-2.5-9.92-10.26-9-2.53.3-6.89-3.29-8.72-7.33-1.57-3.45-4-2.66-6.09-.16-1.33-5.07-4.8-8.08-8.89-11.27-9.76-7.6-18.32-16.59-26.38-26-.64-5.72,1.65-12.17-4.15-16.6-2.52-3.84.59-8.62-2.08-12.43-7.19-11.81-3-24.88-4.16-37.36-4.14-9.68-1.51-19.36,0-29,2.1-6.75,4.5-13.43,4.26-20.66a23.26,23.26,0,0,0,1.63-2.05,11.81,11.81,0,0,1,3.39-4c.66-.61,1.34-1.19,2-1.81,2.78-7,4.52-14.25,6.69-21.4a15.43,15.43,0,0,1,1-4.25c1-2.33,2.8-3.89,4.64-5.46,4.13-6,9-11.51,12.21-18.13a4.62,4.62,0,0,1,2.22-1.7c4.18.65,7.22-.12,6.71-5.35,1.57-7.28,6.59-10.91,13.4-12.63.32-.14.64-.42.94-.39a29.73,29.73,0,0,0,16.4-3.09c6.77-3.58,12.47-8.15,15.87-15.19l12.41-4.19c5.45-1.71,12.76,4,16.6-4.14h0c5.23-1.6,10.53-2.57,16-1.68,11.72,4.39,23.4,4.7,35-.46,19.36-2.27,38.65-.71,57.91,1.11A57.56,57.56,0,0,0,375,247.18c3,.41,6.15.59,8.86,2.28,2.91,5.34,6.66,8.53,13.37,6.47,6.23-1.92,9.94,3.74,14.89,5.73h0c2.56,3.64,7.11,2.29,10.38,4.14q13.47,8.31,27,16.6c3.58,4.71,6.39,10.21,12.45,12.44h0c1.81,4.22.47,10.94,8.26,10.41,0,.68,0,1.35,0,2,2.1,2.53,1.75,6.51,4.94,8.39,1.86,5.44,6,10.22,4.78,16.57,0,.06,1.75-.84,2.69,0h0C485.07,338.92,483.61,346.41,486.8,353Z" transform="translate(-113.44 -236.53)"/><path class="cls-52" d="M482.68,332.21c-1.41.26-3.82,2.79-3.63,1.54,1-6.88-5.85-11.49-4.65-18.16-.53-.46-.7-.93-.52-1.39s.36-.69.53-.69C481.54,317.81,480.28,325.82,482.68,332.21Z" transform="translate(-113.44 -236.53)"/><path class="cls-52" d="M486.8,353c-6.35-5.93-3.4-13.71-4.12-20.76,3.24,1.83,1,6.33,4,8.25Q486.75,346.71,486.8,353Z" transform="translate(-113.44 -236.53)"/><path class="cls-53" d="M470.22,305.26c-13.55,5.1-6.17-6.42-8.26-10.41l2,0C462.94,300.21,467.3,302.31,470.22,305.26Z" transform="translate(-113.44 -236.53)"/><path class="cls-53" d="M474.41,313.51v2.08c-5.42-.75-3.82-5-4.13-8.31A6.46,6.46,0,0,1,474.41,313.51Z" transform="translate(-113.44 -236.53)"/><path class="cls-45" d="M262.81,245.06H246.22c10.55-6,22.3-6.47,33.54-4.69,10.25,1.62,19.67-1.77,29.58-1.78a242,242,0,0,1,46.87,4.36c4.16.67,8.78-1.44,12.46,2.08-3.47,2.9-7,2.54-10.47,0l-62.2,0A57,57,0,0,1,262.81,245.06Z" transform="translate(-113.44 -236.53)"/><path class="cls-54" d="M412.16,261.66c-6.81.35-13.31-7.07-20.74-1-.29.23-9.15-2.85-8.29-9.41,4.14-2.29,8.28-1.29,12.42,0,4.32,3.3,10.79,1.64,14.53,6.28Z" transform="translate(-113.44 -236.53)"/><path class="cls-45" d="M395.55,251.28H383.13c-2.21-2.93-5.43-1.82-8.31-2.08-.92-1.84-5.41-.1-4.14-4.14A67.87,67.87,0,0,1,395.55,251.28Z" transform="translate(-113.44 -236.53)"/><path class="cls-54" d="M370.68,245.06l4.14,4.14c-4.79,0-9.59,0-14.39,0-3.39,0-2.85-2-2.23-4.12l10.47,0C369.34,245,370,245,370.68,245.06Z" transform="translate(-113.44 -236.53)"/><path class="cls-26" d="M126,448.23c3.54,3.48,4.58,7.78,4.12,12.57C127,457.2,126,452.88,126,448.23Z" transform="translate(-113.44 -236.53)"/><path class="cls-55" d="M150.79,311.46l-4.17,4.13c-3,2.9-2.82,7.25-5,10.54-2.38,5.94-.59,12.63-3.32,18.5h-2.08a7.4,7.4,0,0,1-.41-7.47c-1.29,3.38-1.44,7.89-3.74,11.62-.65,0-1.31,0-2,.1,0-1.41-.07-2.82-.11-4.23-.4-10.54,5.22-19.33,8.39-28.83,3.28-1.78,4.29-4.78,4.4-8.26a19.16,19.16,0,0,0,8-12.57c7-4.62,13.66-9.73,18.72-16.6,4.68-3.05,8.17-8,14.24-8.78.06.81.11,1.63.16,2.45l-12.45,12.42c-1.37,3.93-4.88,5-8.3,6.23h0C158.84,297.48,153.22,303.51,150.79,311.46Z" transform="translate(-113.44 -236.53)"/><path class="cls-56" d="M474.38,467c-1.95-6.29,2.09-11.51,4.51-16.13,5.94-11.41,2.63-24.48,7.94-35.73,0,.72,0,1.44.07,2.16a43.74,43.74,0,0,1-.08,20.63c-.51,2.09-1,4.18-1.52,6.27.73,8-6.38,13.35-7.22,20.85Z" transform="translate(-113.44 -236.53)"/><path class="cls-23" d="M486.82,438q0-10.32.08-20.63l4.15-4.19C488.15,421.15,490.8,430.12,486.82,438Z" transform="translate(-113.44 -236.53)"/><path class="cls-57" d="M250.36,539.65c10.84,4.58,22.39,6.31,33.88,8.18,3.25.53,6.11,1,7.6,4.29.22,1.83-.88,3-2.06,4.14l-4.15,0c-2.84-3-6.95-2.71-10.4-4.11-9.71,0-17.82-3.92-24.9-10.31Z" transform="translate(-113.44 -236.53)"/><path class="cls-58" d="M289.78,556.26c.05-1.69.45-3.22,2.06-4.14h0c6,2.13,12.45,1.91,18.19.71,8.89-1.85,17.41,1,26.07.1l1.4,1.28c0,.65,0,1.3-.05,1.94C321.55,555,305.68,561.47,289.78,556.26Z" transform="translate(-113.44 -236.53)"/><path class="cls-58" d="M275.23,552.13c4,0,8.26-.62,10.4,4.11C281.94,555.42,278.17,554.83,275.23,552.13Z" transform="translate(-113.44 -236.53)"/><path class="cls-59" d="M360.31,548c3-4.57,8-.24,12.08-3,3.74-2.58,9.28-1.43,11.87-7.54,1.65-3.88,7.42-1.33,11.31-1.88,1.31,6.84-5.6,5.46-8.29,8.3l-8.34,4.1L366.53,550C363.57,552,361.73,550.59,360.31,548Z" transform="translate(-113.44 -236.53)"/><path class="cls-58" d="M360.31,548l6.22,2.06c-5.1,4.1-11.09,1.2-16.59,2.1-.12-.45-.25-.9-.37-1.35,2-3.61,6.32-.22,8.67-2.81Z" transform="translate(-113.44 -236.53)"/><path class="cls-58" d="M349.94,552.12c-3.65,3.65-8.28,1.44-12.44,2.08l0,0a2.17,2.17,0,0,1,.68-3.07c4.07-1.4,8.06-1.9,11.77,1Z" transform="translate(-113.44 -236.53)"/><path class="cls-60" d="M387.28,543.81l8.29-8.3c7.86,1.07,12.88-7.3,20.74-6.24,2.75,6.87-5.83,2.5-6.21,6.27-2.54,6.92-12,1.39-14.63,8.12Z" transform="translate(-113.44 -236.53)"/><path class="cls-53" d="M462,294.84c-8.61.32-12.73-3.86-12.45-12.44C456.4,283.79,459.13,289.36,462,294.84Z" transform="translate(-113.44 -236.53)"/><path class="cls-54" d="M422.54,265.8c-3.69-.81-9,2.35-10.38-4.14C415.82,262.53,419.64,263,422.54,265.8Z" transform="translate(-113.44 -236.53)"/><path class="cls-55" d="M125.89,369.54c3.28,9.68-1.67,19.36,0,29-8.25-7.16-2.38-16.6-4-24.82C123.2,372.35,124.54,370.94,125.89,369.54Z" transform="translate(-113.44 -236.53)"/><path class="cls-56" d="M470.23,475.34c-.17-3.55.42-6.71,4.14-8.31-1.45,4.14-1.08,8.87-4.09,12.49C470.27,478.13,470.25,476.73,470.23,475.34Z" transform="translate(-113.44 -236.53)"/><path class="cls-61" d="M132.11,448.37c12.1,2.85,4.92,10.53,4.15,16.6-.64,0-1.29-.05-1.93-.12Q133.23,456.62,132.11,448.37Z" transform="translate(-113.44 -236.53)"/><path class="cls-61" d="M130,435.94c8.41,2.85,1.65,8.24,2.08,12.43C128.05,444.79,127.06,440.69,130,435.94Z" transform="translate(-113.44 -236.53)"/><path class="cls-62" d="M279.39,377.83c-4.93-7.36-1.78-8.59,5.62-8.44,14.7.29,21.32,6.65,19.08,21.26-1.07,7,4,13.61.2,20.38-1.72,2.76-1.49,5.52,0,8.29-.6,7.31,6.65,13.05,4.16,20.75-1.58,3.49-4.24,4.16-7.63,2.93-6.43-6.58-2.51-14.86-3.66-22.3-.18-13.35-1.82-26.62-2.5-39.91-.41-.8-.79-1.63-1.19-2.4-4.91-2.41-2.91,2.69-4.33,4-1.42,16.75-.86,33.53-2.27,50.3-1.93,22.85,4.07,27.56,26.53,25.08,9.32-.75,5.09-9,7.48-13.58,2.67.46,6.21-1.92,6.58,4.09.24,3.83,4.25,6.9-1.52,10.36-2.53,1.51-1.08,7.21-7.44,6.52-12.94-1.43-27,3.11-38.29-6.35-5.9-5-7.48-13.57-4.16-19.8,4.29-8,2.71-15.89,3.35-23.87-5.17-10.72-4.47-18.7,3-34.51.1,1.29-.47,3.35-1.32,3.19C277,383.08,277.82,380.47,279.39,377.83Z" transform="translate(-113.44 -236.53)"/><path class="cls-63" d="M362.37,494c-1.79,10.55-6.39,20.81-16.26,24.08-8.36,2.76-19,3.52-26.19-6.29-6.16-8.41-3-34.24,5.26-41,4.73-3.86,4.57,1.32,6.54,2.64,1.58,2.5.47,4.72-.7,6.93-3.82,5.78-7.2,11.7-6.22,19.05.54,2.62,1.27,5.15,3.12,7.2.6.66,1.17,1.35,1.74,2,7.82,6.32,12-1.75,17.44-4.46.63-.65,1.31-1.24,2-1.83A18.54,18.54,0,0,0,354,496c1.32-2.23,3.08-3.71,5.85-3.46A6.09,6.09,0,0,1,362.37,494Z" transform="translate(-113.44 -236.53)"/><path class="cls-64" d="M357.54,402.44c-2.22-1.22-7,3.08-9.24-1.84-3.6-7.94-.37-15.31,4.87-20.68,1.79-1.82,8.44-.38,12.62,0s8.29,3,12.67,4.27c3.39,1,7.16,4.79,1.93,10.25C374.14,401,367.3,403.7,357.54,402.44Z" transform="translate(-113.44 -236.53)"/><path class="cls-65" d="M208.87,398.58c-.87-6.06,1.35-11.23,4-16.56,2.95-5.94,4.87-5.56,11.88-4.27,8.84,1.62,11.2,10.26,18.86,11.23,2.79.35,1.29,2.36,1.45,3.91.95,8.78-4,16-5.25,26.07-4.51-6.67.9-10.36.58-14.71-2.34-1.7-4.09,4.72-6.62.56a6.56,6.56,0,0,1-1.51-2.14c-.75-2.78.56-6-1.7-8.44-5.25-2.29-10.52-5.93-15.3.74a12.66,12.66,0,0,1-1.48,2.34C212.36,398.57,210.94,399.85,208.87,398.58Z" transform="translate(-113.44 -236.53)"/><path class="cls-66" d="M279.39,377.83c.22,1.32.4,3.77.65,3.78,2.46.07.78-2.61,3.53-3.37-5.28,12-4.23,24.51-4.17,36.94-4.26.07-9.76-.05-8-5.92,2-6.67-9.87-5.08-5.71-11,2.78-4,5.7-7.19,5.68-12.56C271.37,381.09,274.7,378.39,279.39,377.83Z" transform="translate(-113.44 -236.53)"/><path class="cls-67" d="M300.13,419.33c1.07,7.57-2.26,15.55,2.09,22.82,2.37,2.46,6.15-1,8.38,2l10.28.08c3.43,6.73,3.27,12.56-4.14,16.58a4.15,4.15,0,0,1-1.29-2.11,25.56,25.56,0,0,1,.41-4.87,6.15,6.15,0,0,0-1-3.27c-5.41-3.43-13.11.45-17.67-5.59a10.05,10.05,0,0,1-1.39-2.92c-.49-7.45-2-14.94,1.28-22.16A2.23,2.23,0,0,1,300.13,419.33Z" transform="translate(-113.44 -236.53)"/><path class="cls-68" d="M262.81,245.06H296c-.42,2.8-2.07,4.11-4.87,4.11H267.68C264.88,249.17,263.22,247.86,262.81,245.06Z" transform="translate(-113.44 -236.53)"/><path class="cls-57" d="M337.52,552.13c0,.68,0,1.36,0,2-12,0-24,.07-36,0-3.3,0-6.94,1-9.66-2,7.83-.85,16,1.93,23.45-3.52,5-3.63,8.6,4.6,13.88,3.5C332,550,334.75,549.53,337.52,552.13Z" transform="translate(-113.44 -236.53)"/><path class="cls-59" d="M337.52,552.13l-8.35,0c.79-4.85,4.58-4.09,7.85-4.11,7.08-.06,14.15,0,21.22,0l-8.32,4.13Z" transform="translate(-113.44 -236.53)"/><path class="cls-44" d="M150.79,311.46c-.16-9.5,4.49-16.12,12.45-20.75C163.19,300.09,155.87,305.1,150.79,311.46Z" transform="translate(-113.44 -236.53)"/><path class="cls-69" d="M138.34,344.63c.93-6.89-2.15-14.18,2.07-20.74,1.89-1.66,2.3-5.52,6.2-4.14C143.29,327.86,143.31,337.08,138.34,344.63Z" transform="translate(-113.44 -236.53)"/><path class="cls-70" d="M208.87,398.58l4.46-1.84c6.13,4,14,1.54,20.15,5.41l.28,2.66C224.74,405.62,214.83,410,208.87,398.58Z" transform="translate(-113.44 -236.53)"/><path class="cls-44" d="M163.24,290.71c1.53-3.73,5.25-4.54,8.3-6.23,2.57,2.46,4.11,4.37.55,7.9C167.61,296.81,165.86,292.8,163.24,290.71Z" transform="translate(-113.44 -236.53)"/><path class="cls-71" d="M335.2,473c6.25-3.58,12.38-1.42,18.51.41,2.38,1.53,5.66,2.37,4.85,6.34a6,6,0,0,1-2.53,1.39c-3.59.52-6.4-1.23-9.13-3.17-2-1.9-4.64-2.11-7.23-2.38a8.15,8.15,0,0,1-3.73-1.45C335.69,473.78,335.45,473.39,335.2,473Z" transform="translate(-113.44 -236.53)"/><path class="cls-72" d="M358.15,479.51l-4.44-6.09c13.14,2.55,7.35,13.07,8.66,20.59l-2.33-.1C356.56,489.48,357,484.55,358.15,479.51Z" transform="translate(-113.44 -236.53)"/><path class="cls-69" d="M132.11,348.78c.78-4,1.57-8,2.45-12.51,3,2.73,1,5.8,1.7,8.36Z" transform="translate(-113.44 -236.53)"/><path class="cls-73" d="M310.6,444.15c-2.92-.15-6.13.94-8.38-2l6.23-2.08C311.87,440,311.61,441.87,310.6,444.15Z" transform="translate(-113.44 -236.53)"/><path class="cls-44" d="M146.61,319.75l-6.2,4.14c.72-3.78,1.37-7.61,6.21-8.3C146.62,317,146.61,318.36,146.61,319.75Z" transform="translate(-113.44 -236.53)"/><path class="cls-73" d="M304.29,419.32c-2.06-2.77-4.22-5.53,0-8.29Z" transform="translate(-113.44 -236.53)"/><path class="cls-71" d="M328.66,479.3l3.06-5.85,3.48-.44.42.55C335.67,478.36,334.76,482,328.66,479.3Z" transform="translate(-113.44 -236.53)"/><path class="cls-74" d="M316.6,458.31c0,.83.09,1.67.14,2.5-3.42.34-6.86.51-10.24,1.05-11.58,1.84-21.18-3.17-21.92-14.59-1.45-22.52.37-45.12,2.89-67.58l1.35,1.14c3.84,19.39,1.84,38.95,1.47,58.44-.08,4.18-.68,8.18,2,11.77,2.89,2.87,6,5.28,10.47,4.71a43,43,0,0,1,4.68.07C310.64,456.05,314,455.67,316.6,458.31Z" transform="translate(-113.44 -236.53)"/><path class="cls-73" d="M300.13,419.33l-2.41.12a2.44,2.44,0,0,1-3.1-1.16,11.3,11.3,0,0,1-1.47-5.35c-.25-8.21-.18-16.42-.08-24.63,0-3.7-.39-7.63,2.92-10.46C300.15,391.4,298.68,405.51,300.13,419.33Z" transform="translate(-113.44 -236.53)"/><path class="cls-75" d="M296,377.85q.08,18.66.16,37.32c-8.1,1.93-6.14-4-5.93-8,.51-9.88,1.81-19.76-.92-29.54,1.54-3.94,3.67-4.41,6.44-1.09A1,1,0,0,0,296,377.85Z" transform="translate(-113.44 -236.53)"/><path class="cls-74" d="M295.74,376.56c-2.17-.61-4.53-2.06-5.86,1.26.58,1.75-.31,2.31-1.88,2.32l-.52-.45c.32-2.93.1-6.41,3.79-7.25C294.13,371.79,295.26,374.08,295.74,376.56Z" transform="translate(-113.44 -236.53)"/><path class="cls-73" d="M303,432.11c1.43,2,1.74,3.9.49,5.86C301,436.08,303,433.93,303,432.11Z" transform="translate(-113.44 -236.53)"/><path class="cls-76" d="M328.66,479.3c4.32.52,5.09-3.28,6.95-5.74l3.93-.12c2.23,3,5.66.76,8.32,1.9,2.11,2.66,5,3.76,8.25,4.21.56,4.36-2.83,4.5-5.61,5.3-3.5.07-7.16-1.51-10.41,1a32.67,32.67,0,0,0-4.85,6.21c-1.17,3-4,5.75-.81,9.21,2.57,2.78,5.46,6.47,2.3,9.69-3.36,3.41-6.76-.36-9.81-2.31l.05.05c-2-2.5-2.24-5.93-4.34-8.39C320.21,492.05,323.23,485.33,328.66,479.3Z" transform="translate(-113.44 -236.53)"/><path class="cls-77" d="M326.92,508.67l9.86,2.15c-3.9-7.2-11.41-13.52-3.28-20.9,2.41,5.39,7.51,4.84,12.08,5.47,1.71,2.92,2,6.55,4.47,9.09-3.39,4.4-8.11,7.14-13,9.2C332.33,515.66,328.5,514,326.92,508.67Z" transform="translate(-113.44 -236.53)"/><path class="cls-78" d="M350.05,504.48c-8,.25-6-4.47-4.5-9-.92-3.82,1.29-6.82,2.57-10.07a5,5,0,0,1,1.94-1.79l6.05-4.08,2,0c4.7,4.27,2,9.5,1.89,14.4-2.53.29-3.5,2.17-4.3,4.22-1.9,2.13-7.18,1.22-5.73,6.37Z" transform="translate(-113.44 -236.53)"/><path class="cls-77" d="M350,504.5c-2.21-5.84.87-6.9,5.73-6.37A8.88,8.88,0,0,1,350,504.5Z" transform="translate(-113.44 -236.53)"/><path class="cls-77" d="M322.63,500.33c3.14,1.92,4.21,4.91,4.34,8.39A8.83,8.83,0,0,1,322.63,500.33Z" transform="translate(-113.44 -236.53)"/><path class="cls-79" d="M370.16,393.16c-1.57,3.87-4.5,5.93-8.73,5.69-2.85-.16-4.39-1.91-3.9-4.86.67-4,3.13-6,7.19-5.79C367.81,388.34,370,389.57,370.16,393.16Z" transform="translate(-113.44 -236.53)"/><path class="cls-80" d="M233.48,402.15c-7.06-.52-16.06,6.16-20.15-5.41l-.16,0c5-11.17,13.24-4.79,20.48-3.83C236.26,396,233.77,399.06,233.48,402.15Z" transform="translate(-113.44 -236.53)"/><path class="cls-81" d="M233.65,392.87c-6.89.92-14.92-4.2-20.48,3.83-1.7-6.68,2.45-8.64,7.64-8.2C225.25,388.87,230.2,389,233.65,392.87Z" transform="translate(-113.44 -236.53)"/><path class="cls-82" d="M288,380.14c.62-.78,1.25-1.55,1.88-2.32,8.26,8.74,3.09,19,3,28.61,0,3.67-2.65,7.58,3.28,8.74l.09,3.52c2.48,8.36-1.21,17.2,2,25.5l-.08-.13c2.57,5.69,7.68,4.51,12.14,4.06,3.43-.36,6.58-1.16,8.78,2.38l-.43,4.1c-3.24,3.93-8.5,2-12.33,4.26l-4.11-.12c-3.31-2.53-7.41-2.77-11.21-3.87-5-3.58-4.29-8.87-4.19-14Q287.4,410.52,288,380.14Z" transform="translate(-113.44 -236.53)"/><path class="cls-83" d="M319.09,450.5c-3.51-2.57-7-.42-10.61-.18-4.74.33-9.88.75-10.31-6.26,4.11,2.93,8.79,2.47,13.43,2.3C314.92,446.23,318.52,445.64,319.09,450.5Z" transform="translate(-113.44 -236.53)"/><path class="cls-75" d="M298.25,444.19c-4.78-8.17-1.32-17-2-25.5a5.46,5.46,0,0,0,1.48.76Q298,431.83,298.25,444.19Z" transform="translate(-113.44 -236.53)"/><path class="cls-83" d="M306.33,458.86c3.49-3.2,8.28-2.68,12.33-4.26l-2.06,3.71Z" transform="translate(-113.44 -236.53)"/><path class="cls-78" d="M347.86,475.34c-3.18,1.13-6.88,4.54-8.32-1.9C342.44,473.51,345.61,472.43,347.86,475.34Z" transform="translate(-113.44 -236.53)"/><path class="cls-83" d="M291,454.87c4.28-.28,8.78-1.21,11.21,3.87A15.6,15.6,0,0,1,291,454.87Z" transform="translate(-113.44 -236.53)"/><path class="cls-84" d="M349.79,486l-4.24,9.45c-11.22,5.52-11.81,5.25-12.05-5.57l4.14-5.66C342.17,481.57,346.38,481.06,349.79,486Z" transform="translate(-113.44 -236.53)"/><path class="cls-71" d="M349.79,486c-3.59-3.73-7.85-2.89-12.15-1.79,3.92-4.45,8.13-3.46,12.42-.62Z" transform="translate(-113.44 -236.53)"/><path class="cls-75" d="M292.83,447.64c-1.13-4.47-1.45-7-.11-9.76C294.64,440.72,294.09,443.37,292.83,447.64Z" transform="translate(-113.44 -236.53)"/></svg>