<svg id="Layer_1" data-name="Layer 1" xmlns="http://www.w3.org/2000/svg" viewBox="0 0 383.02 342.82"><defs><style>.cls-1{fill:#f7f6e9;}.cls-2{fill:#f7f4e6;}.cls-3{fill:#f7f5e0;}.cls-4{fill:#f6f5e7;}.cls-5{fill:#f3f5d9;}.cls-6{fill:#f6f5f1;}.cls-7{fill:#f0f2d2;}.cls-8{fill:#f1f1cb;}.cls-9{fill:#f7f6dd;}.cls-10{fill:#f5f3d5;}.cls-11{fill:#f5f4da;}.cls-12{fill:#e3e6a5;}.cls-13{fill:#f3f4d7;}.cls-14{fill:#eff2d0;}.cls-15{fill:#f6f5e6;}.cls-16{fill:#f2f3d2;}.cls-17{fill:#eff1cd;}.cls-18{fill:#f6f6e5;}.cls-19{fill:#e7eab8;}.cls-20{fill:#f8f5e6;}.cls-21{fill:#f5f6e5;}.cls-22{fill:#f0f2d1;}.cls-23{fill:#f3f4d9;}.cls-24{fill:#f3f4cf;}.cls-25{fill:#dfe498;}.cls-26{fill:#f6f6e4;}.cls-27{fill:#f6f5d6;}.cls-28{fill:#f2f2d5;}.cls-29{fill:#f7f6e3;}.cls-30{fill:#ebedba;}.cls-31{fill:#f3f5d7;}.cls-32{fill:#e3e7a9;}.cls-33{fill:#f2f0c9;}.cls-34{fill:#f7f6db;}.cls-35{fill:#f3f3d7;}.cls-36{fill:#f6f6d9;}.cls-37{fill:#f7f4de;}.cls-38{fill:#f5f5e0;}.cls-39{fill:#eef2c7;}.cls-40{fill:#f6f6dc;}.cls-41{fill:#e7eab2;}.cls-42{fill:#f1f2c7;}.cls-43{fill:#dee394;}.cls-44{fill:#e2e7ab;}.cls-45{fill:#dde399;}.cls-46{fill:#f0efcc;}.cls-47{fill:#e1e5a2;}.cls-48{fill:#edeec2;}.cls-49{fill:#eaeebe;}.cls-50{fill:#edefc9;}.cls-51{fill:#dfe597;}.cls-52{fill:#f2f2ca;}.cls-53{fill:#e0e4a2;}.cls-54{fill:#e1e6a8;}.cls-55{fill:#e3e7b1;}.cls-56{fill:#e3e7b0;}.cls-57{fill:#dde288;}.cls-58{fill:#dfe3a0;}.cls-59{fill:#e1e59b;}.cls-60{fill:#e4e7a9;}.cls-61{fill:#dfe395;}.cls-62{fill:#e4e8b1;}.cls-63{fill:#e0e39a;}.cls-64{fill:#dce282;}.cls-65{fill:#dce385;}.cls-66{fill:#e2e7b0;}.cls-67{fill:#e0e6a8;}.cls-68{fill:#dde496;}.cls-69{fill:#e1e8aa;}.cls-70{fill:#e2e5ad;}.cls-71{fill:#ececd6;}.cls-72{fill:#e8eab2;}.cls-73{fill:#dde297;}.cls-74{fill:#e1e6a2;}.cls-75{fill:#e4e6ac;}.cls-76{fill:#dfe69b;}.cls-77{fill:#e4e8b2;}.cls-78{fill:#e6ebb8;}.cls-79{fill:#dce387;}.cls-80{fill:#dde58e;}.cls-81{fill:#e0e6a7;}.cls-82{fill:#e3e8b3;}.cls-83{fill:#dfe5a1;}.cls-84{fill:#e0e598;}.cls-85{fill:#eff1ca;}.cls-86{fill:#f3f2d6;}.cls-87{fill:#dee38c;}.cls-88{fill:#dde392;}.cls-89{fill:#dfe5a4;}.cls-90{fill:#dee48d;}.cls-91{fill:#e0e59a;}.cls-92{fill:#dee4a6;}.cls-93{fill:#dde49f;}.cls-94{fill:#dde493;}.cls-95{fill:#dce194;}.cls-96{fill:#dce393;}.cls-97{fill:#e5e8b1;}.cls-98{fill:#dbe290;}.cls-99{fill:#e0e69d;}.cls-100{fill:#dce57e;}.cls-101{fill:#dee386;}.cls-102{fill:#dde389;}.cls-103{fill:#dce489;}.cls-104{fill:#dce184;}.cls-105{fill:#d7dd8c;}.cls-106{fill:#dce591;}.cls-107{fill:#dee48c;}.cls-108{fill:#4a4b17;}.cls-109{fill:#d9de86;}.cls-110{fill:#d8dd8d;}.cls-111{fill:#dfe394;}.cls-112{fill:#dee395;}.cls-113{fill:#dce284;}.cls-114{fill:#dbe296;}.cls-115{fill:#dce28e;}.cls-116{fill:#dde39a;}.cls-117{fill:#dee598;}.cls-118{fill:#dce384;}.cls-119{fill:#dbe481;}.cls-120{fill:#ced08e;}.cls-121{fill:#d8de89;}.cls-122{fill:#d6db95;}.cls-123{fill:#dde58d;}.cls-124{fill:#e4e7a8;}.cls-125{fill:#3c3d09;}.cls-126{fill:#4e4e20;}.cls-127{fill:#d1d58d;}.cls-128{fill:#dde57c;}.cls-129{fill:#cccf88;}.cls-130{fill:#2b2910;}.cls-131{fill:#cfd590;}.cls-132{fill:#ced095;}.cls-133{fill:#363518;}.cls-134{fill:#242205;}.cls-135{fill:#2e2b0e;}.cls-136{fill:#363311;}.cls-137{fill:#35340b;}</style></defs><path class="cls-1" d="M465.48,330.68c4.9.77,3.92,4.61,4,7.81.1,3.56,0,7.13,0,12.73,5.78-4.26,10.5-6.49,5.89-12.59-3.48-4.61-1-8.14,2.62-9.89,5-2.44,2.77,3.77,4.88,5.3,3.1,2.25,2.72,5.83,2.72,9.19,0,18,1,36.09-.34,54-1,13.24,5.66,25.13,4.35,38.1-4.36.43-4.38-3.5-6-5.87-3.93-8.15-5.61-17-7.77-25.67a23,23,0,0,1-.86-4.26c.53-8.31-7.66-11.08-10.86-17a12.7,12.7,0,0,1-1.3-4.36,102.57,102.57,0,0,1-.16-12.52,18.15,18.15,0,0,1,1-5.89c2.94-5.83,1.18-11.62-.19-17.42a19.09,19.09,0,0,1-.61-4.45C462.85,335.14,463.35,332.61,465.48,330.68Z" transform="translate(-107.36 -253.24)"/><path class="cls-2" d="M135.58,407.28c-3.25-12.14-2.54-24.37-1-36.67.68-5.6.69-11.29,1-16.93.24-4.76-1.54-10.35,5.92-11.69,2.22-.39,1.93-3.16,2.13-5.14.29-2.88-1.19-7.27,2-8.08s6.18,2.35,8.42,5.18c2.65-2,.67-7.38,5.66-7.3a7.77,7.77,0,0,1,2.37,4.24,11.18,11.18,0,0,1-1.41,7.83,7.74,7.74,0,0,1-3.84,2.28c-5.33-.09-6.85,3.21-6.9,7.83-10.13,17-9.67,36-9.91,54.77a8.49,8.49,0,0,1-1.39,3A2.33,2.33,0,0,1,135.58,407.28Z" transform="translate(-107.36 -253.24)"/><path class="cls-3" d="M268.32,258.25c22.23-7.46,45.21-2.4,67.78-4.17a52.51,52.51,0,0,1,32.81,8.19,3.53,3.53,0,0,1,.24,4.47A6.28,6.28,0,0,1,366.2,268a64.33,64.33,0,0,0-21.78-3.12c-6.7-1.61-13.06-5-20.3-3.77-11.83-1-23.62,2.75-35.5.12-5.44-1.2-10.08,2.94-15.39,3.28a7.63,7.63,0,0,1-4.85-1.53A3.51,3.51,0,0,1,268.32,258.25Z" transform="translate(-107.36 -253.24)"/><path class="cls-4" d="M139.53,459.47c-3-.11-6.49.77-8.48-1.84-3.22-4.21-6-5.26-11.25-2.67-4,2-8.8.67-8.47-5.89a9,9,0,0,0-.38-3c-1-3.32-6.77-6.83-1.2-9.93,5.29-2.94,4.86,3.39,6.76,5.94,1.18,1.58,3,2.84,5.15,2.08,1.93-.68,1.71-2.64,1.73-4.24.06-5.66,0-11.32.07-17,.05-3.2-.84-7,4-7.78a10.69,10.69,0,0,1,2.79,7.71c-.18,11.28-1.69,22.89,9.05,31.09C140.89,455.22,141,457.58,139.53,459.47Z" transform="translate(-107.36 -253.24)"/><path class="cls-5" d="M284.41,576.17c-1.33-5.92-6.15-3.84-9.69-3.92-10.48-.24-21,.74-31-4.08-2-1-3.33-1.84-3.69-4,3.23-3.75,7.76-2.54,11.82-3.1,6.32.28,12.68-.2,19,.73,6.44,2.55,13.08,4.62,19.43,7.48,3.17,1.42,6,2.76,7,6.4a3.88,3.88,0,0,1-.84,3C292.18,579.09,288.07,578.7,284.41,576.17Z" transform="translate(-107.36 -253.24)"/><path class="cls-6" d="M268.32,258.25c0,1.34,0,2.67,0,4-2,7.55-6.4,7.64-12.08,4-4.58-7.49-10.56-4.34-16.12-1.8-2.25,1-4.19,2.22-6.4.74-1.52-1-1.66-2.81-1-4.49,1.1-2.84,3.69-2.39,5.94-2.47,5.56-.18,10.75-.32,16.2-3.13C258.38,253.32,265.35,250.87,268.32,258.25Z" transform="translate(-107.36 -253.24)"/><path class="cls-7" d="M139.53,459.47c-.16-.64-.09-1.59-.49-1.88-12.19-8.66-12.75-21.21-11.58-34.35,1.75-2.48,1.3-6.06,4-8.08l2.21-2c3.88.12,3.36,2.94,3.36,5.44-3.08,8.71-7.83,17.44.16,26.1,4.83,7.37,12.55,13.12,12.9,23,.15,2.63,0,5.19-1.66,7.42-4.42,2.58-3.14-2.55-4.87-3.61C145,466.59,140.68,463.56,139.53,459.47Z" transform="translate(-107.36 -253.24)"/><path class="cls-8" d="M485.61,429.28l4,6.05c0,2.66-.41,5.41.08,8,2.88,15.13-4,27.16-12.62,38.28-2.58,3.31-3.14,8.21-7.57,10.08-2.31-1.88-2.44-4.44-2.26-7.1a22.6,22.6,0,0,1,1.63-5.82,11.15,11.15,0,0,1,3.36-4.71c3.72-2.25,6-5.79,8.32-9.32,3.3-7.46,5.17-15,2.89-23.26C482.35,437.42,481.86,432.8,485.61,429.28Z" transform="translate(-107.36 -253.24)"/><path class="cls-9" d="M425.27,536c-1.37,10.87-11.13,19-24.16,20.06-2,2-4.43,2.17-7,1.37a3.77,3.77,0,0,1-2-2.2,4.43,4.43,0,0,1,1.39-4.11c9.18-4.28,19.57-6.33,26.46-14.83A3.52,3.52,0,0,1,425.27,536Z" transform="translate(-107.36 -253.24)"/><path class="cls-10" d="M465.49,503.73c-.18,2,.34,5.21-.64,5.75-12.68,7.08-21.34,20.9-37.31,22.41l-1-1c-.53-2.14.5-3.5,2.25-4.51,2.73-1.16,6-1.27,7.95-4,4.82-8.49,14.78-9.91,21.53-15.76C460.63,505.53,462.21,502.5,465.49,503.73Z" transform="translate(-107.36 -253.24)"/><path class="cls-11" d="M256.23,266.29c4.54.21,9.08.4,12.08-4h4c.06,8.29-5.76,11-12.37,12.48-3.77.86-7.83.22-11.57,1.64-5.29.53-10.48,3.22-15.91.76a2,2,0,0,1-.42-2.84c.41-2.65,2-4,4.64-3.93C243.54,270.56,250.34,270.61,256.23,266.29Z" transform="translate(-107.36 -253.24)"/><path class="cls-12" d="M425.27,536c-9.49,7.69-18.62,16.12-32,16.18-.32-.35-.63-.7-1-1,1.49-10,11.35-8.07,17.1-12,.76-.46,1.55-.87,2.33-1.27,2.83-1,3.09-4,4.57-6.05a7,7,0,0,1,2.35-1.63c3.09-.91,5.93-.66,8.31,1.76l.53-.05Q426.41,533.94,425.27,536Z" transform="translate(-107.36 -253.24)"/><path class="cls-13" d="M183.78,540c-11.9-6.59-16.87-16.86-16.06-30.21,4.62-.94,5.57,2.61,6.5,5.66a37.19,37.19,0,0,0,11,17.19c3.65,5.34,11.09,3.12,15.17,7.6a2.42,2.42,0,0,1-1.22,2.62C193.88,542.74,188.29,544.27,183.78,540Z" transform="translate(-107.36 -253.24)"/><path class="cls-14" d="M175.71,310.51c6.75-7.29,11.27-17.94,24.11-16.13l.86,1.06a3.78,3.78,0,0,1-1,3.71c-4.25,2-8.64,3.89-11.18,8.26-4.52,3.64-9.08,7.24-11.5,12.77-2.55,3.23-3.22,9.21-9.71,6.65a3.41,3.41,0,0,1,.38-4.21h0C170.16,318.45,171.62,313.61,175.71,310.51Z" transform="translate(-107.36 -253.24)"/><path class="cls-15" d="M328.67,592.28c-13,2.05-23.64-2.26-32.21-12.06l1.13-1c6-2.77,10.43,1,15.2,3.46,2.54,2.47,5.7,3,9.07,2.84,2.61.12,5.15.43,7.17,2.32A3.64,3.64,0,0,1,328.67,592.28Z" transform="translate(-107.36 -253.24)"/><path class="cls-16" d="M381,274.27c8.29,7,20,1.52,28.6,8,1.64,1.23,3.28,1.94,3.58,4.12a6.14,6.14,0,0,1-4.35,2.1c-6.85-1-13.31-3.64-20.41-4-5.15-.24-9.32-3.42-10-9.39A1.61,1.61,0,0,1,381,274.27Z" transform="translate(-107.36 -253.24)"/><path class="cls-17" d="M252.28,564.06l-12.21.11c-7.8.05-15.85.74-20.06-8.1a6,6,0,0,1,4.41-2.12c7.11,1,14,3.18,20.93,4.74C248.25,559.33,252.21,559.42,252.28,564.06Z" transform="translate(-107.36 -253.24)"/><path class="cls-18" d="M368.92,576.18c.31,3-4.57,4.6,0,9.63,4.1,4.52-3.25,6.48-8.06,6.47-.34-3.18,1.26-7.32-4-8-.17-.41-.35-.83-.52-1.25a6,6,0,0,1,1.72-3.63,14.6,14.6,0,0,1,2.15-1.7c2.38-1.32,4.6-3.18,7.64-2.34Z" transform="translate(-107.36 -253.24)"/><path class="cls-19" d="M183.78,533.94C177.2,530.2,174,524,172,517.12c-.86-3-1.08-5.94-4.31-7.37,0-.65-.05-1.29-.09-1.94-1.15-1.36-.93-2.67.14-3.95,6.24-.8,7.76,4.08,9.53,8.27,1.42,3.35,2,7.06,3.81,10.28,1.2,3,3.55,5.61,3.85,9A4.16,4.16,0,0,1,183.78,533.94Z" transform="translate(-107.36 -253.24)"/><path class="cls-20" d="M385,564.19c-3.69,6.26-7.45,12.42-16.11,12l0,0a5.51,5.51,0,0,1-1.54-4.12c1.08-5.1,5-7.44,9.25-9.38a11.09,11.09,0,0,1,4.53-.62A5.4,5.4,0,0,1,385,564.19Z" transform="translate(-107.36 -253.24)"/><path class="cls-21" d="M143.56,471.54l4,4c3.36,1.87,4.44,5.27,5.76,8.52a17.42,17.42,0,0,1,.59,7.66,6.1,6.1,0,0,1-2.34,3.94C142.76,489.69,143.44,480.52,143.56,471.54Z" transform="translate(-107.36 -253.24)"/><path class="cls-22" d="M409.14,286.41h4.05c2.56.12,3.89,1.48,4,4,3,2.31,7.1,3.63,8,8.05h0a3.16,3.16,0,0,1,.47,3.94c-6.43,1.81-9.07-3.84-13.15-6.67a20.78,20.78,0,0,1-4.39-5.48A3.68,3.68,0,0,1,409.14,286.41Z" transform="translate(-107.36 -253.24)"/><path class="cls-23" d="M465.48,330.68c0,2.69,0,5.37,0,8.06-2.07,1.13-3.51-.1-5-1.32-2.61-4.19-6.49-7.56-8.12-12.4a3.84,3.84,0,0,1,1.05-2.43C460.43,320.86,462.1,327.05,465.48,330.68Z" transform="translate(-107.36 -253.24)"/><path class="cls-24" d="M199.82,294.38c.6-4,3.65-4.24,6.62-3.88,4.63.58,8.08-1.66,11.54-4.11a1.88,1.88,0,0,1,2.85,1c-2.59,10.2-9.1,12.45-20.83,7.18Z" transform="translate(-107.36 -253.24)"/><path class="cls-25" d="M135.44,419.17c0-2.16.44-4.48-1.77-6,.63-2,1.27-3.93,1.9-5.9l2-.1c4.58-.58,5.45,3.19,7.11,6.05.76,3.36-1,5.67-3.25,7.76-1.93,1.32-3.53,3.67-6.42,2.18A3.25,3.25,0,0,1,135.44,419.17Z" transform="translate(-107.36 -253.24)"/><path class="cls-26" d="M425.23,302.53c0-1.36,0-2.71,0-4.06,9.37-1.3,8.56,7.53,12,12.1-5.35,2.81-8.58-1.26-12.3-3.77C424.18,305.33,424,303.89,425.23,302.53Z" transform="translate(-107.36 -253.24)"/><path class="cls-27" d="M183.78,540a41.52,41.52,0,0,0,16.23,2c3.37-2.32,6-.74,8.45,1.63A3.85,3.85,0,0,1,208,548C200.15,544.62,190.53,546.61,183.78,540Z" transform="translate(-107.36 -253.24)"/><path class="cls-28" d="M453.44,322.59c0,.7,0,1.39,0,2.08-2.7,1.68-5.38.46-8.07,0a20.8,20.8,0,0,1-8.21-5.1,4.25,4.25,0,0,1-.65-4l.91-1.06C443.8,315.08,449.58,316.93,453.44,322.59Z" transform="translate(-107.36 -253.24)"/><path class="cls-29" d="M381,274.27l-2.1.11a2.32,2.32,0,0,1-2.4.43c-3-2.46-6.71-4.23-7.6-8.54v-4C373.46,265.74,382.26,264.93,381,274.27Z" transform="translate(-107.36 -253.24)"/><path class="cls-30" d="M208,548l-.07-4c9.66-1.16,15.48,3.18,16.15,12l-4.07.05h0c-3.42-2.6-7.14-4.83-10.07-8C209.29,548,208.64,548,208,548Z" transform="translate(-107.36 -253.24)"/><path class="cls-31" d="M167.7,503.74l-.06,4.07c-6.12.77-8.8-1.92-8-8l.9-1c3.7-1.39,6,0,7.21,3.61Z" transform="translate(-107.36 -253.24)"/><path class="cls-32" d="M469.52,483.61v8.06c.14,3.42-2.81,5.3-4,8.05a1.87,1.87,0,0,1-2.51,0c-1.75-2.78-.39-5.6-.1-8.4a17.83,17.83,0,0,1,1.23-4.15C465.42,485.28,466.28,482.65,469.52,483.61Z" transform="translate(-107.36 -253.24)"/><path class="cls-21" d="M137.2,495.55c-2.75-5.31-1-8.15,3.22-11C142.43,489.38,140.63,492.21,137.2,495.55Z" transform="translate(-107.36 -253.24)"/><path class="cls-28" d="M425.5,306.53c4.78-1.11,7.43,4,11.81,4,0,1.32,0,2.64.07,3.95l-.12.12c-5.56,2.92-8.66-1-12-4.31a4.91,4.91,0,0,1-.64-2.7Z" transform="translate(-107.36 -253.24)"/><path class="cls-33" d="M385,564.19l-4.14-.17c-2.52-4,1-5.81,2.89-8.24a8.34,8.34,0,0,1,2.49-1.38,6.43,6.43,0,0,1,6.65,1.6l.24.06c1.07,3.84-3.16,2.27-4.12,4C387.7,561.46,386.36,562.82,385,564.19Z" transform="translate(-107.36 -253.24)"/><path class="cls-20" d="M392.92,575.68c-.25,1.62-.22,3.49-2,3.17a5.75,5.75,0,0,1-4.61-4.55c-.35-1.71,1.49-1.91,2.8-1.94A3.42,3.42,0,0,1,392.92,575.68Z" transform="translate(-107.36 -253.24)"/><path class="cls-34" d="M175.71,310.51c-2.53,4.13-3.13,9.54-8,12.1C167.14,316.45,169.88,312.45,175.71,310.51Z" transform="translate(-107.36 -253.24)"/><path class="cls-31" d="M151.59,495.69l.06-4.1c7.07-1.71,8.1,2.63,8.06,8l-.12.15C156.43,499.39,152.31,500.87,151.59,495.69Z" transform="translate(-107.36 -253.24)"/><path class="cls-34" d="M167.68,322.62c0,1.33,0,2.66,0,4-1.29,4-3.39,6.45-8,4.19,0-1.39-.05-2.77-.07-4.16C162.41,325.48,164.22,322.41,167.68,322.62Z" transform="translate(-107.36 -253.24)"/><path class="cls-35" d="M220.09,286.44l-2.11-.05c.74-3.64,1.36-7.37,6.05-8a1.68,1.68,0,0,1,2.37-.12c.81,1.93.16,3.66-.67,5.37C224.33,285.5,223,287.61,220.09,286.44Z" transform="translate(-107.36 -253.24)"/><path class="cls-18" d="M348.8,588.26c-2.11,7.12-8,2.75-12.09,4-1.06-3.11,1.52-3.85,3.3-5.12a10.58,10.58,0,0,1,4-.93,7.35,7.35,0,0,1,3.91,1Z" transform="translate(-107.36 -253.24)"/><path class="cls-36" d="M340.76,588.28l-4.05,4h-8c0-1.32,0-2.63-.05-3.95C332.65,584.77,336.7,584.8,340.76,588.28Z" transform="translate(-107.36 -253.24)"/><path class="cls-15" d="M284.41,576.17l12.06,2c.51.44.68.88.52,1.32s-.32.67-.49.67l0,0C292.43,578.91,286.47,583.33,284.41,576.17Z" transform="translate(-107.36 -253.24)"/><path class="cls-37" d="M389,560.09l4.12-4h7.95C399,563.18,393.09,558.82,389,560.09Z" transform="translate(-107.36 -253.24)"/><path class="cls-17" d="M209.94,548c5.1.5,7.57,4.29,10.07,8C215.35,555,210.65,554,209.94,548Z" transform="translate(-107.36 -253.24)"/><path class="cls-38" d="M226.06,278.37l-2,0c.72-5.23,4.86-3.67,8-4.05,0,.72.05,1.44.08,2.16a1.89,1.89,0,0,1-.45,2.68A4.43,4.43,0,0,1,226.06,278.37Z" transform="translate(-107.36 -253.24)"/><path class="cls-39" d="M463.47,499.67l2,.05c0,1.34,0,2.68,0,4-2,1.23-2.88,4.21-5.88,4l-1-.91a5.28,5.28,0,0,1-.08-3.91C459.71,501.13,460.41,498.63,463.47,499.67Z" transform="translate(-107.36 -253.24)"/><path class="cls-18" d="M361.38,592c-2.32,4.92-4.58,4.92-8,2.41C355.65,591.5,358.51,592.7,361.38,592Z" transform="translate(-107.36 -253.24)"/><path class="cls-15" d="M303.33,593.35c.19,2.44-1.28,2.75-2.45,2.66s-2.74-.69-3-1.45c-.61-1.75,1.16-2,2.35-2A11.39,11.39,0,0,1,303.33,593.35Z" transform="translate(-107.36 -253.24)"/><path class="cls-26" d="M425.26,298.47l-8-8.05C421.86,291.15,425.72,292.65,425.26,298.47Z" transform="translate(-107.36 -253.24)"/><path class="cls-40" d="M131.46,415.16a11,11,0,0,1-4,8.08q0-4,0-8Z" transform="translate(-107.36 -253.24)"/><path class="cls-18" d="M356.85,584.24c-.75,5.22-4.86,3.69-8.05,4l0,0c-.83-3.39,1.78-4.14,4-5.2a4.18,4.18,0,0,1,4.06,1.17Z" transform="translate(-107.36 -253.24)"/><path class="cls-41" d="M485.61,429.28c-1.36,10.15,4.56,20.24.09,30.49-1.18,2.73-1.59,5.75-4.12,7.73-2.35-1.87-2.6-4.53-2.72-7.23,1.41-8.29,2.72-16.59,0-24.89.57-5.95-3.45-10.8-3.95-16.49.11-4.92-1-10,1.45-14.64l1.23-1.14Z" transform="translate(-107.36 -253.24)"/><path class="cls-42" d="M461.5,336.7l4,2c0,1.33,0,2.67,0,4,1.33,5.38,1.94,10.76,0,16.15,0,2-.05,4-.08,6-1.72,1-.39,6.18-4.83,3.6a8.67,8.67,0,0,1-1.33-6c3.27-7.71-1.08-15.51.27-23.25A5.28,5.28,0,0,1,461.5,336.7Z" transform="translate(-107.36 -253.24)"/><path class="cls-42" d="M465.55,382.94c6.18,3.76,12.55,7.39,12,16.16-2.08,1.15-3.52-.1-5-1.32-2.39-4.73-8.65-7.26-7.91-13.8Z" transform="translate(-107.36 -253.24)"/><path class="cls-23" d="M461.37,368.85l4.1-4q0,7,0,14.09c-2.35,1.16-4.24.18-6.05-1.25C457.41,374.18,455.55,370.68,461.37,368.85Z" transform="translate(-107.36 -253.24)"/><path class="cls-23" d="M465.55,358.89q0-8.07,0-16.15C467.4,348.12,470.66,353.5,465.55,358.89Z" transform="translate(-107.36 -253.24)"/><path class="cls-41" d="M473.57,397q2,1,4,2.06l0,4-.08.09a3.47,3.47,0,0,1-4.11.46,5,5,0,0,1-1.35-4.12A4.89,4.89,0,0,1,473.57,397Z" transform="translate(-107.36 -253.24)"/><path class="cls-42" d="M461.41,377l4.08,2,.06,4-.13.13a3.29,3.29,0,0,1-3.62.78,4.18,4.18,0,0,1-.39-6.85Z" transform="translate(-107.36 -253.24)"/><path class="cls-25" d="M137.66,405.07c-.82-20.12-1.59-40.23,10-58.23,2.38-2.42,3.68-7.13,8.65-4.15a7.12,7.12,0,0,1,1.41,4.41c-6.47,15.86-6.67,33.29-12.31,49.38C143.15,399.65,143,404.68,137.66,405.07Z" transform="translate(-107.36 -253.24)"/><path class="cls-43" d="M155.63,346.78c0-1.37,0-2.74,0-4.11a2.56,2.56,0,0,1,.1-3.9l3.72-.2c3.57-3.79,4.51-11.92,12.88-7.81C171.57,342.61,166.63,347.36,155.63,346.78Z" transform="translate(-107.36 -253.24)"/><path class="cls-44" d="M171.71,330.65c-6.46-1-6.9,7.29-12.3,7.92.1-2.59.21-5.18.31-7.76,3.41,0,5.25-2.92,8-4.19,5.19-.14,4.64-6.08,8.08-8,2.29,2,2.28,4.52,1.6,7.19C176.32,328.42,174.59,330.21,171.71,330.65Z" transform="translate(-107.36 -253.24)"/><path class="cls-45" d="M137.66,405.07c2.66-2.15,1.83-6.89,5.92-8,3.92,5.38,3.94,10.75,0,16.1l-6-6C137.61,406.48,137.64,405.78,137.66,405.07Z" transform="translate(-107.36 -253.24)"/><path class="cls-46" d="M155.69,338.77c0,1.3-.06,2.6-.1,3.9l-8,4.17Q146.25,337.41,155.69,338.77Z" transform="translate(-107.36 -253.24)"/><path class="cls-47" d="M324.65,258.25c7.23-1.31,13.55,2,20.12,4,5.34,3.05,13.46-1.73,17.12,6.07a4.18,4.18,0,0,1-1.3,2.91c-8.32,3.54-16.23,3-23.64-2.4-1.91-1.38-4.1-3.25-6.22-2.89s-3.93-4.1-7,.46c-3.5,5.13-10.53,2.26-16.06,2.73-3.3-.13-6.65.15-9.8-1.2a4.66,4.66,0,0,1-2.27-2.36c-.31-1.76,0-3.28,1.73-4.17C306.39,260.13,315.74,261.11,324.65,258.25Z" transform="translate(-107.36 -253.24)"/><path class="cls-48" d="M324.65,258.25c-8.66,6.43-18.73,3.22-28.2,4.13-3.14,3.1-7.36,2.5-11.18,3.14a21,21,0,0,0-12.75,6.93c-7.71,5.75-15.75,7.21-24.32,1.9,8.36-3.4,19.71-.84,24.13-12.09C289.34,255.3,307.29,260.66,324.65,258.25Z" transform="translate(-107.36 -253.24)"/><path class="cls-49" d="M360.89,268.25c-4.35-4.75-11.43-2.16-16.12-6,7.73-.58,15.26-.05,22.12,4.07,1.51,1.18,3.54,2.18,1.72,4.61C365.15,272.59,363,270.5,360.89,268.25Z" transform="translate(-107.36 -253.24)"/><path class="cls-50" d="M368.88,270.36q-1-2-2-4.05l2,0c2.92,2.45,7.33,3.39,8.09,8a4.47,4.47,0,0,1-3.7,1.73,7.45,7.45,0,0,1-2.73-.78C369.06,273.94,367.81,272.55,368.88,270.36Z" transform="translate(-107.36 -253.24)"/><path class="cls-51" d="M224.08,556a23.23,23.23,0,0,0-16.15-12L200,541.92c0-.65-.06-1.31-.12-2-1.21-1.48-1-3,0-4.41,7.29-4.33,13.79-2.58,20.15,2.27,10.6,8.07,21.62,15.36,35.44,16.62,3.51,2.81,7.55,3.3,12,3.44,4.1.14,8.81.51,9,6.52a3.46,3.46,0,0,1-4.24-.26l-20-.07C243.51,559.18,232.89,560.75,224.08,556Z" transform="translate(-107.36 -253.24)"/><path class="cls-52" d="M356.83,584.21l-4,0c-2.56,1.58-6.06,1.26-8.07,4l-4,.06-12.14.05-8-.09c-2.5-1.73-6.07-1.28-8.08-4-5.49-.82-10.06-5.25-16.05-4.08l0-2c0-.69,0-1.39,0-2.08,2-2.21,4.47-2.23,7.1-1.68,3.19,1.12,6,3.31,9.62,3.25a18.09,18.09,0,0,1,4.28,1.23c8.57,4,17.12,6.07,26.23,1.25a20.19,20.19,0,0,1,9.45-2.38c2.21.08,4.23.57,5.67,2.43Z" transform="translate(-107.36 -253.24)"/><path class="cls-53" d="M304.47,576.23l-8-.12c-6.72-6.75-17.12-6-24.23-12l4.07-.07c5.66-4.69,10.59.07,15.79,1.2a13.49,13.49,0,0,1,4.1,1.42c2.52,2.11,5.69,3,8.57,4.46,1.6,1.31,2.64,2.85,2.1,5.05A1.56,1.56,0,0,1,304.47,576.23Z" transform="translate(-107.36 -253.24)"/><path class="cls-54" d="M147.59,467.51c.25-9.71-9.71-13.84-12.1-22.11a3.23,3.23,0,0,1-.41-4.08c5.06-1.5,7,2.45,9.6,5.38a64.26,64.26,0,0,0,4.84,8.89c1.95,5,5.5,9.77,2.76,15.62C147.94,473.52,149.33,468.53,147.59,467.51Z" transform="translate(-107.36 -253.24)"/><path class="cls-55" d="M135.52,441.34l0,4.06c-7.61-7.87-7.63-17-.05-26.23,0,1.36.07,2.72.1,4.08C139.48,429.28,139.85,435.31,135.52,441.34Z" transform="translate(-107.36 -253.24)"/><path class="cls-56" d="M147.59,467.51l4,4a6,6,0,0,1,2.21,3.82,10.64,10.64,0,0,1-1.14,7.33l-1.14,1a11.76,11.76,0,0,1-4-8.11C147.58,472.88,147.58,470.2,147.59,467.51Z" transform="translate(-107.36 -253.24)"/><path class="cls-57" d="M481.59,435.32a36.73,36.73,0,0,1,0,24.12c-2.62,5.4-3.67,11.58-8.08,16.07-1.57.9-1.94,2.4-2,4-3.68,1.44-4.78,4.79-5.94,8.09,0,1.32-.06,2.63-.08,3.95a3.47,3.47,0,0,1-4.49.23c-3.68-5.66-1.56-11.28-.65-17.28.77-5.11-7.45-7.75-5.87-14.4.84-3.53,1.29-7.17,2.28-10.72a48.73,48.73,0,0,0-.42-28.62c-3.12-9.69-1.77-18.41,4.88-26.23,8.17-1,9.1,6.34,10,10.75,1.79,8.56,1.9,17.4,7.92,24.6.77.91.13,2.54-.38,3.77-3.48,3.14-3.42,7.29-3.17,11,.32-2.94-1-6.74,2.18-9.57A2.69,2.69,0,0,1,481.59,435.32Z" transform="translate(-107.36 -253.24)"/><path class="cls-32" d="M473.49,475.51c1.45-6,2.51-12.16,8.09-16.07v8.06C479.13,470.42,478.29,475,473.49,475.51Z" transform="translate(-107.36 -253.24)"/><path class="cls-58" d="M465.52,487.64c-.19-4.29-.34-8.55,5.94-8.09-.65,1.35-1.29,2.71-1.94,4.06C468.19,485,466.85,486.3,465.52,487.64Z" transform="translate(-107.36 -253.24)"/><path class="cls-59" d="M392.92,556l-7.83.14c-.91-8.06,3.48-6.1,7.86-4.16l.35.2C393.17,553.46,393.05,554.73,392.92,556Z" transform="translate(-107.36 -253.24)"/><path class="cls-60" d="M459.61,507.76c-5.89,7.48-16.39,8.63-22.22,16.2l-1.1-1.05A6.94,6.94,0,0,1,436,517c2-3.93,6-5.28,9.46-7.25,4.48-1.59,8.51-6.48,13.87-2Z" transform="translate(-107.36 -253.24)"/><path class="cls-61" d="M427,531.94l-9.79,0c.31-8.68,2.47-10.28,11.72-8.66,1.3,1.45,1.68,3,.34,4.61C428.51,529.23,427.75,530.58,427,531.94Z" transform="translate(-107.36 -253.24)"/><path class="cls-62" d="M429.27,527.87c0-1.33,0-2.67,0-4l1.05-1.07a5.74,5.74,0,0,1,6.94,1l.12.18C436.52,529.07,432.47,527.6,429.27,527.87Z" transform="translate(-107.36 -253.24)"/><path class="cls-63" d="M248.2,274.35c8.25-.11,16.8,1.56,24.1-4.11a4.19,4.19,0,0,1,1.07,3c-3.71,7.94-9.95,12.09-18.71,11.89-7.2-.17-14.5,1.21-21.58-1.21a4.09,4.09,0,0,1-2-2.52,4,4,0,0,1,.9-3.06,11.64,11.64,0,0,0,.13-1.86Z" transform="translate(-107.36 -253.24)"/><path class="cls-64" d="M429.28,523.86c-6.16-.52-10.29,2-12.07,8.06h0c-2.8,1.93-1.27,6.07-4.07,8-.67,0-1.33,0-2,0-4.15,3.08-9,1.94-13.59,2.06-2.68.07-5.9-1.33-5-4.77,2-7.54-4.81-6.81-8.15-8.74-4.07-2.36-8.4-1.18-11.92,2.22-2.67,2.59-3.33,5.51-2.38,9.12,1.37,5.18.72,9.79-5.88,10.07-7.15.3-6.21-5.15-6.44-9.88-.26-5.34,1.9-11.19-2.58-16.42-4,2.57,1,8.7-4.79,9.86-4.72.95-7.44-2.17-10.7-4.35a15.27,15.27,0,0,0-4.54-2.06c-4.38-1.16-8.51-2.56-8.54-8.2,0-5.36,3.61-7.49,8-9a24.17,24.17,0,0,1,6-.9c6.56,0,12.19-6.12,19.23-3,3.59,1.72,6.21.86,8.35-2.61,4.73-7.72.28-18.28-6.53-24-8.39-7-16.22-9.28-26.3-5.54-2.4.89-5.28,0-7.43-2a9.22,9.22,0,0,1-1.68-5.77,10.72,10.72,0,0,1,.53-3c4.53-7.17,10.95-10.43,19.35-8.62,4.86,1.05,9.81,2.25,11.1-4.21,1.19-6,2.81-12.47-5.09-16.24-8.65-4.14-18.06-3.86-27.1-5.72A5.28,5.28,0,0,1,323,426a30.13,30.13,0,0,1-.25-17.09c1.68-6.24,9.6-1.14,11.74-6.49,0-.86,0-1.69.1-2.52a9.76,9.76,0,0,1,1.74-4.46c-1.23.87-2,2.77-4.05,1.83-2.09-2.06-2.61-4.66-2.59-7.44,0-4.44-3.93-3.74-6.41-4.8-3.66-1.58-6.19-4.32-6.65-8.06-.58-4.7,4.62-3.75,6.8-5.85-2-8.38-6.18-15.79-10-23.33-1.36-2.69-3.5-5.22-3.32-8.23,1.11-18.35-4.13-36.43-2.11-54.82.61-5.57,1.47-10.71,7.76-12.69,8.07-1.21,15.68-.92,22.51,4.68,8,6.55,14-1.09,20.74-3.5a4.19,4.19,0,0,1,2.74,1.29c1.51,2.19,1.89,4.71,2.13,7.26.15.64.27,1.71.66,1.8,14.15,2.92,20.81,15.3,30.28,24.08,2.31,2.15,4.5,3.94,7.67,3.91,9.51-.1,17,4.63,24.42,9.78a55.79,55.79,0,0,0,12.23,6.53c10,3.68,15,10.3,13.27,21.2-.24,9.25-.23,18.48.17,27.72.21,4.92,1.57,9.09,6.31,11.46,2.39,1.69,4.76,3.38,2.6,6.79.3,7.56-7.67,14.29-3.46,21.8,4.1,7.3,3.39,14.72,3.39,22.27,0,4.53.08,8.78-2.45,13.36-5.36,9.66-1.58,15.58,12.54,16.09-12.21,5.83-9.86,14.8-10,23.08,2.76,4.26-1.33,6.06-3.12,8.69-5.83,2.09-9.36,6.8-13,11.43l-8,6c-1.44,3.68-5.68,3.61-8.06,6Z" transform="translate(-107.36 -253.24)"/><path class="cls-65" d="M334.71,511.79c-2.29,2.43-7,2.8-6,8,1,5,4.73,3.83,7.82,4,3.36.24,5.6,2.09,7.38,4.62,1.95,2.78,4.13,4.33,7.79,2.17,0-3.1-7.09-3.9-2.93-8.53,2.47-2.76,5.36-2.48,8.27-2,4.9.76,3.67,4.86,3.75,8,.14,5,0,10-.12,15-.05,1.89-1.26,4.24,1.8,4.64a8.57,8.57,0,0,0,4.78-.77,3.09,3.09,0,0,0,1.09-4.41c-7.32-8.43-.09-12.82,5.12-16.84,6.06-4.69,12.13-1,17.52,2.42,2.49,1.59,4.47,4,7.78,4.08.62,3.61-6.1,2.75-4.12,6.34,1.46,2.64,4.9,1.15,7.45,1.32,3,.2,6,0,9,0-2.53,6.28-10.42,2.38-14,7.36-1.11,1.56-4,1.93-4.23,4.67-3.13.41-7.33-1.18-7.86,4.16h0a79.88,79.88,0,0,0-13,9c-3.09,3.24-7.08,5.27-10.64,7.88-2.76,1.5-5.92,2.21-8.39,4.31a9.53,9.53,0,0,1-2.76.86c-8.73,4.91-18,5.64-27.67,3.82-3.29-.42-4.86-4.43-8.52-4.1a7.68,7.68,0,0,1-2.36-1.3c-1.82-2-3.35-4.22-5.25-6.16a17.36,17.36,0,0,1-2.41-3.47c-2.73-10.91-1.13-13.16,9.84-13.72,5.31-.27,10.73.43,15.87-1.51,2.14-.8,4.74-1.59,4.69-4.48,0-2.26-2.1-3.29-3.94-4.07-7.11-3-14.06-6.17-19.05-12.47-1.55-2-3.54-2.39-6.22-1.45C294.67,533,293.56,532,294,520.45a9.9,9.9,0,0,1,.42-2c.9-1-.57,0,.4-.94C301.91,510.77,325.52,507.37,334.71,511.79Z" transform="translate(-107.36 -253.24)"/><path class="cls-61" d="M413.14,539.92c.38-3.16-1.19-7.32,4.07-8C416.84,535.09,418.46,539.27,413.14,539.92Z" transform="translate(-107.36 -253.24)"/><path class="cls-66" d="M199.89,535.93v4c-6.07-.12-12.51.76-16.11-6,0-.68,0-1.37,0-2.06a5.7,5.7,0,0,1,3.72-1.89c4.44.16,7.83,2.84,11.51,4.82Z" transform="translate(-107.36 -253.24)"/><path class="cls-67" d="M232.06,280.33l.06,2.09a3.47,3.47,0,0,1,.66,4,7.78,7.78,0,0,1-3.44,2.44c-4.32,1.31-6.06,5.57-9.24,8.2-5.9,4.77-12.34,5.37-19.24,2.57l-1.05-1.21c.06-1.27.13-2.55.19-3.82,7.24-1.38,17.17,3.89,20.09-8.14l4-3.94C226.58,281.12,228.6,278.08,232.06,280.33Z" transform="translate(-107.36 -253.24)"/><path class="cls-68" d="M175.73,326.64c0-2.67,0-5.34,0-8,1.62-6.37,5.75-10.29,11.94-12.19a3.16,3.16,0,0,1,4.23.1C191.45,314.34,182.27,325.72,175.73,326.64Z" transform="translate(-107.36 -253.24)"/><path class="cls-69" d="M191.85,306.53l-4.14-.09c1.23-6.9,6.1-8.32,12.1-8l.11.11c.91,5.38-3.9,5.73-6.82,7.75Z" transform="translate(-107.36 -253.24)"/><path class="cls-36" d="M312.55,584.26a11.07,11.07,0,0,1,8.08,4C317.43,587.93,313.33,589.47,312.55,584.26Z" transform="translate(-107.36 -253.24)"/><path class="cls-70" d="M372.94,274.33l4.06-.05a17.46,17.46,0,0,0,1.91.1c3.39,6,8.32,9,15.32,8,5.58-.83,9.74,3.45,14.91,4,0,1.34,0,2.68,0,4-1.37,1.75-3.26,2.08-5.31,2a10.46,10.46,0,0,1-2.75-.74,12.91,12.91,0,0,0-9-2.62,16.83,16.83,0,0,1-11.94-4.72C378,280.87,372.48,279.74,372.94,274.33Z" transform="translate(-107.36 -253.24)"/><path class="cls-71" d="M368.9,572.16c0,1.33,0,2.67,0,4-3.45-.23-5.26,3-8.13,3.94a5.48,5.48,0,0,1-1.39-4.22,4.49,4.49,0,0,1,1.54-2.59C363.28,570.83,365.78,569.33,368.9,572.16Z" transform="translate(-107.36 -253.24)"/><path class="cls-72" d="M360.75,576.1c0,1.33,0,2.67,0,4-.63,0-1.27.09-1.9.11h-6.05a2.68,2.68,0,0,1,0-4h0C355.45,574,358.09,574,360.75,576.1Z" transform="translate(-107.36 -253.24)"/><path class="cls-73" d="M179.77,523.86c-6-5.5-3-16.46-12.07-20.12l0,0a3.36,3.36,0,0,1,0-4.64c7.38-3.3,11.82.72,13.75,6.9,1.72,5.52,3.89,11.3,2.75,17.41C182.88,524.81,181.42,525.19,179.77,523.86Z" transform="translate(-107.36 -253.24)"/><path class="cls-74" d="M179.77,523.86h4c.41.15.83.31,1.26.45,2.24,2,5.43,3.75,2.77,7.59h-4C182.59,529.15,179.55,527.33,179.77,523.86Z" transform="translate(-107.36 -253.24)"/><path class="cls-63" d="M370.9,564.08c3.73-4.42,7.38-9,14.18-8L380.89,564l-4,.07C374.92,565.43,372.91,565.7,370.9,564.08Z" transform="translate(-107.36 -253.24)"/><path class="cls-75" d="M370.9,564.08h6c-2.39,3-6.54,4.19-8,8.07a13.16,13.16,0,0,0-8,2.07,1.29,1.29,0,0,1-.59-1.38c.14-.49.29-.74.46-.74C362,566.75,368.05,567.42,370.9,564.08Z" transform="translate(-107.36 -253.24)"/><path class="cls-56" d="M167.8,499.66c0,1.35-.05,2.7-.08,4-2.29-2.09-4.3-4.76-8-4.08-2.53-2.84-3.46-7.27-8.06-8q0-4-.11-7.91l.11-.11a3.79,3.79,0,0,1,4-.76c4.63,3.86,6.77,10.17,12.66,12.79A3.62,3.62,0,0,1,167.8,499.66Z" transform="translate(-107.36 -253.24)"/><path class="cls-76" d="M403.11,290.43h6.05a3.84,3.84,0,0,1,4,4c1.82,4.3,8.92,5.82,6.51,12.35a5.68,5.68,0,0,1-2.66,1.41c-8.28.27-11-6.07-14.06-11.92C402.34,294.31,401.94,292.35,403.11,290.43Z" transform="translate(-107.36 -253.24)"/><path class="cls-77" d="M419.23,306.52c.22-5.14-6.35-6.9-6-12.1l12,8.11.27,4h-.37C423.16,308.13,421.19,308.28,419.23,306.52Z" transform="translate(-107.36 -253.24)"/><path class="cls-78" d="M461.5,336.7l-.08,2.07a3.6,3.6,0,0,1-3.88.8c-2.87-1.77-4.23-4.81-6.25-7.3-1.55-3.48-7.24-4.44-5.91-9.66a13.58,13.58,0,0,1,8,2.06C456.69,328.29,460.72,331.39,461.5,336.7Z" transform="translate(-107.36 -253.24)"/><path class="cls-79" d="M167.8,499.66l-.12-4a8.64,8.64,0,0,1-2.18-3.59c-2.67-3.31,4.21-10.83-5-11.27a5.22,5.22,0,0,1-2.11-1.78c-1.69-3.9-1.46-8.4-3.9-12.06a4.61,4.61,0,0,1,1-4c10.56,4,21.35,4.24,32.39,2.38,2.87-.49,5.1,2.73,8.55,3.72,1.16-12,.44-23.3.49-34.6a7.89,7.89,0,0,0-4.38-7.35c-5.35-3-9.24-7.63-13.57-11.8-2.36-2.28-4.33-7.66-8.58-4.09-3.88,3.26-8.2,7.37-5.71,13.74a21,21,0,0,0,1.47,2.61c1.6,2.84,4.42,5.88.4,8.69-3.29,2.29-8.23,2.63-10.22-.29-5.61-8.23-10-3.06-14.89.26-7.38-4.91-3.26-11.12-2-17a6.16,6.16,0,0,0,4-6q0-8,0-16.1c3.92-16.79,3.48-34.62,12-50.3a24.08,24.08,0,0,0,16.08-16.12l4-4q8.06-10,16.12-20.11h0a4.1,4.1,0,0,1,4.37-.7c3.14,4.87,7.21,6.5,13.3,6.06,9.22-.67,18.68-1.55,27.23,4.3,3.52,2.41,7.41.87,8.38-3.86,1.61-7.79,7.17-9,13.66-8.59,5.68.34,10.51-1.67,15-4.75,2.34-1.6,3.91-3.87,3.18-6.84-.87-3.52-3.89-3.17-6.55-3-9.05.45-18.1.3-27.15.19-3.93-.05-8.17.58-11.26-2.93l.09-4c6.62,0,13.3-.55,19.85.08,9.17.89,15.15-3.65,20.38-10.14q2.59-5,7.93-3.33a20.12,20.12,0,0,1,12,14.09c2.74-5.17-5.28-11.51,3.05-14.53,7.34-2.67,18.13.37,21.31,5.74-5.12,1-6.3,5.07-5.87,9.07.89,8.25-2.57,16.29,1.25,25,2.58,5.88,1.17,13.86.46,20.79C311,343.08,320,353,325.26,364.25c2,4.18,6.62,7.45-.62,10.7-13.78-.64-19-7.32-16.07-21.14.84-3.89-2.66-7.3-7.35-9.32-3.24,4.77-2.16,13-10.09,14.24-9.34,1.48-18.58,2-27.48-2.23-7.88-3.76-16-3.56-26.34-.94,6.83,3.66,12.45,2,17.64,2.59,12.13,1.4,17.6,6.17,18.84,16.94,1,9.08-1.93,11-11.83,6.78.17,7.95-9.52,11.6-7.75,20.23,6.55,8.95,15,8.89,19.13-.17a28.05,28.05,0,0,1,.68-7c1-3.61,3.15-5.85,7-5.91,4.6-.06,6.72,2.28,6.3,6.88-.64,9.23,1.15,18.57-1.23,27.7-1.87,2.56-3.87,3.12-4.49-.63-.7-4.24-.16-8.61-.24-11.89-2.22,8,3.48,16.91.58,26-.14.46,1.6-.67,2.54-.12,2.94,2.54,2.33,6.94,5.15,9.51,3.65,6.75,5.67,14.11,8.11,21.31,1.44,6.63,5.46,10.92,11.87,13a10.06,10.06,0,0,1,5,2.15c-1.09,8.89-4.26,10.32-15.89,7.16.56,3.37,4.43,6.14,1.82,10.05a8.59,8.59,0,0,1-2.76,1.06c-5.72,1.08-9.8-1-12.19-6.33-2.65-5.87-7.14-7.64-13.16-5.87-9,2.68-17.92-1.25-26.92-.47-4.64.4-9.75-.4-10.3,6.53-.54,6.7,1.66,10.83,8.89,11.9,8.84,1.31,17.79,2,25.25,8.37,3.24,2.76,8.42,1.21,12.75,1.42,4.92.25,10.15-.89,14.32,3,.41,3.54-1,7.29,1.19,10.71,3.55.38,3.81-3.3,5.92-4.63,3.41-2.15,6.48-3.62,9.08,1.14,4.1,7.51,11.16,10.85,19,13.05,4.1,1.15,7.85,3.67,8.12,7.78.29,4.47-4.9,4.74-7.9,6.49-4.93,2.86-10.45,1.56-15.72,1.64-12.67.18-12.67.08-9.6,12.12-3.36,2.8-6.72,2.3-10.08,0l-4,0c-7-7.53-16.9-7.68-25.92-9.91-3.38-.83-7.31.83-10.32-2.13-14.35,2.83-25-5.88-34.65-13.51-7.11-5.63-13.68-7-21.69-6.62h0c-4.37-5.36-10.44-8.44-16.09-12.08h0c-1.51-4.25-4.69-7.66-4.22-12.92C180.3,503,175.47,499.52,167.8,499.66Z" transform="translate(-107.36 -253.24)"/><path class="cls-80" d="M139.54,419.22c1.65,5.29-3.94,12.39,4,16.1,2.61-2,5.94-2.89,7.81-.07,3.13,4.69-.53,8.51-3.06,12.26a3.68,3.68,0,0,1-4.77-.1l-8-6.07q0-9,0-18.09C136.87,421.91,138.2,420.56,139.54,419.22Z" transform="translate(-107.36 -253.24)"/><path class="cls-81" d="M445.38,322.61l8,8.1c-8.32,2.41-18.06-3.31-20.54-12.06a3.3,3.3,0,0,1,4.5,0C440.79,318.4,442.6,321.46,445.38,322.61Z" transform="translate(-107.36 -253.24)"/><path class="cls-82" d="M437.34,318.6l-4.08,0c-4.74,2.47-7.07-.59-9.25-4-.67-2.27-.59-4.38,1.29-6.11,3.83,2.35,7.1,5.79,12,6.15C437.29,316,437.31,317.28,437.34,318.6Z" transform="translate(-107.36 -253.24)"/><path class="cls-83" d="M457.45,499.71l4-8,4-.08q-1,4-2,8.08l-4,4.08C456.08,503.79,456.11,502.08,457.45,499.71Z" transform="translate(-107.36 -253.24)"/><path class="cls-84" d="M425.3,308.49l0,6.08a5.5,5.5,0,0,1-4.93,1.73c-5.75-1.71-5.94-5.25-3.17-9.75l2.06,0h5.9A14.27,14.27,0,0,1,425.3,308.49Z" transform="translate(-107.36 -253.24)"/><path class="cls-85" d="M232.06,280.33l-8,2.17c.66-1.38,1.31-2.75,2-4.13l5.95-.05C232.05,279,232.07,279.66,232.06,280.33Z" transform="translate(-107.36 -253.24)"/><path class="cls-86" d="M344.75,588.22c.78-5.21,4.89-3.66,8.07-4l-4,4Z" transform="translate(-107.36 -253.24)"/><path class="cls-87" d="M457.45,499.71c.06,1.66.46,3.15,2,4l-.21,4c-5.5-1.63-8.68,4.7-13.9,4.05C445.94,504.3,448.8,499.13,457.45,499.71Z" transform="translate(-107.36 -253.24)"/><path class="cls-88" d="M461.47,395.07c-.11-2.57-1.46-3.91-4-4-1.68-2.55-2.48-5.17-.65-8a3.37,3.37,0,0,1,4.66,0h0a172.37,172.37,0,0,1,12,16.16c0,1.31.05,2.63.07,3.95,5.09,4.45,1.37,11.07,4,16.13.81,5.5,5.27,10.07,4,16.08h-4c0-.33.14-.77,0-1-8.54-11.33-6.73-26.26-13.37-38.23C463.81,395.47,462.39,395.4,461.47,395.07Z" transform="translate(-107.36 -253.24)"/><path class="cls-75" d="M477.54,419.24c-3.39-4.86-1.6-11-4-16.13l3.92.09Q477.52,411.23,477.54,419.24Z" transform="translate(-107.36 -253.24)"/><path class="cls-89" d="M457.47,338.7l3.95.07c-.09,8,4.89,16.06.05,24.11-1.65,1.36-1.27,7.29-5.67,2.51C454.87,356.4,451.68,347.27,457.47,338.7Z" transform="translate(-107.36 -253.24)"/><path class="cls-75" d="M457.46,366.91l4-4-.09,6c-2.69,2.73-2.73,5.44,0,8.15q0,3,0,6l-4-.05c-3.43-3.28-3-7.4-2.58-11.55A6.77,6.77,0,0,1,457.46,366.91Z" transform="translate(-107.36 -253.24)"/><path class="cls-75" d="M473.5,399.16c-6.66-3.41-9.51-9.67-12-16.16l4,.07c.13,6.17,8,7.79,8.15,14C473.55,397.74,473.52,398.45,473.5,399.16Z" transform="translate(-107.36 -253.24)"/><path class="cls-90" d="M316.6,274.33c-6.76-6.55-14.78-3.57-23.5-3.51,2.4,4.81,4.16,9,3.38,13.68-.32,1.86.39,4.4-2.25,4.83-2.19.36-4.45-1.64-4.44-3.19,0-7.31-5.69-10.93-9.41-15.83,4.7-4,9.34-8.23,16.09-4h0a11.18,11.18,0,0,0,10.08,0c6-1.12,12.69,2.49,18.21-3.72,1.49-1.68,8.18-1.91,10.33.8,7.12,9,16.65,6.7,25.77,6.93a2.93,2.93,0,0,1,0,4c-5.84,2.36-8.89,10.56-17.07,8.09-1.87-.56-5-.06-5.65-1.17C332.87,272.53,324.46,274.43,316.6,274.33Z" transform="translate(-107.36 -253.24)"/><path class="cls-91" d="M296.47,266.29c-6.08-1.53-10,5.55-16.09,4a13.32,13.32,0,0,0-8,2.05c0-.71,0-1.41-.05-2.12,5.49-10.48,15.38-7.46,24.15-7.87C296.46,263.68,296.46,265,296.47,266.29Z" transform="translate(-107.36 -253.24)"/><path class="cls-92" d="M360.88,274.32c0-1.33,0-2.67,0-4l0-2.07,8,2.11,2.11,3.93a5.44,5.44,0,0,1-2.59,1.89,7.5,7.5,0,0,1-7.52-1.86Z" transform="translate(-107.36 -253.24)"/><path class="cls-91" d="M306.55,266.31c-3.36,2.89-6.72,2.93-10.08,0Z" transform="translate(-107.36 -253.24)"/><path class="cls-93" d="M368.87,274.37l2.12-.08c.65,0,1.3,0,1.95,0,2.43,2.93,6.62,4.12,8,8.06-1.81,2.18-4.16,2.2-6.65,1.68a9.09,9.09,0,0,1-2.55-1.32C369.82,280.3,366.23,278.41,368.87,274.37Z" transform="translate(-107.36 -253.24)"/><path class="cls-94" d="M256.23,556.06c10.86-2.34,20.62,3.33,31,4.37,3.93.39,4.61,4.31,5.21,7.67-5.53-.7-10.12-5.19-16.12-4-3.2-3.64-7.37-4.62-11.85-3.69C260.34,561.23,257.13,561.08,256.23,556.06Z" transform="translate(-107.36 -253.24)"/><path class="cls-95" d="M352.84,576.2l0,4c-9.79,2.41-19,8.58-29.88,4.15-2.54-1-5.07-1.47-6.41-4.12a2.92,2.92,0,0,1,4.14-.06C331.58,580.44,342.51,580.73,352.84,576.2Z" transform="translate(-107.36 -253.24)"/><path class="cls-96" d="M320.66,580.17l-4.14.06-3.93-.05c-1.22-1.32-1.08-2.65,0-4C315.77,576.48,319.86,575,320.66,580.17Z" transform="translate(-107.36 -253.24)"/><path class="cls-97" d="M312.56,576.19l0,4c-3.46.23-6.49-.42-8.12-3.95l2.09-.09c2-1.7,4-1.57,6,.05Z" transform="translate(-107.36 -253.24)"/><path class="cls-88" d="M296.46,568.14h10.08l2,2c.06,3.48-1.68,3.36-4,2C301.33,571.82,297.2,573.38,296.46,568.14Z" transform="translate(-107.36 -253.24)"/><path class="cls-96" d="M304.52,572.16c1.64-.06,3.12-.45,4-2a6.13,6.13,0,0,1,4,6l-6-.05Z" transform="translate(-107.36 -253.24)"/><path class="cls-98" d="M155.63,463.49v4c2,2.51,2.4,5.15.68,8-1.55,1.22-3.1,1.37-4.66,0,0-1.32,0-2.64,0-4l-4-16.1a3.28,3.28,0,0,1,0-4.48C156,451.42,156.77,456.84,155.63,463.49Z" transform="translate(-107.36 -253.24)"/><path class="cls-99" d="M147.59,451.41v4c-3.6-1.54-4.21-4.59-4.05-8h4A2.76,2.76,0,0,1,147.59,451.41Z" transform="translate(-107.36 -253.24)"/><path class="cls-54" d="M151.65,475.5l4,.08a5,5,0,0,1,1.83,4,4.89,4.89,0,0,1-1.84,4l-4-.05Z" transform="translate(-107.36 -253.24)"/><path class="cls-100" d="M477.9,433.17c-.91,8.31.7,14.62-2.36,20.63C473.67,447.48,471.34,441.13,477.9,433.17Z" transform="translate(-107.36 -253.24)"/><path class="cls-61" d="M429.28,523.86c.37-5.1,5.47-3.89,8.06-6,0,2,0,4-.07,5.94Z" transform="translate(-107.36 -253.24)"/><path class="cls-101" d="M377,339.6c-.41,4.94.69,10.62-1.29,16.23s1.41,8.25,6.14,6.84c10.28-3,14.2,7.52,22,10.23,6.05,2.11,6.56,14.24,5.63,23.2-1,9.95-.43,20.09-.2,30.14.15,6.31-2.23,9.46-8.79,9.1-3.68-.2-7.38.14-11.06-.06-5.91-.33-15.42,2.78-7.26-9.54,4.6-6.93-4.73-21.69-13.72-22.34-6.51-.47-7.74-3.19-7.61-8.79.14-6.56,1.23-13.28-3.33-19.32-1.71-2.26-2.76-3.91-5.83-4.45-9-1.6-14.24-9.35-12.67-18.82,1.72-10.39,4-20.68,5.91-31a4.81,4.81,0,0,1,3.51-4.25c18-6.16,28.6,1.27,28.6,20.15Z" transform="translate(-107.36 -253.24)"/><path class="cls-102" d="M284.41,395.08c1.18-2.85.45-4.28-2.86-4-2.36.2-4.73.47-4.95,3.43-.26,3.53-.18,7.09-.25,10.63-5.22,5.21-11.21,6.45-18,3.46-2.83-1.24-6-2.8-4.51-6.44,1.4-3.47,4.37-1.79,6.74-.62a6,6,0,0,0,5.65.12,4.45,4.45,0,0,0,.94-2.07c-.07-2.51-.91-4.45-3.61-5.05a39.18,39.18,0,0,0-11.34,8.59c-2.71-2.4-3.15-6.84-1.18-8,8.15-4.93,6.68-14.22,10.68-21,3.56.51,2.2,3.52,2.73,5.5.78,2.93,2.75,3.67,5.33,2.86s2-2.81,1.82-4.91c-1.29-12.25-5.37-16.18-17.92-16.67-5-.2-10,0-15.06-.1-2.44,0-5-.58-5.55-3.3a5,5,0,0,1,4.34-5.85c8.53-1.06,17.84-3.42,25.44,1.27,8.63,5.34,17.43,3.77,26.27,3.63,6.61-.1,7.8-5,7.43-10.68-.14-2.19-.8-5,1.84-6.28,3.13-1.54,4.85,1.15,6.81,2.84,5.29,4.59,9.3,9.28,6.25,17.29-2.53,6.61-1.53,12.09,7.8,11.37,2.57-.19,4.28,1.62,5.4,3.86-2,.55-5.81-1.17-5.7,1.31.09,2.05,1.27,5.9,4.9,6.58,2.26.43,4.75.39,6.73,1.36,3.67,1.81,4.89,4-.49,5.22-.51,2.9-4,3.32-5.07,5.78,1.88,3.37,5,.44,7.18,1.71l4.52-2.75v6.95c-.53,1-1.67,1.6-1.77,2.85a3.24,3.24,0,0,1,1.78-.83c3.26,4.4.24,5.24-3.22,5.2a68.57,68.57,0,0,1-8.85-1.18c-9.48,2.46-11.7-6.39-16-11.08-4.45-4.89-2,2.95-3.9,1.5-6,2.31-5.9-4.21-9-6.07-3.26-2.23-4.49.13-5.69,2.54a5.94,5.94,0,0,1-1.94,1.89A3.36,3.36,0,0,1,284.41,395.08Z" transform="translate(-107.36 -253.24)"/><path class="cls-103" d="M296.47,519.83c-6,0-12.07.09-18.1,0s-11.31.69-16.55-5.73C258.48,510,248.88,510.21,242,510c-12.58-.48-9.39-9.32-10-16.6-.74-8.62,5.05-7.27,10.44-7.84,11.81-1.25,23.61,4.47,35.62-.88,3.64-1.62,9.26,2.49,9.66,6.91.69,7.57,5.33,7.9,10.74,8.18-1.62,3.35,1.19,2.93,2.93,3.42,3.9,5.95,9,4.23,14.13,2.16,9.4-.14,18.85-1.73,28.14,1,4.05,4.53-1.74,3.75-2.95,5.46h-6c-12.26-2-23.48,4.56-35.53,4.41C297.29,516.18,296.78,518.16,296.47,519.83Z" transform="translate(-107.36 -253.24)"/><path class="cls-104" d="M304.53,397.08c-.09-7.47,3.42-4.56,6.47-2.15,4.8,3.78,6.4,11.15,13.65,12.22v20.12c-5.19,5.1,4.66,7.87,1.45,12.66,2.77-4.72-5-7.81-1.45-12.66,11.54-2.69,22.64.3,32.25,5.65,8.09,4.5,4.29,13.74,2.51,20.77s-7.22,6.56-12.76,3.73c-8-4.1-12.59,2.25-18,6.07-8.24,2-13.66-3-16.93-8.93-2.84-5.12-6.94-10.26-8.1-15.61C300.65,425.14,298.86,410.9,304.53,397.08Z" transform="translate(-107.36 -253.24)"/><path class="cls-79" d="M417.17,306.55c.37,3.17-1.2,7.33,4.05,8,3.32,1.7,7.85,2.79,4,8.05-8.49-4.1-16.41-8.82-26.75-8.5-6.37.19-9.3-7.79-13.45-12.2-5.89-6.26-9.84-14.39-20.4-13.73-3.64.23-3.71-3.08-3.79-5.82,4-3.41,8.05-3,12.07,0h0c9.93,6.15,21.53,7.85,32.17,12.09C408,299.66,409.74,305.93,417.17,306.55Z" transform="translate(-107.36 -253.24)"/><path class="cls-104" d="M328.68,471.54c4.93-.21,10,.88,14.39-2.81,2.18-1.82,4.88-.8,7.6-.15,6.44,1.54,9.57,9.22,18.05,8.05,3.61-.49.95,7.28,2.87,11.31,3.27,6.9,2.13,14.37-3.14,20.57-2.83,3.34-5.66,5.49-7.59-.75-2.24-2.24-3.53-4.79-2.61-8.05a7.92,7.92,0,0,1,2-2c2.89-1.64,6.09-3.11,4.38-7.47-1.32-3.37-4.19-3.78-7.29-3.9-3.61-.15-7.27.26-10.79-.93a6.5,6.5,0,0,1-2.11-1.48c-3.88-4.65-10,.15-14.2-3.34a7.3,7.3,0,0,1-3.16-4.91A4.84,4.84,0,0,1,328.68,471.54Z" transform="translate(-107.36 -253.24)"/><path class="cls-105" d="M304.53,397.08c0,8,1.37,16.23-.31,23.82-2.91,13.12,6.63,22,9.73,32.91,1.41,4.93,9.1,7.36,14.72,9.68,0,.67,0,1.35,0,2-1.11,1.77-2.42,3.23-4.77,3.09-8-.41-13.57-4.33-16.68-11.8a35.27,35.27,0,0,0-5.2-8.37c-5.88-13-6.31-26.84-6.49-40.78-.05-4.32,1.62-9.65-4.52-11.8a2.94,2.94,0,0,1-1.51-2.48c-.17-5.43,2.49-6.37,7-4.41C302.11,388.73,298.88,397.31,304.53,397.08Z" transform="translate(-107.36 -253.24)"/><path class="cls-106" d="M425.25,322.63c.75-3.73-1.84-5.79-4-8.05h4c2.73,1.21,4.55,4.24,8,4.06,6.21,4.86,11.18,11.78,20.13,12.08,1.25,2.72,4.27,4.54,4.08,8q0,14.1,0,28.21l-.09,4c-5.74,1.89-5.58-2.16-5.93-5.82-.52-5.46,1.33-11.22-2.05-16.32,1.75-10.19-2.66-15.49-12.47-18.63C433,328.91,426.84,328.55,425.25,322.63Z" transform="translate(-107.36 -253.24)"/><path class="cls-107" d="M449.39,348.79c5.52,2.75,3.53,7.92,4.07,12.33.44,3.56-2,8.41,3.91,9.81q0,6,.1,12c0,2.7,0,5.39,0,8.09-6.84-2.89-8.63-8.13-8.19-15.25C449.81,366.82,449.39,357.79,449.39,348.79Z" transform="translate(-107.36 -253.24)"/><path class="cls-108" d="M332.19,396.91c-2.88,1.74-5,6.09-9.32,2.95a5.33,5.33,0,0,1-2.34-5.19c.94-5.71,6.4-3.42,9.55-5.25A9.38,9.38,0,0,1,332.19,396.91Z" transform="translate(-107.36 -253.24)"/><path class="cls-109" d="M358.87,499.79a13.4,13.4,0,0,1,2,8c-7.46-2.43-13,4.62-20.12,4l4-4a1.93,1.93,0,0,1-.54-1.7c.11-.6.25-.89.39-.9C349.4,503.52,353.1,498.91,358.87,499.79Z" transform="translate(-107.36 -253.24)"/><path class="cls-90" d="M372.93,282.38H360.86c0-2.68,0-5.37,0-8.06l8,.05Z" transform="translate(-107.36 -253.24)"/><path class="cls-110" d="M324.65,467.51l4-2,0,6c0,1.34,0,2.68,0,4a2.18,2.18,0,0,1-2.62.07C324.15,473.17,323.09,470.57,324.65,467.51Z" transform="translate(-107.36 -253.24)"/><path class="cls-104" d="M336.72,403.13c-1.54,2.2-3.64,2.1-7.41,1.5l7.4-3.52C336.72,401.78,336.72,402.45,336.72,403.13Z" transform="translate(-107.36 -253.24)"/><path class="cls-111" d="M360.79,572.11c0,.71.08,1.41.13,2.12a16.64,16.64,0,0,1-.16,1.87l-7.92.1C353.48,570.93,357.64,572.5,360.79,572.11Z" transform="translate(-107.36 -253.24)"/><path class="cls-112" d="M183.81,523.85c7.14,1.66,16,1.07,16.09,12.08-5,1.47-8-2.88-12.06-4Q185.82,527.87,183.81,523.85Z" transform="translate(-107.36 -253.24)"/><path class="cls-113" d="M232,286.38c14.35-.64,28.79,1.54,43.07-1.3,2.72-.54,4.58-.12,5.17,3,.88,4.63,2.21,9.49-2.71,12.68-6.28,4.08-13,6.73-20.83,5.87-4.61-.51-8.45-.14-8.71,6.45-.26,6.81-9,11-14,6.54-11.88-10.58-24.15-2.67-36.36-3.21-3.15-2.07,1.74-6.65-1.74-9.82,4.17-3.79,8.85-6.4,14.71-6,3.14.19,5.62-1.13,7.87-3.08,4.56-2.48,6.72-7.07,9.62-11Z" transform="translate(-107.36 -253.24)"/><path class="cls-68" d="M220,298.48c-7.45,4.48-15.84,6.15-24.14,8.07l-4,0c.1-5.28,7.17-3.55,8.07-8,6.91-.31,14.24,1.52,20.1-4A2.78,2.78,0,0,1,220,298.48Z" transform="translate(-107.36 -253.24)"/><path class="cls-114" d="M220,298.48v-4c2.44-2.94,3.33-7.42,8.06-8.05C228.81,292.73,224.75,295.84,220,298.48Z" transform="translate(-107.36 -253.24)"/><path class="cls-115" d="M405.11,294.47c-12.25,0-23.93-1.45-32.17-12.09h8c3.58,2.67,7.34,4.82,12.07,4,2,2.74,6.07,1.28,8.09,4l2,0C403.78,291.78,404.45,293.12,405.11,294.47Z" transform="translate(-107.36 -253.24)"/><path class="cls-116" d="M401.13,290.41c-3.2-.31-7.32,1.27-8.09-4C396.24,286.73,400.35,285.18,401.13,290.41Z" transform="translate(-107.36 -253.24)"/><path class="cls-117" d="M155.62,483.62c0-1.35,0-2.69,0-4a2.71,2.71,0,0,1,4,0c3.58,3.43,4.78,8.44,8.06,12.07l0,4C158.55,496.78,158.22,489.07,155.62,483.62Z" transform="translate(-107.36 -253.24)"/><path class="cls-118" d="M147.59,451.41c0-1.34,0-2.67,0-4,.15-2-.42-4.43.56-5.78,5.31-7.3-.45-6.12-4.57-6.31-.08-3.74-.41-7.76,4.33-9,4.43-1.14,6.63,1.2,8,5.37,1.79,5.66,6.3,3.13,9.73,3.13,1.68-2.34,0-3.3-1-4.57-4.84-6.6-2.07-20.81,5-24.44,3.07-1.57,5.62-.11,7.79,2.61,5.56,7,10.51,14.71,20,17.34,2.88.81,2.5,3.66,2.51,6,0,12.06.07,24.13,0,36.19,0,2.51,1,5.87-2.4,6.92-2.95.9-3.51-2.31-5-3.93-5.27-5.64-11.39-5.08-16.69-.7-3.91,3.25-5.9,8-9.11-.8-1.06-2.89-6.54-5.27-11-5.94C152.67,459.65,153,453.62,147.59,451.41Z" transform="translate(-107.36 -253.24)"/><path class="cls-103" d="M326.71,475.58l2,0,2,4c3.72,4.74,10.32-.57,14.09,4h0a3.66,3.66,0,0,1,.35,4.44,8.93,8.93,0,0,1-5.68,2.23c-7.46.05-14.91.26-22.15,2.41a13.34,13.34,0,0,1-2.59.93,9.49,9.49,0,0,1-3.9.1,9.8,9.8,0,0,1-2.76-1c-.16,1.16,1.63,1.49,1.17,2.82a7.52,7.52,0,0,1-4.62,5.17,4.1,4.1,0,0,1-4.09-1c-1-4-4.36-7.3-3.72-11.8.25-1.72,1.34-3.71,2.94-3.43,3.06.54-.3,2.45.28,3.46,1.95,3.37,11.26.61,14.58-4.26,1-1.61,2.69-2.08,4.35-2.57a5.68,5.68,0,0,0,3.87-2.64C323.82,477.11,324.91,475.86,326.71,475.58Z" transform="translate(-107.36 -253.24)"/><path class="cls-119" d="M155.52,398.91c0,3.28.08,5.62,0,7.95s-1.16,3.8-3.58,3.95c-3,.19-4.12-1.66-4.24-4.33-.09-2-.16-4-.08-6,.21-4.81-1-12.4,4.85-12.29C158.78,388.31,153.93,395.93,155.52,398.91Z" transform="translate(-107.36 -253.24)"/><path class="cls-120" d="M296.47,469.48c-3.78-6.94-6.1-14.43-8.06-22-7.23-17.44-3.31-34.88,0-52.32l.05-.06c.44-.83,1-.92,1.75-.35l.5.59c3.6,3.91,3.21,8.81,2.39,13.28-3.32,18.28-.64,35.81,5.74,53a13.57,13.57,0,0,1,.87,4.9C299.37,468.25,298.86,469.89,296.47,469.48Z" transform="translate(-107.36 -253.24)"/><path class="cls-121" d="M252.21,403.12c3.14-5.1,5.16-11.43,12.74-11.71.38,1.78-.33,3.38-.79,5-.87,4.84,4.27,4,6,6.36-5,5.7-9.68,2.84-15.17-2,4.76,9.71,7.08,10,21.35,4.34-2.58,8-9.34,6.24-14.88,5.68C257.31,410.38,251.66,410,252.21,403.12Z" transform="translate(-107.36 -253.24)"/><path class="cls-122" d="M288.42,395.12c-1.74,17.44-3.56,34.88,0,52.32-6.23-1.41-3.23-6.51-4-10.09a10.05,10.05,0,0,1,0-12.11l0-30.16Z" transform="translate(-107.36 -253.24)"/><path class="cls-110" d="M296.47,469.48l2-1.76c6.25-.39,7.66,7.11,13.13,8,3.41,1.72,7.35.7,10.82,2.1a8.65,8.65,0,0,1,2.21,1.78c-.13,2.58-1.48,3.91-4.06,4a15.54,15.54,0,0,0-12,0C302.67,480.49,296.29,477.8,296.47,469.48Z" transform="translate(-107.36 -253.24)"/><path class="cls-102" d="M284.38,425.24q0,6,0,12.11c-2.17,1.25-1.67,4-3,6.61-1.75-14.12-1.55-39.47.27-42.75C284.36,409.08,279.66,417.71,284.38,425.24Z" transform="translate(-107.36 -253.24)"/><path class="cls-123" d="M167.71,491.66c-5.94-1.85-8.6-5.9-8.06-12.07C172.39,476.91,166.27,486.8,167.71,491.66Z" transform="translate(-107.36 -253.24)"/><path class="cls-123" d="M159.65,479.59h-4c0-1.33,0-2.67,0-4v-8.07C162.77,469.61,158.38,475.54,159.65,479.59Z" transform="translate(-107.36 -253.24)"/><path class="cls-110" d="M300.5,499.71l3.92,0a2.64,2.64,0,0,1,.31,2.42c-1,1.53-2.17,2.72-4.2,1.64-3.44.05-3.08-1.81-2-4Z" transform="translate(-107.36 -253.24)"/><path class="cls-124" d="M308.56,483.6c4-3,8-2.86,12,0l-6,.07Z" transform="translate(-107.36 -253.24)"/><path class="cls-79" d="M290.68,378.84c1.57-7.74,5.81-9.54,13.83-6.31C299.36,375,296,378.59,290.68,378.84Z" transform="translate(-107.36 -253.24)"/><path class="cls-125" d="M261.86,394.21l3.09-2.8c4.91,1.53,6.75,4.64,4.94,9.62C263,403.71,260.11,401.69,261.86,394.21Z" transform="translate(-107.36 -253.24)"/><path class="cls-126" d="M261.86,394.21c-.15,5.59,2.66,7.71,8,6.82a6,6,0,0,1,.28,1.74C263.72,403.48,256.39,405.05,261.86,394.21Z" transform="translate(-107.36 -253.24)"/><path class="cls-122" d="M290.22,394.71a5.56,5.56,0,0,1-1.75.35c-.16-5.73.21-10.77,8-6.1C292.32,388.63,290.17,390.47,290.22,394.71Z" transform="translate(-107.36 -253.24)"/><path class="cls-127" d="M344.84,506c0,.59,0,1.18-.08,1.78L312.7,508l-.54-1.25c1.17-3.06,4.06-3.5,6.66-4.42a12.54,12.54,0,0,1,2.87-.29,15.92,15.92,0,0,1,2.92.41c5.92,1.42,12.12-.43,18,1.55A4.79,4.79,0,0,1,344.84,506Z" transform="translate(-107.36 -253.24)"/><path class="cls-127" d="M300.53,503.74l3.76-2.23c.38.18.76.36,1.15.52,1.79,2.39,4.8,3.23,6.82,5.33l.44.59C305.85,514.61,303,509.68,300.53,503.74Z" transform="translate(-107.36 -253.24)"/><path class="cls-115" d="M324.64,427.27c4.92,7.18,4.77,14.79,2.22,22.69-2.77-6.18-2.05-13.18-5.86-19-1.11-1.71,1.45-3.32,3.64-3.64Z" transform="translate(-107.36 -253.24)"/><path class="cls-105" d="M311.55,431.89c-4.81-6.58-2.72-12.93-2.49-19.16l2.49-.19Z" transform="translate(-107.36 -253.24)"/><path class="cls-109" d="M344.75,487.55c0-1.31,0-2.62,0-3.94,4.67,0,9.36.21,14-.06,5.92-.33,8.58,3.21,9.69,8.12,1.37,6.09-3.12,7.21-7.66,8a7,7,0,0,1-2.11-5.06,26.38,26.38,0,0,1,.05-2.67c-1.85-7.39-7-1.34-10.36-2.51A4.77,4.77,0,0,1,344.75,487.55Z" transform="translate(-107.36 -253.24)"/><path class="cls-128" d="M344.77,483.6c-4.23,0-8.47.12-12.68-.18-2.54-.18-3.37-1.66-1.41-3.84,4.64-.27,9.35-1.2,13.89-.67C351,479.68,344.85,482,344.77,483.6Z" transform="translate(-107.36 -253.24)"/><path class="cls-129" d="M361,494.22c-.05,1.81-.11,3.61-.16,5.42q-1,0-1.95.15c-4.34,2.85-8,7.24-14,6.23l-2.61-.53c.89-5.23,7-3.91,9.27-7.47C354.51,496.39,356.3,491.67,361,494.22Z" transform="translate(-107.36 -253.24)"/><path class="cls-130" d="M309.91,477.83c-6.46-.38-7.74-6.6-11.43-10.11-9.38-17.45-10.63-36.23-9-55.47.47-5.65.84-11.3,1.26-16.95,1.42-1.64,2.07-4.77,5.14-3.54,3.41,1.37,3.34,4.66,3.14,7.67-1,14.67-.24,29.2,3.35,43.51a45.91,45.91,0,0,0,1.65,4.6c2,1.08,1.39,3.34,2.2,5,.85,4.71,2.55,9,6.24,12.25,3.58,3.85,14.18,1.73,10.17,12C318.58,479.51,314.25,478.81,309.91,477.83Z" transform="translate(-107.36 -253.24)"/><path class="cls-131" d="M304.68,453.05q-.33-2.74-.68-5.51c1.1,1.15,2.73,2.11,3.21,3.48,3,8.56,8.52,14.28,17.44,16.49a14.31,14.31,0,0,1,2.06,8.07l-2.06,4-2.53-.28c-.59-1.44-.69-2.77.79-3.78.5-8.89-9-5.68-12.19-10C307.68,461.86,306.16,457.47,304.68,453.05Z" transform="translate(-107.36 -253.24)"/><path class="cls-79" d="M255.68,302.45c-5,.18-10.54.55-10.36-5.34.13-4.53,5.42-2.66,8.27-2.47,3.67.25,10-2.89,10.11,4.11C263.81,304.31,258.25,301.76,255.68,302.45Z" transform="translate(-107.36 -253.24)"/><path class="cls-132" d="M344.75,487.55l4.22.12a3.47,3.47,0,0,1,.58,3.05c-1.4,2.73-4,3.34-6.69,3.7-7.76,2.17-15.86,1.55-23.71,2.92-2.09.8-4.18,1.64-6.28,2.42s-3.78,1.79-5.71,2.61a2.75,2.75,0,0,1-2.36-.39l-.51-.47a8,8,0,0,0,.13-1.83l4-4.11c1.05-2.86,4.22-2.39,6.14-3.9l2,0c7.16-2.6,15.13-.6,22.15-4Z" transform="translate(-107.36 -253.24)"/><path class="cls-110" d="M338.73,487.67c-6.45,6.56-14.68,3.1-22.15,4C323.28,486.48,331.15,487.89,338.73,487.67Z" transform="translate(-107.36 -253.24)"/><path class="cls-110" d="M314.59,491.67l-6.14,3.91-5.28-3.91Z" transform="translate(-107.36 -253.24)"/><path class="cls-133" d="M322.91,475.54c-.26,1.26-.53,2.52-.79,3.78-4.17.34-8.4,1.15-12.21-1.49C314.3,477.41,318.87,478,322.91,475.54Z" transform="translate(-107.36 -253.24)"/><path class="cls-134" d="M342.75,491.61c2.19-.54,4.89.61,6.48-1.94,4.86-3.42,9.56-6,12.29,2.25l-.54,2.3-7.75,5.69a7.61,7.61,0,0,1-2.79.9c-1.88-1.09-1.39,1.51-2.53,1.66-8.47,2.82-17.12,2-25.75,1.46l-.78.23-.75-.35c-2.2-1.87-4.89-.38-7.29-1.05-2.77-.78-5.12-1.58-2.78-5.07l5.38-2.28C324.75,493.23,334.4,497.05,342.75,491.61Z" transform="translate(-107.36 -253.24)"/><path class="cls-135" d="M322.16,503.93c7.17-3.46,15.21,2.27,22.31-2.15a41.79,41.79,0,0,1,4.32-2.07h0l4.44.2c-2.05,5-7.9,2.6-11,5.58C335.47,505.83,328.64,507.16,322.16,503.93Z" transform="translate(-107.36 -253.24)"/><path class="cls-135" d="M310.56,497.69c1.55,5,8.52,1.12,10.07,6.12l-.81.33-.84-.26c-2.68,1.37-5.74,1.14-8.58,2.14-4,1.41-5.56-.6-4-4.66C307.08,499.35,308.14,497.74,310.56,497.69Z" transform="translate(-107.36 -253.24)"/><path class="cls-136" d="M306.39,501.36c2.74,8.09,8.8-.38,12.59,2.52l-6.72,3.48c-4.45.92-8.85,1.78-7.46-5.38A4.55,4.55,0,0,0,306.39,501.36Z" transform="translate(-107.36 -253.24)"/><path class="cls-137" d="M361.52,491.92c-3.45-4.3-7.67-4.34-12.29-2.25-.09-.67-.17-1.33-.26-2,3.14-1.63,6.29-3.29,10-2.27S365.1,488,361.52,491.92Z" transform="translate(-107.36 -253.24)"/><path class="cls-133" d="M304.68,453.05q3,6.24,6,12.47C305.82,462.76,304.41,458.32,304.68,453.05Z" transform="translate(-107.36 -253.24)"/><path class="cls-136" d="M342.75,491.61c-8.06,7.46-17.79,3.11-26.81,3.8Z" transform="translate(-107.36 -253.24)"/><path class="cls-135" d="M348.79,499.71c-1.76-.3-4,.68-5-1.71a1.62,1.62,0,0,1,.75-1.38c2.43-.47,3.22,1.47,4.2,3.09Z" transform="translate(-107.36 -253.24)"/></svg>