<svg id="Layer_1" data-name="Layer 1" xmlns="http://www.w3.org/2000/svg" viewBox="0 0 377.61 353.5"><defs><style>.cls-1{fill:#faf3e6;}.cls-2{fill:#fcf1e2;}.cls-3{fill:#faf1e3;}.cls-4{fill:#fbf0e3;}.cls-5{fill:#fbf2e6;}.cls-6{fill:#fbeedf;}.cls-7{fill:#fbeee2;}.cls-8{fill:#faf0e5;}.cls-9{fill:#fae9d6;}.cls-10{fill:#fbefe0;}.cls-11{fill:#f8e7d1;}.cls-12{fill:#fbeedd;}.cls-13{fill:#f9e9da;}.cls-14{fill:#fbf1e3;}.cls-15{fill:#faece1;}.cls-16{fill:#faf0e1;}.cls-17{fill:#fbf1e4;}.cls-18{fill:#f8e8d9;}.cls-19{fill:#fcf3e8;}.cls-20{fill:#faeee2;}.cls-21{fill:#f9f5e3;}.cls-22{fill:#edc8b1;}.cls-23{fill:#ebc4ad;}.cls-24{fill:#e9bfa6;}.cls-25{fill:#fbe9d4;}.cls-26{fill:#f1cfb6;}.cls-27{fill:#eac0a4;}.cls-28{fill:#fcefdb;}.cls-29{fill:#f1d3c4;}.cls-30{fill:#e7c1a9;}.cls-31{fill:#edc3ab;}.cls-32{fill:#ecc2ab;}.cls-33{fill:#fce6d0;}.cls-34{fill:#ebc5ac;}.cls-35{fill:#ebc5ae;}.cls-36{fill:#ebc5af;}.cls-37{fill:#e5c0aa;}.cls-38{fill:#fae4d4;}.cls-39{fill:#f4cfb8;}.cls-40{fill:#e8bfa8;}.cls-41{fill:#ecc3a9;}.cls-42{fill:#ecc8b4;}.cls-43{fill:#e8c2aa;}.cls-44{fill:#e6bfa6;}.cls-45{fill:#eac8ae;}.cls-46{fill:#e9cdba;}.cls-47{fill:#edc9b0;}.cls-48{fill:#f3d9c6;}.cls-49{fill:#eacebc;}.cls-50{fill:#ebbca1;}.cls-51{fill:#e9c0b2;}.cls-52{fill:#f1b696;}.cls-53{fill:#ebbb9c;}.cls-54{fill:#f3bd9f;}.cls-55{fill:#eabca2;}.cls-56{fill:#ebbca0;}.cls-57{fill:#e9b896;}.cls-58{fill:#f1bea1;}.cls-59{fill:#efb99b;}.cls-60{fill:#eabea2;}.cls-61{fill:#edbda3;}.cls-62{fill:#eebca2;}.cls-63{fill:#f1bb9c;}.cls-64{fill:#eac0a8;}.cls-65{fill:#eac0a9;}.cls-66{fill:#ecb89d;}.cls-67{fill:#efb593;}.cls-68{fill:#f1bc9e;}.cls-69{fill:#eabda1;}.cls-70{fill:#edba9d;}.cls-71{fill:#ecbb9f;}.cls-72{fill:#f0b99f;}.cls-73{fill:#eac2a9;}.cls-74{fill:#f0b593;}.cls-75{fill:#ebb699;}.cls-76{fill:#ebb49b;}.cls-77{fill:#eab698;}.cls-78{fill:#ecb499;}.cls-79{fill:#e1ae91;}.cls-80{fill:#e2b499;}.cls-81{fill:#6a3e20;}.cls-82{fill:#deb396;}.cls-83{fill:#e9b495;}.cls-84{fill:#cfa891;}.cls-85{fill:#462d19;}.cls-86{fill:#47331d;}.cls-87{fill:#ecbea3;}.cls-88{fill:#453222;}.cls-89{fill:#efb58f;}.cls-90{fill:#3a2718;}.cls-91{fill:#432f1a;}.cls-92{fill:#4b2f20;}.cls-93{fill:#694f3a;}.cls-94{fill:#482f1a;}.cls-95{fill:#3f3220;}.cls-96{fill:#51321f;}.cls-97{fill:#61391b;}.cls-98{fill:#522910;}.cls-99{fill:#402d1e;}.cls-100{fill:#351d08;}.cls-101{fill:#d29f8d;}.cls-102{fill:#d7ad94;}.cls-103{fill:#f8baaf;}.cls-104{fill:#e1c2af;}</style></defs><path class="cls-1" d="M135.81,454.29c-5,.42-6.75-1.18-8.28-6.75-6.23-22.69-2.61-45.68-3.63-68.5-.14-3.33-.49-6.25-2.57-9.25a10.64,10.64,0,0,1,0-12.14c1.82-2.68,2.83-5.26,2.44-8.26-1.28-9.95,1.27-17.33,11.94-20.46s9.34-13.38,11.76-21.13c1.23-3.91.22-8.52.22-12.82,0-16.41,11.26-27.56,27.86-27.68,1.11,1.51,3.77.34,4.48,2.57-.71,3.89-4,4.77-7,5.62-3.22.9-6,2.12-7.58,5.29a13.68,13.68,0,0,1-1.86,2.22c-10.76,9.23-9,22-8.78,33.85.21,13,.5,13.42-11.63,17.55-4.05,1.38-8.24,2.53-10.29,6.88-.34.9-.75,1.77-1.17,2.63-5,9-3.25,18.17-.46,27.34.13.46.22.93.35,1.39a14.34,14.34,0,0,1,.27,2.85c-3.06,7.59,4.51,14.28,1.89,21.84a14.19,14.19,0,0,1-1,2.69c-3.36,4.71-2,10.11-2.18,15.27-.4,7.27,2.79,13.89,3.82,20.9C133.21,442.35,140.48,447.88,135.81,454.29Z" transform="translate(-119.46 -219.25)"/><path class="cls-2" d="M304.9,231.47h2c3.72-1.46,7.43-3,11.42-.84,1.22,8.67-5,8.18-10.53,8.6a23.29,23.29,0,0,1-7.15-3.27c-13.6-8.08-26.91-7.67-39.89,1.45a18.27,18.27,0,0,0-3.26,2.1c-10.39,10.12-10.4,10.11-23.53,3.95-10.08-6.37-19.43.53-29,1.84-3.08.43-5.91,2.69-9.2.75a1.84,1.84,0,0,1-.23-2.66l4-4c4.7-3.75,10.85-1.69,15.91-4,8.59-5.12,16.41-6.37,24.43,1.94,3.18,3.3,9.44,4.86,11.36-2.55,1.19-4.56,8.11-2,8-7.35,2.61-3.08,7.24-1.11,9.93-4h6c7.93-2.69,15.78-4.22,23.12,1.58C301.41,226.16,303,228.94,304.9,231.47Z" transform="translate(-119.46 -219.25)"/><path class="cls-3" d="M485.9,307.08c5.44,7.88,11.31,14.37,11.16,26.05-.13,10.06-5,19.16-3.37,29.08a5.81,5.81,0,0,1-3.9,6.29c-9.44,2.62-12.79,9.39-13.83,18.15a3.51,3.51,0,0,1-2.82,1c-6.34-2.52-6-7.3-3.77-12.27,2.87-6.37,7-12,11.33-17.46,8.44-9.64,10.56-27.34,4.58-38.6-1.68-3.17-4.17-6-4.62-9.74a4.93,4.93,0,0,1,1-2.87A3.4,3.4,0,0,1,485.9,307.08Z" transform="translate(-119.46 -219.25)"/><path class="cls-4" d="M473.84,386.69l2.12,0c5.17,5.72,8.73,31.64,5,38.23a12.45,12.45,0,0,1-4.89,4.77c-13.21,6.6-13.79,10.19-3.26,22.51,6.35,7.43,7.09,28.1,1.21,34-3.57-3-2.54-7.25-2.81-11.12-.25-3.57.55-7.38-2.54-10.24-3.86-4.09-5.72-9.43-8.84-14-6.41-16.31-6.16-17.12,9.14-29.29,8.56-7.06,9.71-11.39,6.78-22C474.6,395.35,470.65,391.49,473.84,386.69Z" transform="translate(-119.46 -219.25)"/><path class="cls-5" d="M438.16,514c-6.53,6.23-1.27,15.25-4.44,21.32-4,7.61-.89,16.69-6.52,23.24-6.46,7.53-14.57,11.88-24.85,11.14-.84-4,3.08-4.07,4.8-6,6.94-3.69,10.88-10.17,15.17-16.34,5-7.89,4.76-16.76,5.18-25.58.58-12.08,6.37-16,18.14-12.63C447,516.66,439.54,510.63,438.16,514Z" transform="translate(-119.46 -219.25)"/><path class="cls-6" d="M135.81,454.29c.49-6.41-5.5-11.43-3.89-18.08,4-2,5.49.81,6.08,3.64,1.09,5.26,4.33,9.2,7.17,13.42a42.31,42.31,0,0,0,21.51,16.64c9.07,3.23,16.83,9.13,26,12.2,1.93.65,4.72,1.92,2.16,5a6.26,6.26,0,0,1-7.32-.93c-8.82,2.79-12.8-6.42-19.84-8-3.54-2.66-8.6-.72-11.93-4-4.9-4.52-9.65-9.24-15.92-11.93-2.71-2-1.23-6-4-8Z" transform="translate(-119.46 -219.25)"/><path class="cls-7" d="M356.62,231.47c4.95,1.12,8.85,3.5,11.06,8.37,4.06,9,12.67,10.52,20.29,4,3.4-2.89,5.47-7.45,10.41-8.42a5.23,5.23,0,0,1,1.57,3.9c-.39,3.09-2.32,5.22-4.43,7.25-4.61,3.18-8.68,7.06-13.13,10.46-9.24,2.6-14.2.86-18.41-7.77a40.35,40.35,0,0,0-9.92-13.26,4.64,4.64,0,0,1-.05-4.33A1.74,1.74,0,0,1,356.62,231.47Z" transform="translate(-119.46 -219.25)"/><path class="cls-8" d="M356.62,231.47h-2c-11.92-1.6-23.84-.85-35.75,0l-12,0c13-13.35,29.56-6.62,44.69-7.52C355.19,223.75,356.05,228.16,356.62,231.47Z" transform="translate(-119.46 -219.25)"/><path class="cls-9" d="M380.47,563.72c-1.53-.6-3.11-1.83-4.58-1.72-21,1.54-42.5-5.49-63,3.72-1.09.81-1.91.6-2.47-.64,1-5.17,4.77-7.12,9.36-8.14a57.53,57.53,0,0,1,27.24-.65c5.37,1.21,11,.37,16.58-.6,6.62-1.15,13.86-2.61,19.08,4C383.41,561.87,382.22,563,380.47,563.72Z" transform="translate(-119.46 -219.25)"/><path class="cls-10" d="M398.36,239.36c0-1.3,0-2.59,0-3.89,13.62-4.86,27.25-7.09,40.85.05,4.77,2.51,7.63,6.15,6.9,11.87l-1.28.59a7.64,7.64,0,0,1-4-1.06c-5.65-5.95-12.44-9.36-20.78-9.33a26.13,26.13,0,0,1-2.64-.5c-6-1.28-11,2.94-16.67,3.39A3.08,3.08,0,0,1,398.36,239.36Z" transform="translate(-119.46 -219.25)"/><path class="cls-11" d="M482,307.07c0,.7-.06,1.39-.08,2.09-1.06,2.46-3.43,4.13-5.44,2.72-8.47-5.94-18-4.89-27.41-5a5.14,5.14,0,0,1-3.39-1.83,4.83,4.83,0,0,1,.17-5.82c1.4-1.07,2.83-1.3,4.28-.08a48.74,48.74,0,0,0,17.9,0C472,303,480.4,299,482,307.07Z" transform="translate(-119.46 -219.25)"/><path class="cls-12" d="M259.11,549.8c-7.63-3.63-16.46-3.52-24-7.85-3.54-2-6.78-3.85-7.87-8.05a1.68,1.68,0,0,1,.12-2.4c8,5.74,18.71,3,26.67,8.85,2.46,2.28,5.1,4.45,5.56,8.1C259.47,548.9,259.29,549.35,259.11,549.8Z" transform="translate(-119.46 -219.25)"/><path class="cls-10" d="M310.76,565.63l2.1.09c-11.43,9.35-32.83,9.38-41.85.06l1.16-1a7.55,7.55,0,0,1,4.58-.31c8,2.42,15.91,3,23.95-.33C304,562.73,307.8,562.57,310.76,565.63Z" transform="translate(-119.46 -219.25)"/><path class="cls-13" d="M469.94,462.26c8.1,6.82,2.2,16,4.06,23.88l0,4c-2.69,7.42-9.05,11.74-14.31,17a5.29,5.29,0,0,1-5.65-.67c-1.45-5.15,2.7-7.21,5.51-10,8.94-5.71,9.88-14.57,9.49-24C468.87,469,466.8,465.39,469.94,462.26Z" transform="translate(-119.46 -219.25)"/><path class="cls-14" d="M195.47,243.4l.14,2.29a2.72,2.72,0,0,1-.09,2.69c-4.39,4.36-8.42,8.85-9.71,15.3-.6,3-1.56,6.63-6.22,5.6-1.63,0-3.1-.44-4-2,6.79-3.35,3.88-11.26,7.72-16.38C186.7,246.41,189.46,242.81,195.47,243.4Z" transform="translate(-119.46 -219.25)"/><path class="cls-15" d="M227.32,531.85l0,2c-9.37,0-9.32-8.13-11.92-14-1.38-5.86-6.17-10.78-4.76-17.4,3.07-2.32,4.54.2,6.24,2a108.77,108.77,0,0,0,10.92,24.52A3.79,3.79,0,0,1,227.32,531.85Z" transform="translate(-119.46 -219.25)"/><path class="cls-16" d="M211.5,501.84c-.76,6.47,5.32,11.48,3.87,18.1-6.7-5-6.7-13.59-10.52-20.17a56.08,56.08,0,0,0-5.38-7.68c6.69-4.08,9.24,1.59,12.6,5.35A4,4,0,0,1,211.5,501.84Z" transform="translate(-119.46 -219.25)"/><path class="cls-10" d="M450.09,299.13l-4,0c-.32-.44-.65-.87-1-1.3-.27-12.75.95-25.52-.4-38.26a14,14,0,0,1-.84-3.1c-.4-3.3-.48-6.52,2.19-9.07l0,0c6.2,3.77,3.44,10.12,3.73,15.15C450.57,274.7,450.09,286.93,450.09,299.13Z" transform="translate(-119.46 -219.25)"/><path class="cls-17" d="M298.92,227.5c-7.27-5.48-15.73-3.82-23.88-4,5.49-5.7,18.43-5.69,23.88,0A2.64,2.64,0,0,1,298.92,227.5Z" transform="translate(-119.46 -219.25)"/><path class="cls-18" d="M380.47,563.72l1.81-2c6.79-.21,13.42,2,20.25,1.29,2.25.2,4.35.74,5.8,2.67l-6,4C394.85,568.46,385.69,573.34,380.47,563.72Z" transform="translate(-119.46 -219.25)"/><path class="cls-19" d="M454,505.92,460,506c.67-.85,1.33-.85,2,0-4.67,12.54-15.53,6.48-23.88,8l8-4c1.14-2.41,3.25-3.66,5.56-4.69A2.46,2.46,0,0,1,454,505.92Z" transform="translate(-119.46 -219.25)"/><path class="cls-20" d="M211.22,498.06c-4.62-.61-5.91-7.77-11.75-6-2.73-4.55-10.6,1.33-12-5.93l8,0c8.16-3.11,12.79,1.59,16.84,7.59A4.16,4.16,0,0,1,211.22,498.06Z" transform="translate(-119.46 -219.25)"/><path class="cls-12" d="M271,565.78c-11.18.05-11.9-7.7-11.9-16l.07-.07c1.26-1.18,2.61-1,4-.29,3.62,4.92,5.91,10.51,7.9,16.23Z" transform="translate(-119.46 -219.25)"/><path class="cls-21" d="M482,307.07c-3.79-4.17-11.13-2.11-14-7.94,7.11.09,15.06-1.73,17.91,7.95Z" transform="translate(-119.46 -219.25)"/><path class="cls-4" d="M462,506h-2c3.35-6.43,9.61-10.32,13.93-15.91C474.41,498.72,468.32,502.44,462,506Z" transform="translate(-119.46 -219.25)"/><path class="cls-14" d="M215.37,235.47a30.32,30.32,0,0,1-15.91,4C203.13,231.58,210.15,237.1,215.37,235.47Z" transform="translate(-119.46 -219.25)"/><path class="cls-20" d="M155.71,474.18c4.47-.16,8.78.15,11.93,4C163.64,476.9,157.77,481.25,155.71,474.18Z" transform="translate(-119.46 -219.25)"/><path class="cls-17" d="M269.08,223.53c-2,4.56-6.1,4-9.94,4C260.48,221.25,265.56,224.32,269.08,223.53Z" transform="translate(-119.46 -219.25)"/><path class="cls-1" d="M135.81,454.29c5.2.71,3.65,4.8,4,8C134.59,461.53,136.15,457.44,135.81,454.29Z" transform="translate(-119.46 -219.25)"/><path class="cls-8" d="M298.92,227.5v-4c4.66.64,5.27,4.33,6,7.94Z" transform="translate(-119.46 -219.25)"/><path class="cls-22" d="M129.93,340.92c2-7,8.24-8.25,13.86-9.5,7.43-1.65,10.69-4.17,8.52-12.82-2.33-9.27-.23-19,2.15-28.23,1.16-4.51,3.7-8.53,9.11-9.31a4.83,4.83,0,0,1,1.7,2.46c-3.49,15.36-1.58,31.68-8.12,46.52A49.29,49.29,0,0,1,129.93,340.92Z" transform="translate(-119.46 -219.25)"/><path class="cls-23" d="M143.63,454.39c-4.15-3.63-7.54-7.72-7.84-13.53-.14-2.61-1.29-4.17-3.87-4.65-1.77-7.13-4.58-14.06-4-21.62,2.64-3.77.68-8.9,3.68-12.57a4.77,4.77,0,0,1,4.38,0c4.24,3.13,2.84,7.13,1.22,10.74-3.44,7.65-2.41,14.25,1.91,21.53,3.33,5.6,8.52,11.39,5.67,19.13Z" transform="translate(-119.46 -219.25)"/><path class="cls-24" d="M129.93,340.92,155.71,329c2.79,3.66.85,6.08-2.2,8.12-2.19,1.47-4.5,3-7,3.53-9.76,1.94-12.75,8.26-11.8,17.37-.2,4,.78,8.07.09,12.12-1,2.08-2.33,3.41-4.84,2.55l-.06.06c-2.33-10-4.12-19.91-.07-29.88Q129.81,341.88,129.93,340.92Z" transform="translate(-119.46 -219.25)"/><path class="cls-25" d="M179.59,269.28c3.58-1.57,3.22-5,4.19-8,1.93-6,4.21-12.29,11.67-13.89-4.35,10.74-4.78,23.8-17.51,29.59-4.76.74-8.89,5.61-14.29,2.24C165.62,270.53,176,275.39,179.59,269.28Z" transform="translate(-119.46 -219.25)"/><path class="cls-26" d="M129.91,372.66l3.9-1.89c6.07,5.46,7.47,12.74,8,20.38-1,3.79-1.94,7.65-4.7,10.69l-1.27.74h-3.91c-1.33-1.31-1.19-2.64,0-4h0c2-4.95,3.88-9.91-.45-14.64-2.56-2.79.75-6.5-1.55-9.31C129.88,374,129.9,373.33,129.91,372.66Z" transform="translate(-119.46 -219.25)"/><path class="cls-27" d="M163.65,279.21c4.9-.3,8.61-4.66,13.78-4a2.53,2.53,0,0,1,3-.27c3.48,1.56,4.78,3.77,1,6.23-5.48,3.6-11.19,7.07-17.79,2.12,0-.73-.09-1.46-.14-2.19S163.61,279.83,163.65,279.21Z" transform="translate(-119.46 -219.25)"/><path class="cls-28" d="M129.87,374.67c2.21,7.86,11.73,15.1,2,23.95C134.14,390.39,124.7,383.14,129.87,374.67Z" transform="translate(-119.46 -219.25)"/><path class="cls-29" d="M129.78,342.84c-2,10,.29,19.92.07,29.88C125,362.77,123.55,352.82,129.78,342.84Z" transform="translate(-119.46 -219.25)"/><path class="cls-28" d="M131.88,398.61l0,4c-.16,4.39-.24,8.81-4,12C128.81,409.16,125.07,402.58,131.88,398.61Z" transform="translate(-119.46 -219.25)"/><path class="cls-30" d="M179.64,275.29l-2.2-.11c5.53-2.89,8.06-7.26,9.47-13.58,1.14-5.12,5.57-9.51,8.54-14.22a10.63,10.63,0,0,0,.16-1.69c8.08-2.25,16.31-4.07,24.19-6.87,6-2.12,10.79-1.26,15.41,2.65,2.88,3.22,9.15,3.94,7.63,10.39a5.9,5.9,0,0,1-3.94,1.33c-9.62-6-19.87-6.1-30.42-3.13-2.82.05-5.76-.26-7.61,2.64-2.34,3.07-5.09,5.76-7.62,8.65-3.23,3-2.71,7.56-4.48,11.18C186.39,275.65,183.57,277.32,179.64,275.29Z" transform="translate(-119.46 -219.25)"/><path class="cls-31" d="M318.91,231.52c11.91-4.25,23.82-7.59,35.75,0v3.88c2.09,4.58,10.61,5.25,7.81,12.82a8,8,0,0,1-7.25.75c-3.65-2-7.88-3.21-10.28-7.06a6.92,6.92,0,0,0-5.34-4.61,16.45,16.45,0,0,1-2.35-1c-3.28-2.5-6.45-1.85-9.57.33a16.43,16.43,0,0,1-2.6,1.09c-6.06.47-11.39,6.36-18,2.44a2.37,2.37,0,0,1-.15-2.69C311.87,237.43,316.09,235.91,318.91,231.52Z" transform="translate(-119.46 -219.25)"/><path class="cls-32" d="M306.89,237.39c0,.69,0,1.37,0,2.06-2.56,2.07-4.92.8-7.26-.46-12.27-6.57-24.28-7-35.94,1.47a5.17,5.17,0,0,1-4.46-.77c-1.07-1.39-1.29-2.8-.1-4.24C276.31,224,290.43,224.55,306.89,237.39Z" transform="translate(-119.46 -219.25)"/><path class="cls-33" d="M259.12,235.45v4c-.06.47-.12.93-.16,1.4-4.1,4.89-4.54,14.46-14.75,11.58l-1-1-8-9.89c.64.08,1.49-.06,1.89.29,7.88,7.1,13.54,4.36,18-4A4.77,4.77,0,0,1,259.12,235.45Z" transform="translate(-119.46 -219.25)"/><path class="cls-34" d="M446.17,305c10.73-.38,22-4,31.19,5.26.57.58,3-.67,4.52-1.07,11.66,11.75,9.86,26.18,7.73,40.48-.62,4.13-2.83,8.05-7.64,9.26a3.34,3.34,0,0,1-2.68-2.61c.34-2.68,1.58-5.06,2.52-7.55,4.73-21.13-1.75-32.76-19.69-34.83-4.34-.5-8.37-1.47-12-3.89-1.88-.69-3.55-1.62-4.33-3.63Z" transform="translate(-119.46 -219.25)"/><path class="cls-35" d="M479.94,356.81l2,2.08c-3.42,5.72-6.78,11.48-10.29,17.15-2.67,4.32-2.33,7.86,2.16,10.65,1.8,4.94,4,9.78,5.32,14.84,2.75,10.32-.13,16.54-9.09,21l-.89-1c-.77-5,3.39-9.34,2.14-14.46,0-1.31,0-2.62,0-3.93a17.28,17.28,0,0,0-2.49-10.86c-.48-.74-.9-1.5-1.31-2.28-3.95-6.18-5.72-12.38-.09-18.6.47-.72,1-1.41,1.52-2.09,1.73-1.93,2.44-4.34,3.14-6.77a9.44,9.44,0,0,1,4.05-4.9A6.55,6.55,0,0,1,479.94,356.81Z" transform="translate(-119.46 -219.25)"/><path class="cls-36" d="M469.94,462.26c1.64,9.63,4.47,19.26-1.28,28.6-2.11,3.43-4,6.85-8.56,7.27l-1-1.12c-1.1-2.95.33-5.85.12-8.78,5.2-11.26,2.3-22.61.39-34a6.33,6.33,0,0,1,2.39-4Z" transform="translate(-119.46 -219.25)"/><path class="cls-37" d="M462.05,450.26l-.08,4.09a3.31,3.31,0,0,1-3.72.71,5.42,5.42,0,0,1-1.73-2c-1.14-3.66-1-7.77-3.75-10.88a12.12,12.12,0,0,1-1.08-4c-.85-7.32,4.18-11.4,8.68-15.79a9.19,9.19,0,0,1,2.56-1.51,6.69,6.69,0,0,1,6.95,1.51l.19.13c-.53,1.14-.76,2.66-1.64,3.36C456.66,435.28,456.64,435.25,462.05,450.26Z" transform="translate(-119.46 -219.25)"/><path class="cls-38" d="M452.08,506a6.13,6.13,0,0,1-6,4c-15.29.07-15.22.62-16.16,16.34-.49,8.17,1.89,18-7.72,23.44A5.31,5.31,0,0,1,421,545c3.4-7.45,2.63-15.41,2.39-23.19-.29-9.1,3.22-15.11,12.14-17.66a13.84,13.84,0,0,1,3.37-.76C443.41,503.51,448.27,502.08,452.08,506Z" transform="translate(-119.46 -219.25)"/><path class="cls-39" d="M422.32,545.88l-.08,3.89c-1.68,7.9-7.57,12.11-13.91,15.93h-6c-1-3.08,1.61-4,3.25-5.49,7.28-2.76,8.82-10.86,14.26-15.33A3.49,3.49,0,0,1,422.32,545.88Z" transform="translate(-119.46 -219.25)"/><path class="cls-40" d="M211.27,494.33c-4.48-4.23-9.44-7.54-15.77-8.21-15.48-8-32.82-12.3-46.37-24-2.5-2.16-5.2-4-5.5-7.7l.24-.16a4.42,4.42,0,0,1,4.12-1c5.42,4.49,13.28,5.06,17.81,11,2,4.69,6.37,2.79,9.78,3.58a8.15,8.15,0,0,1,3.59,1.39c-.54,4.38,3.12,2.35,4.91,3.18a11.65,11.65,0,0,1,2.49,1c8.27,3.63,16.5,7.34,24.55,11.49a5.68,5.68,0,0,1,1.81,2.36C213.68,489.93,213.64,492.41,211.27,494.33Z" transform="translate(-119.46 -219.25)"/><path class="cls-41" d="M398.36,239.36c.65,0,1.29,0,1.93,0,6.19-.39,11.55-4.64,18-3.93h0c5.31,3.25,12.27,1.69,17.24,6.08,5.22,4.61,10.65,9,7.55,17.23-2.74,2.53-4.69-.22-6.93-1-9.39-13.08-22.53-13.14-36.46-10.47a7.82,7.82,0,0,1-4.45-.9l-1-1.15Q396.28,242.3,398.36,239.36Z" transform="translate(-119.46 -219.25)"/><path class="cls-42" d="M362.56,247.41c-.51-5.41-8.53-5.89-7.9-12,6.28,1.34,8.74,6,10.86,11.5,3,7.65,8.24,11.73,16.92,8.41,1,2.26-.17,3.73-1.76,5.08a12.09,12.09,0,0,1-8.68.87,11.35,11.35,0,0,1-2.7-1.16C366.06,256.38,359.54,254.42,362.56,247.41Z" transform="translate(-119.46 -219.25)"/><path class="cls-43" d="M380.47,259.32c.66-1.35,1.32-2.69,2-4,2.76-4.7,7-7.7,11.75-10.06l.29.27c3.12,10.12-4.84,11.94-11.2,15A4.09,4.09,0,0,1,380.47,259.32Z" transform="translate(-119.46 -219.25)"/><path class="cls-44" d="M406.36,561.73l-4,4c-6.94-.05-14.13,1.18-20.07-4-4.21-5.3-10.29-4.69-15.57-3.66a63,63,0,0,1-26.41-.17c-7.18-1.62-14.37.74-21.53,1.68-2.32-2.25-6.81,1.69-8.31-2.92,3.81-5.38,9.92-4.87,15.38-6,15-.38,30-.17,45-.15,5.27,0,10.48.35,14.83,3.88,2.58,2.39,5,5.12,9.1,4.53a36.09,36.09,0,0,1,7.63.42A6.3,6.3,0,0,1,406.36,561.73Z" transform="translate(-119.46 -219.25)"/><path class="cls-45" d="M310.86,557.73c2.73.24,5.76-.78,7.92,1.86-3.69.66-5.45,3.89-8,6-10.88-.47-21.25,7.39-32.42,2-1.14-.55-2.2-1.25-3.3-1.88a1.7,1.7,0,0,1,.29-2.59,6.2,6.2,0,0,1,2.93-.6c9.26,1.3,18.15.48,26.37-4.47C306.6,556.86,308.68,555.79,310.86,557.73Z" transform="translate(-119.46 -219.25)"/><path class="cls-46" d="M442.14,259.33c-.6-14.8-5.25-15.21-17.26-19.72-2.64-1-6.12,0-6.61-4.15,9.68-.84,17.89,1.84,23.82,10,3.77,3.16,2.12,8.14,4,11.93h0c2.2,13.92.79,27.84,0,41.76v0l.06,5.81-.05.17c-1.85.72-3.27-.07-4.6-1.26a9.1,9.1,0,0,1-1.6-3C438.37,286.92,441.69,273.2,442.14,259.33Z" transform="translate(-119.46 -219.25)"/><path class="cls-46" d="M418.27,235.46c-5.77,2.31-11.4,5.29-18,3.93C406.08,237.15,411.19,231.8,418.27,235.46Z" transform="translate(-119.46 -219.25)"/><path class="cls-11" d="M446.09,257.36c-2.85-3.46-2.52-8-4-11.93l4,2Z" transform="translate(-119.46 -219.25)"/><path class="cls-47" d="M227.32,531.85c0-.65,0-1.3,0-2,.37-.29.75-.57,1.12-.87,4.56-.75,8,2.8,12.18,3.27,5.66,3.13,15-.09,16.8,9.69a3.06,3.06,0,0,1-4.19-.2c-4.49-1.7-8.62-3.79-14-2.53C233.57,540.6,231.84,533.55,227.32,531.85Z" transform="translate(-119.46 -219.25)"/><path class="cls-48" d="M253.21,541.79l3.94,0c5-.35,5.54,3.42,6.47,6.87-.22.39-.45.78-.68,1.17l-3.77-.13Q256.2,545.76,253.21,541.79Z" transform="translate(-119.46 -219.25)"/><path class="cls-49" d="M275.1,563.64l-.06,2.07-4,0c-5.67-3.75-7.59-9.43-8.15-15.81l.28-.12a3.26,3.26,0,0,1,3.85-.64c3.21,3.69,3.66,9.26,8.23,12A2.15,2.15,0,0,1,275.1,563.64Z" transform="translate(-119.46 -219.25)"/><path class="cls-36" d="M452.08,506l-13.93,0c.53-6.27,7.1-3.31,9.71-6.4,2-1.5,4-3,6.52-3.44A6.62,6.62,0,0,1,460,498l.1.12L454,505.92Z" transform="translate(-119.46 -219.25)"/><path class="cls-50" d="M211.27,494.33l.12-8.2c7.53-2.25,6.3,5.57,9.54,8.27,1.29,3.91,1.63,7.74-.94,11.33-1.46,1.23-3,1.61-4.59.29l-3.9-4.18c-.09-1.26-.18-2.52-.28-3.78S211.25,495.57,211.27,494.33Z" transform="translate(-119.46 -219.25)"/><path class="cls-51" d="M215.4,506h3.95l1.07.76c2.35,3.57,3.22,8.17,7.38,10.48a9,9,0,0,1,1.42,2.51c.93,3.59.84,7-1.77,10l-.15.18C219.49,523.86,217.27,515,215.4,506Z" transform="translate(-119.46 -219.25)"/><path class="cls-11" d="M446.1,299.12q0-20.88,0-41.76C449.71,271.28,448.87,285.2,446.1,299.12Z" transform="translate(-119.46 -219.25)"/><path class="cls-52" d="M219.35,494.08c-5.59.29-2.36-8.25-8-7.95h0c-7.51-6.39-16.7-9.11-25.85-11.95h-2c-1.28-1.38-2.89-2.42-4-4l-4,0c-3.2-3.68-8.74-.29-11.94-4-.46-5.3-5.39-3.5-8.18-5-3.16-1.75-6.11-3.52-7.75-6.89-2.8-7.31-6.34-14.34-9.23-21.54-4.18-10.43-2-21.64,1.23-32,4.82-15.66-1.89-28.62-7.87-42-1.3-11,.44-19.34,14.1-21.09,2.85-.36,10.7-1.28,9.74-8.73,1.31-6.46,3.77-12.94,3.67-19.38-.15-9.19,1.73-17.75,4.33-26.33,6,.84,11.25-1.31,16.41-4,3.7-1.92-.65-2.62-.48-4a11.48,11.48,0,0,0,7.92-4c3.2-3.35,1.42-8.37,4-11.94q4-4,7.91-8c2-2.71,6-1.22,8-4,2.57-.11,5.82.76,7.61-.48,9.81-6.8,16.58.79,24.21,4.49,3.25,2.12,4.38,7.9,10.12,5.75,4.38-1.65,7.23-4.34,6.95-9.4a16.51,16.51,0,0,1,2.8-8.33h0l4,0c7.55-3.16,14.85-7.28,23.55-5.94,3.25.5,6.77.29,9.37,2.6,7.72,6.84,15.75,7.21,24.43,1.93,1.89-1.14,4.59-.72,6.3-2.57h0a10.55,10.55,0,0,1,11.93,0h0c1.94,2.74,6,1.28,8,4-.28,5.59,8.24,2.36,8,7.95,2.17,2.77.77,9.8,8.4,6.3,1.51-.69,4.44,4.27,7.48,5.66h0c3,3.24,7.25,1.29,10.75,2.47,7.23,2.57,8,6.5,2,11.22-8.38,6.54-13,17.65-27,19.32,6.16,5.18,11,3,15.55,2.64,6.19-.53,12.7-2.18,17,4.57,4.52,7.16,8.33,14.11,3.31,23-3.75,6.62-5.13,13.63,2.49,19.4,7.91,6,17.44,4.43,19.43-5.14,2-9.76,7.93-12.89,15.87-14.91,5.47-1.39,9.79-5.55,15.53-6.17,1.31.22,2.8.52,3.54,1.56,3.95,5.59,8.65,7.6,15.12,4.07,1.7-.93,3.88-.46,5.8.26a11.59,11.59,0,0,1,5.29,5c4.28,10.43,4.85,21.18,2.72,32.17l-4,4c-2.58,2-1.81,5.73-4,8h0c-11.27,6.79-8.69,13,0,19.92h0c2.53,3.56.74,8.58,4,11.91v4c-3.3,5.81-3,14.36-11.93,15.92h0c-6,3.64-12.61,6.95-8,15.91l0,4c6.12,2.38-1,9.16,3.95,11.93v0c5.54,14.41,6.9,28.14-5.53,40.2-2.65,2.57-5.08,5-8.75,5.76-5.57.53-11.56-.07-15.33,5.52-.53.7-1.11,1.36-1.7,2A11.86,11.86,0,0,0,424.09,520c.1,4.43.46,8.86-.3,13.26C419.58,545,412,554.14,402.35,561.71h-7.94c-2-2.73-6-1.25-8-4-3.95-3.35-8.49-4.15-13.63-4.07-16,.25-32,.09-48,.09-5.88-3.15-12.38-2.57-16.57,1.55-9.11,9-19.86,9-31.16,8.38-.65,0-1.3,0-1.95-.05,0-.63-.06-1.26-.08-1.9-2.94-3.08-3.48-7.4-5.66-10.88-6.93-10.19-15.39-17.77-28.8-17-5.52-4.12-13.51-6.81-9.42-16.43,5.54-1.41,8.17,1.46,9.9,7.06-.35-7.19,3.92-9.13,9.48-9.34,8.66-.33,17.07-1.4,25.19-4.89s15.23.81,22.65,3.43c-3.51-.92-7.38-1.38-8.25-5.78-.82-4.1,1.7-6.07,4.92-7.56,6.53-1.19,12.62-.27,18,3.86.12,4.5-3.73,1.78-5.3,2.94,3.44-.58,7.3.3,10.51-2.12,1.22-3.8,4.64-4.16,7.73-5.33,13.64-5.16,27.52-8.49,42.48-6.36a9.24,9.24,0,0,1-6.66-6.41,7.79,7.79,0,0,1-.19-2.59c.37-2.27,2.3-4.37.79-6.89a5.87,5.87,0,0,1-.49-2.41c-.85-6.08.53-13.7-9.42-13.33a7.32,7.32,0,0,1-2.47-1.05c-2.23-3.21-5.4-4.15-9.12-3.73-.89.05-1.77,0-2.66,0-3.5.06-7.06-.5-10.38,1.18a14.11,14.11,0,0,1-5.29,1.35c-9.24-.15-17.37,4.8-26.33,5.78a8.64,8.64,0,0,1-1.41,1.88c-2.35,1.61-5.1,2.63-7,4.92-4.51,4.75-8.15,9.81-6.43,16.91-.65,4.62,4.41,8.53,1.71,13.4-6.34,1-12.95-1.56-19.17,2.24-3,1.82-6-.23-6.74-3.62-2-9.2-9-14.2-16.42-17.18-11-4.39-17.87-10.6-17.11-23.47a12,12,0,0,0,.66,11.42C229.74,481,228.05,488.24,219.35,494.08Z" transform="translate(-119.46 -219.25)"/><path class="cls-53" d="M131.87,358.79c3.8-.29,7.3-.25,7.37,5,.2,14.41,8.19,27.78,1.41,43.55-4.09,9.49-2.87,22.64,3.7,32.95,2.82,4.42,3.38,9,3.39,14l-3.87-.05c.43-7.34-3.3-13.67-7.12-18.88-6.12-8.36-6.55-15.74-1.54-24.34,1.4-2.41,2.4-5.49.61-8.44h0c2.85-2.7,2.58-6.65,4-9.94.21-7.89-5.06-14.28-6-21.86C131.53,367,131.76,362.9,131.87,358.79Z" transform="translate(-119.46 -219.25)"/><path class="cls-23" d="M139.79,392.63c0,3.83.57,7.91-4,9.94C136.66,399.06,137.11,395.4,139.79,392.63Z" transform="translate(-119.46 -219.25)"/><path class="cls-54" d="M259.12,249.38c.21,9.24-8.11,10.14-13.72,12.23-2,.74-6.24-5.31-6.16-10.2l4,0v0c3.3,3.09,6.38,2.47,9.27-.6C254.42,248.73,256.35,247.08,259.12,249.38Z" transform="translate(-119.46 -219.25)"/><path class="cls-27" d="M191.55,259.36c-1.31,4,3,9.85-4,11.94C187.37,266.82,187.62,262.47,191.55,259.36Z" transform="translate(-119.46 -219.25)"/><path class="cls-55" d="M207.42,247.4c-.72,5.19-4.8,3.65-8,4C200.18,246.18,204.27,247.72,207.42,247.4Z" transform="translate(-119.46 -219.25)"/><path class="cls-56" d="M326.76,235.46c-8.62,9.5-21.47,11.12-30.42,3.38-6.45-5.57-13.86-4.56-20.12-1.8-4.54,2-8.67,2.08-13.11,2.4,9.51-9.32,23-10.78,36-3.89,2.57,1.36,4.51,4,7.81,3.9C314,240.8,319.6,234.12,326.76,235.46Z" transform="translate(-119.46 -219.25)"/><path class="cls-57" d="M370.5,259.35c-1.31-.15-3.24.21-3.84-.52-6.14-7.52-8.14-3.46-8.92,4.89-4.94-5.93-4.73-11-3.12-16.33l7.94,0C362.75,253,368.7,254.8,370.5,259.35Z" transform="translate(-119.46 -219.25)"/><path class="cls-56" d="M338.7,235.46H326.77Q332.74,227,338.7,235.46Z" transform="translate(-119.46 -219.25)"/><path class="cls-56" d="M346.66,239.44c-3.15-.33-7.24,1.22-8-4C341.86,235.79,346,234.23,346.66,239.44Z" transform="translate(-119.46 -219.25)"/><path class="cls-32" d="M259.12,249.38c-3.2,0-4.92,2.52-7.26,4.07-3.39,2.24-7.06,3.93-8.61-2.11,4.23.52,7.7-.28,9.46-4.83a12.73,12.73,0,0,1,6.4-7.08C259.11,242.74,259.12,246.06,259.12,249.38Z" transform="translate(-119.46 -219.25)"/><path class="cls-58" d="M474,327l-4-4c-2.05-2.21-4.71-2-7.37-1.86-7.07.45-11.84-3-15.2-8.91-.28-2.32,1.31-3.65,2.69-5.1,4.62,2.23,9,4.23,14.6,4.15,10.89-.16,21.75,11.14,20.95,22.06-.43,5.82,4.39,13.22-3.71,17.52C480.2,342.59,481.5,333.3,474,327Z" transform="translate(-119.46 -219.25)"/><path class="cls-59" d="M474,327c10.51,6.28,11.52,9.28,8,23.88,2.11,2.92-.79,4.16-2,6l-2,2Z" transform="translate(-119.46 -219.25)"/><path class="cls-60" d="M450.1,307.12c-.06,1.62-.46,3.07-2,3.94a5.16,5.16,0,0,1-3.14,1.3c-5.59-1.67-5.75-5-2.83-9.26l4,2C447,306.65,448.48,307,450.1,307.12Z" transform="translate(-119.46 -219.25)"/><path class="cls-61" d="M470,390.65c-8.56,1.88-10-6.2-10.87-10.37-1.37-6.64,5.58-8.11,10.89-9.55C464.45,377.36,466.3,384,470,390.65Z" transform="translate(-119.46 -219.25)"/><path class="cls-62" d="M462,422.47c6.1-3.72,6.39-11.79,11.93-15.92,1.5,6-2.34,10.67-4.09,15.85Z" transform="translate(-119.46 -219.25)"/><path class="cls-61" d="M474,402.57c-7.06-2.05-2.71-7.93-4-11.91C473.85,393.77,474.13,398.09,474,402.57Z" transform="translate(-119.46 -219.25)"/><path class="cls-61" d="M470,370.73c.33-3.15-1.2-7.23,4-8C474.14,366.18,473.56,369.2,470,370.73Z" transform="translate(-119.46 -219.25)"/><path class="cls-63" d="M442.14,498.06c14.2-5.21,20.42-20.26,13.84-34.08-1.93-4,3.69-6,2.07-9.68l3.92.05c0,1-.3,2.15.12,2.91,6.12,11,2.18,21.9-.06,32.83-2.37,2.94-4.7,5.92-8,8l-4,4c-2.54,1.68-5.23,1.05-7.92.49A3.27,3.27,0,0,1,442.14,498.06Z" transform="translate(-119.46 -219.25)"/><path class="cls-64" d="M454.05,498a10.76,10.76,0,0,1,8-8c-.68,2.64-1.35,5.28-2,7.92Z" transform="translate(-119.46 -219.25)"/><path class="cls-62" d="M454.07,438.38c-6.42-9.45-3.88-14.52,8-15.91C460.76,428.46,452.07,430.74,454.07,438.38Z" transform="translate(-119.46 -219.25)"/><path class="cls-62" d="M458.05,454.28c-3-.34-7.65.33-3.85-5,1.9-2.63,1-4.67-.1-7C461.11,444.44,456.8,450.28,458.05,454.28Z" transform="translate(-119.46 -219.25)"/><path class="cls-65" d="M422.25,533.86V518c.51-4.25.8-8.57,4-11.93h0a7.88,7.88,0,0,1,7.46-1.84,5.15,5.15,0,0,1,2.56,1.87c-8.34,2.93-10.66,8.81-10.25,17.44.36,7.49,2.67,15.81-3.68,22.39l-2.07-.08C418.75,541.46,420,537.58,422.25,533.86Z" transform="translate(-119.46 -219.25)"/><path class="cls-64" d="M436.25,506.05l-2.1-.07c.46-5.79,3.44-6.45,8-4l7.94,0c-3,4.14-8.89-.1-11.93,4l-.95,0Z" transform="translate(-119.46 -219.25)"/><path class="cls-66" d="M422.25,533.86c.66,4.21-1.31,8-2,11.94-3.25,6.52-5.17,14.19-13.89,15.93l-4,0C406.92,551,417.2,544.27,422.25,533.86Z" transform="translate(-119.46 -219.25)"/><path class="cls-50" d="M185.54,474.18c10.59-.29,20.26,1.42,25.85,11.95A58.48,58.48,0,0,1,185.54,474.18Z" transform="translate(-119.46 -219.25)"/><path class="cls-50" d="M163.67,466.22c4,1.26,9.86-3.06,11.94,4C171.61,468.93,165.73,473.3,163.67,466.22Z" transform="translate(-119.46 -219.25)"/><path class="cls-50" d="M179.57,470.21c2.54.09,3.86,1.42,4,4C181.06,474,177.47,475,179.57,470.21Z" transform="translate(-119.46 -219.25)"/><path class="cls-67" d="M442.14,303.1c.31,3.16-1.21,7.24,4,8,1.45,2,1.83,4,0,5.95-7.24,4.81-14.8,8.91-23.58,10-3.5.45-4.41,2.63-4.2,5.54.69,9.52-5.83,13.13-13.05,16.26-8.62,3.74-13.41-4.53-17.22-8.22-4-3.87-3.71-13.23,1.16-19.2,4.37-5.34,3.26-9.81.43-15.39-3.53-7-7.91-11-16-8.69A42.22,42.22,0,0,1,359,299.07c-3.68-.25-5.2-2.71-5.84-5.76-.82-3.86,2.63-4.75,4.92-4.76,13.69-.08,16-14.77,26-20,4.91-2.59-3.7-2.38-3.59-5.21-.2-1.76.85-2.89,2-4,4.83-3.9,11.63-6.09,12-13.85l3.89,0c.31.09.65.3.94.24,17.36-3.78,30,3.55,40,17A50.47,50.47,0,0,1,440.71,284c-1,6.19-2.7,13,1.43,19.13Z" transform="translate(-119.46 -219.25)"/><path class="cls-68" d="M438.16,263.31a27.94,27.94,0,0,1-4-2.83c-9-8.94-18.56-16.23-32.44-13.32-1,.2-2.23-1.1-3.35-1.71,10.64-2.87,20.79-3.38,31.5,1.41,4.66,2.09,2.83,8.56,8.28,8.51C439.5,258,440.28,260.66,438.16,263.31Z" transform="translate(-119.46 -219.25)"/><path class="cls-60" d="M438.16,263.31c0-2.65,0-5.3,0-7.94l4,4c3.42,6.52,2.73,13.75,1.56,20.29-1.42,7.87-1.36,15.63-1.56,23.48-4.17-.63-5.16-3.23-4.53-7C439.43,285.18,438.39,274.24,438.16,263.31Z" transform="translate(-119.46 -219.25)"/><path class="cls-69" d="M382.47,259.34c-.06,1.63-.46,3.09-2,4-3.53-.79-8.6,2.28-9.94-4l9.94,0Z" transform="translate(-119.46 -219.25)"/><path class="cls-70" d="M277.05,563.69a14,14,0,0,1,8.43-2c7.62,1,13.39-1.44,19-7.12s13.21-8.62,20.3-.86c-4.9.42-9.66,1.3-13.92,4C300.27,563.55,289.7,569.5,277.05,563.69Z" transform="translate(-119.46 -219.25)"/><path class="cls-66" d="M386.44,557.74c3.15.33,7.24-1.22,8,4C391.25,561.38,387.16,563,386.44,557.74Z" transform="translate(-119.46 -219.25)"/><path class="cls-71" d="M241.24,533.85c15.13-4.4,22.92,4.95,29.82,15.94a2.71,2.71,0,0,1-4,0l-3.83-.07-6.07-7.92c-4.13-6.79-12.84-3.27-17.9-8A1.21,1.21,0,0,1,241.24,533.85Z" transform="translate(-119.46 -219.25)"/><path class="cls-72" d="M241.24,533.85h-2c-4.8,1.08-7.53-3.72-11.8-4.14L227.3,518a2.9,2.9,0,0,1,4,0C230.89,525.58,238.89,527.94,241.24,533.85Z" transform="translate(-119.46 -219.25)"/><path class="cls-73" d="M267.05,549.81l4,0c4.43,3,4.18,7.46,4,12C266.58,561.63,267.4,555.33,267.05,549.81Z" transform="translate(-119.46 -219.25)"/><path class="cls-74" d="M231.28,518h-4c-3.63-2.91-7.31-5.8-4.6-11.29,2.94-3.51,6-.51,9-.11,3.71.51,7.82.89,8.59-3.87.7-4.33-3.26-5.11-6.47-5.73-2.55-.5-5-1.54-7.83-1.49-2.77,3,1,7.93-2.8,10.72a2.66,2.66,0,0,1-3.8-.18h0V494.08c.19-2-.14-5.39.65-5.67,10-3.52,3.57-9.82,2-14.25-1.86-5.14-2.94-10.07-2.5-15.43.17-2.15.92-3.9,3.39-4.1,2.94-.24,4.25,1.41,4.35,4.14.11,3-.11,6,.21,8.93.47,4.36,1.67,8.25,6.4,10.26,11.22,4.76,24.07,7.75,25.73,23.3.31,2.85,3.33,2.41,4.6,1,6.34-7.11,12.57-2.62,18.87-.22,4-3,8-3.61,11.92,0-8,8.62.24,8.9,5.63,10.73-.35.39-.76,1.09-.94,1-13.39-4.13-25.85.6-38.58,3.65-4.7,1.12-12.84-1.27-14.23,1C240.44,529.14,236.27,518.93,231.28,518Z" transform="translate(-119.46 -219.25)"/><path class="cls-50" d="M223.33,506c-1.46,4.9,2.92,7.87,4,12-8.43-.14-6.75-7-7.94-12Z" transform="translate(-119.46 -219.25)"/><path class="cls-75" d="M294.93,502.06,283,502c-1.94-4.47-5.37-8.51-4-13.93,1.26-3.16,2.69-7,5.82-1.57,2,3.48,4.95,4.67,8.39,5.53a17.05,17.05,0,0,1,4.7,2.7c6.19,4,12.84,3.46,19.56,1.91a7.41,7.41,0,0,1,1.7-1.83,12.83,12.83,0,0,1,3.61-1.5,145.33,145.33,0,0,0,16.89-4.72c4.36-1.53,9.12-2.09,12.78-5.3,1.56-1.35,2.83-3.09,4.92-3.74a3.13,3.13,0,0,1,2.21.82,19.08,19.08,0,0,1,2.95,3.73c2.37,1.18.34,9.56,6.92,4.15.9-.73,1,1.28,1,2.1,0,2.32.05,4.94-3,5.37-3.57.51-7.26,1.2-10.79.84-13.8-1.41-25.79,4-37.83,9.42a4.88,4.88,0,0,1-6,0A43.56,43.56,0,0,0,294.93,502.06Z" transform="translate(-119.46 -219.25)"/><path class="cls-76" d="M291,390.62c-.51-11.25-.33-22.3,9.33-30.82,12.62,13,13.71,27.7,7.79,43.72-1.36,3.67,3.38,5.56,2.82,9.05-1.84,5.4-2,5.44-7.86,1.6a8.5,8.5,0,0,1-1.75-2.46,11.7,11.7,0,0,1-.88-2.84c-1.13-9.82,0-19.61.58-29.49-4.08,8.63-4.09,18-5.39,27.1-.43,2.95,1.69,9.94-6.19,6.61C287.15,405.4,286.09,397.8,291,390.62Z" transform="translate(-119.46 -219.25)"/><path class="cls-77" d="M266.27,372.93c1.68,2.29,4.73-.64,5.33,2.2.55,2.67-1.74,3.22-3.7,3.42-5.11.53-10.4,0-15.17,2.51-1.41.75-2.82.66-3.17-.8-1.51-6.35-6.12-11.65-6.22-18.45S250,358.76,253,356c2.07-1.85,8.54-.37,12.08,1.48,3.09,1.62,8.08,1.31,8.78,7.47C274.6,371.56,268.78,369.85,266.27,372.93Z" transform="translate(-119.46 -219.25)"/><path class="cls-78" d="M291,390.62q.14,12.21.29,24.42a5,5,0,0,1,1.53,3.86,4.4,4.4,0,0,1-2,3.59c-5.16.46-8.22-1.08-7.82-7.09a126.78,126.78,0,0,0,0-16.88C282.49,392.4,285,389.9,291,390.62Z" transform="translate(-119.46 -219.25)"/><path class="cls-59" d="M446.11,317v-5.95h2c5,4.94,10.32,9.18,18.14,8.14,2.31-.31,3.42,1.6,3.73,3.79-1.31,0-3-.44-3.87.2C456.53,330.33,450.56,326.27,446.11,317Z" transform="translate(-119.46 -219.25)"/><path class="cls-79" d="M290.76,422.49l.5-4.53c2.92.2,3.47,2.6,4.4,4.68,3,6.73,7.5,8.93,14,4.4,4.15-2.16,5.88-6.3,8.14-10l1.1-.75c2.63,8-2.45,17.81-10.22,19.81C299.52,438.48,293.47,433.9,290.76,422.49Z" transform="translate(-119.46 -219.25)"/><path class="cls-75" d="M352.05,460.53c3.88-2.38,8.27-2.47,10,1.73s5.44,9.13.53,13.89c-.15,2.4-.64,4.49-3.79,4.13l-.6-.44c-3.34-3.55-1.44-9-4.72-12.6C352.43,465.12,351.34,463,352.05,460.53Z" transform="translate(-119.46 -219.25)"/><path class="cls-80" d="M295.74,464.62c8.63-3.82,17-8.88,27.07-6.36a3.19,3.19,0,0,1,.74,3c-2.59,4.55-7.74,3.37-11.56,5.19C306.47,466.75,300.78,468.51,295.74,464.62Z" transform="translate(-119.46 -219.25)"/><path class="cls-81" d="M349.23,359c9.61.07,7.89,5.45,5.26,11.25-2.49,2.16-5.05,2.46-7.7.28l0,.07C341.76,364.21,342.18,362.18,349.23,359Z" transform="translate(-119.46 -219.25)"/><path class="cls-82" d="M293.17,494c-4.67-.14-8.87-.39-10.35-6.43-1-3.93-2.41.72-3.78.53-3-8.57,2.54-13.26,8.16-17.9a4.4,4.4,0,0,1,1,3.65,13.38,13.38,0,0,1-.83,2.53c-2.1,3.73-.53,6.82,1.76,9.75C291,488.48,294.15,490.2,293.17,494Z" transform="translate(-119.46 -219.25)"/><path class="cls-83" d="M346.79,370.54l7.7-.28c-.31.56-.93,1.17-.86,1.69,1.38,11-6,9-12.59,8.39.88-3.07,4-.62,5.31-2.22C341.65,375.28,341.65,375.28,346.79,370.54Z" transform="translate(-119.46 -219.25)"/><path class="cls-71" d="M442.14,502c-3.4-.18-6.41.43-8,4l-7.92,0c2.39-8.47,9.15-8.22,15.91-8Z" transform="translate(-119.46 -219.25)"/><path class="cls-84" d="M322.91,460.62c0-.78-.06-1.57-.1-2.36l3.95-2c3.68-2.51,8.29.59,11.95-2h2c2.27,2.85,9.42-2,8.71,5.56a4.65,4.65,0,0,1-2.27,2,11.23,11.23,0,0,1-6,.32,20.32,20.32,0,0,0-12.67-.14C326.43,462.26,324.47,462.2,322.91,460.62Z" transform="translate(-119.46 -219.25)"/><path class="cls-85" d="M295.74,464.62c5.49.33,10.89-2,16.42-.61a9.75,9.75,0,0,1,6.35-.39c1.41,5.3-3,4.31-5.65,5.27-5.31.53-10.63,1.76-15.94,0a4.06,4.06,0,0,1-1.41-2.45A12,12,0,0,1,295.74,464.62Z" transform="translate(-119.46 -219.25)"/><path class="cls-74" d="M312.84,506h6a5.11,5.11,0,0,1,1,.2,4.69,4.69,0,0,1,.83.5c-6.57,1.86-13.17,2.3-19.79,2.43l-.12-3.13Z" transform="translate(-119.46 -219.25)"/><path class="cls-79" d="M304.66,412.62c2.09,1.15,4.19,5,6.23-.05,3.42-.33,6.31.46,8.06,3.72l-.55.61c-2.52,2.34-5.64,3.06-8.93,3.39C304.55,419.82,302.18,417.74,304.66,412.62Z" transform="translate(-119.46 -219.25)"/><path class="cls-71" d="M426.23,506c-1.42,4-1.1,8.47-4,11.93C419.58,514.48,420.84,510.7,426.23,506Z" transform="translate(-119.46 -219.25)"/><path class="cls-83" d="M349.23,359c-5.61,2.88-5.91,6.84-2.39,11.6-2-.6-6.16,1.94-5.65-1.78C341.76,364.66,340.58,357.26,349.23,359Z" transform="translate(-119.46 -219.25)"/><path class="cls-86" d="M295.51,466.41c.47.6.94,1.2,1.42,1.79-.31,1.92-1.64,3.07-3.08,4.14-2.25,1.11-4.2,3.59-7.14,1.61.16-1.25.32-2.5.49-3.75C289.13,467.09,292.11,466.3,295.51,466.41Z" transform="translate(-119.46 -219.25)"/><path class="cls-76" d="M321,403.56c-.7,2.31,2.47,5.71-1.58,6.67a2.88,2.88,0,0,1-2.5-1.19C315.83,405.77,318.9,404.93,321,403.56Z" transform="translate(-119.46 -219.25)"/><path class="cls-87" d="M358.79,480.28l3.79-4.13q1,0,2,0c.84,3-.46,5.51-2,7.95h0C357.93,486.16,358.68,482.91,358.79,480.28Z" transform="translate(-119.46 -219.25)"/><path class="cls-80" d="M348.67,460c-.3-5.21-6.23-2.53-8-5.71,4.14.55,10.19-2.18,10,5.82A1.31,1.31,0,0,1,348.67,460Z" transform="translate(-119.46 -219.25)"/><path class="cls-75" d="M362.57,484.13a13.62,13.62,0,0,1,2-7.95C368.34,479.94,365.79,482.12,362.57,484.13Z" transform="translate(-119.46 -219.25)"/><path class="cls-88" d="M348.67,460l2,.11a1.52,1.52,0,0,0,1.4.42l2.89,5.44-1.05.8c-3.6-.64-6.95-1.57-7.16-6.15Z" transform="translate(-119.46 -219.25)"/><path class="cls-80" d="M338.71,454.29c-3.53,3.35-8,1.37-11.95,2C330.27,452.77,334.71,454.86,338.71,454.29Z" transform="translate(-119.46 -219.25)"/><path class="cls-89" d="M223.33,506c-2.25-14.16-2.26-14.11,11.47-11.93,5.34.85,10.27,2.72,9.46,9-.87,6.77-6.46,7.11-12.18,7-3.75-.08-5.24-4.08-8.75-4.05Z" transform="translate(-119.46 -219.25)"/><path class="cls-90" d="M286.71,474l6.31-3.66a7.1,7.1,0,0,1,2.86,4.46c-.11,3.63.48,7,3.62,9.35,3.66,2.25,7.68,1,11.56,1.2,6.21-.6,13-3,16.31,5.33,0,3.12-2.6,3.88-4.64,5.15l-3.58.53c-4.21,3.12-9.32.83-13.8,2.31-3.21.71-6.28.9-8.43-2.31L293.17,494,287,487.83c-1.65-4.61-2.68-9.22-.24-13.9Z" transform="translate(-119.46 -219.25)"/><path class="cls-91" d="M354.63,484.17c-3.26,5-8.5,5.51-13.71,6.1a1.82,1.82,0,0,1-2.75-.15c1.64-9.64,10.57-7.55,16.53-10.26A3.23,3.23,0,0,1,354.63,484.17Z" transform="translate(-119.46 -219.25)"/><path class="cls-82" d="M296.92,496.31c2.58.86,5,2.6,7.94,1.58,4.59-1.36,9.2-1.07,13.82-.17l.6,2.77C312,498.31,303.22,503.92,296.92,496.31Z" transform="translate(-119.46 -219.25)"/><path class="cls-92" d="M354.63,484.17l0-4c-1.55-4.58-3.08-9.15-.19-13.79l.53-.39c5,3.7,3.46,8.94,3.25,13.87Z" transform="translate(-119.46 -219.25)"/><path class="cls-93" d="M338.73,489.71l2.19.56c-5.55,3.54-12.12,3.7-18.19,5.51l4-3.8C330.17,488.38,334.09,487.1,338.73,489.71Z" transform="translate(-119.46 -219.25)"/><path class="cls-93" d="M318.68,497.72l-13.82.17c4.47-3.19,9.45-1.72,14.29-1.58A13.71,13.71,0,0,1,318.68,497.72Z" transform="translate(-119.46 -219.25)"/><path class="cls-94" d="M311.49,428.75c-8.18,6.58-13.66,5.59-17.68-3.33-1.07-2.39-1.71-5-2.55-7.45,0-1,0-2,0-2.93,1.78-12,3.39-24,5.45-36,.51-3,.78-7.82,5-7.29,4.52.56,2.83,5.26,2.74,8.23-.31,10.18-1,20.36-1.5,30.54-6.08,10.1-6.08,10.1,4.46,14.48C309.17,425.82,310.79,426.79,311.49,428.75Z" transform="translate(-119.46 -219.25)"/><path class="cls-95" d="M306.91,426.47c-5.66.59-10.27-1.73-11.37-7.1-1-4.77,3-7.52,7.42-8.85a.91.91,0,0,1,.21,1.33c1.44,2.74-.57,7.28,4.33,8.2,2.41,1.31,4.33,3.21,3.36,6C310.32,427.66,308.38,427.68,306.91,426.47Z" transform="translate(-119.46 -219.25)"/><path class="cls-96" d="M307.09,420.77c-5.41-1.16-4.07-5.3-3.92-8.92l1.49.77c-.67,4.89.9,7.19,6.11,5.28C311.65,421.55,309.65,421.52,307.09,420.77Z" transform="translate(-119.46 -219.25)"/><path class="cls-97" d="M260.48,372.23a7.86,7.86,0,0,1-6.73-7.72c-.27-4.75,3.59-5.87,7.41-5.83s6.21,2.21,5.94,6.23S264,371.11,260.48,372.23Z" transform="translate(-119.46 -219.25)"/><path class="cls-98" d="M307.09,420.77c1.67-.39,3.22-.93,3.68-2.87,2.21-2.88,5-1.74,7.63-1,1.5,6.17-1.68,9.6-6.91,11.85-1.76-.29-3.53-.57-4.58-2.28C313.33,424.77,306.31,422.65,307.09,420.77Z" transform="translate(-119.46 -219.25)"/><path class="cls-88" d="M318.79,464.28l-6.63-.27,10.75-3.39,5.82-.44a2.65,2.65,0,0,1,.19,2.65,9.22,9.22,0,0,1-6.3,3.08A5.05,5.05,0,0,1,318.79,464.28Z" transform="translate(-119.46 -219.25)"/><path class="cls-86" d="M286.78,473.93l.24,13.9C283.47,483.26,281.51,478.65,286.78,473.93Z" transform="translate(-119.46 -219.25)"/><path class="cls-99" d="M322.79,464.23l6-2c3.9-2.6,8.06-3.72,12.67-2.25l5.31.62,7.68,5.74c0,4.6,3.92,9.14.19,13.79-3.18,6.68-12.25,3.61-15.87,9.56l-12,2.27c-4-6.84-10.13-4.69-16-3.93a2.5,2.5,0,0,1,.06-2.73c3.24-3.53,7.94-3.5,12-4.95a32.29,32.29,0,0,1,6.92-.87c3.43.06,6.82-.08,9.71-2.33.71-.46,1.44-.87,2.17-1.29,2.18-1.17,2.42-3,1.87-5.17a7.7,7.7,0,0,0-1.6-1.72c-5.83-2.77-11.58,2.47-17.36.14C323,467.85,321.77,466.44,322.79,464.23Z" transform="translate(-119.46 -219.25)"/><path class="cls-91" d="M341.42,460l-12.67,2.25c0-.69,0-1.38,0-2.07C332.92,457.4,337.14,456.29,341.42,460Z" transform="translate(-119.46 -219.25)"/><path class="cls-91" d="M322.79,464.23c.66,1.34,1.33,2.67,2,4-3.16,7.44-8.52,4.52-13.6,2.89a3.45,3.45,0,0,1-.35-4.89c2.75-.25,5.82.82,8-2Z" transform="translate(-119.46 -219.25)"/><path class="cls-100" d="M310.84,466.23c0,1.31,0,2.62,0,3.93-3.88,4.24-9.84,1.6-14.18,4.29l-1.38.12a4.64,4.64,0,0,1-2.22-4.28l3.92-2.09Z" transform="translate(-119.46 -219.25)"/><path class="cls-101" d="M323,482.62l-12.1,3.72c-4.61.72-9.26,2-13.69-.73-2.07-3.42-5.71-6.56-2-11l0,.06c1.29-2.06,3.07-1.88,5-1.09,1.15,6.66,4.84,9.13,11.49,7.23,3.1-.89,6.34-1.41,9.54-.14A3.88,3.88,0,0,1,323,482.62Z" transform="translate(-119.46 -219.25)"/><path class="cls-93" d="M297.25,485.61l13.69.73a11.07,11.07,0,0,1-.2,1.71C306.27,487.1,301,490.49,297.25,485.61Z" transform="translate(-119.46 -219.25)"/><path class="cls-102" d="M330.36,482l-7.32.63a8,8,0,0,0-.4-1.06c.62-3.05-.19-6.33,1.43-9.25a9.48,9.48,0,0,1,2-2c5.95-2.22,11.82-5.3,18.27-1.6l-.07-.33c2,3.79,2.73,7.29-2,9.64a1.5,1.5,0,0,0-1.67.8C337.44,480.79,333.74,480.88,330.36,482Z" transform="translate(-119.46 -219.25)"/><path class="cls-88" d="M344.31,468.68c-6.87-.88-13.32.6-19.53,3.42-7,4.95-14.84,2.59-22.42,2.3l-1.6-.42-5.56.65c3.41-7.72,10.35-3.12,15.59-4.47,4.67-.62,9.75,1.76,14-1.93,5.74-.44,11-3.42,17.06-2.64C344.25,465.9,344.42,466.91,344.31,468.68Z" transform="translate(-119.46 -219.25)"/><path class="cls-88" d="M342.21,478c3.41-2.63,2.67-6.15,2-9.64C347.37,472.37,349.21,476.11,342.21,478Z" transform="translate(-119.46 -219.25)"/><path class="cls-92" d="M330.36,482c3-2.22,6.55-2.89,10.18-3.2C338.09,482.84,334.15,482.19,330.36,482Z" transform="translate(-119.46 -219.25)"/><path class="cls-103" d="M324.79,474.22c.59,2.83,2.63,6.09-2.15,7.34-5.16.85-10.29,2.06-15.49,2.47-8.88.71-10.27-1.67-6.39-10v0C308.78,472.84,316.8,472.43,324.79,474.22Z" transform="translate(-119.46 -219.25)"/><path class="cls-101" d="M324.79,474.22l-24-.21c7.81-3.16,16.06-.76,24-1.9C324.78,472.81,324.79,473.51,324.79,474.22Z" transform="translate(-119.46 -219.25)"/><path class="cls-104" d="M338.25,475.93c-3.35.11-.66-2-1.08-2.88-.95-2-.71-2.91,1.67-2.67,1.66.17,3.35.56,3,2.7C341.48,474.81,339.91,475.52,338.25,475.93Z" transform="translate(-119.46 -219.25)"/></svg>