<svg id="Layer_1" data-name="Layer 1" xmlns="http://www.w3.org/2000/svg" viewBox="0 0 332.8 311.01"><defs><style>.cls-1{fill:#eff5f1;}.cls-2{fill:#edf3f0;}.cls-3{fill:#f0f4f0;}.cls-4{fill:#eef5f1;}.cls-5{fill:#eaf5f1;}.cls-6{fill:#e4eeec;}.cls-7{fill:#eff6f0;}.cls-8{fill:#edf4f0;}.cls-9{fill:#f3f5f1;}.cls-10{fill:#f0f6f1;}.cls-11{fill:#e6f1ee;}.cls-12{fill:#f0f6ef;}.cls-13{fill:#eef5ef;}.cls-14{fill:#e0ebea;}.cls-15{fill:#ecf6f3;}.cls-16{fill:#cce0e2;}.cls-17{fill:#c6dde0;}.cls-18{fill:#c2dcdf;}.cls-19{fill:#cbe1e5;}.cls-20{fill:#c5dbde;}.cls-21{fill:#c3ddde;}.cls-22{fill:#c5dcdd;}.cls-23{fill:#c4dcde;}.cls-24{fill:#c3dddf;}.cls-25{fill:#c7dee0;}.cls-26{fill:#c5dcdf;}.cls-27{fill:#c4dcdc;}.cls-28{fill:#c9dddb;}.cls-29{fill:#c5dde1;}.cls-30{fill:#c9dfe2;}.cls-31{fill:#bbdce1;}.cls-32{fill:#bdddde;}.cls-33{fill:#c3dbdd;}.cls-34{fill:#c0dadc;}.cls-35{fill:#c2dce2;}.cls-36{fill:#bedde1;}.cls-37{fill:#203036;}.cls-38{fill:#213338;}.cls-39{fill:#bdd9dc;}.cls-40{fill:#bedadd;}.cls-41{fill:#bbd1d8;}.cls-42{fill:#37545a;}.cls-43{fill:#bfd6d9;}.cls-44{fill:#3f5e63;}.cls-45{fill:#273c42;}.cls-46{fill:#bad4d9;}.cls-47{fill:#cbe1e7;}.cls-48{fill:#24373a;}.cls-49{fill:#25383d;}.cls-50{fill:#cae0e3;}.cls-51{fill:#d0e5ea;}</style></defs><path class="cls-1" d="M147.75,435.6c-7.19-3.19-11.94-7.91-10.49-16.6.81-4.89-5.87-8.08-3.39-13.2,2.87-5.93,1.83-11.28.23-17.46-2-7.66,3-13.38,10.67-16,6.53-2.19,9.06-6.28,10.77-13.85,2.7-11.93,3.24-24.72,9.49-35.81.63-1.12.18-2.85.22-4.29,1.74-1.58,1.44-5.89,4.66-5,3.49,1,3.1,4.88,3.55,7.89-5.58,13.46-5.66,28.16-9.38,42-1.6,6-4,10.43-10.65,12.31-6.78,1.93-10.34,6.93-10.21,14.34.13,7.23.3,14.48,0,21.7s5.45,12,6.64,18.52C149.87,432.3,149.47,434.2,147.75,435.6Z" transform="translate(-133.31 -240.49)"/><path class="cls-2" d="M333.12,243.22c.58.58,1.17,1.16,1.75,1.75,8.16,2.58,16.31,5.11,21.74,12.51,1.05,1.43,2.26,2.56,1.59,4.5a2.54,2.54,0,0,1-2.27,1.15c-7.73-3.79-15.8-6.94-23.43-10.78a43.49,43.49,0,0,0-24.33-4.75c-13.17,1.24-26.8.5-38.68,8.08a117.51,117.51,0,0,0-19.6,15.63c-8.13,8.15-17.52,8-27.1,9.26-3.72.48-7.63-.32-10.88,2.28-2.5,1.24-5,2.44-7.94,1.86-1.36-.53-2.43-1.28-2-3,1.84-4.82,4.65-6.65,10.45-7.43,11.74-1.57,24-1.17,34-11.37,4.43-4.53,12.59-6.36,16.77-12.69,13.21-10.78,29.41-7.74,44.55-9.55a73,73,0,0,1,8.63,0c3.85-.12,7.59,1.27,11.46.89A7.12,7.12,0,0,1,333.12,243.22Z" transform="translate(-133.31 -240.49)"/><path class="cls-3" d="M455.53,337.65c6.43,3.39,6.44,10.08,6.73,15.66.52,9.84,1.78,19.65-2.58,29.6-2.21,5-2.57,12.49,1.59,18.29,2,2.83,1,6.17,1.24,9.3.28,4.23-.9,8.65,2.56,12.38a5.48,5.48,0,0,1,.75,4.91c-2.52,5.26-3.14,10.82-4,16.45-.4,2.45-3,4.92-6.25,5.34-2.21-1.78-2.27-4.31-2.41-6.82a15,15,0,0,1,1-5.77c3.34-4.86,4.33-10.21,2.43-15.76-3.1-9.07-1.41-19.12-6-27.92a12.79,12.79,0,0,1-.47-9.45c4-13.3,5.54-26.74,3.23-40.52a7.76,7.76,0,0,1,.51-3.44A4.91,4.91,0,0,1,455.53,337.65Z" transform="translate(-133.31 -240.49)"/><path class="cls-4" d="M231.68,533.53c-7.62-2-15.62-3.51-17.58-13.06-.54-2.63-2.25-3.77-4.55-4.63-10.63-4-19-12.81-30.83-14.41-1.11-.15-2-1.88-3-2.87a1.61,1.61,0,0,1,.17-2.41c8.65-2.11,15.88,1.78,23.15,5.5,15.23,6.53,24.49,20.79,38.1,29.44,15.25,11.4,32.33,14.38,50.79,11.17,7.36-1.28,15.09.06,22.15-3.27a7,7,0,0,1,5.59,1,3,3,0,0,1,0,4h0c-2.87,3.05-7.59.56-10.5,3.49H303.4c-2.1,2-4.77,1.64-7.33,1.73-8.6.31-17.2-.14-25.82.57s-16.77-2.16-24.56-5.8C241.33,540.11,233.8,540.44,231.68,533.53Z" transform="translate(-133.31 -240.49)"/><path class="cls-1" d="M315.64,544l0-3.53a2,2,0,0,1,.26-2.58c12.81-6.91,25.78-11.26,40.31-4.65,5.63,2.56,11.87,1.84,17.81,0,2.71-.35,5.48-1.94,8.09.31-2.33,5.81-6.23,7.79-12.77,7.36-11.8-.78-23.69-.59-35.52-.24C327.67,540.83,322.26,545.8,315.64,544Z" transform="translate(-133.31 -240.49)"/><path class="cls-5" d="M394.32,526.53c-2.66-.21-3.45,2.38-5.23,3.5a3,3,0,0,1-3.7.31c-2-4.23,1.44-5.64,3.9-7.5,7.39-5.58,13.24-12,14.29-21.87,1.46-13.74,11.18-20,22.92-24.13l1.09.76c-.09,1.43.39,3.63-.36,4.18-13.65,10.1-13.11,30.11-27.66,39.5A13,13,0,0,1,394.32,526.53Z" transform="translate(-133.31 -240.49)"/><path class="cls-6" d="M396.08,288.68h1.74c4.84,3,10.63,2.62,15.78,4.53,3.17,1.18,6.91,1.66,7.18,6.19a6.14,6.14,0,0,1-3.64,1.78,96.79,96.79,0,0,1-24.61-6.93c-9.37-2.55-16.76-7.37-21.09-16.61-1.68-3.57-5.11-6.16-8.93-8-2.77-1.35-5.89-3-4.91-7.15l0-.09a4.86,4.86,0,0,1,3.55-1.2c5.46.42,9.15,4.06,13.12,7.21.45.36,1.06.7,1.2,1.2C378.58,280,386.31,285.45,396.08,288.68Z" transform="translate(-133.31 -240.49)"/><path class="cls-7" d="M245.69,544c18.93,6.26,38.44,2.88,57.71,3.5.53,1.77,1,3.39-1.86,3.5-14.36.57-28.74-.48-43.15.47C255.2,551.71,248.54,548.91,245.69,544Z" transform="translate(-133.31 -240.49)"/><path class="cls-8" d="M455.51,442.55c0,2.35,0,4.69,0,7-5.61,9.46-11.18,19-19.67,26.25-2.35,2-5.39,1.75-8.27,1.77l-.06-.06c-2.32-4.4,1.31-5.94,3.82-8,2.86-1.64,4.29-4.56,6.24-7,5.22-4.47,10.06-9.17,12.39-16C450.77,444.22,452.08,441.64,455.51,442.55Z" transform="translate(-133.31 -240.49)"/><path class="cls-9" d="M396.08,288.68c-12.72-.34-18.47-8.9-22.74-19.23a12.18,12.18,0,0,1-5.25-8.75c1.52-2.07,3-4.15,5.23-7.16,2,5.84,3.92,10.66,5.23,15.64,2.37,9,6.69,15.52,17,16C400.49,285.47,396.29,287.45,396.08,288.68Z" transform="translate(-133.31 -240.49)"/><path class="cls-1" d="M455.53,337.65l0,1.8c-4.78.8-6.2-3.18-8.31-6-2.22-3-4.23-6.12-6.67-8.93-2.34-5.24-7.49-8.3-10.31-13.18a3.19,3.19,0,0,1,.82-3.4C445.74,312.44,450.08,325.5,455.53,337.65Z" transform="translate(-133.31 -240.49)"/><path class="cls-1" d="M165.25,486.3c1.43-8.79-7-11.79-10.82-17.26-4-5.62-7.76-10.52-6.67-17.71,2.6-.95,3.34,1.28,4.58,2.67,1.65,3,3.9,5.52,5.82,8.3,1,1.54,2.12,3.06,3.06,4.66a15.91,15.91,0,0,0,4.78,5.92,12.43,12.43,0,0,1,2.13,2.71,68.79,68.79,0,0,0,3.16,6.31,8.57,8.57,0,0,1,.66,2.39C171.2,489.89,168.61,489.36,165.25,486.3Z" transform="translate(-133.31 -240.49)"/><path class="cls-10" d="M420.55,299.18c-3.51-4.18-8.87-3.66-13.42-5.06-3.63-1.12-7.29-1.74-9.31-5.43,11-1.28,21,0,27.86,10.28a9.33,9.33,0,0,1,1.87,5.46C423.31,305.22,421.6,302.65,420.55,299.18Z" transform="translate(-133.31 -240.49)"/><path class="cls-11" d="M202,281.7l1.77,1.75c-2,5.63-6.45,9.3-11.28,11.67-4.6,2.26-6.88,5.59-8.65,9.86-2.33,2.58-4,6.44-8.69,4.32a7.11,7.11,0,0,1,.62-6.62c6-5.77,11.09-12.35,18.07-17.14C196.45,283.73,198.44,281.34,202,281.7Z" transform="translate(-133.31 -240.49)"/><path class="cls-12" d="M175.74,302.68v7c1.36,4.37-.64,7.59-3.55,10.5-1.38-4.31-3.27-6.53-6.94-1.75C161.56,308.37,170.75,306.93,175.74,302.68Z" transform="translate(-133.31 -240.49)"/><path class="cls-13" d="M165.25,486.3c2.93.59,6,1.39,5.26-3.51,5.32.66,4.74,5.67,6.6,8.9a5.55,5.55,0,0,1-1.34,5c0,.61,0,1.22,0,1.83C170.63,495.84,165.06,493.54,165.25,486.3Z" transform="translate(-133.31 -240.49)"/><path class="cls-7" d="M231.68,533.53c3.49,5.08,11.39,4.26,14,10.49C239.47,542.59,231.81,543.09,231.68,533.53Z" transform="translate(-133.31 -240.49)"/><path class="cls-14" d="M420.55,299.18l7,5.25,3.48,3.5c0,1.16,0,2.31,0,3.47l-1.13.48c-2.59-.14-4.59-1.62-6.67-2.94-2.61-2.9-7.26-4.53-6.23-9.75Z" transform="translate(-133.31 -240.49)"/><path class="cls-13" d="M151.28,454.82l-3.52-3.49q0-7.87,0-15.73c0-1.75,0-3.5,0-5.25a2.58,2.58,0,0,1,2.68,1C151.86,439.12,154.62,446.87,151.28,454.82Z" transform="translate(-133.31 -240.49)"/><path class="cls-15" d="M385.48,530l3.61,0c-.64,4.55-4.23,3.21-7,3.5L375,535.24C376.17,528.85,380.2,528.18,385.48,530Z" transform="translate(-133.31 -240.49)"/><path class="cls-1" d="M305.14,547.51c2.3-4.77,6.71-3.2,10.5-3.49C313.82,550.23,308.66,546.4,305.14,547.51Z" transform="translate(-133.31 -240.49)"/><path class="cls-15" d="M394.32,526.53a11.15,11.15,0,0,1,5.25-5.25C399.91,525.13,398.17,526.88,394.32,526.53Z" transform="translate(-133.31 -240.49)"/><path class="cls-16" d="M149.46,430.38c-.56,0-1.13,0-1.69,0-9.69-12.66-6.63-27.45-7-41.68-.21-8.16,4.18-13.72,11.53-15.22,6.65-1.36,7.91-5.49,9.41-10.62,4.14-14.07,2.77-29.48,10.47-42.66-.28-4,2-7.12,3.55-10.5l7-5.28c3.16,6.64-5.19,9.82-4.67,15.66a16.88,16.88,0,0,1-.88,3.58c-2,4.43-4.47,8.66-4.9,13.65a17.87,17.87,0,0,1-.65,2.49c-2.62,8.05-2.16,16.54-3.32,24.79-1.11,7.84-4.17,12.15-12.13,13a10.44,10.44,0,0,0-5.49,2.39c-.52.66-1.08,1.29-1.62,1.93-7.09,12.67-3.66,25.67-1.22,38.62.51.65,1,1.33,1.42,2,1.26,2.2,2.3,4.44,1.09,7Z" transform="translate(-133.31 -240.49)"/><path class="cls-17" d="M357.6,262.47a10.4,10.4,0,0,0,6.45,5.38,15.51,15.51,0,0,1,9.47,8.49c3.57,9.14,10.75,13,19.07,15.83-2.54,2.78-5.73,2.32-8.93,1.84a9.42,9.42,0,0,1-2.45-1c-2.88-1.94-5.89-4.21-7.24-7.19-3.53-7.74-9.87-10.64-17.55-11.93-8.75-6.47-16.25-14.28-27.26-18-13.31-4.53-26.31-3.16-39.43-1.59-4.5.54-9,2-13.64,2.16-7.27,1.64-12.17,6.47-16.35,12.25a8.34,8.34,0,0,1-4.69,3.51c-5.43.05-6.61,4.23-8,8.24-3.22,4.88-8.47,3.22-12.94,4.08-2.9.3-5.28,2.75-8.42,2.12a10.33,10.33,0,0,1-2.41-.74c-3.62-3.15-9.25-.37-12.63-4.24,1.73-3.57,5-3.79,8.23-3.45,18.85,2,31.34-9.47,44.07-20.57,5.14-4.49,10.44-8.66,17.76-9.36,8.63-.83,17.18-2.55,25.81-3.26,9.58-.78,18.54.55,27.57,5.3C341.88,254.41,350.41,257.12,357.6,262.47Z" transform="translate(-133.31 -240.49)"/><path class="cls-18" d="M210.67,281.67c4.74.91,10.54-2.39,14,3.52-.54.69-1.26,1.6-2,1.53-11-1.05-18,6.09-25.92,11.81a20.43,20.43,0,0,0-8.39,11.6c-1.67,5.93-5.2,10.74-12.61,10.05-.69-6.59,6.37-9.76,7-15.78.31-5.69,2.09-9.58,8.66-11,5.26-1.14,6.8-8.31,12.36-9.95Z" transform="translate(-133.31 -240.49)"/><path class="cls-19" d="M441.55,323.64c6.63,3.53,7.35,12.26,13.95,15.81,1.38,10.86,2.84,21.68.16,32.61-.73,3-.2,6.21-2.22,9.06a10.82,10.82,0,0,0-.87,10.85c5.3,10.28,3.62,21.89,7.05,32.46,1.67,5.15.25,9.56-4.07,12.95a4.67,4.67,0,0,1-1.5-2.36,10.24,10.24,0,0,1,0-4.27c.81-8.81-2-17.24-4-25.48-2.13-8.78-4.2-17.39-4.31-26.43.09-9.39-.54-18.78.47-28.14,3.76-9.64-3.9-15.69-7.29-23.08a4.64,4.64,0,0,1,.32-3.8A1.56,1.56,0,0,1,441.55,323.64Z" transform="translate(-133.31 -240.49)"/><path class="cls-20" d="M455.51,435.59c0,.6,0,1.19,0,1.79,0,1.73,0,3.45,0,5.18-5.63,5.95-6.36,15.49-14.36,19.7-1,.52-2.07.89-3.1,1.33a3,3,0,0,1-2.39-2.36c.19-3.14,2.59-4.78,4.57-6.71,3.08-2.95,6.31-5.8,6.53-10.54a12.76,12.76,0,0,1,.79-2.3C449.51,438.75,450.58,434.64,455.51,435.59Z" transform="translate(-133.31 -240.49)"/><path class="cls-21" d="M315.64,538.81c0,.56,0,1.12,0,1.68l-5.21,0c-3.44.88-6.86,2.33-10.44.56-2.37-5.06,2.07-5.63,4.83-7.28,18.13-10.86,38-11.68,58.15-9.32,6.28.74,12.78-2.26,18.76,1.35-1.61,7.51-8.53,7.88-13.86,9.1-5.12,1.18-10.56.37-15.93-2.1-9.95-4.59-19.8-.77-29.33,2.64A53.88,53.88,0,0,0,315.64,538.81Z" transform="translate(-133.31 -240.49)"/><path class="cls-22" d="M299.89,540.51l10.52,0c-25,7.3-56.23,9.8-75.25-8.71,2.48-6.46,6.22.56,9.18-.87A108.13,108.13,0,0,0,291,537.8C294.22,537.58,297.38,538.16,299.89,540.51Z" transform="translate(-133.31 -240.49)"/><path class="cls-23" d="M242.2,533.52c-2.76,1.13-3.72-5.15-7-1.7-6.56-5-14.13-8.66-19.2-15.66-4.34-6-11.49-8.47-17.51-12.34.15-3.61,2.7-3.13,5.06-3,11.06,3.66,22.2,7,28.76,18.12,1.5,2.55,6.06,2.2,7.89,5.1S244.64,529.7,242.2,533.52Z" transform="translate(-133.31 -240.49)"/><path class="cls-24" d="M203.71,502c-1.94,0-4-.21-5.26,1.78-7-4-14.7-6.06-22.68-7.09,0-1.7-.05-3.4-.07-5.1a3.42,3.42,0,0,1-.21-3.94c2.67-2,6.42-2.14,7.95-.05,4.61,6.3,12.09,5.94,18,9C203.61,497.77,205.46,499.2,203.71,502Z" transform="translate(-133.31 -240.49)"/><path class="cls-25" d="M315.64,538.81c12.07-9,24.86-11.11,39.48-6.21,9.52,3.18,19.05.74,27-6.07,1.56-9.12,9.87-12,15.74-17.18,3.81-5,4.68-10.66,3.38-16.73.74-6.54,4-11.12,10.32-13.38,2.52-.64,5.22-.89,7.1-3.05,2.22-3.85,5-6.94,9.8-7.38,1.71,0,3.3.28,4.4,1.77-1.75,2.33-5.57,3.09-5.29,7-7.24,3.4-13,8.74-18.92,13.95-3.19,2.8-2,6.48-2.46,9.67-1.48,11.21-7.79,18.77-17,24.43-1.76,1.09-3.51,2-3.69,4.39-3.73,1.28-8.16,1.17-10.47,5.26-5.78,3-12.71,3.49-17.72,1-13.26-6.67-25.17-3.38-37.38,2C318.65,538.77,317.07,538.63,315.64,538.81Z" transform="translate(-133.31 -240.49)"/><path class="cls-26" d="M382.08,292.19l10.51,0,24.45,7,7,8.72a1.72,1.72,0,0,1,.07,2.21c-6.95,4.28-8.61-3.82-13-5.55a22.39,22.39,0,0,1-2.07-1.21c-2.34-2.15-5.25-1.71-8.07-1.75-5.68.47-10.73-1.71-15.78-3.76C382.81,296.88,380.24,295.67,382.08,292.19Z" transform="translate(-133.31 -240.49)"/><path class="cls-27" d="M432.82,470.58l-5.28,0c-1.12-6.95,2.74-8.92,8.74-8.75l1.77,1.78C437.44,466.77,436.88,470,432.82,470.58Z" transform="translate(-133.31 -240.49)"/><path class="cls-14" d="M441.55,323.64l-1.76,0c-4.85-2.69-10.11-5.08-8.77-12.22l.05,0C435.78,314.44,440.35,317.6,441.55,323.64Z" transform="translate(-133.31 -240.49)"/><path class="cls-28" d="M151.28,454.82c-1.21-8.1-2.27-16.21-1.82-24.44l.09,0c2.31-.55,3.52,1.56,3,2.66-2.24,4.66,2.82,1.35,3.09,3.05,1.82,8.47,5.23,16.51,6.68,25.08-1.1,2.61-3.11,3.07-5.61,2.37C155.19,460.43,151.24,458.87,151.28,454.82Z" transform="translate(-133.31 -240.49)"/><path class="cls-29" d="M156.7,463.51l5-1.69c10.69,4.32,17.73,17.49,14,26.22l-.06,3.59c-3.2-2.08-2.44-6.49-5.19-8.84h0c-1.92-1.95-2.2-4.72-3.52-7l-1.74-1.77c-1.69-2.38-4.53-3.89-5.26-7A5.55,5.55,0,0,1,156.7,463.51Z" transform="translate(-133.31 -240.49)"/><path class="cls-13" d="M160,467.06c1.95,2.19,4.83,3.67,5.26,7C162.12,472.77,159.39,471.17,160,467.06Z" transform="translate(-133.31 -240.49)"/><path class="cls-13" d="M167,475.83c2.31,1.75,3.18,4.23,3.52,7C167.36,481.48,166.85,478.83,167,475.83Z" transform="translate(-133.31 -240.49)"/><path class="cls-30" d="M431,311.44c.94,5.5,7,7.3,8.77,12.22v3.48c-4.7-.07-7-5.17-11.49-5.59a7,7,0,0,1-1.93-1.49,12.82,12.82,0,0,1-2.32-10.39c0-.58,0-1.17,0-1.76C427.06,307.75,428.64,310.39,431,311.44Z" transform="translate(-133.31 -240.49)"/><path class="cls-31" d="M175.76,488c1-11.75-8.42-18-14-26.22a42.74,42.74,0,0,1-7-26.23c-3.07-3.65-2.93-9.15-7-12.25h0c-3.37-14.57-4-29.14,0-43.71h0c.71-.52,1.54-.8,2.28-1.24,5.38-3.2,15.43,3,16.82-7.93.81-6.44,5.61-11.89,3.34-19.29-1.22-4-.44-9,.28-13.51h0c2.43-4.41,3.6-9.29,5.24-14,0-1.16,0-2.32,0-3.48,5-3.39,11.45-5.56,10.64-13.61a4.88,4.88,0,0,1,1.7-3.77c10.74-7.58,18.43-21.29,34.86-17.63a7.77,7.77,0,0,0,1.74,0h0c4.74,3.65,5.7-.27,7-3.49,4.59-1.45,10.76,3.4,14-3.5,2.78-2.51,3.89-7.09,8.74-7l3.5-3.49c6.14-3.66,13.16-6.33,15.75-14,12.24.15,23.93-4.2,36.35-3.73,16.46.62,30.69,5.23,42.06,17.45,1.77,1.9,3.68,3.67,5.52,5.51,7.16,1.1,12.66,4.29,15.59,11.39,1.6,3.89,5.4,5.82,8.88,7.85h0c5.84,5.8,13.18,7.08,21,7,1,3.8,5.58.48,7,3.48h0c5.83,5.82,9.09,14.23,17.49,17.48h0a8.1,8.1,0,0,1,2.37,6.35c-.11,5,1.11,7.76,7,6.23,3.67-.95,5.75,1.72,7.14,5,1.48,3.46,3.56,6.68,4.44,10.41q0,15.74,0,31.48c-4.23,7.84-.45,15.24,1.9,22.35,3.06,9.19,3.21,18.58,3.89,28-.13,5-4.85,8-5.78,12.62h0c-1.73,5-5,9.15-7,14a11.35,11.35,0,0,0-5.25,5.24c-3.82,2-7.48,4.18-8.74,8.75-3.21,1.45-6.56,2.76-7,7-2.22,1.4-5.29,1.09-7,3.5-7.29.83-8.85,6.58-10.49,12.24-2.56,5.56-.84,12-3.51,17.49a127.91,127.91,0,0,0-17.48,15.74c-15.7,2.35-31.45-1.52-47.11.11a71.49,71.49,0,0,0-35.08,13.87c-7.48,0-15-.36-22.43.1a56.06,56.06,0,0,1-30.18-6.53c-1.4-.74-3.37-.4-5.08-.56-2-5.18-3-11.35-10.87-10.69-.71.06-2-.57-2.16-1.11-3.39-12.13-13.71-14.28-23.82-16.9-.73-.19-1.1-1.82-1.64-2.78-.05-.28,0-.76-.18-.82C194.06,497.28,186.12,490.1,175.76,488Z" transform="translate(-133.31 -240.49)"/><path class="cls-18" d="M170.49,337.66c3.25,6.84,3.14,14.95,3.12,21.59,0,4.94-3.09,13.28-7.56,18.06-4.71,5-12.12,1.52-18.28,2.32.91-2,2.7-2.69,4.53-3.67,3.83-2,10,.31,11.75-4,2.12-5.15,2.46-11.17,2.84-16.86C167.29,349.05,168,343.19,170.49,337.66Z" transform="translate(-133.31 -240.49)"/><path class="cls-18" d="M147.77,379.63v43.71c-6-10-6-21-4.58-32C143.71,387.36,143.83,382.58,147.77,379.63Z" transform="translate(-133.31 -240.49)"/><path class="cls-18" d="M147.77,423.34c5.37,2.35,7.11,6.77,7,12.25-1.4.63-3.59,4.48-3.5-.87,0-1.68-.17-3.29-1.7-4.37A12.6,12.6,0,0,0,147.77,423.34Z" transform="translate(-133.31 -240.49)"/><path class="cls-18" d="M175.74,323.66c.67,5.57-.21,10.56-5.24,14A18.06,18.06,0,0,1,175.74,323.66Z" transform="translate(-133.31 -240.49)"/><path class="cls-26" d="M382.08,292.19c-4.53.22-8.55-1.85-9.92-5.67-2.62-7.31-8.31-10.56-14.55-13.57,7.44-.37,13.11,1.77,16.43,9.33C375.69,286,379.34,288.91,382.08,292.19Z" transform="translate(-133.31 -240.49)"/><path class="cls-18" d="M231.71,281.7c-.41,2.36,1.14,5.62-2.39,6.58-2.25.61-3.64-1.19-4.62-3.09C228,285.85,229.73,283.58,231.71,281.7Z" transform="translate(-133.31 -240.49)"/><path class="cls-32" d="M448.54,348.15c-4.92-1.55-5.41-6.36-6.81-10.1s-3.31-4.8-6.32-2.76c-8,5.45-7.86-.08-7.86-5.6v-9.52c6.15-1.32,9.07,3.06,12.24,7C445.3,333.07,451.58,338.66,448.54,348.15Z" transform="translate(-133.31 -240.49)"/><path class="cls-20" d="M452,430.34c.49-13.07-.2-25.84-6.27-38-2.12-4.22-1.19-9.15,2.76-12.75-1,14.9,6,28.37,7.66,42.82.39,3.36,2.34,6.59-.65,9.65C453.51,433.22,453,431.3,452,430.34Z" transform="translate(-133.31 -240.49)"/><path class="cls-33" d="M452,430.34l3.5,1.76c0,1.16,0,2.33,0,3.49-3.41,1.25-4.44,4.88-7,7C446.93,437.71,452.56,434.91,452,430.34Z" transform="translate(-133.31 -240.49)"/><path class="cls-33" d="M441.53,456.57c.42-5.62,2-10.64,7-14C450.16,449.23,445.13,452.54,441.53,456.57Z" transform="translate(-133.31 -240.49)"/><path class="cls-34" d="M399.56,510.79c0-5,.09-10,0-14.93-.07-2.78,1-3.61,3.53-2.56C405.78,499.91,403.4,505.5,399.56,510.79Z" transform="translate(-133.31 -240.49)"/><path class="cls-27" d="M413.56,481.06c.63-4.57,4.23-3.21,7-3.5A9.76,9.76,0,0,1,413.56,481.06Z" transform="translate(-133.31 -240.49)"/><path class="cls-35" d="M427.55,320.16c-8.74-.2-16.27-7.73-17.49-17.48,3,.14,6.35-.66,7.14,3.9.7,4,4.21,2.81,6.85,3.09C426.59,312.71,426.3,316.69,427.55,320.16Z" transform="translate(-133.31 -240.49)"/><path class="cls-35" d="M410.06,302.67a49.87,49.87,0,0,1-6.7-.05c-4.62-.62-.29-2.26-.3-3.43C405.83,299.47,409.43,298.1,410.06,302.67Z" transform="translate(-133.31 -240.49)"/><path class="cls-36" d="M284.16,470.57c4.65,0,9.31,0,14,0,2,0,4,.46,4.05-2.91,0-2.91-.81-3.5-3.67-4.28a99,99,0,0,0-31.88-3.26c-4.47.24-8.87-1.48-6.56-6,3-5.78.19-10.33-.44-15.35-1-7.84,1.68-11.59,9.95-10.18a51.59,51.59,0,0,0,5.25.36c-.86-3.12-.5-6.54-4.27-7.23-8.3-1.51-9.29-8.46-7.85-14,2-7.7-2.55-13.41-3.28-20.12-.24-2.15-2.55-3.38-3.79-2.48-9.39,6.75-13.44-4-19.88-6.28-5.24-1.85-2.82-8.8-3.16-13.32-.3-3.91,3.91-5.19,7.73-5.16,2.91,0,5.83-.13,8.73,0,6.58.34,10.81-1.86,10.65-9.25-.07-3.2.85-6.12,4.52-6.31,11.9-.61,12.58-10.4,14.43-18.38,1.16-5,1.62-9.21,7.62-9.72,8.16-.7,14.71,3.07,15.26,9.35.39,4.41,2.81,5.74,6.41,7,9.1,3.1,18.22,5.26,28,4.7,9.28-.53,18.61-.16,27.92-.08,2.18,0,5.28-.65,5.42,2.72s-2.67,4.17-5.47,4.18c-12.22.06-24.45.36-36.66-.06-7.23-.25-11.39,2.4-11.41,9.64,0,6.44-3.69,7.86-8.93,7.95-1.45,0-2.91,0-4.36,0-15.42,0-15.42,0-9.58,13.95a16.38,16.38,0,0,0-2.8,11.37,20.76,20.76,0,0,1-1,6.41c-1.53,10.66-3.47,21.3-1.59,32.11.58,2.42,1,4.89,1.73,7.27,3.86,7.16,6.1,7.58,18,3.29a8.38,8.38,0,0,1,2.38-.42c4.41-.09,2.79,5.45,6,6.46,1.42,1.25,1.62,4.35.54,3.84-7.42-3.51-11.43,6.35-18.35,4.06,6,5,11.17,8,19.73,3.63,6.62-3.39,15.39-1.38,23.14-.63,4.06.39,3.16,4.51,2.71,7.1-1,5.69-6.51,3.48-9.95,4.84-.55.22-2.47-.66-3.83-.1,1.86,3,3.57,5.66,8.15,4.23,1.55-.49,5.49-1.45,5.84,2.75-3.63,3.56-8.25,3-12,1.43-7.48-3.2-13.82-1.46-20.08,2.63-9.07-1.15-18.53,2-27.35-2.32v-3.47Z" transform="translate(-133.31 -240.49)"/><path class="cls-36" d="M299.9,376.13a79.59,79.59,0,0,1,6.84-5.25c2.46-1.52,3.3-6.71,7.41-4.26,2.85,1.7,1.5,5.39,1.4,8.14-.24,7-.56,13.79,9.3,14.19a3.56,3.56,0,0,1,2.7,2c1.66,7.4,5.73,10,13.36,8.41,2.74-.57,2.72,3.19,2.66,5.47-.1,3.36,1,8.77-3,8.87-4.69.12-9.24,5.65-14.12.75-1-1-2.21-.48-2.86.67s-.08,2.22.94,3c2.36,1.69,4.87,3.2,7.07,5.08a4.16,4.16,0,0,1,.86,5.58c-1.53,2.31-4.05,1.79-6.33,1.14-1-.28-.94-.42,1-2.13.38-.33,1.28-.56,1.25-.76-.42-3.4-3.85-4.09-5.71-6.23-2.15-2.5-3.91-2-5.23.87-10.9-1.87-17.54-8.28-20.14-19a5.94,5.94,0,0,1-.08-3.54c2.14-3.09,2.35-6.67,2.6-10.25,0-.12-.15-.25-.23-.38l-.69.48a3.5,3.5,0,0,1-2.12-.85C293.6,383,297.39,379.73,299.9,376.13Z" transform="translate(-133.31 -240.49)"/><path class="cls-37" d="M287.64,434.07c-2.32-2-1.15-4.79-1.64-7.21-2.61-11.24.89-22.17,1.66-33.25l.18-6.34a8.86,8.86,0,0,0,.7-4.16c0-2.53.56-4.67,3.64-4.52,2.86.15,3.87,2,3.51,4.69s.66,5,1.67,7.36a8,8,0,0,1,.43,2.8c-2.22,7.44-.7,14.86.07,22.32.68,6.63,2.55,10.48,10.19,6.54a6.73,6.73,0,0,1,9.23,2.41c1.81,2.85,1.35,5.53-1.76,7.39l-1.63,1.69c-1.29,2-3.59,2.37-5.56,3.27l.19-.09C296.83,442.34,292,441.66,287.64,434.07Z" transform="translate(-133.31 -240.49)"/><path class="cls-38" d="M259.46,486.39c-2.51-.14-3-2.87-5-3.78,0-3.89,1.91-4.74,5.26-3.35l0,0c3.29,2.27,6.77,3.64,10.8,2.11,1-.53,2-1,3.09-1.51,2.93-1.06,5.8-2.25,8.64-3.55a10.81,10.81,0,0,1,2.46-.41,77.17,77.17,0,0,1,11.68.18c6,1.06,12.22,3.66,17.38-2.18,9.78-6.17,19.65.3,29.47.16,4.64-.07,4.42,5.85-.69,11.36a39.21,39.21,0,0,1-18.89.28,10.25,10.25,0,0,0-9,1.84c-5.52,2.65-10.74-.68-16.12-.78a19,19,0,0,1-2.48-.57c-5.22-1.8-10.16-1.39-14.73,1.93-2.6,1.55-5.15,3.22-8.31,3.4C267.67,492.06,263.52,489.35,259.46,486.39Z" transform="translate(-133.31 -240.49)"/><path class="cls-36" d="M273.87,481.07l-1.93,1.59c-3.9,1.78-7.1,1.49-8.88-3-1.49-3.27-2.15-8.28-7.51-5.48-3.54,1.86-9.76,1.78-7.42,9.37,1.94,6.3-1.73,10.69-7.65,13.29-4.24,1.85-8.3,3-12-.76-1.55-1.55-4.15-2.95-2.77-5.73,1.21-2.41,3-4.18,6.3-3.07,5.64,1.91,9.07-.49,10.14-6.07.53-2.74,2.32-3.86,4.36-5,2.46-1.33,3.39-3.48,2.1-5.8s-2.53-3.93-.12-6c1.89,2.58,5.48-.4,6.37,1,5.14,8,10.07,3.45,16.37-1.4-3.73,14.33,5.25,10,11.22,10.06a2.71,2.71,0,0,1,1,1.77,2.14,2.14,0,0,1-1.16,1.6l.13-.05C279.78,479.2,276.47,479.31,273.87,481.07Z" transform="translate(-133.31 -240.49)"/><path class="cls-39" d="M314.27,486.45c8.7-6.23,18.31-.12,27.33-2a2.83,2.83,0,0,1,3.77.13c-1.17,2.31-1.9,4.4-5.65,3.77-6.81-1.14-14,2.59-20.79-1.4-.51-.31-2.87,1.18-3.3,2.26-2.64,6.65-6.54,4.42-10.85,2-3.88-2.17-4-2-4.94,2.31-.64,2.85-2.75,1.37-3.92.95-2.8-1-4.93-4.33-9-2,1.26,1.51,2.43,2.94,4.37,5.28-3.78,0-6.6.4-9.2-.16-1.49-.32,3.31-4.12-1.18-4-1.78.05-4.66,3-5.08,2.58-4.07-3.91-11.45-.83-14.28-6.92,4.31-2,8.25,3.31,12.6.66l6.49-3.78a3.85,3.85,0,0,1,3.47-.56,5.82,5.82,0,0,0,4.8,1.57c-1.42-.41-3.8.33-3.1-2.61,3.53-1.33,7-1.7,10.49.24l-.16-.11C302.21,485.2,308,488.81,314.27,486.45Z" transform="translate(-133.31 -240.49)"/><path class="cls-40" d="M315.52,432.1c.74-2.63,2.86-5.41-.23-7.77-2.43-1.86-5-.44-7.39.4-10.93,3.85-11,3.88-12.11-7.54a92.89,92.89,0,0,1,.33-24.08c4,5.81-1,12.23,1.3,17.12.27-1.92-1-5,.74-7.87,6.58-.15.62,7.59,6.59,10a33.69,33.69,0,0,1,12.63,9.25C318.68,425.44,322.06,429.65,315.52,432.1Z" transform="translate(-133.31 -240.49)"/><path class="cls-41" d="M345.37,484.59l-3.77-.13c2.08-1.86,5.08-3.37,3.59-6.93-1.36-3.2-4.37-3.77-7.26-3.06-8,2-16.37-5-24.08,1.22a2.56,2.56,0,0,1-3,.78l-.68-.89c5.64-5.83,12-8.44,19.93-4.63,4.34,2.1,9,1.1,13.5,1.35C349.53,475.63,350.35,479.7,345.37,484.59Z" transform="translate(-133.31 -240.49)"/><path class="cls-40" d="M296.12,392.36a34,34,0,0,0-.88-4.15c-1-2.93,1.47-8.07-3.32-8.4-4.23-.29-2.08,5.21-4.08,7.46.2-4.4-2.18-10,5.05-11.18,2.34.59,4.69-3,7,0,2,4.45-4.87,7.63-1.75,12.24C298.26,390.11,297.85,391.57,296.12,392.36Z" transform="translate(-133.31 -240.49)"/><path class="cls-42" d="M236.94,381.73c2.91.95,5.5,2.73,5.42,5.8a5.46,5.46,0,0,1-6.26,5.55c-2.77-.24-4.75-2.12-4.16-5.31C232.46,384.93,233.37,382.21,236.94,381.73Z" transform="translate(-133.31 -240.49)"/><path class="cls-41" d="M282.57,476.19l-.16-2.13,1.75,0c7.13-2.2,14.67,2.85,21.82-1.42,1.9-1.14,1.3,4,4.2,3l.55.66c-3.52,4.33-8.18,1.44-12.31,1.93C293.47,474.91,287.73,477.88,282.57,476.19Z" transform="translate(-133.31 -240.49)"/><path class="cls-43" d="M308.33,437.06a7.11,7.11,0,0,1,5.56-3.27c2.3,2.59.07,6.07,1.74,8.79C311.65,442.78,312.35,436.81,308.33,437.06Z" transform="translate(-133.31 -240.49)"/><path class="cls-44" d="M386.45,390.05c-2.06-.13-3.66-.77-4.1-2.75a2.41,2.41,0,0,1,2.18-3.12,3.9,3.9,0,0,1,3.9,2.85C389,388.88,387.67,389.53,386.45,390.05Z" transform="translate(-133.31 -240.49)"/><path class="cls-45" d="M263.06,479.65c2.26,3.06,5.75,2.52,8.88,3-5.56,4.16-9.23,1.55-12.23-3.43Z" transform="translate(-133.31 -240.49)"/><path class="cls-45" d="M274.18,490c-4.38,3.19-8.41-.17-12.6-.66l-2.12-2.95Z" transform="translate(-133.31 -240.49)"/><path class="cls-36" d="M284.16,470.57c-3-.18-5.67,3.11-9.11.81,3-2.46,5.81-3.95,9.11-.81Z" transform="translate(-133.31 -240.49)"/><path class="cls-45" d="M259.75,479.26a5.55,5.55,0,0,0-5.26,3.35c-2.63-.42-3.53-2.38-2-4.05C254.77,476.19,257.53,476.94,259.75,479.26Z" transform="translate(-133.31 -240.49)"/><path class="cls-36" d="M286.62,466.74c-2.16.64-4.23.82-6.1-.72A5.1,5.1,0,0,1,286.62,466.74Z" transform="translate(-133.31 -240.49)"/><path class="cls-46" d="M287.66,393.61q-.82,16.63-1.66,33.25c-2.91-2.52-1.59-5.93-1.82-9-.52-6.82,3.21-13.52.38-20.5C284,395.89,286,394.42,287.66,393.61Z" transform="translate(-133.31 -240.49)"/><path class="cls-43" d="M287.64,434.07c6,8,13.56,4.53,20.88,2.9C298.87,444.61,290,443.38,287.64,434.07Z" transform="translate(-133.31 -240.49)"/><path class="cls-31" d="M324.66,462.72c.22-2.05,1.08-3.41,2.53-3.52,2.45-.18,2.39,1.94,2.36,3.58,0,1,1.18,3-1.63,2.51C326.07,464.94,324.7,464.39,324.66,462.72Z" transform="translate(-133.31 -240.49)"/><path class="cls-31" d="M238.71,373.93c-.28,1.23.21,2.81-1.59,2.46-.57-.11-1.23-1.13-1.35-1.82a1.73,1.73,0,0,1,1.76-2.24C238,372.35,238.38,373.45,238.71,373.93Z" transform="translate(-133.31 -240.49)"/><path class="cls-47" d="M296.12,392.36l2-4,1.73,0c1.29,3.79.22,7.2-1.72,10.47v13.66l-2,0V393.11l-.27-.37Z" transform="translate(-133.31 -240.49)"/><path class="cls-31" d="M321.5,397a2.27,2.27,0,0,1-2.26,3,2.71,2.71,0,0,1-2.95-2.59,2.63,2.63,0,0,1,2.37-3.09C320.57,394,320.85,395.79,321.5,397Z" transform="translate(-133.31 -240.49)"/><path class="cls-40" d="M298.16,398.86c-.61-3.69,1.15-7,1.72-10.47C302.6,392.42,303.51,396.15,298.16,398.86Z" transform="translate(-133.31 -240.49)"/><path class="cls-48" d="M298.31,477.5c4.09-.92,8.58,2.2,12.42-1.25l3.12-.56c-5.17,6.12-11.37,3.91-17.51,2.17C296.82,476.78,297.48,476.66,298.31,477.5Z" transform="translate(-133.31 -240.49)"/><path class="cls-49" d="M314.27,486.45c-6.54,4.81-12.12-.62-18.1-1.7C302.37,483.55,308.12,487.15,314.27,486.45Z" transform="translate(-133.31 -240.49)"/><path class="cls-49" d="M284.18,486.38l-3.51-.16c4.9-4.22,10.08-5,15.66-1.36-3.62.41-7.47-1.21-10.86,1.22C285.22,487,284.8,487.09,284.18,486.38Z" transform="translate(-133.31 -240.49)"/><path class="cls-49" d="M298.31,477.5l-2,.36-14.12-.43c.11-.41.23-.83.35-1.24C287.85,476.27,293.24,475,298.31,477.5Z" transform="translate(-133.31 -240.49)"/><path class="cls-49" d="M273.87,481.07c2.14-2.81,5.21-3.47,8.48-3.69C280.29,480.36,277.25,481.1,273.87,481.07Z" transform="translate(-133.31 -240.49)"/><path class="cls-50" d="M284.18,486.38a1,1,0,0,1,1.29-.3l7.28.66C289.76,488.12,286.83,488.9,284.18,486.38Z" transform="translate(-133.31 -240.49)"/><path class="cls-51" d="M298.42,419.75l4.29,3.91c-.66.38-1.37,1.14-2,1.07C297.92,424.4,298.2,422.27,298.42,419.75Z" transform="translate(-133.31 -240.49)"/></svg>